<svg width="30" height="30" viewBox="0 0 30 30" fill="none" xmlns="http://www.w3.org/2000/svg">
<g id="explore 1" clip-path="url(#clip0_0_1541)">
<g id="Group">
<path id="Vector" d="M12.9959 8.1754C12.9119 8.03528 12.7905 7.92133 12.6454 7.84631C12.5003 7.77129 12.3371 7.73817 12.1742 7.75066L5.03197 8.30237C4.30887 8.35827 3.66476 8.73725 3.26468 9.34229L0.267342 13.8758C-0.0359953 14.3346 -0.0842762 14.9088 0.138261 15.4117C0.36074 15.9147 0.818061 16.2651 1.36151 16.3493L7.15287 17.2463C7.32134 17.2724 7.49376 17.2489 7.64913 17.1788C7.80449 17.1086 7.93611 16.9948 8.02796 16.8512L12.9824 9.1003C13.0704 8.96261 13.1183 8.80314 13.1207 8.63976C13.123 8.47639 13.0798 8.31559 12.9959 8.1754Z" fill="#F64749"/>
<path id="Vector_2" d="M21.8245 17.0041C21.6843 16.9201 21.5235 16.8769 21.3601 16.8793C21.1968 16.8817 21.0373 16.9296 20.8996 17.0175L13.1488 21.972C13.0051 22.0638 12.8913 22.1955 12.8211 22.3508C12.751 22.5062 12.7275 22.6786 12.7536 22.8471L13.6505 28.6385C13.7347 29.182 14.0852 29.6392 14.5882 29.8618C14.7933 29.9527 15.015 29.9998 15.2393 29.9999C15.5541 29.9997 15.8619 29.9068 16.1241 29.7327L20.6577 26.7353C21.2627 26.3353 21.6418 25.6912 21.6975 24.968L22.2493 17.8258C22.2618 17.6629 22.2288 17.4997 22.1537 17.3545C22.0787 17.2094 21.9647 17.088 21.8245 17.0041Z" fill="#F64749"/>
<path id="Vector_3" d="M11.3009 24.1567C11.6507 24.5065 12.1477 24.6702 12.6356 24.5886C19.7906 23.3922 25.4524 17.4682 27.6079 13.3009C30.0013 8.67351 30.09 3.78355 29.9649 1.4902C29.922 0.704351 29.2956 0.0779299 28.5097 0.0350397C26.2164 -0.0899984 21.3265 -0.00134674 16.6991 2.39213C12.5318 4.5476 6.6078 10.2094 5.41144 17.3644C5.32988 17.8523 5.49347 18.3493 5.84327 18.6991L11.3009 24.1567Z" fill="#FFE3E6"/>
<path id="Vector_4" d="M29.5159 0.484039L8.57205 21.4279L11.3009 24.1567C11.6507 24.5065 12.1477 24.6701 12.6356 24.5886C19.7906 23.3922 25.4524 17.4682 27.6078 13.3009C30.0013 8.67357 30.09 3.7836 29.9649 1.49026C29.9446 1.11092 29.7847 0.752497 29.5159 0.484039Z" fill="#D7D6FB"/>
<path id="Vector_5" d="M20.5505 13.842C19.425 13.842 18.2999 13.4137 17.4431 12.5569C16.6131 11.7269 16.1559 10.6233 16.1559 9.44951C16.1559 8.27571 16.6131 7.17211 17.4431 6.34214C19.1564 4.62875 21.9444 4.62869 23.6578 6.34214C24.4878 7.17211 24.9449 8.27571 24.9449 9.44951C24.9449 10.6233 24.4878 11.7269 23.6578 12.5569C22.8012 13.4135 21.6756 13.8418 20.5505 13.842ZM5.41144 17.3644C5.32988 17.8523 5.49347 18.3493 5.84327 18.6991L11.3009 24.1567C11.6507 24.5065 12.1477 24.6701 12.6356 24.5886C14.1925 24.3282 15.6786 23.8439 17.0733 23.2027L6.79729 12.9267C6.1561 14.3214 5.67177 15.8075 5.41144 17.3644Z" fill="#466288"/>
<path id="Vector_6" d="M0.89669 24.7227C1.12157 24.7227 1.34657 24.6369 1.51813 24.4653L4.38762 21.5958C4.73086 21.2526 4.73086 20.6961 4.38762 20.3528C4.04444 20.0096 3.48798 20.0096 3.14468 20.3528L0.275249 23.2223C-0.0679902 23.5655 -0.0679902 24.122 0.275249 24.4653C0.356755 24.547 0.453618 24.6119 0.560268 24.656C0.666918 24.7002 0.78125 24.7229 0.89669 24.7227ZM7.01735 22.9826C6.67416 22.6394 6.11765 22.6394 5.77441 22.9826L0.257613 28.4994C-0.0856268 28.8426 -0.0856268 29.3991 0.257613 29.7424C0.429233 29.914 0.654172 29.9998 0.879112 29.9998C1.10405 29.9998 1.32899 29.9139 1.50055 29.7423L7.01735 24.2255C7.36058 23.8823 7.36058 23.3258 7.01735 22.9826Z" fill="#F9AF0B"/>
<path id="Vector_7" d="M9.64709 25.6124C9.30391 25.2692 8.74739 25.2692 8.40415 25.6124L5.53472 28.4818C5.19148 28.825 5.19148 29.3815 5.53472 29.7247C5.70634 29.8963 5.93128 29.9822 6.15616 29.9822C6.38104 29.9822 6.60604 29.8963 6.7776 29.7247L9.64709 26.8552C9.99033 26.5121 9.99033 25.9555 9.64709 25.6124ZM0.257629 29.7424C0.429249 29.914 0.654189 29.9998 0.879129 29.9998C1.10407 29.9998 1.32901 29.9139 1.50057 29.7423L7.01736 24.2255C7.3606 23.8823 7.3606 23.3258 7.01736 22.9826L0.257629 29.7424Z" fill="#F9AF0B"/>
<path id="Vector_8" d="M8.57205 21.4279L11.3009 24.1567C11.6507 24.5065 12.1477 24.6701 12.6356 24.5886C14.1925 24.3282 15.6785 23.8439 17.0733 23.2027L11.9353 18.0647L8.57205 21.4279ZM17.4431 12.5569C18.2999 13.4137 19.4249 13.8421 20.5505 13.842C21.6756 13.8418 22.8012 13.4135 23.6578 12.5569C24.4878 11.7269 24.9449 10.6233 24.9449 9.44951C24.9449 8.27571 24.4878 7.17211 23.6578 6.34213L17.4431 12.5569Z" fill="#354A67"/>
<path id="Vector_9" d="M20.5504 6.8141C19.8752 6.8141 19.2 7.07109 18.686 7.58514C18.188 8.08313 17.9137 8.74523 17.9137 9.44953C17.9137 10.1538 18.188 10.8159 18.686 11.3139C19.714 12.342 21.3869 12.342 22.4149 11.3139C22.9129 10.8159 23.1872 10.1538 23.1872 9.44947C23.1872 8.74518 22.9129 8.08307 22.4149 7.58508C21.9009 7.07109 21.2257 6.8141 20.5504 6.8141Z" fill="#4BBEFD"/>
<path id="Vector_10" d="M22.4149 7.58514L18.686 11.314C19.7141 12.342 21.3869 12.3421 22.4149 11.314C22.9129 10.8159 23.1871 10.1538 23.1871 9.44953C23.1871 8.74523 22.9129 8.08312 22.4149 7.58514Z" fill="#2EC2F1"/>
</g>
</g>
<defs>
<clipPath id="clip0_0_1541">
<rect width="30" height="30" fill="white"/>
</clipPath>
</defs>
</svg>
