<svg width="24" height="24" viewBox="0 0 24 24" fill="none" xmlns="http://www.w3.org/2000/svg">
<g id="behance 3" clip-path="url(#clip0_3_245)">
<g id="Group">
<path id="Vector" d="M12.363 14.947C12.363 13.099 11.484 11.733 9.668 11.221C10.993 10.59 11.684 9.634 11.684 8.147C11.684 5.215 9.492 4.5 6.963 4.5H0V19.221H7.158C9.842 19.221 12.363 17.938 12.363 14.947ZM3.246 7.013H6.292C7.463 7.013 8.517 7.341 8.517 8.695C8.517 9.945 7.697 10.448 6.537 10.448H3.246V7.013ZM3.245 16.721V12.667H6.783C8.212 12.667 9.116 13.261 9.116 14.769C9.116 16.256 8.037 16.721 6.716 16.721H3.245ZM18.796 19.5C21.35 19.5 23.004 18.353 23.8 15.915H21.208C20.929 16.825 19.779 17.306 18.887 17.306C17.166 17.306 16.262 16.301 16.262 14.593H23.975C24.219 11.175 22.315 8.262 18.795 8.262C15.536 8.262 13.324 10.704 13.324 13.903C13.324 17.223 15.42 19.5 18.796 19.5ZM18.704 10.474C20.179 10.474 20.921 11.338 21.045 12.751H16.266C16.363 11.35 17.296 10.474 18.704 10.474ZM15.667 5.273H21.655V6.723H15.667V5.273Z" fill="#F64749"/>
</g>
</g>
<defs>
<clipPath id="clip0_3_245">
<rect width="24" height="24" fill="white"/>
</clipPath>
</defs>
</svg>
