<svg width="40" height="40" viewBox="0 0 40 40" fill="none" xmlns="http://www.w3.org/2000/svg">
<g id="consulting 1" clip-path="url(#clip0_0_857)">
<g id="Group">
<path id="Vector" d="M20 40C31.0457 40 40 31.0457 40 20C40 8.9543 31.0457 0 20 0C8.9543 0 0 8.9543 0 20C0 31.0457 8.9543 40 20 40Z" fill="#FFDB45"/>
<path id="Vector_2" d="M25.1778 2.61418C22.6723 1.17395 19.949 0.386367 17.2134 0.194336C7.48695 1.55043 0 9.90027 0 20.0001C0 27.0014 3.59828 33.1612 9.04555 36.7343C9.13391 36.738 9.22219 36.7536 9.30734 36.7846C17.7679 39.8645 27.4725 36.528 32.1301 28.4608C37.3574 19.4069 34.2456 7.82676 25.1778 2.61418Z" fill="#EAF3F9"/>
<path id="Vector_3" d="M4.79859 15.782C4.79859 10.6943 6.79211 6.07241 10.0402 2.65405C4.04016 6.10601 0 12.5808 0 20.0001C0 27.0013 3.59828 33.1612 9.04555 36.7343C9.13391 36.738 9.22219 36.7536 9.30734 36.7845C15.067 38.8812 21.4027 38.0033 26.3306 34.6846C14.8634 36.1687 4.79859 27.2417 4.79859 15.782Z" fill="#C6E0F4"/>
<path id="Vector_4" d="M25.8175 14.4268C27.259 15.3512 28.2151 16.9665 28.2151 18.8061C28.2151 20.6433 27.2616 22.2566 25.8234 23.1816C25.8218 23.1827 25.8206 23.1843 25.8201 23.1861C25.8195 23.188 25.8197 23.19 25.8205 23.1918C26.3756 24.3602 26.4449 25.8043 25.7596 27.2645C25.4006 28.0294 24.7955 28.6568 24.0464 29.0478C22.7883 29.7043 21.5464 29.7711 20.4687 29.4543C20.4686 29.4543 20.4685 29.4543 20.4683 29.4543C20.4682 29.4543 20.4681 29.4544 20.468 29.4545C20.4679 29.4545 20.4678 29.4546 20.4677 29.4548C20.4676 29.4549 20.4676 29.455 20.4676 29.4551C20.2946 31.0693 18.9424 32.3307 17.2893 32.3599C17.0046 32.3651 16.7206 32.3316 16.4449 32.2605C16.0381 32.1555 15.7555 31.7862 15.7555 31.3661V6.24622C15.7555 5.82614 16.0382 5.45685 16.4449 5.35185C16.7206 5.28073 17.0046 5.2473 17.2893 5.25247C18.9399 5.28169 20.2905 6.53927 20.4668 8.14997C20.4669 8.151 20.4672 8.15199 20.4678 8.15287C20.4683 8.15376 20.469 8.15451 20.4699 8.15509C20.4707 8.15566 20.4717 8.15604 20.4727 8.1562C20.4737 8.15635 20.4748 8.15628 20.4758 8.15599C21.5533 7.84099 22.7958 7.90982 24.0519 8.56771C24.8 8.9595 25.404 9.58739 25.7619 10.3522C26.4458 11.8135 26.3749 13.2584 25.8175 14.4268Z" fill="#F9918F"/>
<path id="Vector_5" d="M22.8864 18.0834C22.7225 18.0834 22.5638 18.0255 22.4385 17.9199C22.3132 17.8142 22.2292 17.6677 22.2015 17.5061C22.1738 17.3446 22.2041 17.1784 22.2871 17.037C22.37 16.8957 22.5003 16.7882 22.6548 16.7336C23.1363 16.5633 23.4598 16.1059 23.4598 15.5951C23.4598 15.0843 23.1362 14.6268 22.6548 14.4566C22.4832 14.3936 22.3434 14.2655 22.2656 14.1001C22.1878 13.9347 22.1783 13.7452 22.2393 13.5729C22.3002 13.4005 22.4266 13.2591 22.591 13.1793C22.7555 13.0995 22.9448 13.0878 23.1179 13.1466C23.854 13.4068 24.4167 13.9799 24.6816 14.6837C25.0489 14.6936 25.4769 14.5731 25.8176 14.4268C26.2367 14.6967 26.6155 15.0245 26.9428 15.4006C26.3693 15.7733 25.5548 16.0441 24.8044 16.0654C24.5628 17.3717 23.39 18.0834 22.8864 18.0834ZM17.0144 18.224C17.2216 17.9011 17.6514 17.8075 17.9743 18.0147C18.3362 18.247 18.7372 18.3701 19.0291 18.4345C19.1951 18.0793 19.3481 17.8357 19.3841 17.7798C19.5923 17.4575 20.0223 17.3648 20.3445 17.5729C20.4212 17.6224 20.4873 17.6865 20.5392 17.7615C20.5911 17.8365 20.6277 17.9211 20.6469 18.0102C20.6661 18.0994 20.6676 18.1915 20.6512 18.2812C20.6348 18.371 20.6009 18.4566 20.5514 18.5333C20.5452 18.5429 19.9295 19.5204 19.9295 20.3704C19.9295 20.7541 19.6185 21.0651 19.2348 21.0651C18.8512 21.0651 18.5402 20.7542 18.5402 20.3704C18.5402 20.164 18.5612 19.9589 18.5962 19.7593C18.1973 19.66 17.6952 19.4863 17.2237 19.1838C17.147 19.1345 17.0807 19.0706 17.0286 18.9957C16.9765 18.9208 16.9397 18.8364 16.9202 18.7473C16.9008 18.6582 16.8991 18.5661 16.9153 18.4763C16.9314 18.3865 16.9651 18.3008 17.0144 18.224ZM19.2771 13.714C19.1292 13.7138 18.9853 13.6666 18.8661 13.579C18.7469 13.4915 18.6588 13.3682 18.6144 13.2272C18.5871 13.1401 18.5772 13.0486 18.5853 12.9577C18.5933 12.8668 18.6192 12.7784 18.6614 12.6976C18.7037 12.6167 18.7614 12.5449 18.8314 12.4864C18.9014 12.4279 18.9822 12.3837 19.0692 12.3564C19.0963 12.3478 19.7329 12.1407 19.6875 11.5167C19.6798 11.4252 19.6904 11.333 19.7186 11.2456C19.7468 11.1582 19.7921 11.0772 19.8518 11.0074C19.9114 10.9376 19.9844 10.8803 20.0664 10.8389C20.1483 10.7975 20.2377 10.7727 20.3293 10.766C20.4209 10.7593 20.5129 10.7709 20.6 10.8C20.6871 10.8291 20.7676 10.8752 20.8368 10.9357C20.906 10.9961 20.9625 11.0696 21.003 11.152C21.0436 11.2345 21.0674 11.3241 21.0731 11.4158C21.1827 12.9199 19.7794 13.714 19.2771 13.714ZM5.69343 14.4268C4.25195 15.3512 3.29578 16.9665 3.29578 18.8061C3.29578 20.6433 4.24929 22.2566 5.6875 23.1816C5.68912 23.1827 5.69031 23.1843 5.69084 23.1861C5.69137 23.188 5.69121 23.19 5.69039 23.1918C5.13523 24.3602 5.06601 25.8043 5.75132 27.2645C6.11031 28.0294 6.71546 28.6568 7.46453 29.0478C8.72265 29.7043 9.96453 29.7711 11.0422 29.4543C11.0423 29.4543 11.0424 29.4543 11.0426 29.4543C11.0427 29.4543 11.0428 29.4544 11.0429 29.4545C11.0431 29.4545 11.0431 29.4546 11.0432 29.4548C11.0433 29.4549 11.0433 29.455 11.0434 29.4551C11.2163 31.0693 12.5685 32.3307 14.2216 32.3599C14.5063 32.3651 14.7903 32.3316 15.066 32.2605C15.4728 32.1555 15.7555 31.7862 15.7555 31.3661V6.24622C15.7555 5.82614 15.4727 5.45685 15.066 5.35185C14.7903 5.28073 14.5063 5.2473 14.2216 5.25247C12.571 5.28169 11.2204 6.53927 11.0441 8.14997C11.044 8.15099 11.0437 8.15197 11.0432 8.15285C11.0426 8.15373 11.0419 8.15448 11.0411 8.15505C11.0402 8.15562 11.0393 8.156 11.0383 8.15617C11.0372 8.15633 11.0362 8.15627 11.0352 8.15599C9.95773 7.84099 8.71523 7.90982 7.45914 8.56771C6.71101 8.9595 6.10703 9.58739 5.74906 10.3522C5.06515 11.8135 5.13601 13.2584 5.69343 14.4268Z" fill="#F57374"/>
<path id="Vector_6" d="M14.0189 29.9973C13.9368 29.7086 13.6469 29.534 13.3505 29.5815C12.5397 29.7111 11.6572 29.6251 10.7578 29.2469C9.69228 28.7989 8.84993 27.9289 8.4454 26.8461C8.01673 25.6986 8.04165 24.5764 8.38829 23.6071C8.4772 23.3583 8.39876 23.0834 8.18978 22.9219C6.95915 21.9711 6.16603 20.4817 6.16603 18.8062C6.16603 16.9666 7.1222 15.3513 8.56368 14.4269C8.05946 13.3701 7.95337 12.0871 8.44368 10.7704C8.84697 9.68747 9.68814 8.81685 10.7528 8.36763C11.6514 7.98849 12.5342 7.9013 13.345 8.03005C13.6445 8.07763 13.9369 7.9013 14.0204 7.60966C14.2581 6.77958 14.8172 6.0856 15.5542 5.67005C15.4305 5.51356 15.2591 5.40182 15.0659 5.35185C14.7903 5.28073 14.5062 5.2473 14.2216 5.25247C12.5709 5.28169 11.2203 6.53927 11.0441 8.14997C11.044 8.15099 11.0436 8.15197 11.0431 8.15285C11.0426 8.15373 11.0419 8.15448 11.041 8.15505C11.0402 8.15562 11.0392 8.156 11.0382 8.15617C11.0372 8.15633 11.0362 8.15627 11.0352 8.15599C9.95767 7.84099 8.71517 7.90982 7.45907 8.56771C6.71095 8.9595 6.10697 9.58739 5.749 10.3522C5.06509 11.8135 5.13595 13.2585 5.69337 14.4268C4.25189 15.3512 3.29572 16.9665 3.29572 18.8061C3.29572 20.6433 4.24923 22.2566 5.68743 23.1816C5.68906 23.1827 5.69025 23.1843 5.69078 23.1861C5.69131 23.188 5.69115 23.19 5.69032 23.1918C5.13517 24.3602 5.06595 25.8043 5.75126 27.2645C6.11025 28.0294 6.7154 28.6568 7.46447 29.0478C8.72259 29.7043 9.96447 29.7711 11.0421 29.4543C11.0423 29.4543 11.0424 29.4543 11.0425 29.4543C11.0426 29.4543 11.0428 29.4544 11.0429 29.4545C11.043 29.4545 11.0431 29.4546 11.0432 29.4548C11.0432 29.4549 11.0433 29.455 11.0433 29.4551C11.2163 31.0693 12.5684 32.3306 14.2216 32.3599C14.5062 32.3651 14.7903 32.3316 15.0659 32.2605C15.259 32.2106 15.4305 32.0988 15.5542 31.9423C14.8156 31.5259 14.2558 30.8297 14.0189 29.9973Z" fill="#F64749"/>
<path id="Vector_7" d="M8.62461 18.0834C8.78853 18.0834 8.94717 18.0255 9.0725 17.9198C9.19783 17.8142 9.28177 17.6677 9.30948 17.5061C9.3372 17.3445 9.3069 17.1784 9.22395 17.037C9.14099 16.8957 9.01073 16.7882 8.85618 16.7336C8.37477 16.5633 8.05125 16.1059 8.05125 15.5951C8.05125 15.0843 8.37477 14.6268 8.85618 14.4566C9.02778 14.3936 9.16763 14.2655 9.24542 14.1001C9.32321 13.9346 9.33267 13.7452 9.27175 13.5729C9.21082 13.4005 9.08443 13.2591 8.91996 13.1793C8.7555 13.0995 8.56621 13.0878 8.39313 13.1466C7.65703 13.4068 7.0943 13.9799 6.82938 14.6837C6.46211 14.6936 6.03407 14.5731 5.69344 14.4268C5.27431 14.6967 4.89548 15.0245 4.56821 15.4006C5.14172 15.7733 5.95618 16.0441 6.70657 16.0654C6.94813 17.3717 8.12094 18.0834 8.62461 18.0834ZM6.33602 21.3618C5.71899 21.5124 5.07539 21.9165 4.61016 22.2598C4.92582 22.6145 5.28826 22.9246 5.6875 23.1816C5.68913 23.1827 5.69032 23.1843 5.69085 23.1861C5.69138 23.188 5.69122 23.19 5.69039 23.1918C5.68852 23.1957 5.68696 23.1997 5.68516 23.2036C6.00664 22.9867 6.365 22.7848 6.66547 22.7115C6.84218 22.6657 6.99377 22.5522 7.08745 22.3955C7.18113 22.2388 7.20939 22.0516 7.1661 21.8742C7.12281 21.6969 7.01146 21.5437 6.85613 21.4478C6.7008 21.3519 6.51396 21.321 6.33602 21.3618ZM11.8634 28.5063C11.4827 28.4564 11.1339 28.7237 11.0837 29.1041L11.0373 29.4556L11.0422 29.4543C11.0427 29.4541 11.0433 29.4545 11.0433 29.455C11.1338 30.3001 11.548 31.0481 12.159 31.5736L12.461 29.2859C12.473 29.1955 12.467 29.1036 12.4434 29.0154C12.4199 28.9273 12.3792 28.8447 12.3237 28.7723C12.2682 28.6999 12.199 28.6391 12.12 28.5935C12.041 28.5479 11.9538 28.5182 11.8634 28.5063ZM14.4966 18.224C14.2894 17.9011 13.8595 17.8075 13.5366 18.0146C13.1746 18.247 12.7738 18.3701 12.4819 18.4345C12.3159 18.0793 12.1628 17.8357 12.1268 17.7798C11.9188 17.4575 11.4886 17.3648 11.1664 17.5729C11.0898 17.6224 11.0236 17.6865 10.9717 17.7615C10.9199 17.8365 10.8833 17.9211 10.864 18.0102C10.8448 18.0994 10.8434 18.1915 10.8598 18.2812C10.8761 18.371 10.9101 18.4566 10.9595 18.5332C10.9658 18.5429 11.5814 19.5203 11.5814 20.3704C11.5814 20.7541 11.8924 21.0651 12.2761 21.0651C12.6598 21.0651 12.9708 20.7542 12.9708 20.3704C12.9708 20.164 12.9497 19.9589 12.9147 19.7593C13.3136 19.66 13.8158 19.4863 14.2872 19.1838C14.364 19.1345 14.4303 19.0706 14.4824 18.9957C14.5344 18.9208 14.5712 18.8364 14.5907 18.7473C14.6101 18.6581 14.6118 18.5661 14.5957 18.4763C14.5795 18.3865 14.5458 18.3008 14.4966 18.224ZM12.2338 13.7139C12.3817 13.7138 12.5257 13.6666 12.6448 13.579C12.764 13.4915 12.8522 13.3682 12.8965 13.2271C12.9238 13.1401 12.9337 13.0485 12.9257 12.9577C12.9176 12.8668 12.8917 12.7784 12.8495 12.6975C12.8073 12.6167 12.7495 12.5449 12.6795 12.4864C12.6096 12.4279 12.5288 12.3837 12.4417 12.3564C12.4146 12.3478 11.7781 12.1407 11.8234 11.5167C11.8311 11.4251 11.8205 11.333 11.7923 11.2456C11.7641 11.1582 11.7189 11.0772 11.6592 11.0074C11.5995 10.9376 11.5266 10.8803 11.4446 10.8389C11.3626 10.7974 11.2732 10.7727 11.1816 10.766C11.09 10.7593 10.998 10.7709 10.9109 10.8C10.8238 10.8291 10.7433 10.8752 10.6741 10.9357C10.605 10.9961 10.5485 11.0696 10.5079 11.152C10.4673 11.2344 10.4435 11.3241 10.4378 11.4157C10.3282 12.9199 11.7315 13.7139 12.2338 13.7139Z" fill="#F64749"/>
<path id="Vector_8" d="M20.4688 29.4539L19.7383 29.1953" stroke="#141414" stroke-width="15" stroke-miterlimit="10" stroke-linecap="round" stroke-linejoin="round"/>
<path id="Vector_9" d="M23.9587 18.7696C29.0353 15.8513 35.6918 17.6617 38.5928 22.7483C41.1651 27.2584 40.0989 32.8591 36.3085 36.1393C36.1083 36.3126 36.003 36.5712 36.0189 36.8356L36.1878 39.6497C36.1973 39.8072 36.0229 39.908 35.8912 39.821L33.3901 38.1697C33.3251 38.1265 33.2509 38.0992 33.1734 38.0898C33.096 38.0804 33.0174 38.0893 32.944 38.1158C28.1539 39.8595 22.6594 37.9705 20.0225 33.4031C17.0629 28.2771 18.8247 21.7208 23.9587 18.7696Z" fill="#4C98E0"/>
<path id="Vector_10" d="M24.4754 30.3841C22.1216 26.3072 22.7545 21.3258 25.6949 17.9727C19.4696 20.1667 16.6537 27.568 20.0225 33.403C22.6595 37.9704 28.1539 39.8594 32.944 38.1157C33.0174 38.0892 33.096 38.0803 33.1734 38.0897C33.2509 38.0991 33.3251 38.1264 33.3901 38.1696L35.8912 39.8209C36.0228 39.9079 36.1972 39.8072 36.1877 39.6497L36.0188 36.8355C36.003 36.5712 36.1082 36.3124 36.3084 36.1391C36.6742 35.8225 37.0178 35.4813 37.337 35.1178C32.5611 36.8243 27.1014 34.9326 24.4754 30.3841Z" fill="#0079E0"/>
<path id="Vector_11" d="M24.9916 29.2316H24.6056C24.4214 29.2316 24.2447 29.1584 24.1144 29.0281C23.9841 28.8979 23.9109 28.7212 23.9109 28.5369C23.9109 28.3527 23.9841 28.176 24.1144 28.0457C24.2447 27.9154 24.4214 27.8422 24.6056 27.8422H24.9916C25.0828 27.8422 25.1731 27.8602 25.2574 27.8951C25.3417 27.93 25.4183 27.9812 25.4828 28.0457C25.5473 28.1102 25.5985 28.1868 25.6334 28.2711C25.6683 28.3553 25.6863 28.4457 25.6863 28.5369C25.6863 28.6281 25.6683 28.7185 25.6334 28.8028C25.5985 28.8871 25.5473 28.9636 25.4828 29.0282C25.4183 29.0927 25.3417 29.1438 25.2574 29.1787C25.1731 29.2136 25.0828 29.2316 24.9916 29.2316ZM33.9809 29.2316H31.233C31.0487 29.2316 30.872 29.1584 30.7418 29.0281C30.6115 28.8979 30.5383 28.7212 30.5383 28.5369C30.5383 28.3527 30.6115 28.176 30.7418 28.0457C30.872 27.9154 31.0487 27.8422 31.233 27.8422H33.9809C34.0721 27.8422 34.1624 27.8602 34.2467 27.8951C34.331 27.93 34.4076 27.9812 34.4721 28.0457C34.5366 28.1102 34.5878 28.1868 34.6227 28.2711C34.6576 28.3553 34.6756 28.4457 34.6756 28.5369C34.6756 28.6281 34.6576 28.7185 34.6227 28.8028C34.5878 28.8871 34.5366 28.9636 34.4721 29.0282C34.4076 29.0927 34.331 29.1438 34.2467 29.1787C34.1624 29.2136 34.0721 29.2316 33.9809 29.2316ZM29.0717 29.2316H27.1574C26.9732 29.2316 26.7965 29.1584 26.6662 29.0281C26.5359 28.8979 26.4627 28.7212 26.4627 28.5369C26.4627 28.3527 26.5359 28.176 26.6662 28.0457C26.7965 27.9154 26.9732 27.8422 27.1574 27.8422H29.0717C29.163 27.8422 29.2533 27.8602 29.3376 27.8951C29.4219 27.93 29.4985 27.9812 29.563 28.0457C29.6275 28.1102 29.6787 28.1868 29.7136 28.2711C29.7485 28.3553 29.7664 28.4457 29.7664 28.5369C29.7664 28.6281 29.7485 28.7185 29.7136 28.8028C29.6787 28.8871 29.6275 28.9636 29.563 29.0282C29.4985 29.0927 29.4219 29.1438 29.3376 29.1787C29.2533 29.2136 29.163 29.2316 29.0717 29.2316ZM33.9809 32.1743H28.1349C27.9507 32.1743 27.774 32.1011 27.6437 31.9709C27.5134 31.8406 27.4402 31.6639 27.4402 31.4796C27.4402 31.2954 27.5134 31.1187 27.6437 30.9884C27.774 30.8582 27.9507 30.785 28.1349 30.785H33.9809C34.0721 30.7849 34.1624 30.8029 34.2467 30.8378C34.331 30.8727 34.4076 30.9239 34.4721 30.9884C34.5366 31.0529 34.5878 31.1295 34.6227 31.2138C34.6576 31.2981 34.6756 31.3884 34.6756 31.4796C34.6756 31.5709 34.6576 31.6612 34.6227 31.7455C34.5878 31.8298 34.5366 31.9064 34.4721 31.9709C34.4076 32.0354 34.331 32.0866 34.2467 32.1215C34.1624 32.1564 34.0721 32.1743 33.9809 32.1743ZM25.8608 32.1743H24.6056C24.4214 32.1743 24.2447 32.1011 24.1144 31.9709C23.9841 31.8406 23.9109 31.6639 23.9109 31.4796C23.9109 31.2954 23.9841 31.1187 24.1144 30.9884C24.2447 30.8582 24.4214 30.785 24.6056 30.785H25.8608C25.952 30.7849 26.0424 30.8029 26.1267 30.8378C26.2109 30.8727 26.2875 30.9239 26.352 30.9884C26.4165 31.0529 26.4677 31.1295 26.5026 31.2138C26.5375 31.2981 26.5555 31.3884 26.5555 31.4796C26.5555 31.5709 26.5375 31.6612 26.5026 31.7455C26.4677 31.8298 26.4165 31.9064 26.352 31.9709C26.2875 32.0354 26.2109 32.0866 26.1267 32.1215C26.0424 32.1564 25.952 32.1743 25.8608 32.1743ZM33.9809 26.2888H28.1349C28.0437 26.2888 27.9534 26.2708 27.8691 26.2359C27.7848 26.201 27.7082 26.1499 27.6437 26.0853C27.5792 26.0208 27.528 25.9442 27.4931 25.86C27.4582 25.7757 27.4402 25.6853 27.4402 25.5941C27.4402 25.4099 27.5134 25.2332 27.6437 25.1029C27.774 24.9726 27.9507 24.8994 28.1349 24.8994H33.9809C34.0721 24.8994 34.1624 24.9174 34.2467 24.9523C34.331 24.9872 34.4076 25.0384 34.4721 25.1029C34.5366 25.1674 34.5878 25.244 34.6227 25.3282C34.6576 25.4125 34.6756 25.5029 34.6756 25.5941C34.6756 25.6853 34.6576 25.7757 34.6227 25.86C34.5878 25.9442 34.5366 26.0208 34.4721 26.0853C34.4076 26.1499 34.331 26.201 34.2467 26.2359C34.1624 26.2708 34.0721 26.2888 33.9809 26.2888ZM25.8608 26.2888H24.6056C24.5144 26.2888 24.4241 26.2708 24.3398 26.2359C24.2555 26.201 24.1789 26.1499 24.1144 26.0853C24.0499 26.0208 23.9987 25.9442 23.9638 25.86C23.9289 25.7757 23.9109 25.6853 23.9109 25.5941C23.9109 25.4099 23.9841 25.2332 24.1144 25.1029C24.2447 24.9726 24.4214 24.8994 24.6056 24.8994H25.8608C25.952 24.8994 26.0424 24.9174 26.1267 24.9523C26.2109 24.9872 26.2875 25.0384 26.352 25.1029C26.4165 25.1674 26.4677 25.244 26.5026 25.3282C26.5375 25.4125 26.5555 25.5029 26.5555 25.5941C26.5555 25.6853 26.5375 25.7757 26.5026 25.86C26.4677 25.9442 26.4165 26.0208 26.352 26.0853C26.2875 26.1499 26.2109 26.201 26.1267 26.2359C26.0424 26.2708 25.952 26.2888 25.8608 26.2888Z" fill="#67AAE6"/>
<path id="Vector_12" d="M11.0416 25.7154C11.2665 25.526 11.3226 25.2073 11.188 24.9459C11.1207 24.8153 11.0555 24.6583 10.9946 24.4712C10.822 23.9408 10.5771 23.5772 10.3212 23.3263C10.6837 22.0447 10.1901 20.8348 10.1666 20.7783C10.0191 20.4256 9.6153 20.26 9.26187 20.4056C8.90843 20.5511 8.73968 20.9565 8.88335 21.3108C8.88679 21.3191 9.16327 22.0171 9.02968 22.7547C8.32726 22.7115 7.74554 23.0109 7.66507 23.0547C7.58496 23.0983 7.51423 23.1573 7.45692 23.2283C7.39961 23.2992 7.35684 23.3808 7.33105 23.4683C7.30527 23.5558 7.29698 23.6476 7.30665 23.7383C7.31632 23.829 7.34376 23.9169 7.38741 23.997C7.43104 24.0771 7.49004 24.1479 7.56102 24.2052C7.632 24.2625 7.71358 24.3053 7.8011 24.3311C7.88862 24.3569 7.98036 24.3652 8.07108 24.3555C8.1618 24.3458 8.24973 24.3183 8.32983 24.2747C8.41757 24.2268 8.83952 24.0604 9.15077 24.1843C9.37147 24.2721 9.54733 24.5133 9.67343 24.901C9.7403 25.1065 9.8153 25.2966 9.89827 25.4711C10.1057 25.9075 10.672 26.0266 11.0416 25.7154Z" fill="#F64749"/>
</g>
</g>
<defs>
<clipPath id="clip0_0_857">
<rect width="40" height="40" fill="white"/>
</clipPath>
</defs>
</svg>
