<svg width="20" height="20" viewBox="0 0 20 20" fill="none" xmlns="http://www.w3.org/2000/svg">
<g id="maki:cross">
<path id="Vector" d="M4.85333 3.02675L9.99999 8.17342L15.12 3.05341C15.2331 2.93304 15.3693 2.83674 15.5205 2.7703C15.6718 2.70385 15.8348 2.66863 16 2.66675C16.3536 2.66675 16.6928 2.80722 16.9428 3.05727C17.1929 3.30732 17.3333 3.64646 17.3333 4.00008C17.3364 4.16355 17.3061 4.32593 17.2442 4.47726C17.1823 4.62858 17.0901 4.76566 16.9733 4.88008L11.7867 10.0001L16.9733 15.1867C17.1931 15.4017 17.3219 15.6929 17.3333 16.0001C17.3333 16.3537 17.1929 16.6928 16.9428 16.9429C16.6928 17.1929 16.3536 17.3334 16 17.3334C15.8301 17.3405 15.6605 17.3121 15.5022 17.2501C15.3438 17.1882 15.2 17.0939 15.08 16.9734L9.99999 11.8267L4.86666 16.9601C4.754 17.0764 4.61941 17.1693 4.47066 17.2334C4.32191 17.2975 4.16195 17.3315 3.99999 17.3334C3.64637 17.3334 3.30723 17.1929 3.05718 16.9429C2.80714 16.6928 2.66666 16.3537 2.66666 16.0001C2.66355 15.8366 2.69388 15.6742 2.75579 15.5229C2.81769 15.3716 2.90987 15.2345 3.02666 15.1201L8.21333 10.0001L3.02666 4.81341C2.80691 4.59843 2.67805 4.3073 2.66666 4.00008C2.66666 3.64646 2.80714 3.30732 3.05718 3.05727C3.30723 2.80722 3.64637 2.66675 3.99999 2.66675C4.31999 2.67075 4.62666 2.80008 4.85333 3.02675Z" fill="white"/>
</g>
</svg>
