<svg width="42" height="42" viewBox="0 0 42 42" fill="none" xmlns="http://www.w3.org/2000/svg">
<g id="download 1" clip-path="url(#clip0_0_1727)">
<g id="Group">
<path id="Vector" d="M32.6666 42H9.33331C6.84045 42 4.49667 41.0292 2.73372 39.2662C0.970849 37.5035 0 35.1596 0 32.6666V30.3332C0 29.0445 1.04461 27.9998 2.33335 27.9998C3.62208 27.9998 4.66669 29.0445 4.66669 30.3332V32.6666C4.66669 33.9131 5.15216 35.085 6.03343 35.9663C6.91495 36.8478 8.08679 37.3333 9.33331 37.3333H32.6666C33.913 37.3333 35.0849 36.8478 35.9663 35.9663C36.8478 35.0848 37.3333 33.913 37.3333 32.6666V30.3332C37.3333 29.0445 38.3779 27.9998 39.6666 27.9998C40.9552 27.9998 42 29.0445 42 30.3332V32.6666C42 35.1595 41.0292 37.5032 39.2662 39.2662C37.5033 41.0292 35.1595 42 32.6666 42ZM21 32.6665C20.3907 32.6673 19.8054 32.429 19.3699 32.0029L19.3698 32.0027L19.3651 31.9982L19.3638 31.9969C19.3625 31.9957 19.3614 31.9945 19.3602 31.9933L19.3578 31.9909C19.357 31.99 19.3561 31.9892 19.3552 31.9884L19.3501 31.9833L10.0168 22.6499C9.10557 21.7387 9.10557 20.2612 10.0168 19.35C10.9279 18.4388 12.4054 18.4387 13.3166 19.35L18.6667 24.7V2.33335C18.6666 1.04461 19.7112 0 21 0C22.2887 0 23.3334 1.04461 23.3334 2.33335V24.7L28.6834 19.35C29.5945 18.4388 31.0721 18.4388 31.9832 19.35C32.8944 20.2612 32.8944 21.7387 31.9832 22.6499L22.6499 31.9832L22.6448 31.9882L22.6422 31.9907L22.6398 31.9931C22.6387 31.9944 22.6374 31.9956 22.6362 31.9967L22.6349 31.998C22.6334 31.9996 22.6319 32.0011 22.6303 32.0026L22.6301 32.0027C22.6045 32.0277 22.5785 32.052 22.5519 32.0757C22.3614 32.2459 22.1441 32.3835 21.9088 32.4828L21.9065 32.4838C21.9056 32.4841 21.9049 32.4846 21.904 32.4848C21.6178 32.6052 21.3104 32.667 21 32.6665Z" fill="#2EC2F1"/>
</g>
</g>
<defs>
<clipPath id="clip0_0_1727">
<rect width="42" height="42" fill="white"/>
</clipPath>
</defs>
</svg>
