<svg width="18" height="18" viewBox="0 0 18 18" fill="none" xmlns="http://www.w3.org/2000/svg">
<g id="mingcute:send-line" clip-path="url(#clip0_3_238)">
<g id="Group">
<path id="Vector" fill-rule="evenodd" clip-rule="evenodd" d="M13.4932 4.50745L4.04925 7.9222L7.1955 9.7432L9.96975 6.9682C10.1105 6.82756 10.3013 6.7486 10.5003 6.74867C10.6992 6.74874 10.89 6.82784 11.0306 6.96857C11.1713 7.1093 11.2502 7.30013 11.2502 7.49909C11.2501 7.69804 11.171 7.88881 11.0303 8.02945L8.25525 10.8044L10.0778 13.9499L13.4932 4.50745ZM13.7355 2.82445C14.6318 2.4997 15.5003 3.3682 15.1755 4.26445L11.214 15.2182C10.8885 16.1167 9.6615 16.2262 9.18225 15.3989L6.7695 11.2304L2.601 8.8177C1.77375 8.33845 1.8825 7.11145 2.78175 6.78595L13.7355 2.82445Z" fill="#F64749"/>
</g>
</g>
<defs>
<clipPath id="clip0_3_238">
<rect width="18" height="18" fill="white"/>
</clipPath>
</defs>
</svg>
