<svg width="18" height="18" viewBox="0 0 18 18" fill="none" xmlns="http://www.w3.org/2000/svg">
<g id="mingcute:send-line" clip-path="url(#clip0_0_692)">
<g id="Group">
<path id="Vector" fill-rule="evenodd" clip-rule="evenodd" d="M13.4929 4.50745L4.04892 7.9222L7.19517 9.7432L9.96942 6.9682C10.1101 6.82756 10.301 6.7486 10.4999 6.74867C10.6989 6.74874 10.8897 6.82784 11.0303 6.96857C11.1709 7.1093 11.2499 7.30013 11.2498 7.49909C11.2497 7.69804 11.1706 7.88881 11.0299 8.02945L8.25492 10.8044L10.0774 13.9499L13.4929 4.50745ZM13.7352 2.82445C14.6314 2.4997 15.4999 3.3682 15.1752 4.26445L11.2137 15.2182C10.8882 16.1167 9.66117 16.2262 9.18192 15.3989L6.76917 11.2304L2.60067 8.8177C1.77342 8.33845 1.88217 7.11145 2.78142 6.78595L13.7352 2.82445Z" fill="#2EC2F1"/>
</g>
</g>
<defs>
<clipPath id="clip0_0_692">
<rect width="18" height="18" fill="white"/>
</clipPath>
</defs>
</svg>
