<svg width="25" height="25" viewBox="0 0 25 25" fill="none" xmlns="http://www.w3.org/2000/svg">
<g id="menubar 1">
<g id="Group">
<path id="Vector" d="M6.25 5C6.25 4.30967 6.80967 3.75 7.5 3.75H23.75C24.4403 3.75 25 4.30967 25 5C25 5.69033 24.4403 6.25 23.75 6.25H7.5C6.80967 6.25 6.25 5.69028 6.25 5ZM23.75 11.25H1.25C0.559668 11.25 0 11.8097 0 12.5C0 13.1903 0.559668 13.75 1.25 13.75H23.75C24.4403 13.75 25 13.1903 25 12.5C25 11.8097 24.4403 11.25 23.75 11.25ZM23.75 18.75H12.5C11.8097 18.75 11.25 19.3097 11.25 20C11.25 20.6903 11.8097 21.25 12.5 21.25H23.75C24.4403 21.25 25 20.6903 25 20C25 19.3097 24.4403 18.75 23.75 18.75Z" fill="white"/>
</g>
</g>
</svg>
