<svg width="30" height="30" viewBox="0 0 30 30" fill="none" xmlns="http://www.w3.org/2000/svg">
<g id="photograph 1" clip-path="url(#clip0_0_1624)">
<g id="Group">
<path id="Vector" d="M15 30C23.2843 30 30 23.2843 30 15C30 6.71573 23.2843 0 15 0C6.71573 0 0 6.71573 0 15C0 23.2843 6.71573 30 15 30Z" fill="#F64749"/>
<path id="Vector_2" d="M4.51749 5.61145H16.57V19.3858H4.51749V5.61145Z" fill="white"/>
<path id="Vector_3" d="M4.51749 5.61145H7.3366V19.3858H4.51749V5.61145Z" fill="#DAFFFB"/>
<path id="Vector_4" d="M14.3391 18.0835H6.74834C6.24247 18.0835 5.83234 17.6734 5.83234 17.1675V7.75542C5.83234 7.24955 6.24242 6.83942 6.74834 6.83942H14.3391C14.845 6.83942 15.2551 7.24949 15.2551 7.75542V17.1675C15.2551 17.6734 14.845 18.0835 14.3391 18.0835Z" fill="#00C98F"/>
<path id="Vector_5" d="M14.3391 18.0835H6.74834C6.24247 18.0835 5.83234 17.6734 5.83234 17.1675V7.75542C5.83234 7.24955 6.24242 6.83942 6.74834 6.83942H14.3391C14.845 6.83942 15.2551 7.24949 15.2551 7.75542V17.1675C15.2551 17.6734 14.845 18.0835 14.3391 18.0835Z" fill="#00C98F"/>
<path id="Vector_6" d="M6.74834 18.0835H9.57448C9.06862 18.0835 8.6586 17.6734 8.6586 17.1675V7.75542C8.6586 7.24955 9.06868 6.83948 9.57448 6.83942H6.74834C6.24247 6.83942 5.83234 7.24949 5.83234 7.75542V17.1675C5.83234 17.6734 6.24242 18.0835 6.74834 18.0835Z" fill="#00AE7A"/>
<path id="Vector_7" d="M13.3201 0.756348L24.7218 4.68546L20.2313 17.716L8.82968 13.7869L13.3201 0.756348Z" fill="white"/>
<path id="Vector_8" d="M8.83453 13.7742L13.325 0.743652L15.9919 1.66273L11.5014 14.6932L8.83453 13.7742Z" fill="#DAFFFB"/>
<path id="Vector_9" d="M18.5397 15.7423L11.3627 13.2702C10.8844 13.1055 10.6302 12.5842 10.795 12.1058L13.8602 3.20687C14.025 2.72858 14.5463 2.47435 15.0246 2.63912L22.2016 5.11122C22.6799 5.27599 22.9341 5.79726 22.7693 6.27561L19.7041 15.1746C19.5393 15.6529 19.018 15.9071 18.5397 15.7423Z" fill="#00C98F"/>
<path id="Vector_10" d="M18.5397 15.7423L11.3627 13.2702C10.8844 13.1055 10.6302 12.5842 10.795 12.1058L13.8602 3.20687C14.025 2.72858 14.5463 2.47435 15.0246 2.63912L22.2016 5.11122C22.6799 5.27599 22.9341 5.79726 22.7693 6.27561L19.7041 15.1746C19.5393 15.6529 19.018 15.9071 18.5397 15.7423Z" fill="#FFC305"/>
<path id="Vector_11" d="M11.3627 13.2702L14.0348 14.1906C13.5566 14.0258 13.3024 13.5046 13.4672 13.0263L16.5324 4.12731C16.6972 3.64902 17.2184 3.39485 17.6967 3.55956L15.0246 2.63918C14.5463 2.47442 14.025 2.72859 13.8602 3.20694L10.795 12.1059C10.6303 12.5842 10.8844 13.1055 11.3627 13.2702Z" fill="#FFA50A"/>
<path id="Vector_12" d="M27.4615 28.8427C27.4615 29.4701 26.9529 29.9787 26.3255 29.9787H9.20675C8.57935 29.9787 8.07077 29.4701 8.07077 28.8427V17.415C8.07077 16.7876 8.57935 16.2791 9.20675 16.2791H26.3255C26.9529 16.2791 27.4615 16.7876 27.4615 17.415V28.8427Z" fill="#30A3C8"/>
<path id="Vector_13" d="M21.7401 18.128H13.7921L14.2613 14.4874C14.2893 14.2706 14.3952 14.0715 14.5593 13.9272C14.7235 13.7828 14.9345 13.7032 15.1531 13.7032H20.3791C20.5976 13.7032 20.8087 13.7828 20.9728 13.9272C21.1369 14.0715 21.2429 14.2706 21.2708 14.4874L21.7401 18.128Z" fill="#33A2FF"/>
<path id="Vector_14" d="M27.4615 23.0865V17.415C27.4615 16.7876 26.9529 16.279 26.3255 16.279H9.20675C8.57935 16.279 8.07077 16.7876 8.07077 17.415V23.0865H27.4615Z" fill="#2EC2F1"/>
<path id="Vector_15" d="M13.5182 29.9787C12.0845 29.9787 10.9222 28.8165 10.9222 27.3828V18.875C10.9222 17.4413 12.0845 16.2791 13.5182 16.2791H9.20682C8.57941 16.2791 8.07083 16.7876 8.07083 17.415V28.8427C8.07083 29.4701 8.57941 29.9787 9.20682 29.9787H13.5182Z" fill="#33A2FF"/>
<path id="Vector_16" d="M9.20676 29.9787H13.518C12.0844 29.9787 10.9222 28.8165 10.9222 27.3828V18.875C10.9222 17.4413 12.0845 16.2791 13.5181 16.2791H9.20676C8.57935 16.2791 8.07077 16.7876 8.07077 17.415V28.8427C8.07077 29.4701 8.57941 29.9787 9.20676 29.9787Z" fill="#30A3C8"/>
<path id="Vector_17" d="M10.9222 18.875C10.9222 17.4413 12.0845 16.2791 13.5181 16.2791H9.20676C8.7362 16.2791 8.3325 16.5651 8.16006 16.9728C8.10096 17.1128 8.07059 17.2631 8.07077 17.415V23.0865H10.9222V18.875Z" fill="#30A3C8"/>
<path id="Vector_18" d="M17.7661 28.1998C20.3049 28.1998 22.363 26.1417 22.363 23.603C22.363 21.0642 20.3049 19.0061 17.7661 19.0061C15.2274 19.0061 13.1693 21.0642 13.1693 23.603C13.1693 26.1417 15.2274 28.1998 17.7661 28.1998Z" fill="#038CFF"/>
<path id="Vector_19" d="M17.7661 27.5502C20.3049 27.5502 22.363 25.4921 22.363 22.9534C22.363 20.4146 20.3049 18.3565 17.7661 18.3565C15.2274 18.3565 13.1693 20.4146 13.1693 22.9534C13.1693 25.4921 15.2274 27.5502 17.7661 27.5502Z" fill="#33A2FF"/>
<path id="Vector_20" d="M17.7661 26.1426C19.5275 26.1426 20.9554 24.7148 20.9554 22.9534C20.9554 21.192 19.5275 19.7641 17.7661 19.7641C16.0048 19.7641 14.5769 21.192 14.5769 22.9534C14.5769 24.7148 16.0048 26.1426 17.7661 26.1426Z" fill="white"/>
<path id="Vector_21" d="M17.7661 24.7574C18.7625 24.7574 19.5702 23.9497 19.5702 22.9534C19.5702 21.957 18.7625 21.1493 17.7661 21.1493C16.7698 21.1493 15.9621 21.957 15.9621 22.9534C15.9621 23.9497 16.7698 24.7574 17.7661 24.7574Z" fill="#F5C84C"/>
<path id="Vector_22" d="M25.5361 18.3669C25.8032 18.3669 26.0198 18.1503 26.0198 17.8832C26.0198 17.6161 25.8032 17.3995 25.5361 17.3995C25.269 17.3995 25.0524 17.6161 25.0524 17.8832C25.0524 18.1503 25.269 18.3669 25.5361 18.3669Z" fill="#FFDB45"/>
<path id="Vector_23" d="M19.5808 16.2791H15.9513C15.9021 16.2791 15.8533 16.2687 15.8083 16.2488C15.7633 16.2288 15.7229 16.1996 15.6899 16.163C15.6568 16.1265 15.6318 16.0835 15.6164 16.0367C15.601 15.9899 15.5956 15.9404 15.6005 15.8914L15.701 14.8857C15.7097 14.7987 15.7505 14.718 15.8153 14.6593C15.8801 14.6007 15.9645 14.5682 16.0519 14.5682H19.4803C19.5677 14.5682 19.652 14.6007 19.7169 14.6593C19.7817 14.718 19.8224 14.7987 19.8311 14.8857L19.9317 15.8914C19.9366 15.9404 19.9312 15.9899 19.9158 16.0367C19.9004 16.0835 19.8754 16.1265 19.8423 16.1631C19.8092 16.1996 19.7689 16.2288 19.7239 16.2488C19.6788 16.2687 19.6301 16.2791 19.5808 16.2791Z" fill="white"/>
<path id="Vector_24" d="M16.4848 22.9953C16.9945 22.9953 17.4078 22.582 17.4078 22.0723C17.4078 21.5625 16.9945 21.1492 16.4848 21.1492C15.975 21.1492 15.5617 21.5625 15.5617 22.0723C15.5617 22.582 15.975 22.9953 16.4848 22.9953Z" fill="white"/>
<path id="Vector_25" d="M19.215 9.22586C20.2131 9.22586 21.0222 8.41675 21.0222 7.41865C21.0222 6.42056 20.2131 5.61145 19.215 5.61145C18.2169 5.61145 17.4078 6.42056 17.4078 7.41865C17.4078 8.41675 18.2169 9.22586 19.215 9.22586Z" fill="white"/>
<path id="Vector_26" d="M12.4905 11.7209L14.7565 8.26335C14.9919 7.90424 15.5183 7.90424 15.7536 8.26335L18.0196 11.7209C18.2794 12.1173 17.995 12.6437 17.5211 12.6437H12.9891C12.5151 12.6437 12.2307 12.1173 12.4905 11.7209Z" fill="#33A2FF"/>
<g id="Group_2">
<g id="Vector_27">
<path d="M17.7661 18.349V19.5044V18.349ZM17.7661 26.3872V27.5426V26.3872ZM15.4677 18.9648L16.0454 19.9655L15.4677 18.9648ZM19.4868 25.9261L20.0645 26.9268L19.4868 25.9261ZM13.7851 20.6474L14.7858 21.2251L13.7851 20.6474ZM20.7464 24.6665L21.7471 25.2442L20.7464 24.6665ZM13.1693 22.9458H14.3248H13.1693ZM21.2075 22.9458H22.3629H21.2075ZM13.7851 25.2442L14.7858 24.6665L13.7851 25.2442ZM20.7464 21.2251L21.7471 20.6474L20.7464 21.2251ZM15.4677 26.9268L16.0454 25.9261L15.4677 26.9268ZM19.4868 19.9655L20.0645 18.9648L19.4868 19.9655Z" fill="black"/>
<path d="M17.7661 18.349V19.5044M17.7661 26.3872V27.5426M15.4677 18.9648L16.0454 19.9655M19.4868 25.9261L20.0645 26.9268M13.7851 20.6474L14.7858 21.2251M20.7464 24.6665L21.7471 25.2442M13.1693 22.9458H14.3248M21.2075 22.9458H22.3629M13.7851 25.2442L14.7858 24.6665M20.7464 21.2251L21.7471 20.6474M15.4677 26.9268L16.0454 25.9261M19.4868 19.9655L20.0645 18.9648" stroke="#2EC2F1" stroke-width="8.72113" stroke-miterlimit="10"/>
</g>
</g>
<path id="Vector_28" d="M11.3608 21.8427H10.2832C9.89339 21.8427 9.57449 21.5238 9.57449 21.134V19.6735C9.57449 19.2837 9.89339 18.9648 10.2832 18.9648H11.3608C11.7506 18.9648 12.0695 19.2837 12.0695 19.6735V21.134C12.0695 21.5238 11.7506 21.8427 11.3608 21.8427Z" fill="#73CCFF"/>
<path id="Vector_29" d="M12.8847 26.8928H10.5558C10.4804 26.8925 10.4081 26.8625 10.3548 26.8092C10.3015 26.7558 10.2714 26.6836 10.2712 26.6082V25.7737C10.2714 25.6983 10.3015 25.6261 10.3548 25.5727C10.4081 25.5194 10.4804 25.4894 10.5558 25.4891H12.8847C12.9601 25.4894 13.0324 25.5194 13.0857 25.5727C13.139 25.6261 13.1691 25.6983 13.1693 25.7737V26.6082C13.1691 26.6836 13.139 26.7559 13.0857 26.8092C13.0324 26.8625 12.9601 26.8926 12.8847 26.8928Z" fill="#30A3C8"/>
</g>
</g>
<defs>
<clipPath id="clip0_0_1624">
<rect width="30" height="30" fill="white"/>
</clipPath>
</defs>
</svg>
