<svg width="32" height="33" viewBox="0 0 32 33" fill="none" xmlns="http://www.w3.org/2000/svg">
<g id="plus 4" clip-path="url(#clip0_5_84)">
<g id="Group">
<path id="Vector" d="M18.521 26.5119V18.5428H26.4901C27.8825 18.5428 29.0113 17.414 29.0113 16.0216C29.0113 14.6293 27.8825 13.5005 26.4901 13.5005H18.521V5.53138C18.521 4.139 17.3923 3.01025 15.9999 3.01025C14.6075 3.01025 13.4788 4.139 13.4788 5.53138V13.5004H5.50989C4.11752 13.5004 2.98877 14.6291 2.98877 16.0215C2.98877 17.4139 4.11752 18.5426 5.50989 18.5426H13.4789V26.5118C13.4789 27.9041 14.6076 29.0329 16 29.0329C17.3924 29.0329 18.521 27.9043 18.521 26.5119Z" fill="#F64749"/>
<path id="Vector_2" d="M16 26.8244C15.9171 26.8244 15.8376 26.7914 15.779 26.7328C15.7204 26.6742 15.6875 26.5948 15.6875 26.5119V5.53137C15.6875 5.44849 15.7204 5.36901 15.779 5.3104C15.8376 5.2518 15.9171 5.21887 16 5.21887C16.0829 5.21887 16.1624 5.2518 16.221 5.3104C16.2796 5.36901 16.3125 5.44849 16.3125 5.53137V26.5119C16.3125 26.5948 16.2796 26.6742 16.221 26.7328C16.1624 26.7914 16.0829 26.8244 16 26.8244Z" fill="white"/>
<path id="Vector_3" d="M26.4903 16.3341H5.50977C5.42689 16.3341 5.3474 16.3012 5.28879 16.2426C5.23019 16.184 5.19727 16.1045 5.19727 16.0216C5.19727 15.9387 5.23019 15.8592 5.28879 15.8006C5.3474 15.742 5.42689 15.7091 5.50977 15.7091H26.4903C26.5731 15.7091 26.6526 15.742 26.7112 15.8006C26.7698 15.8592 26.8028 15.9387 26.8028 16.0216C26.8028 16.1045 26.7698 16.184 26.7112 16.2426C26.6526 16.3012 26.5731 16.3341 26.4903 16.3341Z" fill="white"/>
<path id="Vector_4" d="M15.9999 29.3455C14.4374 29.3455 13.1662 28.0744 13.1662 26.5119V18.8553H5.50974C3.94724 18.8553 2.67612 17.5841 2.67612 16.0216C2.67612 14.4591 3.94724 13.188 5.50974 13.188H13.1662V5.53138C13.1662 3.96888 14.4374 2.69775 15.9999 2.69775C17.5624 2.69775 18.8336 3.96888 18.8336 5.53138V13.1879H26.4902C28.0527 13.1879 29.3239 14.459 29.3239 16.0215C29.3239 17.584 28.0527 18.8551 26.4902 18.8551H18.8336V26.5118C18.8336 28.0743 17.5624 29.3455 15.9999 29.3455ZM5.50974 13.813C4.29187 13.813 3.30112 14.8038 3.30112 16.0216C3.30112 17.2395 4.29187 18.2303 5.50974 18.2303H13.4787C13.5616 18.2303 13.6411 18.2632 13.6997 18.3218C13.7583 18.3804 13.7912 18.4599 13.7912 18.5428V26.5119C13.7912 27.7298 14.782 28.7205 15.9999 28.7205C17.2177 28.7205 18.2086 27.7298 18.2086 26.5119V18.5428C18.2086 18.4599 18.2415 18.3804 18.3001 18.3218C18.3588 18.2632 18.4382 18.2303 18.5211 18.2303H26.4902C27.7081 18.2303 28.6989 17.2395 28.6989 16.0216C28.6989 14.8038 27.7081 13.813 26.4902 13.813H18.5211C18.4382 13.813 18.3588 13.7801 18.3001 13.7215C18.2415 13.6629 18.2086 13.5834 18.2086 13.5005V5.53138C18.2086 4.3135 17.2177 3.32275 15.9999 3.32275C14.782 3.32275 13.7912 4.3135 13.7912 5.53138V13.5004C13.7912 13.5833 13.7583 13.6627 13.6997 13.7213C13.6411 13.78 13.5616 13.8129 13.4787 13.8129L5.50974 13.813Z" fill="white"/>
<path id="Vector_5" d="M22.5016 31.2122C22.1141 31.1372 21.8016 30.8372 21.7266 30.4497C21.7266 30.4372 21.6891 30.4372 21.6891 30.4497C21.6141 30.8372 21.3016 31.1372 20.9141 31.2122C20.9016 31.2122 20.9016 31.2372 20.9141 31.2497C21.3016 31.3247 21.6141 31.6247 21.6891 32.0122C21.6891 32.0247 21.7266 32.0247 21.7266 32.0122C21.8016 31.6247 22.1141 31.3247 22.5016 31.2497C22.5141 31.2372 22.5141 31.2122 22.5016 31.2122Z" fill="#F5C84C"/>
<path id="Vector_6" d="M3.02563 10.4591H3.31313V10.7466C3.31313 10.9716 3.48813 11.1466 3.71313 11.1466C3.92563 11.1466 4.11313 10.9716 4.11313 10.7591V10.4591H4.40063C4.62563 10.4591 4.80063 10.2841 4.80063 10.0591C4.80063 9.84656 4.62563 9.65906 4.41313 9.65906H4.11313V9.37156C4.11313 9.14656 3.93813 8.97156 3.71313 8.97156C3.50063 8.97156 3.31313 9.14656 3.31313 9.35906V9.65906H3.02563C2.80063 9.65906 2.62563 9.83406 2.62563 10.0591C2.61313 10.2716 2.78813 10.4591 3.02563 10.4591C3.01313 10.4591 3.01313 10.4591 3.02563 10.4591Z" fill="#70D6F9"/>
<path id="Vector_7" d="M20.6766 0.871606C20.9113 0.871606 21.1016 0.681327 21.1016 0.446606C21.1016 0.211885 20.9113 0.0216064 20.6766 0.0216064C20.4419 0.0216064 20.2516 0.211885 20.2516 0.446606C20.2516 0.681327 20.4419 0.871606 20.6766 0.871606Z" fill="#FC657E"/>
<path id="Vector_8" d="M4.80162 23.2466C5.03634 23.2466 5.22662 23.0563 5.22662 22.8216C5.22662 22.5869 5.03634 22.3966 4.80162 22.3966C4.5669 22.3966 4.37662 22.5869 4.37662 22.8216C4.37662 23.0563 4.5669 23.2466 4.80162 23.2466Z" fill="#F64749"/>
<path id="Vector_9" d="M22.8313 6.25286C23.3938 6.15286 23.8313 5.71536 23.9438 5.16536C23.9438 5.14036 23.9938 5.14036 23.9938 5.16536C24.1063 5.71536 24.5438 6.15286 25.1063 6.25286C25.1313 6.25286 25.1313 6.29036 25.1063 6.30286C24.5438 6.40286 24.1063 6.84036 23.9938 7.39036C23.9938 7.41536 23.9438 7.41536 23.9438 7.39036C23.8313 6.84036 23.3938 6.40286 22.8313 6.30286C22.8063 6.29036 22.8063 6.25286 22.8313 6.25286Z" fill="#F5C84C"/>
</g>
</g>
<defs>
<clipPath id="clip0_5_84">
<rect width="32" height="32" fill="white" transform="translate(0 0.0216064)"/>
</clipPath>
</defs>
</svg>
