<svg width="40" height="40" viewBox="0 0 40 40" fill="none" xmlns="http://www.w3.org/2000/svg">
<g id="productdesign 1" clip-path="url(#clip0_0_873)">
<g id="Group">
<path id="Vector" d="M7.77734 22.8057C7.68207 22.8058 7.58822 22.7827 7.50392 22.7383C7.41962 22.694 7.34742 22.6297 7.29359 22.5511L0.102819 12.0673C0.0149268 11.9391 -0.0184578 11.7813 0.0100095 11.6285C0.0384768 11.4758 0.126464 11.3406 0.254616 11.2527C0.318063 11.2091 0.389465 11.1785 0.464743 11.1626C0.540021 11.1467 0.617701 11.1457 0.693347 11.1598C0.768992 11.1739 0.841121 11.2027 0.905615 11.2447C0.970109 11.2867 1.0257 11.3409 1.06922 11.4044L8.25999 21.8882C8.34788 22.0164 8.38127 22.1742 8.3528 22.3269C8.32433 22.4797 8.23635 22.6149 8.1082 22.7028C8.01089 22.7699 7.8955 22.8058 7.77734 22.8057ZM32.0291 23.088C31.9224 23.0879 31.8178 23.0587 31.7265 23.0035C31.6352 22.9483 31.5607 22.8693 31.511 22.7749C31.4614 22.6804 31.4384 22.5743 31.4447 22.4678C31.4509 22.3613 31.4861 22.2585 31.5465 22.1706L38.931 11.4044C39.0194 11.2775 39.1544 11.1908 39.3065 11.163C39.4586 11.1353 39.6156 11.1688 39.7431 11.2563C39.8706 11.3438 39.9584 11.4781 39.9873 11.63C40.0161 11.7819 39.9838 11.9391 39.8973 12.0673L32.5128 22.8334C32.4589 22.912 32.3868 22.9763 32.3025 23.0206C32.2182 23.065 32.1243 23.0881 32.0291 23.088Z" fill="#F64749"/>
<path id="Vector_2" d="M28.0927 8.67861C28.0927 4.1708 24.407 0.523848 19.8848 0.586739C15.4931 0.647833 11.9231 4.25713 11.9075 8.64924C11.9 10.7611 12.7017 12.6855 14.02 14.1304C14.9115 15.1076 15.3851 16.3953 15.3851 17.7181V20.0663H24.6151V17.7023C24.6151 16.3642 25.1244 15.0823 26.0191 14.0874C27.3081 12.6541 28.0927 10.7581 28.0927 8.67861Z" fill="#FDDD57"/>
<path id="Vector_3" d="M15.3851 18.4319H24.615V20.0663H15.3851V18.4319Z" fill="#FFDB45"/>
<path id="Vector_4" d="M20 23.0559C19.8446 23.0559 19.6956 22.9942 19.5857 22.8843C19.4758 22.7744 19.4141 22.6254 19.4141 22.47V10.8604C19.4141 10.5367 19.6765 10.2744 20 10.2744C20.3236 10.2744 20.586 10.5367 20.586 10.8604V22.47C20.586 22.6254 20.5242 22.7744 20.4143 22.8843C20.3045 22.9942 20.1554 23.0559 20 23.0559Z" fill="#0079E0"/>
<path id="Vector_5" d="M20 12.5132C20.913 12.5132 21.653 11.7732 21.653 10.8602C21.653 9.94733 20.913 9.20728 20 9.20728C19.0871 9.20728 18.3471 9.94733 18.3471 10.8602C18.3471 11.7732 19.0871 12.5132 20 12.5132Z" fill="#2596F7"/>
<path id="Vector_6" d="M33.7004 35.6328C33.7004 37.7211 32.0075 39.414 29.9192 39.414H10.0809C7.99257 39.414 6.29968 37.7211 6.29968 35.6328V20.7201C6.29968 20.5467 6.36857 20.3803 6.49118 20.2577C6.61379 20.1351 6.7801 20.0662 6.95351 20.0662H33.7004V35.6328Z" fill="#F28B8C"/>
<path id="Vector_7" d="M31.5623 20.0662V35.6328C31.5623 37.7211 29.8694 39.414 27.7811 39.414H29.9192C32.0075 39.414 33.7003 37.7211 33.7003 35.6328V20.0662H31.5623Z" fill="#F64749"/>
<path id="Vector_8" d="M22.1304 39.4139H11.9074V36.8419C11.9074 36.6571 11.9808 36.48 12.1115 36.3493C12.2421 36.2187 12.4193 36.1453 12.6041 36.1453H21.4337C21.6184 36.1453 21.7956 36.2187 21.9263 36.3493C22.0569 36.48 22.1303 36.6571 22.1303 36.8419V39.4139H22.1304Z" fill="#6C5E69"/>
<path id="Vector_9" d="M21.4336 36.1453H19.5758C19.7606 36.1453 19.9378 36.2187 20.0684 36.3493C20.1991 36.48 20.2725 36.6571 20.2725 36.8419V39.4139H22.1303V36.8419C22.1304 36.4572 21.8184 36.1453 21.4336 36.1453Z" fill="#574D56"/>
<path id="Vector_10" d="M28.5407 24.5007H21.2015C20.8779 24.5007 20.6156 24.2385 20.6156 23.9148C20.6156 23.5911 20.8779 23.3289 21.2015 23.3289H28.5407C28.8644 23.3289 29.1267 23.5911 29.1267 23.9148C29.1267 24.2385 28.8643 24.5007 28.5407 24.5007ZM28.5407 27.2359H21.2015C20.8779 27.2359 20.6156 26.9736 20.6156 26.65C20.6156 26.3263 20.8779 26.064 21.2015 26.064H28.5407C28.8644 26.064 29.1267 26.3263 29.1267 26.65C29.1267 26.9736 28.8643 27.2359 28.5407 27.2359Z" fill="#FAF7F8"/>
<g id="Group_2">
<path id="Vector_11" d="M9.76986 4.39192L7.70267 2.69793C7.64315 2.64916 7.57461 2.61258 7.50096 2.5903C7.42731 2.56801 7.35 2.56045 7.27342 2.56805C7.11878 2.58339 6.97656 2.65953 6.87806 2.77973C6.77956 2.89992 6.73284 3.05433 6.74818 3.20897C6.76352 3.36362 6.83966 3.50583 6.95986 3.60434L7.80212 4.29457C5.51243 4.57324 3.73251 6.52785 3.73251 8.89153C3.73251 11.4457 5.81056 13.5239 8.36478 13.5239C8.68837 13.5239 8.95072 13.2616 8.95072 12.9379C8.95072 12.6143 8.68837 12.352 8.36478 12.352C6.45673 12.352 4.90439 10.7997 4.90439 8.89153C4.90439 7.21981 6.09595 5.82137 7.67431 5.50043L6.95994 6.08582C6.90042 6.1346 6.85109 6.19462 6.81478 6.26247C6.77846 6.33031 6.75586 6.40464 6.74827 6.48121C6.74067 6.55779 6.74824 6.63511 6.77053 6.70876C6.79282 6.78241 6.8294 6.85095 6.87818 6.91047C6.92696 6.96999 6.98698 7.01931 7.05482 7.05563C7.12266 7.09195 7.19699 7.11455 7.27357 7.12214C7.35014 7.12973 7.42747 7.12217 7.50112 7.09988C7.57477 7.07759 7.64331 7.04101 7.70283 6.99223L9.77001 5.29824C9.83706 5.24327 9.89107 5.17411 9.92815 5.09574C9.96523 5.01736 9.98445 4.93174 9.98444 4.84504C9.98442 4.75834 9.96517 4.67273 9.92806 4.59437C9.89095 4.51601 9.83692 4.44686 9.76986 4.39192ZM36.2675 10.1607C36.2675 7.60653 34.1895 5.5284 31.6352 5.5284C31.3116 5.5284 31.0493 5.79067 31.0493 6.11434C31.0493 6.43801 31.3116 6.70027 31.6352 6.70027C33.5433 6.70027 35.0956 8.25262 35.0956 10.1607C35.0956 11.8325 33.9041 13.231 32.3257 13.5518L33.0402 12.9664C33.0997 12.9176 33.149 12.8576 33.1853 12.7897C33.2217 12.7219 33.2443 12.6476 33.2519 12.571C33.2595 12.4944 33.2519 12.4171 33.2296 12.3435C33.2073 12.2698 33.1707 12.2013 33.122 12.1418C33.0732 12.0822 33.0132 12.0329 32.9453 11.9966C32.8775 11.9603 32.8032 11.9377 32.7266 11.9301C32.65 11.9225 32.5727 11.93 32.4991 11.9523C32.4254 11.9746 32.3569 12.0112 32.2974 12.06L30.2302 13.7539C30.1631 13.8089 30.1091 13.8781 30.072 13.9564C30.0349 14.0348 30.0156 14.1204 30.0156 14.2071C30.0156 14.2939 30.0349 14.3795 30.072 14.4579C30.1091 14.5362 30.1631 14.6054 30.2302 14.6604L32.2974 16.3543C32.4019 16.4402 32.5331 16.4871 32.6685 16.487C32.7893 16.4871 32.9072 16.4498 33.0061 16.3802C33.1049 16.3106 33.1798 16.2122 33.2205 16.0984C33.2612 15.9846 33.2657 15.861 33.2334 15.7446C33.2012 15.6281 33.1336 15.5245 33.0402 15.4479L32.1979 14.7577C34.4876 14.4789 36.2675 12.5244 36.2675 10.1607Z" fill="#46E892"/>
</g>
</g>
</g>
<defs>
<clipPath id="clip0_0_873">
<rect width="40" height="40" fill="white"/>
</clipPath>
</defs>
</svg>
