<svg width="40" height="40" viewBox="0 0 40 40" fill="none" xmlns="http://www.w3.org/2000/svg">
<g id="prototype 1" clip-path="url(#clip0_0_784)">
<g id="Group">
<path id="Vector" d="M34.4206 32.6939L32.8875 31.2452C32.8317 31.192 32.7659 31.1505 32.6938 31.1231C32.6218 31.0957 32.545 31.0829 32.468 31.0854C32.391 31.0877 32.3152 31.1051 32.245 31.1366C32.1747 31.1682 32.1113 31.2133 32.0585 31.2694L30.6942 32.718C30.5876 32.8312 30.5304 32.982 30.535 33.1373C30.5397 33.2926 30.6059 33.4398 30.719 33.5463C30.8321 33.6529 30.983 33.7101 31.1383 33.7054C31.2936 33.7008 31.4407 33.6346 31.5473 33.5215L31.9694 33.0733V34.3013C31.9694 34.6069 31.7207 34.8555 31.4152 34.8555H8.58486C8.27931 34.8555 8.03064 34.6069 8.03064 34.3013V28.6323C8.03064 28.3087 7.76837 28.0464 7.4447 28.0464C7.12103 28.0464 6.85876 28.3087 6.85876 28.6323V34.3013C6.85876 35.2531 7.63306 36.0274 8.58486 36.0274H31.4152C32.367 36.0274 33.1413 35.253 33.1413 34.3013V33.0973L33.6157 33.5456C33.7244 33.6486 33.8684 33.7059 34.0181 33.7057C34.1354 33.7057 34.25 33.6705 34.347 33.6046C34.4441 33.5388 34.5192 33.4453 34.5625 33.3363C34.6059 33.2273 34.6156 33.1078 34.5902 32.9933C34.5649 32.8788 34.5058 32.7745 34.4206 32.6939Z" fill="#0079E0"/>
<path id="Vector_2" d="M14.0041 29.7272H1.28773C0.576563 29.7272 0 29.1506 0 28.4395V5.26039C0 4.54914 0.576563 3.97266 1.28773 3.97266H14.0041C14.7152 3.97266 15.2918 4.54922 15.2918 5.26039V28.4395C15.2917 29.1506 14.7152 29.7272 14.0041 29.7272Z" fill="#A6E8FD"/>
<path id="Vector_3" d="M14.0041 3.97266H11.5896C12.3008 3.97266 12.8773 4.54922 12.8773 5.26039V28.4395C12.8773 29.1506 12.3008 29.7272 11.5896 29.7272H14.0041C14.7152 29.7272 15.2918 29.1506 15.2918 28.4395V5.26039C15.2917 4.54914 14.7152 3.97266 14.0041 3.97266Z" fill="#D8ECFE"/>
<path id="Vector_4" d="M11.4687 26.636H3.82301C3.7543 26.636 3.68626 26.6225 3.62279 26.5962C3.55931 26.5699 3.50163 26.5314 3.45305 26.4828C3.40446 26.4342 3.36592 26.3765 3.33963 26.313C3.31334 26.2496 3.2998 26.1815 3.2998 26.1128V19.9158C3.2998 19.8471 3.31334 19.779 3.33963 19.7156C3.36592 19.6521 3.40446 19.5944 3.45305 19.5458C3.50163 19.4972 3.55931 19.4587 3.62279 19.4324C3.68626 19.4061 3.7543 19.3926 3.82301 19.3926H11.4687C11.6075 19.3926 11.7406 19.4477 11.8387 19.5458C11.9368 19.6439 11.9919 19.777 11.9919 19.9158V26.1128C11.9919 26.2516 11.9368 26.3847 11.8387 26.4828C11.7406 26.5809 11.6075 26.636 11.4687 26.636Z" fill="#F9AF0B"/>
<path id="Vector_5" d="M11.4688 19.3926H9.05432C9.19308 19.3926 9.32616 19.4477 9.42428 19.5458C9.5224 19.6439 9.57752 19.777 9.57752 19.9158V26.1128C9.57752 26.2516 9.5224 26.3847 9.42428 26.4828C9.32616 26.5809 9.19308 26.636 9.05432 26.636H11.4688C11.6075 26.636 11.7406 26.5809 11.8387 26.4828C11.9369 26.3847 11.992 26.2516 11.992 26.1128V19.9158C11.992 19.8471 11.9784 19.779 11.9522 19.7156C11.9259 19.6521 11.8873 19.5944 11.8387 19.5458C11.7902 19.4972 11.7325 19.4587 11.669 19.4324C11.6055 19.4061 11.5375 19.3926 11.4688 19.3926Z" fill="#FFDB45"/>
<g id="Group_2">
<path id="Vector_6" d="M4.78125 7.09741H7.60711C7.93078 7.09741 8.19305 6.83507 8.19305 6.51147C8.19305 6.18788 7.93078 5.92554 7.60711 5.92554H4.78125C4.62585 5.92554 4.47681 5.98727 4.36693 6.09715C4.25704 6.20704 4.19531 6.35607 4.19531 6.51147C4.19531 6.66687 4.25704 6.81591 4.36693 6.92579C4.47681 7.03568 4.62585 7.09741 4.78125 7.09741ZM4.78125 9.28015H10.5105C10.8341 9.28015 11.0964 9.0178 11.0964 8.69421C11.0964 8.37062 10.8341 8.10827 10.5105 8.10827H4.78125C4.62585 8.10827 4.47681 8.17 4.36693 8.27989C4.25704 8.38977 4.19531 8.53881 4.19531 8.69421C4.19531 8.84961 4.25704 8.99864 4.36693 9.10853C4.47681 9.21841 4.62585 9.28015 4.78125 9.28015ZM10.5105 15.5694H4.78125C4.45758 15.5694 4.19531 15.8318 4.19531 16.1554C4.19531 16.479 4.45758 16.7413 4.78125 16.7413H10.5105C10.8341 16.7413 11.0964 16.479 11.0964 16.1554C11.0964 15.8318 10.8341 15.5694 10.5105 15.5694Z" fill="#0079E0"/>
</g>
<path id="Vector_7" d="M38.7122 29.7272H25.996C25.2848 29.7272 24.7083 29.1506 24.7083 28.4395V5.26039C24.7083 4.54922 25.2848 3.97266 25.996 3.97266H38.7123C39.4235 3.97266 40 4.54922 40 5.26039V28.4395C40 29.1506 39.4234 29.7272 38.7122 29.7272Z" fill="#A6E8FD"/>
<path id="Vector_8" d="M38.7123 3.97266H36.2979C37.009 3.97266 37.5856 4.54922 37.5856 5.26039V28.4395C37.5856 29.1506 37.009 29.7272 36.2979 29.7272H38.7123C39.4235 29.7272 40 29.1506 40 28.4395V5.26039C40 4.54914 39.4235 3.97266 38.7123 3.97266Z" fill="#D8ECFE"/>
<path id="Vector_9" d="M36.177 26.636H28.5313C28.3925 26.636 28.2594 26.5809 28.1613 26.4828C28.0632 26.3847 28.0081 26.2516 28.0081 26.1128V19.9158C28.0081 19.777 28.0632 19.6439 28.1613 19.5458C28.2594 19.4477 28.3925 19.3926 28.5313 19.3926H36.177C36.3157 19.3926 36.4488 19.4477 36.5469 19.5458C36.645 19.6439 36.7002 19.777 36.7002 19.9158V26.1128C36.7002 26.1815 36.6867 26.2496 36.6604 26.313C36.6341 26.3765 36.5955 26.4342 36.5469 26.4828C36.4984 26.5314 36.4407 26.5699 36.3772 26.5962C36.3137 26.6225 36.2457 26.636 36.177 26.636Z" fill="#F9AF0B"/>
<path id="Vector_10" d="M36.1769 19.3926H33.7625C33.9012 19.3926 34.0343 19.4477 34.1324 19.5458C34.2305 19.6439 34.2857 19.777 34.2857 19.9158V26.1128C34.2857 26.2516 34.2305 26.3847 34.1324 26.4828C34.0343 26.5809 33.9012 26.636 33.7625 26.636H36.1769C36.3157 26.636 36.4487 26.5809 36.5469 26.4828C36.645 26.3847 36.7001 26.2516 36.7001 26.1128V19.9158C36.7001 19.8471 36.6866 19.779 36.6603 19.7155C36.634 19.6521 36.5955 19.5944 36.5469 19.5458C36.4983 19.4972 36.4406 19.4587 36.3771 19.4324C36.3137 19.4061 36.2456 19.3926 36.1769 19.3926Z" fill="#FFDB45"/>
<path id="Vector_11" d="M36.177 15.51H28.5313C28.3925 15.51 28.2594 15.4549 28.1613 15.3568C28.0632 15.2587 28.0081 15.1256 28.0081 14.9868V8.78981C28.0081 8.65104 28.0632 8.51796 28.1613 8.41984C28.2594 8.32172 28.3925 8.2666 28.5313 8.2666H36.177C36.3157 8.2666 36.4488 8.32172 36.5469 8.41984C36.645 8.51796 36.7002 8.65104 36.7002 8.78981V14.9868C36.7002 15.0555 36.6867 15.1236 36.6604 15.1871C36.6341 15.2506 36.5955 15.3082 36.5469 15.3568C36.4984 15.4054 36.4407 15.4439 36.3772 15.4702C36.3137 15.4965 36.2457 15.51 36.177 15.51Z" fill="#6C7FD8"/>
<path id="Vector_12" d="M36.1769 8.2666H33.7625C33.9012 8.2666 34.0343 8.32172 34.1324 8.41984C34.2305 8.51796 34.2857 8.65104 34.2857 8.78981V14.9868C34.2857 15.1256 34.2305 15.2587 34.1324 15.3568C34.0343 15.4549 33.9012 15.51 33.7625 15.51H36.1769C36.3157 15.51 36.4487 15.4549 36.5469 15.3568C36.645 15.2587 36.7001 15.1256 36.7001 14.9868V8.78981C36.7001 8.72109 36.6866 8.65305 36.6603 8.58957C36.634 8.52609 36.5955 8.46841 36.5469 8.41982C36.4983 8.37124 36.4406 8.3327 36.3771 8.30641C36.3137 8.28012 36.2456 8.26659 36.1769 8.2666Z" fill="#4F66D0"/>
<g id="Group_3">
<path id="Vector_13" d="M6.14478 22.5271H8.31782C8.64149 22.5271 8.90376 22.2648 8.90376 21.9412C8.90376 21.6176 8.64149 21.3552 8.31782 21.3552H6.14478C5.98938 21.3552 5.84034 21.417 5.73046 21.5268C5.62057 21.6367 5.55884 21.7858 5.55884 21.9412C5.55884 22.0966 5.62057 22.2456 5.73046 22.3555C5.84034 22.4654 5.98938 22.5271 6.14478 22.5271ZM9.57751 23.5015H6.14478C5.8211 23.5015 5.55884 23.7638 5.55884 24.0874C5.55884 24.411 5.8211 24.6734 6.14478 24.6734H9.57743C9.9011 24.6734 10.1634 24.411 10.1634 24.0874C10.1634 23.7638 9.9011 23.5015 9.57751 23.5015ZM30.8531 22.5271H33.0261C33.3498 22.5271 33.612 22.2648 33.612 21.9412C33.612 21.6176 33.3498 21.3552 33.0261 21.3552H30.8531C30.5294 21.3552 30.2671 21.6176 30.2671 21.9412C30.2671 22.2648 30.5294 22.5271 30.8531 22.5271ZM34.2857 23.5015H30.8531C30.5294 23.5015 30.2671 23.7638 30.2671 24.0874C30.2671 24.411 30.5294 24.6734 30.8531 24.6734H34.2857C34.6094 24.6734 34.8716 24.411 34.8716 24.0874C34.8716 23.7638 34.6094 23.5015 34.2857 23.5015Z" fill="#A6E8FD"/>
</g>
<path id="Vector_14" d="M23.4332 11.8189L21.9844 10.4545C21.9284 10.4018 21.8625 10.3606 21.7906 10.3333C21.7187 10.306 21.642 10.2931 21.5651 10.2954C21.4882 10.2977 21.4125 10.3152 21.3423 10.3467C21.2722 10.3783 21.2089 10.4234 21.1561 10.4794C21.1034 10.5354 21.0622 10.6013 21.0349 10.6732C21.0076 10.7452 20.9947 10.8218 20.997 10.8987C20.9993 10.9756 21.0168 11.0513 21.0483 11.1215C21.0799 11.1917 21.125 11.2549 21.181 11.3077L21.5543 11.6593H10.1006C9.77691 11.6593 9.51465 11.9217 9.51465 12.2453C9.51465 12.5688 9.77691 12.8312 10.1006 12.8312H21.6718L21.1568 13.376C21.0501 13.489 20.9926 13.6397 20.997 13.795C21.0014 13.9504 21.0673 14.0976 21.1802 14.2044C21.2932 14.3111 21.4439 14.3686 21.5992 14.3642C21.7546 14.3598 21.9018 14.2939 22.0086 14.181L23.4573 12.6479C23.5102 12.5919 23.5515 12.526 23.5789 12.4541C23.6063 12.3821 23.6193 12.3054 23.617 12.2284C23.6148 12.1514 23.5974 12.0756 23.5658 12.0054C23.5343 11.9351 23.4892 11.8718 23.4332 11.8189Z" fill="#0079E0"/>
<path id="Vector_15" d="M10.6238 13.6134H4.66801C3.91238 13.6134 3.2998 13.0008 3.2998 12.2452C3.2998 11.4895 3.91238 10.877 4.66801 10.877H10.6237C11.3793 10.877 11.9919 11.4895 11.9919 12.2452C11.992 13.0008 11.3794 13.6134 10.6238 13.6134Z" fill="#F96C6D"/>
<path id="Vector_16" d="M10.6238 10.877H8.20935C8.96498 10.877 9.57755 11.4895 9.57755 12.2452C9.57755 13.0008 8.96498 13.6134 8.20935 13.6134H10.6238C11.3794 13.6134 11.992 13.0008 11.992 12.2452C11.992 11.4895 11.3794 10.877 10.6238 10.877Z" fill="#F64749"/>
</g>
</g>
<defs>
<clipPath id="clip0_0_784">
<rect width="40" height="40" fill="white"/>
</clipPath>
</defs>
</svg>
