<svg width="69" height="69" viewBox="0 0 69 69" fill="none" xmlns="http://www.w3.org/2000/svg">
<g clip-path="url(#clip0_0_585)">
<path d="M43.5511 54.9886C43.9557 55.2093 44.4102 55.3222 44.871 55.3166C45.3319 55.311 45.7835 55.1871 46.1826 54.9566C46.5817 54.7262 46.9149 54.3971 47.1501 54.0008C47.3854 53.6045 47.5148 53.1544 47.526 52.6937C47.6295 47.8451 48.3167 43.0266 49.5728 38.3423C50.8284 33.6609 52.6433 29.1477 54.9783 24.9002C55.1997 24.4961 55.3135 24.0417 55.3088 23.5809C55.3041 23.1201 55.181 22.6682 54.9513 22.2687C54.7217 21.8691 54.3932 21.5353 53.9973 21.2993C53.6015 21.0633 53.1517 20.933 52.691 20.9209C47.8471 20.8002 43.0345 20.1058 38.354 18.8523C33.673 17.5975 29.1571 15.7923 24.9009 13.4746C24.4958 13.2548 24.0411 13.1428 23.5803 13.1494C23.1195 13.156 22.6681 13.2809 22.2695 13.5122C21.8709 13.7434 21.5384 14.0733 21.304 14.4701C21.0696 14.8668 20.9411 15.3172 20.9309 15.778C20.8303 20.6103 20.1493 25.413 18.9023 30.0827C17.6475 34.7794 15.8294 39.3072 13.4876 43.5674C13.2669 43.972 13.154 44.4265 13.1596 44.8873C13.1652 45.3481 13.2891 45.7998 13.5195 46.1989C13.75 46.598 14.0791 46.9312 14.4754 47.1664C14.8717 47.4017 15.3218 47.5311 15.7825 47.5423C25.5017 47.763 35.0255 50.3168 43.5511 54.9886Z" fill="#F64749"/>
</g>
<defs>
<clipPath id="clip0_0_585">
<rect width="50" height="50" fill="white" transform="translate(43.3823 0.0810547) rotate(60)"/>
</clipPath>
</defs>
</svg>
