<svg width="67" height="67" viewBox="0 0 67 67" fill="none" xmlns="http://www.w3.org/2000/svg">
<g id="shape1 2" clip-path="url(#clip0_0_576)">
<g id="Group">
<path id="1 Diamond" d="M52.7571 44.6041C53.2147 44.5488 53.6503 44.3769 54.0222 44.1047C54.3941 43.8326 54.6898 43.4694 54.8809 43.05C55.0721 42.6307 55.1522 42.1693 55.1136 41.71C55.075 41.2508 54.9191 40.8092 54.6607 40.4276C51.9294 36.4201 49.6909 32.0981 47.9935 27.5552C46.2973 23.0147 45.1541 18.2865 44.5887 13.4726C44.5343 13.015 44.3631 12.5791 44.0917 12.2066C43.8203 11.8342 43.4577 11.5378 43.0387 11.3459C42.6197 11.1539 42.1584 11.0729 41.6991 11.1106C41.2398 11.1483 40.7979 11.3035 40.4158 11.5611C36.4021 14.2756 32.0809 16.5049 27.5424 18.2021C23.0028 19.8988 18.278 21.0514 13.4671 21.6359C13.0097 21.6922 12.5744 21.8651 12.2031 22.138C11.8318 22.411 11.5368 22.7748 11.3466 23.1945C11.1563 23.6143 11.0772 24.0759 11.1168 24.535C11.1563 24.9942 11.3132 25.4355 11.5725 25.8165C14.2966 29.809 16.531 34.1146 18.2274 38.6404C19.9331 43.1928 21.0821 47.9347 21.6493 52.763C21.7046 53.2205 21.8766 53.6561 22.1488 54.028C22.4209 54.3999 22.7841 54.6957 23.2034 54.8868C23.6228 55.0779 24.0842 55.158 24.5435 55.1194C25.0027 55.0809 25.4443 54.9249 25.8259 54.6665C33.8667 49.2024 43.1033 45.7513 52.7571 44.6041Z" fill="#E9CA1C"/>
</g>
</g>
<defs>
<clipPath id="clip0_0_576">
<rect width="50" height="50" fill="white" transform="translate(20.7361) rotate(24.5017)"/>
</clipPath>
</defs>
</svg>
