<svg width="40" height="40" viewBox="0 0 40 40" fill="none" xmlns="http://www.w3.org/2000/svg">
<g id="user research 1" clip-path="url(#clip0_0_830)">
<g id="Group">
<path id="Vector" d="M15.4985 3.09146C15.1438 1.29436 13.5744 0.00146484 11.7473 0.00146484C10.8774 0.00146484 10.052 0.301074 9.39618 0.812246L4.32008 2.32475L4.32008 11.392L9.39618 12.9045C10.052 13.4157 10.8775 13.7054 11.7473 13.7054C13.5743 13.7054 15.1437 12.4125 15.4984 10.6154C17.3498 10.3588 18.781 8.77131 18.7927 6.85342C18.7811 4.93553 17.3498 3.34803 15.4985 3.09146Z" fill="#FFDBE0"/>
<path id="Vector_2" d="M8.11891 11.1891C7.98492 10.8309 7.69086 10.5571 7.32656 10.4405C5.80727 9.95469 4.70461 8.53414 4.6982 6.85297C4.69172 5.14234 5.82219 3.69297 7.37906 3.22023C7.56463 3.16375 7.73468 3.06528 7.87605 2.93247C8.01741 2.79965 8.12629 2.63606 8.19422 2.45438C8.43746 1.80759 8.85313 1.23974 9.39617 0.812422C8.73984 0.299922 7.92453 0 7.05383 0C5.22398 0 3.66172 1.29672 3.3043 3.0807C1.45734 3.32984 0.00742187 4.90977 0 6.85352C0.00742187 8.79719 1.45734 10.3771 3.3043 10.6263C3.66172 12.4103 5.22398 13.707 7.05391 13.707C7.92461 13.707 8.73984 13.417 9.39617 12.9046C8.82156 12.4664 8.37539 11.8747 8.11891 11.1891Z" fill="#FFB5C0"/>
<path id="Vector_3" d="M36.7058 3.09146C36.3509 1.29436 34.7816 0.00146484 32.9546 0.00146484C32.0847 0.00146484 31.2593 0.301074 30.6034 0.812246L25.5273 2.32475V11.392L30.6034 12.9045C31.2593 13.4157 32.0848 13.7054 32.9546 13.7054C34.7816 13.7054 36.3509 12.4125 36.7057 10.6154C37.141 10.5551 37.5624 10.4195 37.9513 10.2147C39.1615 9.5781 39.9911 8.31123 39.9999 6.8535C39.9884 4.93553 38.5571 3.34803 36.7058 3.09146Z" fill="#B9F0FF"/>
<path id="Vector_4" d="M29.3262 11.1891C29.1922 10.8309 28.8981 10.5571 28.5338 10.4405C27.0145 9.95469 25.9119 8.53414 25.9055 6.85297C25.899 5.14234 27.0294 3.69297 28.5863 3.22023C28.7719 3.16375 28.9419 3.06528 29.0833 2.93247C29.2247 2.79965 29.3335 2.63606 29.4015 2.45438C29.6447 1.80759 30.0604 1.23974 30.6034 0.812422C29.947 0.299922 29.1318 0 28.2611 0C26.4312 0 24.869 1.29672 24.5115 3.0807C22.6645 3.32992 21.2146 4.90977 21.2072 6.85352C21.2146 8.79719 22.6645 10.3771 24.5115 10.6263C24.8689 12.4103 26.4312 13.707 28.2611 13.707C29.1318 13.707 29.947 13.417 30.6034 12.9046C30.0288 12.4664 29.5827 11.8747 29.3262 11.1891Z" fill="#7CBCF3"/>
<path id="Vector_5" d="M28.7309 36.9601C27.7963 34.2889 25.6741 32.2043 23.0967 31.2826C22.12 30.9332 21.0733 30.7537 19.9901 30.7537C18.8987 30.7537 17.8523 30.9344 16.8791 31.2826L16.163 31.9783V40H26.5629C28.1391 40 29.2509 38.4464 28.7309 36.9601Z" fill="#FFB39D"/>
<path id="Vector_6" d="M19.9804 31.714L16.8792 31.2827C14.3797 32.1779 12.2098 34.2154 11.2495 36.9601C10.7295 38.4465 11.8414 40.0001 13.4175 40.0001H16.163C16.1633 39.7657 16.1937 39.5051 16.2474 39.2266C16.6395 36.3825 17.9504 33.7443 19.9804 31.714Z" fill="#F64749"/>
<path id="Vector_7" d="M30.5616 26.4606C32.085 26.4606 33.3199 25.227 33.3199 23.7052C33.3199 22.1834 32.085 20.9497 30.5616 20.9497C29.0383 20.9497 27.8033 22.1834 27.8033 23.7052C27.8033 25.227 29.0383 26.4606 30.5616 26.4606Z" fill="#F5C84C"/>
<path id="Vector_8" d="M21.8159 9.71924H18.2959L8.89578 20.6406L18.2959 31.5617H21.8159C22.2505 31.4893 22.6807 31.4038 23.0968 31.2826C27.706 29.9403 31.0652 25.6785 31.0652 20.6406C31.0651 15.1501 27.0633 10.5938 21.8159 9.71924Z" fill="#F5C84C"/>
<g id="Group_2">
<path id="Vector_9" d="M12.5703 20.6407C12.5703 15.1503 16.5686 10.594 21.8159 9.7194C21.2093 9.6181 20.5954 9.56717 19.9804 9.56714C13.8587 9.56714 8.89586 14.525 8.89586 20.6407C8.89586 25.6823 12.2649 29.9438 16.8793 31.2828C17.8623 31.568 18.9053 31.7141 19.9805 31.7141C20.6065 31.7141 21.2183 31.6614 21.8159 31.5618C16.5686 30.6873 12.5703 26.131 12.5703 20.6407Z" fill="#F9AF0B"/>
<path id="Vector_10" d="M9.43837 26.4606C10.9617 26.4606 12.1966 25.227 12.1966 23.7052C12.1966 22.1834 10.9617 20.9497 9.43837 20.9497C7.91501 20.9497 6.68008 22.1834 6.68008 23.7052C6.68008 25.227 7.91501 26.4606 9.43837 26.4606Z" fill="#F9AF0B"/>
</g>
<path id="Vector_11" d="M14.4755 23.5003C15.7981 23.5003 16.8703 22.6464 16.8703 21.5931C16.8703 20.5399 15.7981 19.686 14.4755 19.686C13.1528 19.686 12.0806 20.5399 12.0806 21.5931C12.0806 22.6464 13.1528 23.5003 14.4755 23.5003Z" fill="white"/>
<path id="Vector_12" d="M27.4561 23.5115C28.7787 23.5115 29.8509 22.6576 29.8509 21.6044C29.8509 20.5511 28.7787 19.6973 27.4561 19.6973C26.1335 19.6973 25.0612 20.5511 25.0612 21.6044C25.0612 22.6576 26.1335 23.5115 27.4561 23.5115Z" fill="white"/>
<g id="Group_3">
<path id="Vector_13" d="M26.6259 18.1968C26.5466 18.1968 26.4681 18.2124 26.3949 18.2427C26.3216 18.2731 26.2551 18.3175 26.199 18.3736C26.143 18.4296 26.0985 18.4962 26.0682 18.5694C26.0379 18.6426 26.0223 18.7211 26.0223 18.8004V19.7562C26.0223 19.8355 26.0379 19.914 26.0682 19.9872C26.0985 20.0604 26.143 20.127 26.199 20.183C26.2551 20.2391 26.3216 20.2835 26.3949 20.3139C26.4681 20.3442 26.5466 20.3598 26.6259 20.3598C26.7051 20.3598 26.7836 20.3442 26.8569 20.3139C26.9301 20.2835 26.9966 20.2391 27.0527 20.183C27.1087 20.127 27.1532 20.0604 27.1835 19.9872C27.2139 19.914 27.2295 19.8355 27.2295 19.7562V18.8004C27.2295 18.7211 27.2139 18.6426 27.1835 18.5694C27.1532 18.4962 27.1087 18.4296 27.0527 18.3736C26.9966 18.3175 26.9301 18.2731 26.8569 18.2427C26.7836 18.2124 26.7051 18.1968 26.6259 18.1968ZM16.5518 17.5063C16.051 17.6585 15.408 17.7317 15.2248 17.6596C15.1145 17.5484 14.9653 17.4845 14.8087 17.4813C14.6522 17.4781 14.5005 17.5359 14.3857 17.6425C14.2709 17.749 14.2021 17.896 14.1936 18.0524C14.1852 18.2088 14.2379 18.3623 14.3405 18.4806C14.6144 18.7947 15.0559 18.8952 15.5091 18.8952C15.6172 18.8952 15.7258 18.8892 15.833 18.8794V19.7463C15.833 19.8255 15.8486 19.904 15.8789 19.9773C15.9092 20.0505 15.9537 20.117 16.0097 20.1731C16.0658 20.2291 16.1323 20.2736 16.2056 20.3039C16.2788 20.3343 16.3573 20.3499 16.4366 20.3499C16.5158 20.3499 16.5943 20.3343 16.6676 20.3039C16.7408 20.2736 16.8073 20.2291 16.8634 20.1731C16.9194 20.117 16.9639 20.0505 16.9942 19.9773C17.0246 19.904 17.0402 19.8255 17.0402 19.7463V18.7905C17.0402 18.7295 17.0309 18.6707 17.0141 18.6152C17.1366 18.549 17.2324 18.4425 17.2854 18.3137C17.3384 18.185 17.3452 18.0419 17.3048 17.9087C17.2582 17.7555 17.1528 17.6271 17.0116 17.5517C16.8704 17.4763 16.705 17.46 16.5518 17.5063ZM27.6074 17.0017C26.8141 15.9243 25.4536 16.4408 24.8451 16.8642C24.5723 17.0539 24.5054 17.4277 24.6939 17.7013C24.8823 17.9749 25.2577 18.0439 25.5323 17.8566C25.5403 17.8512 26.3427 17.3203 26.6353 17.7175C26.6823 17.7814 26.7414 17.8353 26.8093 17.8763C26.8771 17.9173 26.9524 17.9445 27.0308 17.9564C27.1091 17.9683 27.1891 17.9647 27.2661 17.9457C27.343 17.9266 27.4155 17.8927 27.4793 17.8456C27.5431 17.7987 27.5971 17.7395 27.6381 17.6717C27.679 17.6039 27.7063 17.5286 27.7182 17.4502C27.7301 17.3719 27.7264 17.2919 27.7074 17.215C27.6884 17.138 27.6544 17.0656 27.6074 17.0017ZM22.2887 20.0126H22.2702C21.7709 20.0126 20.6225 20.0108 19.867 19.7019C19.7936 19.6719 19.715 19.6566 19.6358 19.657C19.5565 19.6574 19.4781 19.6733 19.405 19.704C19.3319 19.7347 19.2656 19.7795 19.2098 19.8358C19.154 19.8921 19.1098 19.9588 19.0798 20.0322C19.0193 20.1804 19.02 20.3466 19.082 20.4942C19.1439 20.6418 19.262 20.7587 19.4102 20.8193C20.3843 21.2176 21.6514 21.2198 22.2686 21.2198H22.2888C22.4472 21.2172 22.5983 21.1525 22.7094 21.0396C22.8205 20.9267 22.8828 20.7746 22.8828 20.6162C22.8827 20.4577 22.8205 20.3057 22.7093 20.1928C22.5982 20.0798 22.4472 20.0151 22.2887 20.0126Z" fill="#313D40"/>
</g>
<path id="Vector_14" d="M5.30477 10.4563H1.20727C0.540469 10.4563 0 10.9967 0 11.6635C0 12.3303 0.540469 12.8708 1.20727 12.8708H5.30484C5.97164 12.8708 6.51211 12.3303 6.51211 11.6635C6.51203 10.9967 5.97164 10.4563 5.30477 10.4563Z" fill="#EA5B70"/>
<path id="Vector_15" d="M38.7927 10.2148H37.9513V9.37328C37.9513 8.70047 37.4009 8.16602 36.744 8.16602C36.0772 8.16602 35.5367 8.70648 35.5367 9.37328V10.2148H34.6951C34.0283 10.2148 33.4878 10.7552 33.4878 11.422C33.4878 12.0888 34.0283 12.6293 34.6951 12.6293H35.5367V13.4709C35.5367 14.1377 36.0772 14.6782 36.744 14.6782C37.4005 14.6782 37.9513 14.1442 37.9513 13.4709V12.6293H38.7927C39.4595 12.6293 40 12.0888 40 11.422C40 10.7552 39.4595 10.2148 38.7927 10.2148Z" fill="#0079E0"/>
<path id="Vector_16" d="M6.41852 3.87572V7.89986C6.41852 8.56658 6.95899 9.10713 7.62578 9.10713H8.83305V3.87572C8.83305 3.209 8.29258 2.66846 7.62578 2.66846C6.95899 2.66846 6.41852 3.209 6.41852 3.87572Z" fill="#EA5B70"/>
<path id="Vector_17" d="M8.83296 5.48534V9.10706H11.2474V5.48534C11.2474 4.81862 10.7069 4.27808 10.0402 4.27808C9.37335 4.27808 8.83296 4.81854 8.83296 5.48534Z" fill="#F64749"/>
<path id="Vector_18" d="M11.2475 7.09496V9.10707H12.4548C13.1215 9.10707 13.662 8.5666 13.662 7.8998V7.09496C13.662 6.42824 13.1216 5.8877 12.4548 5.8877C11.788 5.88777 11.2475 6.42824 11.2475 7.09496Z" fill="#FFB5C0"/>
<path id="Vector_19" d="M33.5815 3.87572V7.89986C33.5815 8.56658 33.041 9.10713 32.3742 9.10713H31.167V3.87572C31.167 3.209 31.7074 2.66846 32.3742 2.66846C33.041 2.66846 33.5815 3.209 33.5815 3.87572Z" fill="#1CBBEA"/>
<path id="Vector_20" d="M31.167 5.48534V9.10706H28.7526V5.48534C28.7526 4.81862 29.293 4.27808 29.9598 4.27808C30.6265 4.27808 31.167 4.81854 31.167 5.48534Z" fill="#0079E0"/>
<path id="Vector_21" d="M28.7525 7.09496V9.10707H27.5452C26.8785 9.10707 26.338 8.5666 26.338 7.8998V7.09496C26.338 6.42824 26.8785 5.8877 27.5452 5.8877C28.212 5.88777 28.7525 6.42824 28.7525 7.09496Z" fill="#7CBCF3"/>
</g>
</g>
<defs>
<clipPath id="clip0_0_830">
<rect width="40" height="40" fill="white"/>
</clipPath>
</defs>
</svg>
