<svg width="40" height="40" viewBox="0 0 40 40" fill="none" xmlns="http://www.w3.org/2000/svg">
<g id="visual design 1">
<g id="Group">
<path id="Vector" d="M18.563 36.7241H22.5562L19.2251 29.4021H8.97624L5.64514 36.7241H9.63842L11.4254 33.0141C11.4879 32.8843 11.5858 32.7748 11.7078 32.6981C11.8299 32.6214 11.971 32.5808 12.1151 32.5808H16.0863C16.2304 32.5808 16.3716 32.6214 16.4936 32.6981C16.6156 32.7748 16.7135 32.8843 16.7761 33.0141L18.563 36.7241Z" fill="#9EC8FC"/>
<path id="Vector_2" d="M28.2013 27.4571L0 27.0201V9.6533C0 9.57347 0.0157236 9.49442 0.0462729 9.42067C0.0768223 9.34692 0.121599 9.2799 0.178047 9.22346C0.234495 9.16701 0.301508 9.12223 0.375261 9.09168C0.449014 9.06113 0.528061 9.04541 0.607891 9.04541H27.5934C27.7547 9.04541 27.9093 9.10946 28.0233 9.22346C28.1373 9.33746 28.2013 9.49208 28.2013 9.6533V27.4571Z" fill="#6CBFF8"/>
<path id="Vector_3" d="M27.5934 9.04541H25.0984C25.2596 9.04541 25.4142 9.10946 25.5282 9.22346C25.6422 9.33746 25.7063 9.49208 25.7063 9.6533V27.4571H28.2013V9.6533C28.2013 9.57347 28.1856 9.49442 28.155 9.42067C28.1245 9.34692 28.0797 9.2799 28.0232 9.22346C27.9668 9.16701 27.8998 9.12223 27.826 9.09168C27.7523 9.06113 27.6732 9.04541 27.5934 9.04541Z" fill="#5FA7EE"/>
<path id="Vector_4" d="M28.2013 27.02H0V29.4324C0 29.5937 0.0640454 29.7483 0.178047 29.8623C0.292049 29.9763 0.446668 30.0403 0.607891 30.0403H27.5934C27.7547 30.0403 27.9093 29.9763 28.0233 29.8623C28.1373 29.7483 28.2013 29.5937 28.2013 29.4324V27.02Z" fill="#C6E1F9"/>
<path id="Vector_5" d="M25.7064 27.02V29.4324C25.7064 29.5123 25.6907 29.5913 25.6602 29.6651C25.6296 29.7388 25.5848 29.8059 25.5284 29.8623C25.4719 29.9188 25.4049 29.9635 25.3312 29.9941C25.2574 30.0246 25.1783 30.0403 25.0985 30.0403H27.5935C27.6733 30.0403 27.7524 30.0246 27.8261 29.9941C27.8999 29.9635 27.9669 29.9187 28.0234 29.8623C28.0798 29.8058 28.1246 29.7388 28.1551 29.6651C28.1857 29.5913 28.2014 29.5123 28.2014 29.4324V27.02H25.7064Z" fill="#BED9FD"/>
<path id="Vector_6" d="M14.1007 16.7943C13.6994 16.7943 13.3048 16.0392 12.9188 16.089C10.6952 16.3761 8.75697 17.4611 7.46861 19.0125C7.36242 19.1408 7.30432 19.3022 7.30432 19.4688C7.30432 19.6353 7.36242 19.7967 7.46861 19.925C8.75697 21.4764 10.6952 22.5614 12.9188 22.8485C13.3048 22.8983 13.6994 22.1432 14.1007 22.1432C14.502 22.1432 14.8967 22.8983 15.2827 22.8485C17.5063 22.5614 19.4445 21.4764 20.7328 19.925C20.839 19.7967 20.8971 19.6353 20.8971 19.4688C20.8971 19.3022 20.839 19.1408 20.7328 19.0125C19.4445 17.4611 17.5063 16.3761 15.2827 16.089C14.8966 16.0392 14.502 16.7943 14.1007 16.7943Z" fill="#C6E1F9"/>
<path id="Vector_7" d="M12.9188 16.089C11.5225 16.5772 10.5206 17.9057 10.5206 19.4687C10.5206 21.0317 11.5225 22.3601 12.9188 22.8485C13.7035 22.9498 14.498 22.9498 15.2827 22.8485C16.6789 22.3602 17.6808 21.0317 17.6808 19.4687C17.6808 17.9057 16.6789 16.5773 15.2827 16.089C14.498 15.9876 13.7035 15.9876 12.9188 16.089ZM23.9845 20.5979C23.7375 24.81 24.5802 27.7218 29.2771 27.2047L31.1455 25.3364C31.6625 20.6395 28.7507 19.7968 24.5387 20.0438C24.3945 20.0525 24.2586 20.1136 24.1565 20.2157C24.0544 20.3178 23.9932 20.4538 23.9845 20.5979Z" fill="#005BA9"/>
<path id="Vector_8" d="M30.679 29.2252L36.3576 34.9039C36.395 34.9413 36.4393 34.9709 36.4882 34.9911C36.537 35.0114 36.5893 35.0218 36.6422 35.0218C36.695 35.0218 36.7473 35.0114 36.7961 34.9911C36.845 34.9709 36.8893 34.9413 36.9267 34.9039L38.8446 32.986C38.8819 32.9487 38.9116 32.9043 38.9318 32.8555C38.952 32.8067 38.9625 32.7543 38.9625 32.7015C38.9625 32.6486 38.952 32.5963 38.9318 32.5475C38.9116 32.4987 38.8819 32.4543 38.8446 32.417L33.1659 26.7383L30.679 29.2252Z" fill="#F64749"/>
<path id="Vector_9" d="M30.37 30.3718L27.8338 27.8357C27.7796 27.7815 27.7366 27.7171 27.7073 27.6463C27.6779 27.5755 27.6628 27.4996 27.6628 27.4229C27.6628 27.3463 27.6779 27.2704 27.7073 27.1996C27.7366 27.1287 27.7796 27.0644 27.8338 27.0102L30.9509 23.8932C31.0051 23.839 31.0694 23.796 31.1402 23.7666C31.211 23.7373 31.287 23.7222 31.3636 23.7222C31.4403 23.7222 31.5162 23.7373 31.587 23.7666C31.6578 23.796 31.7221 23.839 31.7763 23.8932L34.3125 26.4293C34.3667 26.4835 34.4097 26.5479 34.4391 26.6187C34.4684 26.6895 34.4835 26.7654 34.4835 26.8421C34.4835 26.9187 34.4684 26.9946 34.4391 27.0655C34.4097 27.1363 34.3667 27.2006 34.3125 27.2548L31.1955 30.3718C31.1413 30.4261 31.0769 30.4691 31.0061 30.4984C30.9353 30.5277 30.8594 30.5428 30.7828 30.5428C30.7061 30.5428 30.6302 30.5277 30.5594 30.4984C30.4886 30.4691 30.4242 30.4261 30.37 30.3718Z" fill="#0079E0"/>
<path id="Vector_10" d="M38.4962 2.67261H26.6298C25.7993 2.67261 25.126 3.34589 25.126 4.17644V12.6504C25.126 13.245 25.4714 13.7579 25.9725 14.0015C26.2243 14.1239 26.3911 14.3712 26.3911 14.6512V16.5412C26.3911 16.9698 26.9164 17.1764 27.2085 16.8627L29.3541 14.5569C29.4723 14.4299 29.6154 14.3286 29.7745 14.2593C29.9336 14.19 30.1052 14.1543 30.2787 14.1542H38.4962C39.3268 14.1542 40 13.481 40 12.6504V4.17651C40 3.34589 39.3268 2.67261 38.4962 2.67261Z" fill="#FFDB45"/>
<path id="Vector_11" d="M38.4962 2.67261H36.3231C37.1537 2.67261 37.8269 3.34589 37.8269 4.17644V12.6504C37.8269 13.481 37.1537 14.1542 36.3231 14.1542H38.4962C39.3267 14.1542 40 13.481 40 12.6504V4.17651C40 3.34589 39.3267 2.67261 38.4962 2.67261Z" fill="#F5C84C"/>
<path id="Vector_12" d="M25.9956 37.3275H2.20564C2.04556 37.3275 1.89204 37.264 1.77884 37.1508C1.66564 37.0376 1.60205 36.884 1.60205 36.724C1.60205 36.5639 1.66564 36.4103 1.77884 36.2972C1.89204 36.184 2.04556 36.1204 2.20564 36.1204H25.9956C26.0749 36.1204 26.1534 36.136 26.2266 36.1663C26.2999 36.1967 26.3664 36.2411 26.4224 36.2972C26.4785 36.3532 26.5229 36.4198 26.5533 36.493C26.5836 36.5662 26.5992 36.6447 26.5992 36.724C26.5992 36.8033 26.5836 36.8817 26.5532 36.955C26.5229 37.0282 26.4784 37.0947 26.4224 37.1508C26.3663 37.2068 26.2998 37.2513 26.2266 37.2816C26.1533 37.3119 26.0748 37.3276 25.9956 37.3275Z" fill="#C6E1F9"/>
<g id="Group_2">
<path id="Vector_13" d="M14.1007 14.1554C13.9453 14.1554 13.7963 14.0937 13.6864 13.9838C13.5765 13.8739 13.5148 13.7249 13.5148 13.5695V12.9826C13.5148 12.6589 13.7771 12.3967 14.1007 12.3967C14.4243 12.3967 14.6867 12.6589 14.6867 12.9826V13.5695C14.6867 13.7249 14.6249 13.8739 14.5151 13.9838C14.4052 14.0937 14.2561 14.1554 14.1007 14.1554ZM18.495 14.876C18.3791 14.876 18.2658 14.8416 18.1695 14.7772C18.0731 14.7128 17.998 14.6213 17.9537 14.5143C17.9093 14.4072 17.8977 14.2894 17.9203 14.1757C17.9429 14.0621 17.9987 13.9577 18.0807 13.8757L18.3207 13.6357C18.4312 13.5289 18.5792 13.4698 18.7329 13.4711C18.8866 13.4724 19.0337 13.534 19.1424 13.6427C19.251 13.7514 19.3127 13.8984 19.314 14.0521C19.3152 14.2058 19.2561 14.3539 19.1493 14.4644L18.9093 14.7044C18.8549 14.7589 18.7903 14.8021 18.7192 14.8315C18.6481 14.861 18.5719 14.8761 18.495 14.876ZM9.70645 14.876C9.62949 14.8761 9.55328 14.861 9.48218 14.8315C9.41108 14.8021 9.3465 14.7589 9.29215 14.7044L9.05215 14.4644C8.94306 14.3544 8.88199 14.2056 8.88233 14.0506C8.88266 13.8957 8.94436 13.7472 9.05392 13.6376C9.16349 13.528 9.312 13.4663 9.46695 13.4659C9.62191 13.4656 9.77069 13.5266 9.88074 13.6357L10.1207 13.8757C10.2027 13.9577 10.2585 14.0621 10.2811 14.1757C10.3037 14.2894 10.2921 14.4072 10.2477 14.5143C10.2034 14.6213 10.1283 14.7128 10.032 14.7772C9.9356 14.8416 9.82233 14.876 9.70645 14.876ZM36.3376 6.25659H28.7884C28.4648 6.25659 28.2025 5.99433 28.2025 5.67065C28.2025 5.34698 28.4648 5.08472 28.7884 5.08472H36.3376C36.6612 5.08472 36.9236 5.34698 36.9236 5.67065C36.9236 5.99433 36.6612 6.25659 36.3376 6.25659ZM36.3376 8.99925H28.7884C28.4648 8.99925 28.2025 8.73698 28.2025 8.41331C28.2025 8.08964 28.4648 7.82737 28.7884 7.82737H36.3376C36.6612 7.82737 36.9236 8.08964 36.9236 8.41331C36.9236 8.73698 36.6612 8.99925 36.3376 8.99925ZM32.4469 11.742H28.7883C28.4647 11.742 28.2024 11.4797 28.2024 11.156C28.2024 10.8324 28.4647 10.5701 28.7883 10.5701H32.4469C32.7705 10.5701 33.0329 10.8324 33.0329 11.156C33.0329 11.4797 32.7705 11.742 32.4469 11.742Z" fill="#005BA9"/>
</g>
</g>
</g>
</svg>
