<svg width="20" height="20" viewBox="0 0 20 20" fill="none" xmlns="http://www.w3.org/2000/svg">
<g id="instragram 1" clip-path="url(#clip0_0_470)">
<g id="Group">
<path id="Vector" d="M15 0H5C2.25024 0 0 2.24927 0 5V15C0 17.7498 2.25024 20 5 20H15C17.7498 20 20 17.7498 20 15V5C20 2.24927 17.7498 0 15 0ZM10 14.1665C7.69849 14.1665 5.83325 12.3005 5.83325 10C5.83325 7.69849 7.69849 5.83325 10 5.83325C12.3005 5.83325 14.1667 7.69849 14.1667 10C14.1667 12.3005 12.3005 14.1665 10 14.1665ZM15.4167 5.83325C14.7257 5.83325 14.1667 5.27349 14.1667 4.58325C14.1667 3.89302 14.7257 3.33325 15.4167 3.33325C16.1078 3.33325 16.6667 3.89302 16.6667 4.58325C16.6667 5.27349 16.1078 5.83325 15.4167 5.83325Z" fill="#404040"/>
</g>
</g>
<defs>
<clipPath id="clip0_0_470">
<rect width="20" height="20" fill="white"/>
</clipPath>
</defs>
</svg>
