<svg width="24" height="24" viewBox="0 0 24 24" fill="none" xmlns="http://www.w3.org/2000/svg">
<g id="medium">
<g id="Group">
<path id="Vector" d="M13.5373 12.9999C13.5373 16.7638 10.5069 19.815 6.76866 19.815C3.03042 19.815 0 16.7638 0 12.9999C0 9.23605 3.03042 6.18481 6.76866 6.18481C10.5068 6.18481 13.5373 9.23605 13.5373 12.9999ZM20.9627 12.9999C20.9627 16.543 19.4475 19.4151 17.5784 19.4151C15.7093 19.4151 14.194 16.543 14.194 12.9999C14.194 9.45688 15.7093 6.58471 17.5784 6.58471C19.4475 6.58471 20.9627 9.45688 20.9627 12.9999ZM24 12.9999C24 16.1743 23.4671 18.7477 22.8097 18.7477C22.1523 18.7477 21.6195 16.1743 21.6195 12.9999C21.6195 9.8255 22.1523 7.25216 22.8097 7.25216C23.4671 7.25216 24 9.8255 24 12.9999Z" fill="#404040"/>
</g>
</g>
</svg>
