<svg width="264" height="244" viewBox="0 0 264 244" fill="none" xmlns="http://www.w3.org/2000/svg">
<path d="M257.051 116.994C276.614 81.971 252.661 39.9084 212.769 35.9355L198.212 34.4851C187.595 33.4265 178.112 28.8266 170.233 19.9816C142.809 -10.7987 91.7446 -3.19784 74.9348 33.7817C70.8407 42.7877 63.4374 49.992 54.0891 54.0685L33.5811 63.0094C0.891009 77.2613 -10.1924 116.807 10.4564 145.088L23.4687 162.91C26.2948 166.781 28.3578 171.06 29.601 175.628L36.0628 199.384C44.9146 231.928 81.8271 249.514 114.046 235.836L116.805 234.665C125.004 231.184 134.332 230.34 143.067 232.284L185.373 241.704C226.588 250.882 262.918 215.112 253.714 175.795L248.36 152.926C246.192 143.669 247.574 133.961 252.249 125.592L257.051 116.994Z" fill="#F64749"/>
</svg>
