<svg width="55" height="55" viewBox="0 0 55 55" fill="none" xmlns="http://www.w3.org/2000/svg">
<g id="arrow-1 2" clip-path="url(#clip0_0_600)">
<g id="Group">
<path id="Vector" d="M44.885 25.9958C44.4061 24.9602 43.7181 23.9978 43.0963 23.0441C40.5562 19.1482 37.5931 15.5561 34.7589 11.8758C33.3544 10.0517 31.9808 8.20172 30.7101 6.28123C30.0757 5.32249 29.4672 4.34646 28.8945 3.34958C28.4007 2.48999 27.9605 1.5595 27.2325 0.865557C26.5055 0.172471 25.5499 -0.181376 24.5554 0.0933014C23.3716 0.420294 22.2334 1.15184 21.1283 1.6781C18.7521 2.80957 16.3625 3.91548 13.9752 5.02332C12.7817 5.57708 11.5641 6.08594 10.3948 6.68933C10.0305 6.87721 9.90399 7.40809 10.1169 7.74894C11.3462 9.71723 12.5705 11.693 13.8589 13.6236C14.6092 14.7478 15.4036 15.8378 16.225 16.908C16.8506 17.8289 17.4862 18.7429 18.1315 19.65C18.8592 20.6739 19.5968 21.6909 20.3384 22.7047C21.0314 23.6522 21.8295 24.5784 22.4034 25.6045C23.0173 26.7018 22.4051 27.4706 21.7293 28.3602C20.9285 29.4146 20.1266 30.4683 19.3252 31.5224C17.7224 33.6305 16.1205 35.7394 14.5168 37.8468C13.7148 38.9008 12.9095 39.9524 12.1059 41.0051L10.937 42.5363C10.5683 43.0191 10.0973 43.5025 9.86295 44.0688C9.36237 45.2787 10.3674 45.9581 11.2051 46.5976C12.2723 47.4122 13.3011 48.2834 14.3473 49.1248C16.3794 50.7597 18.4053 52.4023 20.4248 54.0527C21.327 54.7899 22.2015 55.3684 23.3482 54.7164C24.3869 54.1256 25.3183 53.199 26.1676 52.3696C27.94 50.6384 29.5913 48.7707 31.2086 46.8954C34.4683 43.1155 37.5415 39.1693 40.5637 35.1986C41.3214 34.2022 42.0766 33.2038 42.8291 32.2035C43.5295 31.2734 44.3659 30.3517 44.875 29.2973C45.4064 28.196 45.396 27.1012 44.885 25.9958ZM42.6798 29.5423C42.0069 30.4883 41.3102 31.4183 40.6231 32.354C36.2902 38.2557 31.8384 44.0489 26.821 49.3916C25.589 50.7034 24.3233 51.9972 22.873 53.0628C22.7125 53.1808 22.5314 53.3012 22.333 53.2858C22.1658 53.2729 22.0229 53.1658 21.8906 53.0629C18.6175 50.5207 15.2337 48.0741 12.0597 45.4095C11.8735 45.2531 11.6133 45.0677 11.463 44.8717C11.3153 44.6787 11.3442 44.6589 11.4921 44.4637C15.2828 39.4658 19.1541 34.513 23.116 29.6674C24.033 28.5459 24.7695 27.0899 24.4084 25.687C24.1928 24.8491 23.617 24.1585 23.0631 23.494C20.9621 20.9736 18.9424 18.3866 17.0069 15.737C16.5846 15.1589 11.6611 7.81962 11.8581 7.73271C13.8565 6.85368 15.8133 5.86175 17.7911 4.94146C20.0489 3.89088 22.291 2.72696 24.6065 1.80926C25.5127 1.45015 26.0355 1.94611 26.5281 2.68475C27.0858 3.52124 27.5326 4.43443 28.0552 5.2937C29.1962 7.16993 30.4541 8.97236 31.7627 10.735C34.3883 14.2721 37.2228 17.6503 39.7993 21.2243C40.4318 22.1016 41.0486 22.9903 41.6412 23.8948C42.2407 24.8092 42.9175 25.7651 43.3531 26.7713C43.8077 27.8212 43.2888 28.6857 42.6798 29.5423Z" fill="#7B75FF"/>
</g>
</g>
<defs>
<clipPath id="clip0_0_600">
<rect width="55" height="55" fill="white"/>
</clipPath>
</defs>
</svg>
