<svg width="60" height="60" viewBox="0 0 60 60" fill="none" xmlns="http://www.w3.org/2000/svg">
<g id="arrow-1 1" clip-path="url(#clip0_0_596)">
<g id="Group">
<path id="Vector" d="M12.9491 7.71432C12.661 7.8478 12.3387 8.02241 12.2734 8.33307C12.2306 8.53791 12.3152 8.74581 12.4018 8.93635C14.2196 12.9351 17.6026 15.9864 19.9956 19.6698C21.3268 21.719 22.596 23.8012 23.9501 25.838C24.7051 26.974 25.4879 28.1945 25.506 29.5584C25.5268 31.1062 24.5615 32.4767 23.5935 33.6845C19.9718 38.2026 15.7046 42.1946 12.334 46.9031C12.1216 47.1997 11.9079 47.5105 11.8366 47.8681C11.6379 48.8632 12.5779 49.7801 13.3076 50.3096C14.2646 51.0042 15.111 51.7039 15.9979 52.5177C18.0182 54.3712 20.135 56.1167 22.3394 57.7468C22.8835 58.1491 23.4653 58.5575 24.1374 58.6357C25.1979 58.7592 26.1588 58.0394 26.9369 57.3084C27.9267 56.3787 28.8326 55.3643 29.737 54.3513L36.8385 46.3976C38.3863 44.6639 39.9356 42.9287 41.3645 41.0959C42.7205 39.3563 43.9652 37.5327 45.0912 35.636C46.0604 34.0029 47.3722 32.2999 47.4999 30.345C47.6546 27.9893 46.264 25.8422 44.9312 23.8937L40.7441 17.7726C40.143 16.8939 39.5921 15.9422 38.8322 15.1891C38.2708 14.6327 37.7517 14.1968 37.3254 13.5121C36.1084 11.5581 34.9693 9.58674 33.6321 7.70624C32.9642 6.76709 32.2774 5.84155 31.5822 4.92256C31.1866 4.39932 29.4779 2.7942 29.4779 2.17932C29.194 1.81182 28.8893 1.42803 28.4576 1.25659C27.4867 0.870805 26.2949 1.53174 25.4331 1.93088L21.2717 3.85862L12.9491 7.71432Z" fill="#46E892"/>
</g>
</g>
<defs>
<clipPath id="clip0_0_596">
<rect width="60" height="60" fill="white"/>
</clipPath>
</defs>
</svg>
