<svg width="45" height="45" viewBox="0 0 45 45" fill="none" xmlns="http://www.w3.org/2000/svg">
<g id="arrow-1 4" clip-path="url(#clip0_0_608)">
<g id="Group">
<path id="Vector" d="M36.7241 21.2693C36.3323 20.422 35.7694 19.6346 35.2606 18.8543C33.1823 15.6667 30.758 12.7278 28.4391 9.71653C27.29 8.22415 26.1661 6.7105 25.1265 5.13919C24.6074 4.35476 24.1096 3.55619 23.6409 2.74057C23.237 2.03727 22.8768 1.27596 22.2812 0.708183C21.6863 0.141113 20.9045 -0.148399 20.0908 0.0763375C19.1222 0.343877 18.191 0.942412 17.2868 1.37299C15.3426 2.29874 13.3875 3.20357 11.4342 4.10999C10.4578 4.56307 9.46154 4.9794 8.50485 5.47309C8.20681 5.62681 8.10328 6.06116 8.27747 6.34004C9.28329 7.95046 10.285 9.56703 11.3391 11.1466C11.953 12.0664 12.6029 12.9582 13.275 13.8339C13.7869 14.5873 14.3069 15.3351 14.8349 16.0773C15.4303 16.915 16.0337 17.7471 16.6405 18.5766C17.2075 19.3518 17.8605 20.1096 18.3301 20.9491C18.8323 21.8469 18.3315 22.476 17.7785 23.2038C17.1233 24.0665 16.4672 24.9286 15.8115 25.791C14.5001 27.5159 13.1895 29.2413 11.8774 30.9656C11.2212 31.828 10.5624 32.6883 9.90486 33.5497L8.94843 34.8025C8.64679 35.1974 8.26148 35.5929 8.0697 36.0563C7.66013 37.0462 8.48243 37.6021 9.16781 38.1253C10.041 38.7918 10.8827 39.5046 11.7387 40.193C13.4013 41.5306 15.0589 42.8746 16.7112 44.2249C17.4494 44.8281 18.1649 45.3014 19.1031 44.7679C19.953 44.2846 20.715 43.5265 21.4098 42.8479C22.86 41.4314 24.2111 39.9033 25.5344 38.369C28.2013 35.2764 30.7158 32.0476 33.1885 28.7988C33.8085 27.9836 34.4263 27.1668 35.042 26.3483C35.6151 25.5873 36.2994 24.8332 36.7159 23.9705C37.1507 23.0695 37.1422 22.1737 36.7241 21.2693ZM34.9198 24.1709C34.3693 24.945 33.7992 25.7059 33.2371 26.4715C29.692 31.3001 26.0496 36.04 21.9445 40.4113C20.9364 41.4846 19.9009 42.5432 18.7143 43.415C18.583 43.5115 18.4348 43.6101 18.2725 43.5975C18.1356 43.5869 18.0187 43.4993 17.9105 43.4151C15.2325 41.3351 12.464 39.3334 9.86706 37.1533C9.71466 37.0253 9.50179 36.8736 9.37883 36.7132C9.25798 36.5553 9.28162 36.5391 9.40265 36.3794C12.5041 32.2902 15.6715 28.2379 18.9131 24.2733C19.6634 23.3558 20.2659 22.1645 19.9705 21.0166C19.7941 20.3311 19.323 19.766 18.8698 19.2223C17.1508 17.1602 15.4983 15.0436 13.9148 12.8758C13.5692 12.4027 9.5409 6.39787 9.70209 6.32677C11.3371 5.60756 12.9381 4.79598 14.5564 4.04302C16.4037 3.18345 18.2381 2.23115 20.1326 1.4803C20.874 1.18648 21.3018 1.59228 21.7048 2.19661C22.1611 2.88102 22.5267 3.62817 22.9542 4.33121C23.8878 5.86631 24.917 7.34102 25.9877 8.78322C28.1359 11.6772 30.455 14.4412 32.5631 17.3653C33.0806 18.0831 33.5852 18.8102 34.0701 19.5503C34.5606 20.2985 35.1143 21.0805 35.4707 21.9038C35.8427 22.7628 35.4181 23.4701 34.9198 24.1709Z" fill="#F64749"/>
</g>
</g>
<defs>
<clipPath id="clip0_0_608">
<rect width="45" height="45" fill="white"/>
</clipPath>
</defs>
</svg>
