<svg width="50" height="50" viewBox="0 0 50 50" fill="none" xmlns="http://www.w3.org/2000/svg">
<g id="arrow-1 3" clip-path="url(#clip0_0_604)">
<g id="Group">
<path id="Vector" d="M40.8045 23.6326C40.3692 22.6911 39.7438 21.8162 39.1784 20.9492C36.8693 17.4075 34.1755 14.1419 31.599 10.7961C30.3222 9.13794 29.0735 7.45611 27.9183 5.71021C27.3415 4.83863 26.7884 3.95132 26.2677 3.04507C25.8189 2.26363 25.4187 1.41773 24.7569 0.78687C24.0959 0.156792 23.2272 -0.164888 22.3231 0.0848195C21.2469 0.382085 20.2122 1.04712 19.2075 1.52554C17.0474 2.55416 14.875 3.55953 12.7047 4.56666C11.6197 5.07007 10.5128 5.53267 9.44982 6.08121C9.11867 6.25201 9.00363 6.73462 9.19719 7.04449C10.3148 8.83384 11.4278 10.63 12.599 12.3851C13.2811 13.4071 14.0032 14.398 14.75 15.371C15.3187 16.2081 15.8965 17.039 16.4832 17.8636C17.1447 18.7945 17.8153 19.719 18.4895 20.6407C19.1195 21.502 19.845 22.344 20.3667 23.2768C20.9248 24.2744 20.3683 24.9733 19.7539 25.782C19.0259 26.7406 18.2969 27.6985 17.5684 28.6567C16.1112 30.5732 14.655 32.4904 13.1971 34.4062C12.468 35.3644 11.736 36.3204 11.0054 37.2774L9.94269 38.6694C9.60754 39.1083 9.17941 39.5477 8.96633 40.0626C8.51125 41.1625 9.42492 41.7801 10.1864 42.3615C11.1567 43.102 12.0919 43.894 13.043 44.6589C14.8904 46.1452 16.7321 47.6385 18.568 49.1388C19.3882 49.809 20.1832 50.3349 21.2256 49.7421C22.1699 49.2051 23.0166 48.3627 23.7887 47.6087C25.4 46.0349 26.9012 44.337 28.3715 42.6322C31.3348 39.1959 34.1286 35.6085 36.8761 31.9987C37.5649 31.0929 38.2514 30.1853 38.9356 29.2759C39.5723 28.4303 40.3326 27.5924 40.7954 26.6339C41.2785 25.6328 41.2691 24.6375 40.8045 23.6326ZM38.7998 26.8566C38.1881 27.7167 37.5547 28.5621 36.9301 29.4128C32.9911 34.7779 28.944 40.0445 24.3827 44.9014C23.2627 46.094 22.1121 47.2702 20.7937 48.2389C20.6478 48.3461 20.4831 48.4556 20.3028 48.4417C20.1507 48.4299 20.0208 48.3326 19.9005 48.239C16.925 45.9279 13.8488 43.7038 10.9634 41.2814C10.7941 41.1392 10.5575 40.9707 10.4209 40.7924C10.2866 40.617 10.3129 40.599 10.4474 40.4215C13.8935 35.878 17.4128 31.3754 21.0146 26.9704C21.8482 25.9508 22.5177 24.6272 22.1895 23.3518C21.9935 22.5901 21.47 21.9623 20.9664 21.3582C19.0565 19.0669 17.2204 16.7151 15.4609 14.3064C15.0769 13.7808 10.601 7.10875 10.7801 7.02974C12.5968 6.23062 14.3757 5.32886 16.1737 4.49224C18.2263 3.53716 20.2646 2.47906 22.3695 1.64478C23.1934 1.31832 23.6687 1.76919 24.1164 2.44068C24.6235 3.20113 25.0296 4.0313 25.5047 4.81246C26.542 6.51812 27.6856 8.15669 28.8752 9.75914C31.2621 12.9747 33.8389 16.0458 36.1812 19.2948C36.7562 20.0923 37.3169 20.9002 37.8557 21.7225C38.4006 22.5539 39.0159 23.4228 39.4119 24.3376C39.8252 25.292 39.3534 26.0779 38.7998 26.8566Z" fill="#EA9404"/>
</g>
</g>
<defs>
<clipPath id="clip0_0_604">
<rect width="50" height="50" fill="white"/>
</clipPath>
</defs>
</svg>
