<svg width="80" height="80" viewBox="0 0 80 80" fill="none" xmlns="http://www.w3.org/2000/svg">
<g id="mail 1" clip-path="url(#clip0_0_591)">
<g id="Group">
<path id="Vector" d="M46.6858 49.0145C44.6955 50.3413 42.3836 51.0427 40 51.0427C37.6166 51.0427 35.3047 50.3413 33.3144 49.0145L0.532656 27.1593C0.351688 27.0383 0.174069 26.9124 0 26.7817L0 62.5937C0 66.6996 3.33203 69.9582 7.36453 69.9582H72.6353C76.7412 69.9582 79.9998 66.6262 79.9998 62.5937V26.7815C79.8255 26.9126 79.6475 27.0388 79.4661 27.1599L46.6858 49.0145Z" fill="white"/>
<path id="Vector_2" d="M3.13282 23.259L35.9145 45.1143C37.1555 45.9417 38.5777 46.3553 39.9998 46.3553C41.4222 46.3553 42.8445 45.9415 44.0855 45.1143L76.8672 23.259C78.8289 21.952 80 19.7645 80 17.4035C80 13.344 76.6973 10.0415 72.638 10.0415H7.36204C3.30266 10.0417 3.87516e-06 13.3442 3.87516e-06 17.4074C-0.00121309 18.5656 0.284223 19.706 0.830855 20.727C1.37749 21.748 2.16832 22.6179 3.13282 23.259Z" fill="white"/>
</g>
</g>
<defs>
<clipPath id="clip0_0_591">
<rect width="80" height="80" fill="white"/>
</clipPath>
</defs>
</svg>
