<svg width="136" height="90" viewBox="0 0 136 90" fill="none" xmlns="http://www.w3.org/2000/svg">
<g id="adventure 1" clip-path="url(#clip0_0_1486)">
<path id="Vector" d="M23.114 85.9655L25.1481 86.5163L28.2415 78.932L25.239 78.1187L23.114 85.9655Z" fill="#FFB6B6"/>
<path id="Vector_2" d="M22.4673 88.0682L28.7231 89.7626L28.7445 89.6835C28.9194 89.0377 28.8306 88.3489 28.4977 87.7686C28.1648 87.1883 27.615 86.764 26.9692 86.589L26.9691 86.589L26.0612 85.4126L23.6944 85.7021L23.1483 85.5542L22.4673 88.0682Z" fill="#2F2E41"/>
<path id="Vector_3" d="M37.1599 87.7307L39.2674 87.7305L40.2701 79.6011L37.1595 79.6012L37.1599 87.7307Z" fill="#FFB6B6"/>
<path id="Vector_4" d="M37.0856 89.9292L43.5668 89.9289V89.847C43.5667 89.178 43.301 88.5363 42.8279 88.0633C42.3548 87.5902 41.7132 87.3244 41.0442 87.3244H41.044L39.8601 86.4262L37.6513 87.3245L37.0855 87.3245L37.0856 89.9292Z" fill="#2F2E41"/>
<path id="Vector_5" d="M38.0598 40.8544L40.8881 80.9146L36.3333 81.3182L29.9789 51.6288L30.683 68.8069L28.161 82.3176L24.3057 80.4534L24.3697 66.3853L19.3081 43.6516L20.6553 40.8544H38.0598Z" fill="#2F2E41"/>
<path id="Vector_6" d="M19.954 45.8387L19.9257 45.7991C18.4162 43.6858 20.6865 38.6075 21.0289 37.8713C20.6223 37.7394 20.274 37.4705 20.0434 37.1106C19.8127 36.7507 19.7139 36.322 19.7639 35.8974L19.9115 34.6427L20.0653 33.412L18.9631 32.3097L18.96 32.2822L18.3256 26.7317L17.4033 23.0451C17.0558 21.6515 17.0854 20.1905 17.4891 18.812C17.8928 17.4336 18.6561 16.1874 19.7005 15.2014L21.8325 14.8629L24.4234 12.3665H28.6016L30.0342 13.7353C32.7086 14.2043 33.168 14.0512 35.4652 16.8078L34.4214 25.3784L34.161 26.5574L34.1618 28.1566L34.8238 28.8924C35.0623 29.1574 35.2356 29.4745 35.3298 29.8183C35.4241 30.1621 35.4368 30.5232 35.3669 30.8728L35.2798 31.3081C35.9626 31.6007 36.6142 36.8008 36.7698 37.5272L37.0023 38.6122C37.2013 38.8747 38.5143 40.6255 38.5143 41.1041C38.5143 41.176 38.4613 41.2454 38.3474 41.3225C37.4526 41.9284 33.8851 46.2267 31.6961 45.3508C29.3644 44.4184 20.0955 45.8171 20.0021 45.8313L19.954 45.8387Z" fill="#4C98E0"/>
<path id="Vector_7" d="M19.3926 35.8726C19.3926 35.8726 20.4656 29.8087 19.3847 27.5282L15.0965 27.8345L15.7491 36.4854L19.4977 46.0904C19.4405 46.3864 19.4626 46.6922 19.5618 46.9768C19.661 47.2614 19.8337 47.5147 20.0624 47.711C20.2912 47.9073 20.5678 48.0396 20.8641 48.0944C21.1605 48.1493 21.4661 48.1247 21.75 48.0232C22.0338 47.9218 22.2857 47.747 22.4801 47.5167C22.6746 47.2864 22.8046 47.0088 22.8571 46.712C22.9095 46.4151 22.8825 46.1097 22.7788 45.8267C22.675 45.5437 22.4982 45.2932 22.2664 45.1007L19.3926 35.8726Z" fill="#FFB6B6"/>
<path id="Vector_8" d="M15.0965 24.3121L15.3619 21.422C15.4618 20.3343 15.7757 19.277 16.2857 18.3111C16.7957 17.3451 17.4916 16.4895 18.3334 15.7935C18.8565 15.3643 19.4891 15.0898 20.16 15.0013C20.8308 14.9127 21.513 15.0136 22.1296 15.2924C22.9628 15.676 23.6192 16.3617 23.9662 17.2108C24.3132 18.0599 24.3248 19.0091 23.9987 19.8664C23.0076 22.4657 23.3655 25.2145 21.4329 25.5497L21.6429 26.5486L19.7427 32.7496L14.3307 32.1227L15.0965 24.3121Z" fill="#4C98E0"/>
<path id="Vector_9" d="M36.3504 44.0967C36.1608 44.331 36.0365 44.6112 35.9902 44.9091C35.9439 45.2069 35.9773 45.5117 36.0869 45.7925C36.1965 46.0733 36.3784 46.32 36.6142 46.5078C36.85 46.6955 37.1313 46.8175 37.4295 46.8614C37.7277 46.9053 38.0322 46.8695 38.3121 46.7577C38.592 46.6458 38.8373 46.4619 39.0231 46.2246C39.2089 45.9873 39.3287 45.705 39.3702 45.4065C39.4116 45.1079 39.3734 44.8037 39.2593 44.5248L41.0531 34.3713L39.9979 25.7603L35.7329 26.3002C35.1198 28.7483 37.3602 34.4844 37.3602 34.4844L36.3504 44.0967Z" fill="#FFB6B6"/>
<path id="Vector_10" d="M41.5891 29.8153L36.4049 31.4905L34.409 28.3768L34.4191 27.3561C32.4584 27.4061 31.1882 22.0458 29.707 19.6911C29.2192 18.9142 29.0446 17.9812 29.2185 17.0806C29.3924 16.1799 29.9017 15.3789 30.6436 14.8395C31.1936 14.4453 31.8428 14.2127 32.518 14.1681C33.1931 14.1235 33.8673 14.2686 34.4644 14.587C35.4263 15.1046 36.2763 15.8072 36.9657 16.6545C37.6551 17.5018 38.1701 18.4771 38.4812 19.5241L39.3078 22.3062L41.5891 29.8153Z" fill="#4C98E0"/>
<path id="Vector_11" d="M26.2306 11.1605C28.7933 11.1605 30.8708 9.08306 30.8708 6.52035C30.8708 3.95764 28.7933 1.88016 26.2306 1.88016C23.6679 1.88016 21.5904 3.95764 21.5904 6.52035C21.5904 9.08306 23.6679 11.1605 26.2306 11.1605Z" fill="#FFB6B6"/>
<path id="Vector_12" d="M22.8631 9.79099C22.8226 9.75547 22.7844 9.71754 22.7448 9.68103C22.7434 9.68477 22.7432 9.68861 22.7416 9.69235L22.8631 9.79099Z" fill="#2F2E41"/>
<path id="Vector_13" d="M30.0332 1.62029C29.8027 1.24916 29.4833 0.941271 29.104 0.724416C28.8448 0.598675 28.5723 0.502152 28.2918 0.436623L27.5574 0.23626C27.1812 0.119833 26.7941 0.0418895 26.4021 0.00362795C25.8577 -0.0232255 25.3164 0.100027 24.8374 0.35992C24.3583 0.619813 23.9599 1.00635 23.6856 1.47732C23.4638 1.87084 23.2858 2.36122 22.8576 2.5052C22.5123 2.62129 22.1356 2.45753 21.7728 2.4893C21.5601 2.52012 21.3584 2.6029 21.1854 2.73033C21.0124 2.85776 20.8735 3.02589 20.781 3.21982C20.6002 3.61009 20.5112 4.03662 20.5208 4.46664C20.5066 5.44295 20.6971 6.41141 21.0802 7.30954C21.4632 8.20768 22.0303 9.01555 22.7448 9.68104C22.8645 9.36536 22.6673 9.02453 22.5114 8.72255C22.3536 8.41698 22.2561 7.99098 22.5203 7.77091C22.8144 7.52602 23.2855 7.76349 23.6332 7.6038C23.7445 7.53989 23.8382 7.44943 23.906 7.34049C23.9737 7.23155 24.0135 7.10752 24.0216 6.97947C24.0553 6.72575 24.0201 6.46784 24.0361 6.21239C24.0518 5.96063 24.1169 5.71443 24.2277 5.48784C24.3386 5.26125 24.493 5.05871 24.6821 4.89179C24.8712 4.72487 25.0913 4.59683 25.3299 4.51498C25.5685 4.43313 25.8209 4.39909 26.0727 4.41478C26.0785 4.41514 26.0843 4.41553 26.09 4.41594C26.8816 4.47248 27.6498 5.01336 28.4115 4.79085C28.769 4.6864 29.074 4.42046 29.4438 4.37573C29.8534 4.32619 30.2386 4.55732 30.5864 4.77925C30.7127 4.24268 30.7289 3.68603 30.6338 3.14304C30.5387 2.60005 30.3344 2.08201 30.0332 1.62029Z" fill="#2F2E41"/>
<path id="Vector_14" d="M54.2808 87.3222L53.1 85.4247L52.8641 86.509C52.8228 86.6989 52.7814 86.8919 52.7432 87.0833C52.4078 86.7969 52.0509 86.532 51.7018 86.2777C50.6297 85.4997 49.5582 84.7207 48.4872 83.9407L48.8225 85.8857C49.0293 87.0833 49.2453 88.3054 49.7568 89.4004C49.8134 89.5245 49.8747 89.647 49.9406 89.7665H54.924C54.9641 89.6555 54.9918 89.5405 55.0067 89.4234C55.008 89.4158 55.0085 89.4081 55.0082 89.4005C55.0864 88.6577 54.6759 87.9578 54.2808 87.3222Z" fill="#F0F0F0"/>
<path id="Vector_15" d="M60.0791 89.9529L11.7826 90C11.7344 89.9997 11.6882 89.9804 11.6542 89.9463C11.6202 89.9121 11.6011 89.8658 11.6011 89.8176C11.6011 89.7694 11.6202 89.7232 11.6542 89.689C11.6882 89.6549 11.7344 89.6355 11.7826 89.6353L60.0791 89.5882C60.1273 89.5885 60.1735 89.6078 60.2075 89.642C60.2415 89.6761 60.2605 89.7224 60.2605 89.7706C60.2605 89.8188 60.2415 89.865 60.2075 89.8992C60.1735 89.9334 60.1273 89.9527 60.0791 89.9529Z" fill="#CACACA"/>
<path id="Vector_16" d="M110.001 29.6182C109.99 34.9793 107.975 40.1425 104.35 44.0928C100.726 48.0431 95.7551 50.4947 90.4148 50.9657C85.0744 51.4367 79.7511 49.8929 75.4913 46.638C71.2314 43.383 68.3433 38.6523 67.3946 33.3758C66.4459 28.0994 67.5053 22.6589 70.3646 18.1239C73.2238 13.589 77.6761 10.2877 82.846 8.86894C88.0159 7.45022 93.5296 8.01677 98.303 10.4572C103.076 12.8976 106.764 17.0353 108.641 22.057C108.688 22.1831 108.734 22.3092 108.778 22.4365V22.4377C108.977 22.9973 109.151 23.5674 109.302 24.1479C109.768 25.934 110.002 27.7724 110.001 29.6182Z" fill="#3F3D56"/>
<path id="Vector_17" d="M86.0185 15.0333C85.047 14.5079 83.9684 14.2114 82.8649 14.1662C81.7614 14.1211 80.6622 14.3285 79.651 14.7728C78.7607 15.1602 77.8233 15.8553 77.5263 17.1104C78.7275 16.4015 80.2824 17.5216 80.5915 19.3183L80.5193 19.3382C80.3561 20.5828 80.7205 21.9377 81.4261 22.7094C81.4786 22.3612 81.6079 22.0291 81.8048 21.7371C82.0016 21.4452 82.2611 21.2007 82.5642 21.0215C83.0826 20.6808 83.6561 20.4332 84.0518 19.8474C84.5209 19.153 84.64 18.1381 84.8263 17.2122C85.0127 16.2864 85.3662 15.2913 86.0185 15.0333Z" fill="#F64749"/>
<path id="Vector_18" d="M79.2947 25.6238C78.962 26.1234 78.5177 26.4369 78.119 26.8272C77.6587 27.2459 77.3567 27.8104 77.2639 28.4257C77.2134 28.8604 77.2915 29.3024 77.2807 29.742C77.2699 30.1815 77.1234 30.6763 76.8243 30.7856C76.3523 30.9561 75.9921 30.0794 75.5069 30.0182C75.1214 29.9701 74.7743 30.5766 74.886 31.1026C74.9977 31.6287 75.5225 31.8616 75.8239 31.5182C76.0966 31.9757 75.9044 32.8056 75.4949 32.9461C75.4516 33.2343 75.4084 33.5214 75.3664 33.8096C74.3311 33.0854 73.2851 32.3493 72.4048 31.2888C71.4257 30.1194 70.8185 28.6841 70.661 27.1671C70.5469 25.9481 70.7162 24.5538 70.1566 23.6158C69.7086 22.8652 68.94 22.6995 68.2482 22.7463C68.1221 22.7547 67.9949 22.7691 67.8687 22.7848C68.2767 21.5595 68.7948 20.3737 69.4168 19.2419C69.5575 19.1815 69.6883 19.1001 69.8047 19.0005C70.4484 18.4541 70.7342 17.348 71.2566 16.583C71.2903 16.5337 71.3251 16.4857 71.3611 16.4389C71.8956 15.7411 72.6113 15.382 73.3031 15.0481C74.8343 14.3047 76.41 13.5517 78.0265 13.655L77.5665 13.6995C77.0297 15.2031 76.4924 16.7067 75.9548 18.2103C75.8731 18.4409 75.7907 18.6718 75.7074 18.9032C75.4024 19.7583 75.0877 20.6687 75.1345 21.6258C75.1622 22.1927 75.3591 22.798 75.7338 22.9925C76.0833 23.1727 76.4652 22.9517 76.8027 22.7331C76.9456 22.6418 77.0873 22.5506 77.2302 22.4581C77.743 22.1278 78.3111 21.7892 78.8527 22.0101C79.3487 22.2119 79.715 22.8856 79.7847 23.6122C79.8485 24.3185 79.6762 25.026 79.2947 25.6238Z" fill="#F64749"/>
<path id="Vector_19" d="M82.3447 35.8893C80.8469 34.9672 79.3492 34.045 77.8515 33.1228L77.8769 33.0574C76.9457 33.412 76.5591 35.0673 76.713 36.421C76.8669 37.7747 77.3887 38.9848 77.6523 40.3037C78.0078 42.1087 77.8736 43.9759 77.2638 45.7116C79.2332 43.5018 80.9761 41.1001 82.4664 38.5426C82.6745 38.2202 82.8332 37.8685 82.937 37.4991C83.0469 37.1054 83.0077 36.685 82.8269 36.3184C82.7043 36.1375 82.5386 35.99 82.3447 35.8893Z" fill="#F64749"/>
<path id="Vector_20" d="M76.4337 19.1124C76.2578 19.4901 76.2307 19.9201 76.3578 20.3168C76.5056 20.6364 76.7737 20.8847 77.1037 21.0076L77.9312 21.4178C78.2065 21.5543 78.5033 21.6921 78.7839 21.5798C79.1224 21.4444 79.3571 20.9137 79.2964 20.421C79.2318 19.8967 78.9014 19.5361 78.5957 19.229C78.168 18.7993 77.7403 18.3695 77.3126 17.9397L77.0715 18.235C76.8108 18.4893 76.5951 18.786 76.4337 19.1124Z" fill="#F64749"/>
<path id="Vector_21" d="M105.565 24.7171C105.937 24.8048 106.309 24.8925 106.682 24.9801C106.617 26.2375 105.993 27.4013 105.158 27.8228C104.809 27.9982 104.421 28.063 104.133 28.3909C103.872 28.6887 103.74 29.1523 103.619 29.5954C103.406 30.3688 103.194 31.1423 102.981 31.9157C102.753 32.7491 102.46 33.6751 101.867 33.9753C101.358 34.2335 100.775 33.9177 100.384 33.3881C99.9922 32.8584 99.7532 32.1463 99.5214 31.4521C99.5358 32.2087 99.1839 32.9509 98.6855 33.2139C98.1859 33.4769 97.5782 33.2391 97.2443 32.6519C97.0042 32.2303 96.9045 31.6743 96.6691 31.2467C96.4337 30.8192 95.9401 30.5742 95.6831 30.9753C95.5137 31.242 95.5354 31.6503 95.4513 31.9889C95.409 32.2138 95.2976 32.4199 95.1328 32.5785C94.9679 32.7371 94.7577 32.8404 94.5314 32.874C94.3233 32.8693 94.1183 32.8222 93.929 32.7357C93.7396 32.6492 93.5699 32.525 93.4301 32.3708C92.6946 31.6185 92.2159 30.653 92.0622 29.6122C91.958 29.1132 91.9712 28.5969 92.1006 28.1038C92.2483 27.6367 92.605 27.2764 92.9593 27.3652C93.1923 26.8728 92.7323 26.2195 92.318 26.2772C91.9024 26.3348 91.577 26.7804 91.2359 27.1226C90.8961 27.4649 90.4205 27.7135 90.0782 27.3736C90.0858 27.4979 90.0438 27.6202 89.9613 27.7135C89.8788 27.8068 89.7626 27.8636 89.6383 27.8712C89.626 27.872 89.6137 27.8722 89.6014 27.872C89.3738 27.8067 89.1623 27.6946 88.9805 27.543C88.1963 27.0542 87.2007 27.3784 86.6434 28.3032C86.9917 26.8212 87.5021 25.1206 88.5722 24.7723C89.0093 24.6294 89.4861 24.7471 89.8992 24.4997C90.6306 24.0614 90.7784 22.4052 90.1466 21.7219C90.2271 22.368 90.2115 23.1222 89.8704 23.5642C89.5294 24.0062 88.8136 23.7179 88.8568 23.0646C88.8471 23.1565 88.8086 23.2429 88.7467 23.3116C88.6849 23.3802 88.6029 23.4275 88.5125 23.4467C88.4221 23.4659 88.328 23.456 88.2436 23.4184C88.1591 23.3809 88.0888 23.3175 88.0426 23.2375C87.8156 22.8917 87.8348 22.326 87.9957 21.9129C88.1616 21.5387 88.3995 21.2008 88.6959 20.9185C89.2664 20.3072 89.8452 19.6887 90.5058 19.3044C91.1675 18.9201 91.9313 18.7904 92.5942 19.1723C92.9437 19.374 93.2512 19.7103 93.6078 19.888C93.6917 19.94 93.7849 19.975 93.8823 19.991C93.9796 20.007 94.0791 20.0036 94.1752 19.9811C94.2712 19.9586 94.3619 19.9175 94.442 19.8599C94.5221 19.8024 94.5901 19.7296 94.6421 19.6458C94.6462 19.6393 94.6501 19.6328 94.6539 19.6262C94.9193 19.1602 94.7944 18.4685 94.8929 17.886C95.0694 16.8568 96.0986 16.3752 96.6691 17.055C96.2428 16.9457 95.802 17.4501 95.7492 18.0614C95.6951 18.6727 96.0038 19.29 96.4169 19.4749C97.1111 19.7824 97.7908 19.0089 98.3156 18.2932C98.8633 17.5438 99.4117 16.7948 99.9609 16.0462C100.049 15.9187 100.147 15.799 100.255 15.6883C100.427 15.5206 100.657 15.4246 100.897 15.4197C101.137 15.4148 101.37 15.5014 101.549 15.6619C102.103 16.1146 102.364 17.043 102.819 17.6819C103.48 18.6102 104.468 18.836 105.388 19.0161C106.074 19.1495 106.76 19.2836 107.447 19.4185C107.904 20.2699 108.303 21.1514 108.642 22.057C107.383 22.6311 106.315 23.5543 105.565 24.7171Z" fill="#F64749"/>
<path id="Vector_22" d="M109.302 24.1479C109.161 24.5626 109.084 24.9963 109.074 25.4341C108.485 24.7159 108.392 23.3696 108.778 22.4377C108.977 22.9973 109.151 23.5674 109.302 24.1479Z" fill="#4C98E0"/>
<path id="Vector_23" d="M107.782 39.1671C107.267 40.2119 106.669 41.2131 105.992 42.1611C105.56 41.9762 105.095 42.3064 104.69 42.6163C104.268 42.9405 103.76 43.2564 103.326 42.9609C102.883 42.6583 102.74 41.8116 102.88 41.1403C103.042 40.521 103.324 39.9398 103.712 39.4301C104.072 38.8921 104.457 38.3336 104.958 38.1247C105.46 37.9157 106.105 38.2111 106.252 38.9245L106.607 38.9125C106.408 38.6387 106.512 38.0718 106.78 37.9721C107.089 37.8556 107.356 38.2796 107.539 38.6543C107.621 38.8236 107.704 38.9942 107.782 39.1671Z" fill="#F64749"/>
<path id="Vector_24" d="M94.1668 34.0943C93.4027 34.1424 92.7974 33.2018 92.3953 32.2764C91.9931 31.351 91.6261 30.2928 90.9367 29.8217C90.5427 29.5526 90.0936 29.5157 89.6663 29.3852C89.4239 29.324 89.1997 29.2059 89.0121 29.0408C88.8244 28.8756 88.6789 28.6681 88.5875 28.4354L88.1028 28.2396C87.4248 28.5785 86.8039 29.0213 86.2625 29.5518C85.6439 30.2089 85.2586 31.0513 85.166 31.9491C85.0734 32.9192 85.4153 34.001 86.0541 34.3655C86.5589 34.6535 87.1466 34.4719 87.658 34.7356C88.2968 35.065 88.6761 36.0218 88.8197 36.9665C88.9632 37.9113 88.9268 38.8931 89.0296 39.8485C89.1323 40.804 89.4154 41.7982 90.0013 42.2878C90.7344 42.9005 91.8102 42.3914 92.1391 41.276C92.3005 40.7289 92.2949 40.1115 92.4156 39.5436C92.6281 38.5435 93.2016 37.8015 93.6564 36.9811C94.1112 36.1607 94.4693 35.0464 94.1668 34.0943Z" fill="#F64749"/>
<path id="Vector_25" d="M86.6164 24.2667C86.6877 24.3323 86.7542 24.4029 86.8154 24.4779C86.8788 24.5872 86.9111 24.7116 86.909 24.8379C86.9068 24.9642 86.8702 25.0875 86.8032 25.1945C86.8952 25.1893 86.9852 25.165 87.0674 25.1233C87.1495 25.0815 87.2222 25.0231 87.2806 24.9519C87.4201 24.793 87.5428 24.6202 87.6467 24.4362C87.6956 24.3732 87.7305 24.3005 87.7491 24.2229C87.7677 24.1453 87.7696 24.0647 87.7547 23.9864C87.7186 23.8834 87.6332 23.8394 87.5734 23.7619C87.4904 23.6105 87.4338 23.446 87.4059 23.2756C87.3728 23.1158 87.2957 22.9685 87.1834 22.8501C87.0711 22.7318 86.928 22.6471 86.7702 22.6056L86.8085 22.6129C86.7433 22.6516 86.6919 22.7097 86.6614 22.7791C86.6309 22.8485 86.6228 22.9256 86.6384 22.9998C86.6616 23.1497 86.7579 23.2741 86.7483 23.427C86.7345 23.6467 86.5148 23.7499 86.5013 23.9697C86.4991 24.08 86.5405 24.1867 86.6164 24.2667Z" fill="#F64749"/>
<path id="Vector_26" d="M85.3073 20.5316L85.3107 20.531C85.3342 20.5096 85.356 20.4863 85.3759 20.4615L85.3073 20.5316Z" fill="#4C98E0"/>
<path id="Vector_27" d="M85.5364 21.5633C85.6282 21.4828 85.6961 21.3786 85.7327 21.2621C85.7692 21.1456 85.7731 21.0213 85.7439 20.9028C85.6884 20.6529 85.4919 20.4848 85.3107 20.531C85.2581 20.5843 85.1929 20.6233 85.121 20.6445C85.0492 20.6656 84.9732 20.6682 84.9002 20.6518C84.7881 20.623 84.6651 20.5487 84.568 20.6331C84.5124 20.6962 84.4735 20.7721 84.4548 20.8541C84.4189 20.9645 84.3829 21.0749 84.3469 21.1853C84.3298 21.2248 84.3254 21.2686 84.3342 21.3108C84.341 21.3277 84.3522 21.3425 84.3664 21.3538C84.3807 21.3652 84.3977 21.3727 84.4157 21.3756C84.6315 21.4392 84.8473 21.5028 85.063 21.5664C85.1374 21.6007 85.2183 21.6181 85.3001 21.6176C85.3819 21.6171 85.4626 21.5985 85.5364 21.5633Z" fill="#F64749"/>
<path id="Vector_28" d="M101.826 35.8066C101.727 35.6433 101.627 35.48 101.527 35.3167C101.429 35.1276 101.295 34.9594 101.133 34.8216C101.098 34.7921 101.057 34.7699 101.013 34.7561C100.97 34.7424 100.924 34.7374 100.878 34.7414C100.832 34.7454 100.788 34.7584 100.747 34.7796C100.706 34.8009 100.67 34.8299 100.641 34.8651L100.636 34.8714L100.648 34.9647C100.915 35.251 101.097 35.6061 101.173 35.9902C101.196 36.1571 101.188 36.3298 101.208 36.4974C101.21 36.5751 101.228 36.6517 101.259 36.7227C101.291 36.7937 101.336 36.8577 101.393 36.9111C101.55 37.0161 101.734 36.8614 101.846 36.6726C101.946 36.5175 101.991 36.3333 101.973 36.1497C101.948 36.0265 101.898 35.9097 101.826 35.8066Z" fill="#F64749"/>
<path id="Vector_29" d="M103.391 36.0192C103.41 35.8663 103.398 35.7111 103.355 35.5632C103.348 35.3631 103.401 35.1654 103.507 34.9958C103.613 34.8357 103.693 34.6602 103.744 34.4755C103.766 34.3913 103.762 34.3026 103.733 34.2207C103.7 34.1465 103.62 34.1127 103.574 34.1714L103.672 34.2346C103.54 34.211 103.404 34.2176 103.274 34.2539C103.2 34.2822 103.134 34.3279 103.081 34.3872C103.029 34.4464 102.991 34.5175 102.972 34.5943C102.956 34.714 102.929 34.8322 102.893 34.9474C102.834 35.0678 102.721 35.1078 102.65 35.2135C102.601 35.3071 102.577 35.4114 102.578 35.5169C102.58 35.6223 102.608 35.7257 102.66 35.8177C102.749 35.9682 102.891 36.08 103.059 36.1315C103.179 36.1745 103.336 36.1768 103.391 36.0192Z" fill="#F64749"/>
<path id="Vector_30" d="M106.178 36.8599C106.221 36.9727 106.279 37.0792 106.35 37.1768C106.484 37.3112 106.665 37.2286 106.827 37.1959C106.974 37.1727 107.124 37.1897 107.262 37.2451C107.4 37.3004 107.521 37.3921 107.611 37.5103C107.548 37.1973 107.411 36.9039 107.211 36.6548C107.012 36.4057 106.755 36.2082 106.463 36.0788C106.084 35.9475 105.684 35.885 105.283 35.8942L105.215 35.9118C105.389 36.4201 105.938 36.4088 106.178 36.8599Z" fill="#F64749"/>
<path id="Vector_31" d="M94.3758 37.8996L94.3768 37.9018L94.3968 37.8634L94.3758 37.8996Z" fill="#4C98E0"/>
<path id="Vector_32" d="M93.9531 38.7178C93.8609 38.8852 93.7816 39.0594 93.7159 39.2388C93.6289 39.5294 93.5714 39.8281 93.544 40.1302C93.5226 40.302 93.5159 40.5214 93.6236 40.6052C93.6545 40.6257 93.6918 40.6342 93.7285 40.6292C93.7653 40.6242 93.799 40.606 93.8233 40.578C93.8831 40.5148 93.932 40.442 93.9681 40.3628C94.1796 39.9985 94.3439 39.6086 94.4569 39.2028C94.5748 38.7722 94.5466 38.3147 94.3768 37.9018C94.2356 38.1738 94.0943 38.4458 93.9531 38.7178Z" fill="#F64749"/>
<path id="Vector_33" d="M89.875 16.9184C89.9422 16.9841 90.0271 17.0286 90.1192 17.0466C90.2114 17.0646 90.3068 17.0552 90.3937 17.0197C90.5737 16.941 90.7387 16.8319 90.8817 16.6973C91.0001 16.6097 91.1006 16.5001 91.1776 16.3746C91.22 16.2995 91.2472 16.2169 91.2576 16.1313C91.2679 16.0458 91.2613 15.959 91.2381 15.876C91.205 15.7965 91.1522 15.7267 91.0847 15.6732C91.0171 15.6198 90.9371 15.5845 90.8521 15.5706C90.6126 15.4996 90.373 15.4286 90.1335 15.3575L90.3068 15.2014C90.1285 15.1057 89.9313 15.2833 89.8199 15.5031C89.7485 15.6466 89.6986 15.7999 89.6721 15.9581C89.6342 16.1233 89.6327 16.2948 89.6678 16.4606C89.7028 16.6265 89.7735 16.7827 89.875 16.9184Z" fill="#F64749"/>
<path id="Vector_34" d="M94.1036 15.4989C94.1711 15.5733 94.2644 15.6192 94.3645 15.6274C94.4647 15.6355 94.5642 15.6053 94.6428 15.5427C94.7105 15.4919 94.7668 15.4274 94.8078 15.3533C94.8489 15.2793 94.874 15.1975 94.8813 15.1131C94.8983 14.9247 94.8051 14.7153 94.6721 14.6991L94.7026 14.5227C94.4463 14.4764 94.1309 14.4671 93.9935 14.7784C93.9472 14.8976 93.933 15.0269 93.9523 15.1533C93.9716 15.2797 94.0238 15.3989 94.1036 15.4989Z" fill="#F64749"/>
<g id="Group" opacity="0.35">
<path id="Vector_35" d="M134.65 30.6833C136.065 30.0666 133.196 29.7076 129.942 29.5896C126.688 29.4715 122.751 29.4781 120.671 29.1423C118.66 28.8176 118.808 28.2403 118.639 27.7172C118.47 27.1941 117.697 26.6578 114.558 26.5415C110.647 26.3966 104.198 26.9544 101.245 26.6195C98.4903 26.307 100.128 25.3269 96.1105 25.2894C93.8165 25.2679 90.8611 25.5911 88.3085 25.6691C86.4991 25.7476 84.6864 25.6531 82.895 25.3868C81.6508 25.183 80.7842 24.9246 79.384 24.7445C75.7077 24.2718 68.5152 24.4307 62.0957 25.0365C55.6761 25.6424 50.1733 26.6352 47.07 27.6186C43.9666 28.602 43.1092 29.5702 43.8321 30.3912C44.2937 30.9155 45.475 31.4057 48.3403 31.6164C53.6999 32.0105 63.2421 31.3322 68.7802 31.6907C71.8669 31.8905 73.2363 32.3859 75.9445 32.657C78.854 32.9482 83.1133 32.9636 87.2981 32.9568C96.0113 32.9424 104.947 32.8528 114.059 32.6887C117.865 32.6201 121.853 32.5309 125.903 32.2042C129.953 31.8774 134.084 31.2468 134.938 30.6558" fill="white"/>
</g>
<path id="Vector_36" d="M110.06 57.9213C108.083 57.9213 105.915 57.8466 103.558 57.6971C91.3654 56.9228 75.5722 54.2309 59.0875 50.1174C42.603 46.004 27.3965 40.9601 16.2694 35.9153C10.8491 33.4578 6.68905 31.1315 3.90493 29.001C0.957268 26.7456 -0.33208 24.7797 0.0725492 23.158C0.86095 19.9987 7.84193 19.3075 13.5594 19.284L13.5614 19.7435C5.70973 19.7757 1.07767 21.0279 0.51839 23.2693C-0.194034 26.124 5.61619 30.5807 16.4591 35.4968C27.5617 40.5306 42.7403 45.5647 59.1988 49.6718C75.6572 53.7787 91.4215 56.4659 103.587 57.2386C115.468 57.9932 122.692 56.7887 123.404 53.9339C123.995 51.5637 120.096 48.0721 112.425 44.102L112.636 43.694C118.21 46.5787 124.68 50.7161 123.85 54.0452C123.445 55.6668 121.383 56.7965 117.721 57.4026C115.634 57.7481 113.07 57.9213 110.06 57.9213Z" fill="#F64749"/>
<path id="Vector_37" d="M34.611 58.5195C29.1591 58.5197 24.0906 58.3326 19.5531 57.9551C13.6222 57.4615 8.92237 56.6681 5.58436 55.5971C2.05021 54.463 0.175256 53.0446 0.0115637 51.3812C-0.307445 48.1409 6.03551 45.1443 11.4128 43.2011L11.5689 43.6333C4.18456 46.3017 0.24249 49.0373 0.468768 51.3363C0.756968 54.2644 7.7268 56.5099 19.5912 57.4971C31.7397 58.508 47.7272 58.1498 64.6087 56.4879C81.4903 54.8265 97.241 52.0609 108.959 48.701C120.403 45.4196 126.802 41.8583 126.514 38.9303C126.274 36.4992 121.429 34.5207 112.869 33.3589L112.931 32.9036C119.15 33.7477 126.635 35.4707 126.971 38.8852C127.135 40.5486 125.572 42.3054 122.327 44.1066C119.262 45.808 114.807 47.5024 109.086 49.1426C97.3417 52.5101 81.5621 55.281 64.6538 56.9453C54.0468 57.9892 43.788 58.5195 34.611 58.5195Z" fill="#F64749"/>
<path id="Vector_38" d="M67.0557 68.2238C68.5345 68.2238 69.7332 67.0251 69.7332 65.5463C69.7332 64.0676 68.5345 62.8688 67.0557 62.8688C65.577 62.8688 64.3782 64.0676 64.3782 65.5463C64.3782 67.0251 65.577 68.2238 67.0557 68.2238Z" fill="#4C98E0"/>
<path id="Vector_39" d="M14.3308 52.4159C15.8095 52.4159 17.0083 51.2172 17.0083 49.7384C17.0083 48.2597 15.8095 47.0609 14.3308 47.0609C12.852 47.0609 11.6533 48.2597 11.6533 49.7384C11.6533 51.2172 12.852 52.4159 14.3308 52.4159Z" fill="#E6E6E6"/>
<path id="Vector_40" d="M63.4912 11.375C64.3964 11.375 65.1303 10.6412 65.1303 9.736C65.1303 8.83078 64.3964 8.09695 63.4912 8.09695C62.586 8.09695 61.8522 8.83078 61.8522 9.736C61.8522 10.6412 62.586 11.375 63.4912 11.375Z" fill="#F64749"/>
<path id="Vector_41" d="M53.5744 23.748C55.0531 23.748 56.2519 22.5492 56.2519 21.0705C56.2519 19.5917 55.0531 18.393 53.5744 18.393C52.0956 18.393 50.8969 19.5917 50.8969 21.0705C50.8969 22.5492 52.0956 23.748 53.5744 23.748Z" fill="#E6E6E6"/>
</g>
<defs>
<clipPath id="clip0_0_1486">
<rect width="135.02" height="90" fill="white"/>
</clipPath>
</defs>
</svg>
