<svg width="139" height="98" viewBox="0 0 139 98" fill="none" xmlns="http://www.w3.org/2000/svg">
<g id="android&#38;ios 1" clip-path="url(#clip0_0_954)">
<path id="Vector" d="M58.8959 41.7887C58.6782 41.6286 58.4703 41.4555 58.2734 41.2703L58.5429 40.9841C58.7282 41.1584 58.9239 41.3213 59.1288 41.4721L58.8959 41.7887Z" fill="#E4E4E4"/>
<path id="Vector_2" d="M57.1921 39.9498C56.8906 39.4648 56.6531 38.9429 56.4855 38.397L56.8612 38.2816C57.0189 38.7951 57.2423 39.286 57.5259 39.7423L57.1921 39.9498ZM56.1969 36.716C56.193 36.6231 56.1911 36.5301 56.191 36.437C56.191 35.9593 56.2426 35.4831 56.3447 35.0166L56.7287 35.1008C56.6326 35.5397 56.5842 35.9877 56.5842 36.437C56.5842 36.5245 56.586 36.6121 56.5897 36.6995L56.1969 36.716ZM57.2722 33.5914L56.9227 33.4114C57.0851 33.0964 57.2721 32.7947 57.4822 32.5092C57.611 32.3341 57.7503 32.1669 57.8991 32.0085L58.1855 32.2777C58.0475 32.4247 57.9183 32.5798 57.7988 32.7422C57.6011 33.0109 57.425 33.2948 57.2722 33.5914ZM59.4469 31.311L59.2613 30.9644C59.7687 30.6926 60.3166 30.5045 60.884 30.4072L60.9506 30.7947C60.4248 30.8847 59.9171 31.0591 59.4469 31.311ZM64.0524 31.268C63.5783 31.024 63.0677 30.8588 62.5405 30.7788L62.5995 30.3902C63.1688 30.4765 63.7203 30.6549 64.2322 30.9184L64.0524 31.268Z" fill="#E4E4E4"/>
<path id="Vector_3" d="M65.7659 32.8237C65.6371 32.6097 65.4882 32.4086 65.321 32.2231L65.6131 31.9599C65.797 32.1641 65.961 32.3856 66.1027 32.6211L65.7659 32.8237Z" fill="#E4E4E4"/>
<path id="Vector_4" d="M50.6958 28.6416L50.3792 28.4087C50.5364 28.1949 50.7022 27.9834 50.8718 27.7802L51.1736 28.0322C51.0091 28.2292 50.8483 28.4343 50.6958 28.6416Z" fill="#E4E4E4"/>
<path id="Vector_5" d="M70.1724 28.1871C69.8703 27.7678 69.5357 27.3731 69.1717 27.0065L69.4506 26.7294C69.8292 27.1107 70.1773 27.5213 70.4914 27.9574L70.1724 28.1871ZM52.2433 26.9031L51.9755 26.6153C52.3674 26.2507 52.7819 25.9112 53.2166 25.5987L53.446 25.918C53.0248 26.2208 52.6231 26.5498 52.2433 26.9031ZM67.9981 25.9967C67.5799 25.6898 67.1431 25.409 66.6903 25.1561L66.8818 24.8128C67.3489 25.0737 67.7994 25.3632 68.2308 25.6799L67.9981 25.9967ZM54.7633 25.0927L54.576 24.7471C55.0467 24.4923 55.5329 24.2673 56.0317 24.0733L56.174 24.4397C55.6906 24.6277 55.2194 24.8458 54.7633 25.0927ZM65.2881 24.4859C64.807 24.2924 64.3142 24.1294 63.8126 23.9979L63.9122 23.6176C64.4298 23.7533 64.9384 23.9215 65.4348 24.1212L65.2881 24.4859ZM57.6555 23.9685L57.5601 23.5871C58.0792 23.4573 58.6058 23.3599 59.137 23.2954L59.1843 23.6857C58.6693 23.7482 58.1588 23.8426 57.6555 23.9685ZM62.2872 23.6997C61.7729 23.6327 61.2549 23.5978 60.7362 23.5954L60.738 23.2023C61.2731 23.2048 61.8075 23.2408 62.3381 23.31L62.2872 23.6997Z" fill="#E4E4E4"/>
<path id="Vector_6" d="M71.2946 30.2143C71.1979 29.9772 71.0906 29.7412 70.9759 29.513L71.3272 29.3364C71.4464 29.5739 71.558 29.8192 71.6586 30.0658L71.2946 30.2143Z" fill="#E4E4E4"/>
<path id="Vector_7" d="M72.372 53.3153L72.2369 52.9461C72.4791 52.8575 72.7232 52.7626 72.9624 52.6641L73.112 53.0277C72.8681 53.1281 72.6191 53.2249 72.372 53.3153Z" fill="#E4E4E4"/>
<path id="Vector_8" d="M66.243 54.5162L66.2287 54.1233C66.7387 54.1047 67.2543 54.0656 67.761 54.0071L67.806 54.3977C67.2892 54.4573 66.7633 54.4972 66.243 54.5162ZM64.6755 54.5116C64.1547 54.4895 63.6291 54.4464 63.1132 54.3835L63.1608 53.9933C63.6664 54.0549 64.1817 54.0972 64.6922 54.1188L64.6755 54.5116ZM69.3549 54.1569L69.2794 53.7711C69.78 53.6731 70.2831 53.5538 70.7746 53.4168L70.8802 53.7954C70.3788 53.9352 69.8657 54.0568 69.3549 54.1569ZM61.566 54.1323C61.0557 54.0286 60.5435 53.9032 60.0434 53.7593L60.152 53.3816C60.6421 53.5225 61.1442 53.6455 61.6443 53.7472L61.566 54.1323ZM58.5552 53.2666C58.068 53.0834 57.5821 52.8783 57.1109 52.6569L57.2781 52.3012C57.7399 52.5181 58.2161 52.7191 58.6935 52.8986L58.5552 53.2666ZM55.7198 51.9349C55.269 51.6779 54.8216 51.3989 54.39 51.1057L54.6108 50.7806C55.034 51.068 55.4726 51.3414 55.9145 51.5934L55.7198 51.9349Z" fill="#E4E4E4"/>
<path id="Vector_9" d="M53.1254 50.1678C52.9203 50.0004 52.7172 49.826 52.5215 49.6494L52.7849 49.3575C52.9758 49.5298 53.174 49.7 53.374 49.8634L53.1254 50.1678Z" fill="#E4E4E4"/>
<path id="Vector_10" d="M42.2432 10.5316L42.0413 10.1943C42.267 10.0591 42.4971 9.92536 42.7252 9.79663L42.9185 10.1389C42.6932 10.2661 42.4661 10.3981 42.2432 10.5316Z" fill="#E4E4E4"/>
<path id="Vector_11" d="M80.0856 15.9003C79.7488 15.508 79.3943 15.1209 79.032 14.7502L79.3132 14.4754C79.6813 14.8523 80.0415 15.2455 80.3838 15.6442L80.0856 15.9003ZM77.9067 13.6699C77.5226 13.3241 77.1216 12.9854 76.7148 12.6634L76.9588 12.3552C77.372 12.6823 77.7795 13.0264 78.1697 13.3777L77.9067 13.6699ZM75.4619 11.7319C75.0367 11.4333 74.5992 11.1423 74.1616 10.8669L74.371 10.5342C74.8141 10.8131 75.2572 11.1078 75.6878 11.4102L75.4619 11.7319ZM72.8193 10.0692C72.3674 9.81599 71.9027 9.571 71.438 9.34105L71.6124 8.98877C72.083 9.2216 72.5537 9.46978 73.0115 9.72629L72.8193 10.0692ZM44.2986 9.40625L44.1232 9.05448C44.5934 8.82011 45.076 8.59489 45.5574 8.38503L45.7145 8.74538C45.2391 8.95255 44.7628 9.17489 44.2986 9.40625ZM70.0211 8.68485C69.5453 8.47908 69.0578 8.28311 68.5722 8.10236L68.7094 7.73395C69.2013 7.91707 69.6951 8.1156 70.1771 8.32399L70.0211 8.68485ZM47.1624 8.15796L47.024 7.79006C47.5149 7.60534 48.0179 7.43061 48.519 7.27078L48.6384 7.64533C48.1437 7.80311 47.6471 7.97561 47.1624 8.15796ZM67.0952 7.59524C66.601 7.43976 66.0959 7.29503 65.5938 7.16508L65.6923 6.78452C66.2009 6.91613 66.7126 7.06278 67.2132 7.2203L67.0952 7.59524ZM50.1387 7.20872L50.0385 6.82854C50.5457 6.69488 51.0638 6.57229 51.5785 6.46429L51.6592 6.84895C51.1511 6.95567 50.6395 7.07673 50.1387 7.20872ZM64.0722 6.81273C63.5649 6.70889 63.0475 6.61682 62.5344 6.53908L62.5933 6.15045C63.113 6.22915 63.6371 6.32244 64.151 6.42756L64.0722 6.81273ZM53.1961 6.56723L53.135 6.17886C53.6534 6.09741 54.1813 6.02812 54.7041 5.97297L54.7453 6.36389C54.2291 6.41841 53.7079 6.48681 53.1961 6.56723ZM60.9845 6.34477C60.469 6.29345 59.9449 6.25487 59.4265 6.22998L59.4453 5.83739C59.9704 5.86253 60.5013 5.90162 61.0234 5.95358L60.9845 6.34477ZM56.3028 6.23971L56.2816 5.84724C56.8064 5.81877 57.3387 5.80354 57.8634 5.80194L57.8646 6.19505C57.3465 6.19665 56.8211 6.21168 56.3028 6.23971Z" fill="#E4E4E4"/>
<path id="Vector_12" d="M81.5273 17.7545C81.3783 17.5424 81.2242 17.3303 81.0691 17.124L81.3833 16.8878C81.5409 17.0974 81.6976 17.313 81.849 17.5287L81.5273 17.7545Z" fill="#E4E4E4"/>
<path id="Vector_13" d="M63.6265 81.3251C63.3657 81.2917 63.1052 81.256 62.8448 81.2182L62.9012 80.8292C63.1595 80.8667 63.4179 80.902 63.6765 80.9352L63.6265 81.3251Z" fill="#E4E4E4"/>
<path id="Vector_14" d="M61.2539 80.9601C60.7278 80.8656 60.1958 80.7608 59.6728 80.6487L59.7553 80.2642C60.274 80.3755 60.8016 80.4795 61.3234 80.5732L61.2539 80.9601ZM58.1032 80.2843C57.5834 80.1545 57.0597 80.0142 56.5467 79.8673L56.6548 79.4894C57.1636 79.635 57.6829 79.7742 58.1985 79.903L58.1032 80.2843ZM55.0052 79.3981C54.4955 79.2336 53.9824 79.0583 53.4804 78.8773L53.6137 78.5074C54.1117 78.687 54.6204 78.8608 55.126 79.0241L55.0052 79.3981ZM51.9741 78.3055C51.478 78.1074 50.9779 77.8981 50.4879 77.6831L50.6458 77.3231C51.1318 77.5363 51.6277 77.744 52.1198 77.9404L51.9741 78.3055ZM49.0234 77.0112C48.5411 76.78 48.0563 76.5375 47.5825 76.2905L47.7642 75.9419C48.2342 76.1869 48.715 76.4274 49.1934 76.6567L49.0234 77.0112ZM46.1665 75.5218C45.7026 75.2599 45.2351 74.9856 44.777 74.7065L44.9816 74.3709C45.4359 74.6477 45.8996 74.9197 46.3598 75.1795L46.1665 75.5218ZM43.4155 73.8454C42.9687 73.5523 42.5205 73.2476 42.0831 72.9397L42.3094 72.6183C42.7432 72.9237 43.1879 73.226 43.6311 73.5166L43.4155 73.8454ZM40.7807 71.9891C40.3532 71.6646 39.9278 71.3276 39.5161 70.9874L39.7665 70.6844C40.174 71.0212 40.5952 71.3548 41.0184 71.6759L40.7807 71.9891ZM38.2941 69.9345C37.8957 69.5765 37.4996 69.2054 37.1169 68.8314L37.3916 68.5503C37.7704 68.9204 38.1625 69.2877 38.5568 69.6421L38.2941 69.9345ZM35.9868 67.6801C35.6197 67.2901 35.2561 66.8871 34.906 66.4823L35.2033 66.2251C35.5498 66.6258 35.9098 67.0247 36.273 67.4107L35.9868 67.6801ZM33.8766 65.24C33.5435 64.8204 33.215 64.3882 32.9003 63.9555L33.2183 63.7243C33.5297 64.1526 33.8548 64.5803 34.1845 64.9956L33.8766 65.24Z" fill="#E4E4E4"/>
<path id="Vector_15" d="M31.9744 62.624C31.8286 62.4044 31.6851 62.1836 31.5441 61.9617L31.8759 61.7509C32.0155 61.9706 32.1575 62.1892 32.3019 62.4065L31.9744 62.624Z" fill="#E4E4E4"/>
<path id="Vector_16" d="M116.064 17.0075L111.164 21.5183L115.058 14.9846C111.99 9.42141 106.973 4.6134 106.973 4.6134C106.973 4.6134 96.5636 14.5863 96.5636 22.4257C96.5636 30.2651 101.224 33.0023 106.973 33.0023C112.722 33.0023 117.382 30.2651 117.382 22.4257C117.382 20.6808 116.866 18.8303 116.064 17.0075Z" fill="#F2F2F2"/>
<path id="Vector_17" d="M109.904 21.7625V22.1489C109.881 26.6405 109.124 30.145 107.637 32.6127C107.616 32.6491 107.593 32.6835 107.572 32.7199L107.406 32.6185L107.247 32.519C108.896 29.8543 109.479 26.0877 109.501 22.17C109.502 22.0437 109.504 21.9155 109.502 21.7874C109.497 20.1289 109.395 18.4512 109.233 16.8214C109.221 16.6951 109.208 16.5669 109.194 16.4388C108.969 14.2886 108.644 12.2341 108.311 10.4494C108.288 10.3231 108.263 10.1968 108.238 10.0725C107.662 7.05387 107.075 4.86738 106.941 4.3834C106.926 4.3241 106.916 4.29158 106.914 4.28393L107.096 4.23228L107.098 4.23036L107.281 4.17871C107.283 4.18637 107.316 4.29541 107.369 4.49818C107.574 5.2557 108.106 7.31212 108.628 10.0247C108.651 10.1471 108.676 10.2734 108.699 10.3996C108.971 11.8477 109.237 13.4661 109.447 15.1648C109.5 15.5913 109.548 16.0122 109.59 16.4273C109.606 16.5555 109.619 16.6836 109.631 16.8099C109.807 18.5717 109.898 20.2226 109.904 21.7625Z" fill="white"/>
<path id="Vector_18" d="M108.628 10.0246C108.5 10.0418 108.37 10.0591 108.238 10.0724C107.879 10.1093 107.519 10.1279 107.159 10.1279C105.623 10.13 104.107 9.78743 102.721 9.12555C102.641 9.22693 102.56 9.32832 102.478 9.43162C103.936 10.1432 105.537 10.5122 107.159 10.5105C107.544 10.5104 107.928 10.49 108.311 10.4493C108.441 10.4359 108.571 10.4187 108.699 10.3996C109.757 10.2478 110.786 9.93628 111.75 9.47561C111.668 9.3704 111.587 9.2671 111.509 9.16571C110.596 9.59231 109.626 9.88174 108.628 10.0246Z" fill="white"/>
<path id="Vector_19" d="M109.59 16.4273C109.458 16.4349 109.326 16.4388 109.194 16.4388C109.154 16.4407 109.112 16.4407 109.072 16.4407C107.408 16.4407 105.769 16.0384 104.294 15.2679C102.819 14.4975 101.552 13.3818 100.601 12.0161C100.525 12.1289 100.448 12.2418 100.374 12.3565C101.365 13.7385 102.67 14.8645 104.183 15.6412C105.696 16.418 107.372 16.8232 109.072 16.8233C109.126 16.8233 109.179 16.8233 109.233 16.8214C109.367 16.8195 109.499 16.8156 109.631 16.8099C111.673 16.7053 113.642 16.0146 115.302 14.8204C115.241 14.7076 115.18 14.5947 115.117 14.4818C113.503 15.6543 111.583 16.3304 109.59 16.4273Z" fill="white"/>
<path id="Vector_20" d="M109.904 21.7625C109.77 21.774 109.636 21.7816 109.502 21.7874C109.359 21.7931 109.215 21.7969 109.072 21.7969C106.836 21.7944 104.661 21.0676 102.873 19.7254C101.084 18.3833 99.7787 16.498 99.1515 14.3517C99.0654 14.5067 98.9793 14.6597 98.897 14.8147C99.6038 16.9559 100.967 18.82 102.794 20.1421C104.62 21.4642 106.817 22.1771 109.072 22.1795C109.215 22.1795 109.359 22.1776 109.5 22.17C109.636 22.1661 109.77 22.1585 109.904 22.1489C112.609 21.9373 115.132 20.7058 116.963 18.7037C116.923 18.5621 116.877 18.4225 116.831 18.2809C115.063 20.298 112.578 21.5469 109.904 21.7625Z" fill="white"/>
<path id="Vector_21" d="M15.7736 20.131L18.9694 25.974L13.5679 20.6191C7.42891 22.2545 1.55264 25.964 1.55264 25.964C1.55264 25.964 8.72032 38.4715 16.3282 40.3624C23.9361 42.2533 27.7166 38.3907 29.1033 32.8116C30.49 27.2325 28.9577 22.0495 21.3498 20.1586C19.6564 19.7377 17.736 19.7925 15.7736 20.131Z" fill="#F2F2F2"/>
<path id="Vector_22" d="M18.9024 27.2557L19.2774 27.3489C23.6309 28.4546 26.8492 30.0351 28.8855 32.0728C28.9157 32.102 28.9436 32.1326 28.9738 32.1618L28.8352 32.2988L28.7004 32.4289C26.5121 30.1859 22.9974 28.7111 19.2005 27.7457C19.0784 27.7134 18.9545 27.6807 18.8297 27.6516C17.2187 27.2571 15.5661 26.9509 13.9452 26.7155C13.8199 26.6962 13.6923 26.6783 13.5647 26.6604C11.4236 26.3608 9.3513 26.1808 7.53893 26.0734C7.41086 26.0652 7.28234 26.0589 7.15567 26.053C4.08729 25.8837 1.8237 25.9262 1.32171 25.9395C1.26047 25.94 1.22661 25.9414 1.21872 25.9415L1.21243 25.7526L1.21103 25.7503L1.2052 25.5596C1.2131 25.5596 1.32676 25.5544 1.53646 25.5513C2.32098 25.5354 4.44495 25.5153 7.20338 25.6628C7.32774 25.67 7.45627 25.6763 7.58433 25.6845C9.05519 25.7702 10.6899 25.9025 12.3892 26.108C12.8161 26.1589 13.2361 26.214 13.6491 26.2733C13.7771 26.2894 13.9047 26.3073 14.03 26.3266C15.7823 26.5808 17.4064 26.8905 18.9024 27.2557Z" fill="white"/>
<path id="Vector_23" d="M7.20338 25.6628C7.18918 25.7913 7.17452 25.9217 7.15567 26.053C7.10502 26.4098 7.03613 26.7637 6.94927 27.1135C6.58083 28.6043 5.88259 29.9935 4.90601 31.1787C4.98501 31.2811 5.06403 31.3835 5.14444 31.4883C6.18662 30.2452 6.93094 28.7804 7.32057 27.2058C7.41325 26.8324 7.48614 26.4544 7.53893 26.0734C7.55731 25.9439 7.57197 25.8135 7.58433 25.6845C7.69225 24.6212 7.63806 23.5477 7.42361 22.5006C7.30167 22.5551 7.18204 22.6081 7.06473 22.6598C7.25857 23.6485 7.30529 24.6604 7.20338 25.6628Z" fill="white"/>
<path id="Vector_24" d="M13.6491 26.2733C13.6246 26.4033 13.5965 26.5323 13.5647 26.6604C13.5569 26.6998 13.5467 26.7407 13.537 26.7797C13.1357 28.3946 12.3498 29.8884 11.2463 31.134C10.1429 32.3795 8.7546 33.3398 7.19986 33.9328C7.29093 34.0343 7.38201 34.1358 7.4754 34.2359C9.05551 33.6077 10.4632 32.612 11.5819 31.3314C12.7006 30.0508 13.4981 28.5221 13.9083 26.8719C13.9212 26.82 13.9341 26.768 13.9452 26.7155C13.9756 26.5851 14.0038 26.4561 14.03 26.3266C14.4212 24.3192 14.2258 22.2417 13.4674 20.3423C13.3431 20.3745 13.2188 20.4067 13.0941 20.4408C13.8427 22.2895 14.0355 24.3166 13.6491 26.2733Z" fill="white"/>
<path id="Vector_25" d="M18.9024 27.2558C18.8812 27.3885 18.8564 27.5203 18.8296 27.6516C18.8006 27.7922 18.7697 27.9324 18.7351 28.0716C18.1933 30.241 16.9633 32.1765 15.2294 33.5883C13.4956 35.0001 11.351 35.8124 9.11685 35.9034C9.24647 36.0243 9.37422 36.1448 9.50476 36.262C11.7532 36.0926 13.8912 35.219 15.6148 33.7653C17.3385 32.3115 18.5602 30.3516 19.1064 28.1639C19.141 28.0247 19.1738 27.885 19.2005 27.7458C19.2295 27.613 19.2544 27.4812 19.2774 27.349C19.7245 24.6731 19.1379 21.9273 17.6365 19.6676C17.4895 19.6725 17.3429 19.6833 17.1944 19.6937C18.7254 21.8964 19.3381 24.6089 18.9024 27.2558Z" fill="white"/>
<path id="Vector_26" d="M24.7236 57.2554L23.5262 56.0362L24.9944 53.7914L27.5072 49.6087C27.4251 49.4285 27.3996 49.2276 27.4341 49.0326C27.4687 48.8376 27.5616 48.6578 27.7006 48.5167C27.8396 48.3757 28.0182 48.2802 28.2126 48.2429C28.4071 48.2055 28.6083 48.2281 28.7897 48.3076C28.971 48.3871 29.124 48.5198 29.2283 48.6881C29.3326 48.8565 29.3833 49.0525 29.3738 49.2503C29.3642 49.4481 29.2949 49.6383 29.1749 49.7958C29.0549 49.9533 28.8899 50.0707 28.7018 50.1324L26.6277 54.5978L24.7236 57.2554Z" fill="#A0616A"/>
<path id="Vector_27" d="M23.3972 60.0387C23.2566 60.2564 23.0563 60.429 22.8202 60.5359C22.5841 60.6428 22.3222 60.6795 22.0659 60.6415C21.8219 60.6127 21.5916 60.5133 21.4033 60.3554C21.215 60.1976 21.0769 59.9882 21.0059 59.753C20.9536 59.586 20.9384 59.4096 20.9613 59.2362C20.9842 59.0628 21.0446 58.8964 21.1384 58.7487C21.9394 57.3984 23.4167 55.6151 23.4315 55.5973L23.4551 55.569L25.9467 56.1088L23.3972 60.0387Z" fill="#46E892"/>
<path id="Vector_28" d="M44.7135 11.3696L44.4205 11.4598L41.949 3.43222C41.5696 2.19998 40.7162 1.16892 39.5766 0.565856C38.4371 -0.0372076 37.1046 -0.162873 35.8723 0.216506L18.8647 5.45277C18.2546 5.64062 17.6874 5.94681 17.1956 6.35385C16.7038 6.76089 16.297 7.26082 15.9984 7.82508C15.6998 8.38935 15.5152 9.0069 15.4553 9.64249C15.3953 10.2781 15.4612 10.9192 15.649 11.5294L29.208 55.5695C29.5874 56.8018 30.4407 57.8328 31.5803 58.4359C32.7199 59.0389 34.0524 59.1646 35.2846 58.7852L52.2922 53.549C53.5245 53.1696 54.5555 52.3163 55.1586 51.1767C55.7617 50.0371 55.8873 48.7046 55.508 47.4724L46.1798 17.174L46.4728 17.0838L44.7135 11.3696Z" fill="#3F3D56"/>
<path id="Vector_29" d="M36.432 1.36758L34.2119 2.05108C34.3911 2.26995 34.5136 2.52952 34.5689 2.80693C34.6241 3.08433 34.6102 3.37106 34.5285 3.64184C34.4468 3.91263 34.2997 4.15917 34.1003 4.35974C33.9009 4.56031 33.6552 4.70875 33.3849 4.792L23.6414 7.79179C23.3711 7.875 23.0845 7.89045 22.8068 7.83678C22.529 7.78311 22.2688 7.66197 22.0489 7.48403C21.8291 7.30609 21.6564 7.07681 21.546 6.81639C21.4356 6.55597 21.391 6.2724 21.416 5.99066L19.3425 6.62906C18.4222 6.91237 17.6523 7.54964 17.2019 8.40067C16.7515 9.2517 16.6577 10.2468 16.941 11.167L30.4801 55.1425C30.7634 56.0627 31.4007 56.8327 32.2517 57.2831C33.1027 57.7335 34.0978 57.8273 35.0181 57.544L52.1076 52.2825C53.0278 51.9992 53.7978 51.3619 54.2481 50.5109C54.6985 49.6599 54.7923 48.6648 54.509 47.7445L40.9699 3.76903C40.6866 2.84881 40.0493 2.07882 39.1983 1.62846C38.3473 1.1781 37.3522 1.08426 36.432 1.36758Z" fill="white"/>
<path id="Vector_30" d="M105.24 97.3783L65.3429 83.0368C64.3977 82.6959 63.6263 81.9939 63.198 81.0848C62.7697 80.1758 62.7195 79.134 63.0583 78.188L83.8566 20.3285C84.1976 19.3832 84.8996 18.6118 85.8087 18.1835C86.7177 17.7552 87.7595 17.705 88.7055 18.0438L128.602 32.3853C129.548 32.7263 130.319 33.4283 130.747 34.3373C131.176 35.2463 131.226 36.2881 130.887 37.2342L110.089 95.0937C109.748 96.0389 109.046 96.8103 108.137 97.2386C107.228 97.6669 106.186 97.7172 105.24 97.3783Z" fill="#3F3D56"/>
<path id="Vector_31" d="M106.128 95.1278L66.0908 80.7359C65.7994 80.6308 65.5616 80.4144 65.4296 80.1342C65.2975 79.8539 65.282 79.5328 65.3865 79.2412L86.3226 20.9985C86.4277 20.7071 86.6441 20.4693 86.9243 20.3373C87.2045 20.2052 87.5257 20.1898 87.8173 20.2942L127.855 34.6862C128.146 34.7913 128.384 35.0077 128.516 35.2879C128.648 35.5681 128.663 35.8893 128.559 36.1809L107.623 94.4236C107.518 94.715 107.301 94.9527 107.021 95.0848C106.741 95.2168 106.42 95.2323 106.128 95.1278Z" fill="white"/>
<path id="Vector_32" d="M108.11 26.5747C108.288 26.5747 108.432 26.4304 108.432 26.2523C108.432 26.0742 108.288 25.9299 108.11 25.9299C107.932 25.9299 107.787 26.0742 107.787 26.2523C107.787 26.4304 107.932 26.5747 108.11 26.5747Z" fill="white"/>
<path id="Vector_33" d="M41.8362 35.0662C45.2365 31.6658 45.2365 26.1528 41.8362 22.7524C38.4358 19.3521 32.9228 19.3521 29.5224 22.7524C26.1221 26.1528 26.1221 31.6658 29.5224 35.0662C32.9228 38.4665 38.4358 38.4665 41.8362 35.0662Z" fill="#46E892"/>
<path id="Vector_34" d="M36.5909 33.0645L32.2812 30.1409L32.6575 29.5864L36.2255 32.0071L38.8043 23.94L39.4421 24.1439L36.5909 33.0645Z" fill="white"/>
<path id="Vector_35" d="M104.802 64.749C109.109 60.4422 109.109 53.4595 104.802 49.1528C100.495 44.846 93.5125 44.846 89.2057 49.1528C84.8989 53.4595 84.8989 60.4422 89.2057 64.749C93.5125 69.0558 100.495 69.0557 104.802 64.749Z" fill="#46E892"/>
<path id="Vector_36" d="M94.344 61.6365L92.7603 55.2335L93.5841 55.03L94.8953 60.3311L104.155 54.9165L104.583 55.6486L94.344 61.6365Z" fill="white"/>
<path id="Vector_37" d="M25.4177 89.9216H26.9066L27.6148 84.1791L25.4175 84.1792L25.4177 89.9216Z" fill="#A0616A"/>
<path id="Vector_38" d="M25.038 89.4355L27.9699 89.4354C28.4654 89.4354 28.9408 89.6323 29.2912 89.9826C29.6416 90.333 29.8385 90.8083 29.8385 91.3038V91.3645L25.0381 91.3647L25.038 89.4355Z" fill="#2F2E41"/>
<path id="Vector_39" d="M13.8255 89.2771L15.2976 89.4996L16.8564 83.9276L14.9266 83.5992L13.8255 89.2771Z" fill="#A0616A"/>
<path id="Vector_40" d="M13.5227 88.7397L16.4218 89.1779C16.9117 89.252 17.3523 89.5177 17.6464 89.9166C17.9405 90.3154 18.0641 90.8147 17.99 91.3047L17.981 91.3647L13.2344 90.6473L13.5227 88.7397Z" fill="#2F2E41"/>
<path id="Vector_41" d="M22.4484 62.8504L25.9104 62.0963L27.8522 67.6471L27.913 89.0804L25.0869 89.0627L23.9056 71.7152L16.3766 87.7446L13.3407 87.3803L19.9589 70.1972C19.9589 70.1972 19.5946 67.1613 20.7483 65.6434L20.5054 64.0647L22.4484 62.8504Z" fill="#F64749"/>
<path id="Vector_42" d="M19.1983 58.7692C19.1196 58.5328 19.1112 58.2786 19.1742 58.0375C19.2372 57.7965 19.3688 57.5789 19.5531 57.4112L20.2849 56.746L22.348 56.3985L23.6379 56.164L26.6966 63.7998L20.6757 64.4854C20.2337 64.39 20.0572 64.1483 20.3144 63.6676L19.1983 58.7692Z" fill="#46E892"/>
<path id="Vector_43" d="M26.4884 57.5047L26.3162 55.8046L28.8654 54.9704L33.4416 53.2769C33.4902 53.085 33.5959 52.9123 33.7448 52.7817C33.8936 52.6511 34.0786 52.5688 34.2753 52.5456C34.4719 52.5225 34.671 52.5596 34.8461 52.652C35.0212 52.7445 35.1641 52.8879 35.256 53.0633C35.3478 53.2387 35.3842 53.4379 35.3604 53.6345C35.3365 53.8311 35.2536 54.0158 35.1225 54.1642C34.9914 54.3126 34.8184 54.4177 34.6262 54.4656C34.4341 54.5135 34.232 54.502 34.0465 54.4325L29.636 56.621L26.4884 57.5047Z" fill="#A0616A"/>
<path id="Vector_44" d="M23.713 58.8477C23.4672 58.9297 23.203 58.9392 22.9519 58.875C22.7008 58.8109 22.4735 58.6757 22.2972 58.4858C22.1249 58.3108 22.0073 58.0892 21.9591 57.8483C21.9108 57.6074 21.9339 57.3576 22.0255 57.1297C22.089 56.9667 22.1874 56.8195 22.3137 56.6985C22.44 56.5774 22.5912 56.4854 22.7567 56.4287C24.2261 55.8757 26.494 55.4075 26.5167 55.4028L26.5528 55.3954L28.1599 57.3745L23.713 58.8477Z" fill="#46E892"/>
<path id="Vector_45" d="M21.4426 55.6675C22.6933 55.6675 23.7072 54.6536 23.7072 53.4029C23.7072 52.1522 22.6933 51.1382 21.4426 51.1382C20.1919 51.1382 19.1779 52.1522 19.1779 53.4029C19.1779 54.6536 20.1919 55.6675 21.4426 55.6675Z" fill="#A0616A"/>
<path id="Vector_46" d="M19.6091 56.6291C19.2579 56.629 18.9071 56.6076 18.5585 56.565L18.5107 56.5592L18.1459 54.5788C17.9912 53.7393 18.1637 52.8725 18.628 52.1561C19.0923 51.4398 19.8131 50.9283 20.6426 50.7267C20.698 50.7127 20.7561 50.7142 20.8107 50.7311C20.8652 50.748 20.914 50.7796 20.9518 50.8225L21.0388 50.7921C21.3719 50.676 21.7246 50.6266 22.0768 50.6467C22.4289 50.6669 22.7737 50.7562 23.0914 50.9096C23.409 51.063 23.6933 51.2775 23.9281 51.5408C24.1629 51.804 24.3435 52.111 24.4596 52.4441L24.4812 52.506L23.9006 52.7084C23.7197 52.7715 23.5552 52.8741 23.4189 53.0088C23.2827 53.1434 23.1781 53.3068 23.113 53.487C23.0478 53.6671 23.0236 53.8595 23.0421 54.0502C23.0606 54.2409 23.1214 54.425 23.2201 54.5893L23.8137 55.5775L23.7505 55.6091C22.4693 56.2697 21.0505 56.6191 19.6091 56.6291Z" fill="#2F2E41"/>
<path id="Vector_47" d="M50.0555 91.5793H0.131035C0.0962826 91.5793 0.0629532 91.5655 0.0383793 91.5409C0.0138054 91.5163 0 91.483 0 91.4482C0 91.4135 0.0138054 91.3802 0.0383793 91.3556C0.0629532 91.331 0.0962826 91.3172 0.131035 91.3172H50.0555C50.0903 91.3172 50.1236 91.331 50.1482 91.3556C50.1727 91.3802 50.1865 91.4135 50.1865 91.4482C50.1865 91.483 50.1727 91.5163 50.1482 91.5409C50.1236 91.5655 50.0903 91.5793 50.0555 91.5793Z" fill="#CACACA"/>
<path id="Vector_48" d="M138.504 98H88.5799C88.5451 98 88.5118 97.9862 88.4872 97.9616C88.4627 97.937 88.4489 97.9037 88.4489 97.869C88.4489 97.8342 88.4627 97.8009 88.4872 97.7763C88.5118 97.7517 88.5451 97.7379 88.5799 97.7379H138.504C138.539 97.7379 138.572 97.7517 138.597 97.7763C138.622 97.8009 138.635 97.8342 138.635 97.869C138.635 97.9037 138.622 97.937 138.597 97.9616C138.572 97.9862 138.539 98 138.504 98Z" fill="#CACACA"/>
<path id="Vector_49" d="M111.389 75.1304C111.5 75.0377 111.589 74.9218 111.65 74.7909C111.711 74.6601 111.743 74.5175 111.743 74.3731C111.743 74.2287 111.711 74.086 111.65 73.9552C111.589 73.8244 111.5 73.7085 111.389 73.6159L110.655 60.6929L108.56 61.1665L109.945 73.7876C109.801 73.9839 109.735 74.226 109.758 74.468C109.781 74.71 109.892 74.9351 110.071 75.1006C110.249 75.2661 110.481 75.3606 110.724 75.3661C110.967 75.3715 111.204 75.2877 111.389 75.1304Z" fill="#9F616A"/>
<path id="Vector_50" d="M119.896 76.8132C119.782 76.7245 119.689 76.6119 119.624 76.4834C119.558 76.3548 119.521 76.2134 119.516 76.0691C119.511 75.9248 119.537 75.7811 119.593 75.6482C119.65 75.5152 119.735 75.3963 119.842 75.2996L120.108 62.3585L122.219 62.756L121.291 75.4189C121.442 75.6099 121.517 75.8495 121.502 76.0921C121.488 76.3348 121.385 76.5638 121.213 76.7356C121.041 76.9075 120.812 77.0103 120.57 77.0246C120.327 77.0389 120.087 76.9637 119.896 76.8132Z" fill="#9F616A"/>
<path id="Vector_51" d="M121.013 96.0462L122.657 96.046L123.126 92.2114L121.013 92.2116L121.013 96.0462Z" fill="#9F616A"/>
<path id="Vector_52" d="M120.594 95.5094L123.831 95.5093H123.831C124.378 95.5093 124.903 95.7267 125.29 96.1135C125.677 96.5004 125.894 97.0251 125.894 97.5722V97.6392L120.594 97.6394L120.594 95.5094Z" fill="#2F2E41"/>
<path id="Vector_53" d="M110.756 96.0461L112.4 96.046L112.869 89.7059H110.756L110.756 96.0461Z" fill="#9F616A"/>
<path id="Vector_54" d="M110.337 95.5094L113.574 95.5093C114.121 95.5093 114.646 95.7267 115.033 96.1135C115.42 96.5004 115.637 97.0251 115.637 97.5722V97.6392L110.337 97.6394L110.337 95.5094Z" fill="#2F2E41"/>
<path id="Vector_55" d="M117.378 55.1177C118.863 55.1177 120.067 53.9137 120.067 52.4285C120.067 50.9433 118.863 49.7393 117.378 49.7393C115.893 49.7393 114.689 50.9433 114.689 52.4285C114.689 53.9137 115.893 55.1177 117.378 55.1177Z" fill="#9F616A"/>
<path id="Vector_56" d="M120.796 58.6339C120.796 58.6339 121.991 58.7335 122.09 59.3311C122.19 59.9287 122.09 61.7215 122.09 61.7215C122.09 61.7215 122.887 64.1119 122.09 64.7095C121.294 65.3071 119.202 65.4067 119.202 65.4067L120.796 58.6339Z" fill="#E4E4E4"/>
<path id="Vector_57" d="M110.636 72.1796L109.541 73.9724C109.541 73.9724 109.939 81.8408 110.039 82.04C110.118 82.1569 110.153 82.298 110.138 82.4384V83.534L110.437 93.0956C110.437 93.0956 109.64 93.494 110.636 93.7928C111.632 94.0916 112.927 94.1912 113.126 93.1952C113.326 92.1992 113.335 83.9016 113.326 83.6336L113.425 83.2352L115.019 77.3588L118.704 85.526L120.895 94.6892C120.895 94.6892 124.212 95.0721 123.614 93.7773C123.016 92.4825 121.592 82.8368 121.592 82.8368C121.592 82.8368 121.294 81.8408 121.294 81.6416C121.294 81.4424 121.194 81.3428 121.194 81.1436C121.194 80.9444 121.094 80.3468 121.094 80.3468L120.397 74.072L110.636 72.1796Z" fill="#F64749"/>
<path id="Vector_58" d="M111.632 56.9408C111.632 56.9408 110.437 56.8412 110.138 57.8372C109.84 58.8332 107.35 62.618 107.848 63.0164C108.346 63.4148 112.13 64.8092 112.23 64.7096C112.33 64.61 111.632 56.9408 111.632 56.9408Z" fill="#E4E4E4"/>
<path id="Vector_59" d="M120.509 50.7136C120.397 50.2935 120.238 49.8736 119.913 49.5833C119.585 49.2914 119.164 49.1255 118.725 49.1151C118.223 48.8247 117.661 48.6562 117.083 48.6234C116.504 48.5906 115.926 48.6944 115.396 48.9263C115.338 48.8104 115.245 48.7157 115.13 48.656C115.098 48.9326 115.066 49.2092 115.034 49.4857C114.911 49.3928 114.787 49.2998 114.664 49.2068C114.658 49.3705 114.652 49.5342 114.646 49.6979C114.532 49.6006 114.419 49.5032 114.306 49.4059C114.282 49.9855 114.764 50.4874 115.31 50.685C115.855 50.8826 116.453 50.8462 117.033 50.8188C117.319 50.8052 117.645 50.8101 117.838 51.0217C118.04 51.2434 118.002 51.5832 118.007 51.8833C118.014 52.3054 118.447 52.0986 118.665 52.4605C118.758 52.5804 118.817 52.7239 118.833 52.8751C118.813 53.0122 118.763 53.1433 118.688 53.2596C118.528 53.59 118.209 54.618 118.361 54.9522C118.642 54.7949 118.923 54.6376 119.204 54.4804C119.204 54.4804 121.056 52.7472 120.509 50.7136Z" fill="#2F2E41"/>
<path id="Vector_60" d="M119.999 64.4107C119.999 64.4107 121.991 59.3311 121.891 58.9327C121.792 58.5343 119.306 56.8996 119.306 56.8996C119.212 56.8879 119.122 56.8765 119.031 56.8651C119.045 56.83 119.054 56.7933 119.059 56.7559L119.101 56.366C119.115 56.245 119.079 56.1237 119.003 56.0287C118.927 55.9338 118.816 55.873 118.695 55.8597L115.537 55.5135C115.416 55.5002 115.295 55.5356 115.2 55.6118C115.105 55.688 115.044 55.7988 115.031 55.9198L114.994 56.257C114.827 56.2157 114.82 56.1995 114.82 56.1995C114.82 56.1995 112.031 56.6419 111.334 56.8411C110.636 57.0403 111.234 64.6099 111.234 64.6099C111.234 64.6099 110.736 71.5819 110.437 71.7811C110.138 71.9803 110.437 71.8807 110.138 72.6775C110.099 72.7826 110.649 72.1958 110.885 72.3289C112.44 73.2051 118.741 75.254 120.298 75.1675C120.795 69.9748 119.8 68.2951 119.8 68.2951L119.999 64.4107Z" fill="#E4E4E4"/>
</g>
<defs>
<clipPath id="clip0_0_954">
<rect width="138.635" height="98" fill="white"/>
</clipPath>
</defs>
</svg>
