<svg width="181" height="60" viewBox="0 0 181 60" fill="none" xmlns="http://www.w3.org/2000/svg">
<g id="animal 1" clip-path="url(#clip0_0_1451)">
<path id="Vector" d="M27.3656 36.6408C26.0068 36.642 24.6577 36.4129 23.3754 35.9633L23.28 35.9299L23.3586 35.5622C21.0379 31.0167 21.8393 24.7693 25.4056 19.6324C28.6498 14.9591 33.5909 11.557 37.9497 8.556C38.4862 8.18651 39.1208 7.98551 39.7722 7.97872C40.4237 7.97193 41.0623 8.15966 41.6064 8.51789C42.1506 8.87611 42.5754 9.38854 42.8267 9.9896C43.0779 10.5907 43.1442 11.253 43.0168 11.8919L41.4759 19.6264C40.354 25.2586 39.0202 30.5885 35.0722 33.9021C32.8959 35.6762 30.1734 36.6437 27.3656 36.6408Z" fill="#46E892"/>
<path id="abd51855-a673-4ef9-adc8-1347fdb580b5-45" d="M24.4033 55.529C23.5965 49.6512 22.7665 43.6975 23.3337 37.7567C23.8364 32.4806 25.4462 27.3283 28.7233 23.1019C30.4628 20.8632 32.5794 18.9451 34.9781 17.4338C35.6034 17.0392 36.1791 18.0301 35.5564 18.4232C31.406 21.0461 28.1958 24.9192 26.3885 29.4842C24.3926 34.5605 24.0721 40.0945 24.4159 45.4871C24.6237 48.7482 25.0653 51.9879 25.5088 55.2238C25.5438 55.3701 25.522 55.5243 25.4476 55.6551C25.3733 55.7859 25.2521 55.8837 25.1085 55.9285C24.962 55.968 24.8058 55.9481 24.6738 55.8731C24.5419 55.7982 24.4448 55.6743 24.4037 55.5282L24.4033 55.529Z" fill="#3F3D56"/>
<path id="Vector_2" d="M37.596 50.191C36.1134 50.1872 34.6547 49.8174 33.3495 49.1143C32.0443 48.4111 30.933 47.3966 30.1142 46.1606L30.0583 46.0757L30.2821 45.8859C30.9555 42.1841 34.2168 38.8787 38.6036 37.4567C42.59 36.1646 47.006 36.3758 50.9009 36.5629C51.3859 36.5861 51.853 36.7534 52.2424 37.0436C52.6318 37.3337 52.9257 37.7335 53.0866 38.1916C53.2475 38.6498 53.2681 39.1455 53.1457 39.6154C53.0232 40.0853 52.7634 40.508 52.3993 40.8294L48.0474 44.672C44.8744 47.4745 41.7116 50.005 37.9108 50.1852C37.8058 50.189 37.7005 50.191 37.596 50.191Z" fill="#46E892"/>
<path id="b6a87e1b-685a-4f79-adc0-a59c983b9bff-46" d="M22.1228 58.9078C26.0069 52.0353 30.5118 44.3973 38.5619 41.956C40.8001 41.2795 43.1469 41.0372 45.476 41.242C46.2102 41.3054 46.0268 42.4369 45.2942 42.3739C41.3899 42.0497 37.4931 43.0807 34.2599 45.2931C31.1486 47.4109 28.726 50.3553 26.6758 53.4773C25.4198 55.39 24.2948 57.3836 23.1698 59.3746C22.8104 60.0109 21.7591 59.5514 22.1228 58.9078Z" fill="#3F3D56"/>
<path id="Vector_3" d="M62.0668 49.8012C61.473 49.8018 60.8833 49.7017 60.323 49.5052L60.2275 49.4717L60.2687 49.2794C59.2692 47.2982 59.6199 44.5868 61.1673 42.3578C62.5743 40.3309 64.7121 38.8591 66.5979 37.5607C66.8402 37.3939 67.1267 37.3031 67.4209 37.3C67.7151 37.297 68.0035 37.3817 68.2492 37.5435C68.4949 37.7053 68.6867 37.9367 68.8002 38.2081C68.9136 38.4795 68.9435 38.7786 68.886 39.0671L68.221 42.4054C67.7343 44.8483 67.1551 47.1605 65.4351 48.6039C64.484 49.3796 63.294 49.8025 62.0668 49.8012Z" fill="#46E892"/>
<path id="ebf62926-f2ef-4574-b3b9-03deb0cc338a-47" d="M60.7883 57.8881C60.4401 55.3513 60.0819 52.7816 60.3267 50.2176C60.5437 47.9404 61.2384 45.7167 62.6529 43.8926C63.4036 42.9264 64.3172 42.0985 65.3524 41.4462C65.6223 41.2759 65.8708 41.7036 65.602 41.8733C63.8107 43.0053 62.4252 44.6769 61.6452 46.6472C60.7837 48.8381 60.6454 51.2266 60.7938 53.554C60.8835 54.9615 61.0741 56.3598 61.2655 57.7564C61.2806 57.8195 61.2712 57.8861 61.2391 57.9425C61.207 57.999 61.1547 58.0412 61.0927 58.0606C61.0295 58.0776 60.962 58.069 60.9051 58.0366C60.8482 58.0043 60.8063 57.9508 60.7885 57.8878L60.7883 57.8881Z" fill="#3F3D56"/>
<path id="Vector_4" d="M66.4826 55.6496C65.8318 55.648 65.1915 55.4857 64.6186 55.1771C64.0457 54.8685 63.5579 54.4231 63.1985 53.8806L63.1427 53.7957L63.2656 53.6912C63.5698 52.0795 64.9903 50.6438 66.897 50.0259C68.6292 49.4645 70.5406 49.5559 72.2278 49.637C72.4501 49.6477 72.6642 49.7244 72.8427 49.8574C73.0212 49.9904 73.156 50.1736 73.2297 50.3836C73.3035 50.5936 73.3129 50.8208 73.2568 51.0362C73.2007 51.2516 73.0816 51.4454 72.9147 51.5927L71.0365 53.2512C69.6579 54.4687 68.2829 55.5683 66.6214 55.6469C66.5751 55.6487 66.5287 55.6496 66.4826 55.6496Z" fill="#46E892"/>
<path id="ab8c1ad0-4924-41ff-9be1-1da9c47377aa-48" d="M59.8041 59.3464C61.4805 56.3802 63.4248 53.0837 66.8992 52.03C67.8652 51.7381 68.8781 51.6335 69.8833 51.7219C70.2002 51.7492 70.121 52.2376 69.8048 52.2104C68.1197 52.0705 66.4379 52.5154 65.0424 53.4703C63.6996 54.3843 62.654 55.6551 61.7691 57.0026C61.2271 57.8281 60.7415 58.6886 60.256 59.5478C60.1008 59.8225 59.6471 59.6242 59.8041 59.3464Z" fill="#3F3D56"/>
<path id="Vector_5" d="M158.992 49.5789C157.002 49.5789 155.486 48.5047 154.388 46.3318C153.335 44.2485 154.427 42.4499 155.887 41.6603C157.35 40.8689 159.458 40.9401 160.626 42.9652C161.765 44.9386 161.895 46.9839 161.015 49.0451L161.058 49.2475L160.955 49.2772C160.318 49.4687 159.657 49.5703 158.992 49.5789Z" fill="#46E892"/>
<path id="fe56ea42-b5c6-4c01-a160-1e56b0952e49-49" d="M160.956 59.7283C161.973 53.9746 162.037 46.6871 156.392 43.2865C156.122 43.1161 155.873 43.5438 156.142 43.7134C161.593 47.0103 161.431 54.0505 160.479 59.5966C160.464 59.659 160.474 59.7247 160.506 59.7799C160.539 59.8351 160.592 59.8755 160.654 59.8925C160.716 59.9096 160.782 59.9019 160.838 59.8712C160.894 59.8405 160.936 59.7892 160.956 59.728L160.956 59.7283Z" fill="#3F3D56"/>
<path id="Vector_6" d="M135.004 55.1963C134.293 55.1771 133.596 55.0014 132.961 54.6816C131.36 53.9305 131.186 52.3529 131.701 51.2048C132.211 50.0695 133.493 49.1619 135.102 49.8527C135.822 50.1396 136.462 50.5965 136.967 51.1843C137.472 51.7722 137.828 52.4735 138.003 53.2285L138.134 53.3395L138.07 53.4262C137.189 54.6084 136.176 55.1963 135.004 55.1963Z" fill="#46E892"/>
<path id="bd957783-9dde-42d5-bbc3-75df1df1a96d-50" d="M142.618 59.3464C140.615 55.5114 137.416 51.1744 132.539 51.722C132.222 51.7492 132.301 52.2376 132.617 52.2104C137.25 51.731 140.264 55.8973 142.166 59.548C142.321 59.8225 142.775 59.6242 142.618 59.3464Z" fill="#3F3D56"/>
<path id="Vector_7" d="M180.34 60H0.230025C0.169019 60 0.110511 59.9758 0.0673726 59.9326C0.0242345 59.8895 0 59.831 0 59.77C0 59.709 0.0242345 59.6505 0.0673726 59.6073C0.110511 59.5642 0.169019 59.5399 0.230025 59.5399H180.34C180.401 59.5399 180.459 59.5642 180.502 59.6073C180.545 59.6505 180.57 59.709 180.57 59.77C180.57 59.831 180.545 59.8895 180.502 59.9326C180.459 59.9758 180.401 60 180.34 60Z" fill="#CACACA"/>
<path id="Vector_8" d="M137.095 44.8183H77.0584C76.9974 44.8183 76.9389 44.7941 76.8957 44.751C76.8526 44.7078 76.8284 44.6493 76.8284 44.5883C76.8284 44.5273 76.8526 44.4688 76.8957 44.4257C76.9389 44.3825 76.9974 44.3583 77.0584 44.3583H137.095C137.156 44.3583 137.214 44.3825 137.258 44.4257C137.301 44.4688 137.325 44.5273 137.325 44.5883C137.325 44.6493 137.301 44.7078 137.258 44.751C137.214 44.7941 137.156 44.8183 137.095 44.8183Z" fill="#CACACA"/>
<path id="Vector_9" d="M107.925 6.19448L107.529 1.27387C107.492 1.16882 107.429 1.07484 107.346 1.00051C107.262 0.926189 107.162 0.873899 107.053 0.848435C106.945 0.822971 106.832 0.825144 106.724 0.854753C106.617 0.884362 106.518 0.940465 106.438 1.01792C103.266 1.79623 101.986 3.45253 101.619 5.53265C100.097 5.20997 98.5316 5.13954 96.9864 5.32415C98.1015 3.73683 98.0247 2.11905 96.8646 0.473605C96.832 0.365947 96.7727 0.268293 96.6922 0.189731C96.6117 0.11117 96.5126 0.0542509 96.4041 0.0242816C96.2957 -0.00568775 96.1815 -0.00773875 96.072 0.0183217C95.9626 0.0443822 95.8615 0.0977101 95.7783 0.173333C93.6325 1.25784 92.1317 2.60935 91.89 4.48225C89.1951 5.92745 87.0342 8.19799 85.724 10.961C84.4138 13.7239 84.0232 16.834 84.6095 19.8352C85.1958 22.8363 86.7282 25.5707 88.982 27.6374C91.2358 29.7041 94.0924 30.9943 97.133 31.319C100.174 31.6437 103.238 30.9857 105.878 29.4416C108.517 27.8974 110.592 25.5482 111.799 22.7385C113.006 19.9289 113.281 16.8065 112.584 13.8291C111.886 10.8518 110.254 8.17613 107.925 6.19448Z" fill="#3F3D56"/>
<path id="Vector_10" d="M109.711 26.1628C121.308 24.6753 127.831 43.5911 109.123 44.645C107.975 45.9044 98.9781 46.9575 91.3535 45.2188C84.5097 45.493 76.7296 36.541 86.3235 24.3311L109.711 26.1628Z" fill="#3F3D56"/>
<path id="Vector_11" d="M98.134 35.9235V45.493H102.608L106.158 35.7489" fill="#3F3D56"/>
<path id="Vector_12" d="M114.116 42.2658C114.091 42.2306 114.073 42.1935 114.052 42.1574C113.861 42.1644 113.671 42.1714 113.48 42.1785L114.116 42.2658Z" fill="#3F3D56"/>
<path id="Vector_13" d="M131.744 36.7365C130.315 34.4538 126.821 33.8195 124.682 35.4547C123.716 36.1926 123.066 37.2593 122.241 38.1517C120.853 39.6432 119.003 40.6226 116.989 40.9309C115.588 41.1411 114.105 41.027 112.811 41.6042C111.555 42.1639 110.608 43.7616 111.292 44.9177C116.11 44.7401 120.928 44.5625 125.747 44.3849C127.133 44.3339 128.568 44.2707 129.808 43.648C132.214 42.4393 133.172 39.0192 131.744 36.7365Z" fill="#3F3D56"/>
<path id="Vector_14" d="M97.5519 30.1243C95.5728 30.1424 93.6113 29.751 91.7907 28.9746C87.9895 27.3246 86.2473 24.5401 86.175 24.4224C86.1512 24.383 86.1439 24.3358 86.1548 24.2911C86.1656 24.2464 86.1937 24.2078 86.2329 24.1837C86.2721 24.1596 86.3193 24.1519 86.3641 24.1624C86.4089 24.1729 86.4477 24.2007 86.4721 24.2397C87.8492 26.1954 89.7456 27.7272 91.9472 28.6622C95.3702 30.1421 101.216 30.8836 109.623 26.0119C109.643 26.0003 109.665 25.9928 109.688 25.9898C109.711 25.9867 109.734 25.9882 109.756 25.994C109.778 25.9999 109.799 26.0101 109.817 26.024C109.835 26.038 109.851 26.0553 109.862 26.0752C109.874 26.095 109.881 26.1169 109.884 26.1397C109.887 26.1624 109.886 26.1855 109.88 26.2076C109.874 26.2298 109.864 26.2506 109.85 26.2688C109.836 26.287 109.818 26.3022 109.798 26.3137C104.863 29.1736 100.788 30.1243 97.5519 30.1243Z" fill="white"/>
<path id="Vector_15" d="M98.3084 21.2713C97.9846 21.271 97.6743 21.1422 97.4454 20.9133C97.2165 20.6844 97.0877 20.3741 97.0873 20.0503C97.0876 20.0042 97.1061 19.9601 97.1388 19.9276C97.1714 19.8951 97.2157 19.8768 97.2618 19.8768C97.3079 19.8768 97.3521 19.8951 97.3848 19.9276C97.4175 19.9601 97.436 20.0042 97.4362 20.0503C97.4366 20.2814 97.5286 20.5029 97.6921 20.6661C97.8557 20.8294 98.0773 20.9211 98.3084 20.9211C98.5394 20.9211 98.761 20.8294 98.9246 20.6661C99.0881 20.5029 99.1801 20.2814 99.1805 20.0503C99.1807 20.0042 99.1992 19.9601 99.2319 19.9276C99.2646 19.8951 99.3088 19.8768 99.3549 19.8768C99.401 19.8768 99.4453 19.8951 99.478 19.9276C99.5106 19.9601 99.5291 20.0042 99.5294 20.0503C99.529 20.3741 99.4002 20.6844 99.1713 20.9133C98.9424 21.1422 98.6321 21.271 98.3084 21.2713Z" fill="white"/>
<path id="Vector_16" d="M98.3956 18.4067C99.1663 18.4067 99.7911 18.1664 99.7911 17.87C99.7911 17.5735 99.1663 17.3333 98.3956 17.3333C97.6249 17.3333 97.0002 17.5735 97.0002 17.87C97.0002 18.1664 97.6249 18.4067 98.3956 18.4067Z" fill="white"/>
<path id="Vector_17" d="M89.0127 17.9093C89.412 17.4313 89.9114 17.0467 90.4756 16.7829C91.0399 16.519 91.6552 16.3822 92.278 16.3822C92.9009 16.3822 93.5162 16.519 94.0804 16.7829C94.6447 17.0467 95.1441 17.4313 95.5434 17.9093C96.2199 17.2635 96.6897 16.4316 96.8934 15.5187C97.0971 14.6059 97.0255 13.6531 96.6878 12.781C96.35 11.9088 95.7612 11.1564 94.9958 10.6189C94.2304 10.0814 93.3228 9.78288 92.3878 9.76118C91.4527 9.73948 90.5322 9.99554 89.7427 10.497C88.9532 10.9984 88.3301 11.7227 87.9523 12.5783C87.5744 13.4338 87.4587 14.3822 87.6198 15.3035C87.781 16.2248 88.2117 17.0776 88.8575 17.7542C88.908 17.8071 88.9597 17.8588 89.0127 17.9093Z" fill="white"/>
<path id="Vector_18" d="M101.781 17.9093C102.18 17.4313 102.679 17.0467 103.244 16.7828C103.808 16.519 104.423 16.3822 105.046 16.3822C105.669 16.3822 106.284 16.519 106.848 16.7828C107.413 17.0467 107.912 17.4313 108.311 17.9093C108.988 17.2635 109.458 16.4316 109.661 15.5187C109.865 14.6059 109.794 13.6532 109.456 12.781C109.118 11.9088 108.529 11.1564 107.764 10.6189C106.998 10.0814 106.091 9.78288 105.156 9.76118C104.221 9.73947 103.3 9.99553 102.511 10.497C101.721 10.9984 101.098 11.7227 100.72 12.5782C100.342 13.4338 100.227 14.3822 100.388 15.3035C100.549 16.2248 100.98 17.0776 101.626 17.7541C101.676 17.8071 101.728 17.8588 101.781 17.9093Z" fill="white"/>
<path id="Vector_19" d="M90.2048 16.5754C91.1032 16.5754 91.8315 15.8472 91.8315 14.9488C91.8315 14.0504 91.1032 13.3221 90.2048 13.3221C89.3064 13.3221 88.5781 14.0504 88.5781 14.9488C88.5781 15.8472 89.3064 16.5754 90.2048 16.5754Z" fill="#3F3D56"/>
<path id="Vector_20" d="M102.972 16.5754C103.871 16.5754 104.599 15.8472 104.599 14.9488C104.599 14.0504 103.871 13.3221 102.972 13.3221C102.074 13.3221 101.346 14.0504 101.346 14.9488C101.346 15.8472 102.074 16.5754 102.972 16.5754Z" fill="#3F3D56"/>
<path id="Vector_21" d="M105.198 21.3517C105.985 21.3517 106.624 20.7135 106.624 19.9263C106.624 19.139 105.985 18.5009 105.198 18.5009C104.411 18.5009 103.773 19.139 103.773 19.9263C103.773 20.7135 104.411 21.3517 105.198 21.3517Z" fill="#F64749"/>
<path id="Vector_22" d="M92.3169 21.3517C93.1042 21.3517 93.7423 20.7135 93.7423 19.9263C93.7423 19.139 93.1042 18.5009 92.3169 18.5009C91.5297 18.5009 90.8915 19.139 90.8915 19.9263C90.8915 20.7135 91.5297 21.3517 92.3169 21.3517Z" fill="#F64749"/>
<path id="Vector_23" d="M77.0839 44.5154C77.6562 44.1586 77.2525 42.4777 76.1822 40.761C75.112 39.0442 73.7805 37.9417 73.2082 38.2984C72.636 38.6552 73.0397 40.3361 74.1099 42.0529C75.1801 43.7696 76.5117 44.8721 77.0839 44.5154Z" fill="#3F3D56"/>
<path id="Vector_24" d="M82.9181 32.753L75.146 40.9392L77.1725 44.4289L84.5096 40.0446" fill="#3F3D56"/>
<path id="Vector_25" d="M96.5097 47.8947C96.6084 47.2277 95.0662 46.4467 93.065 46.1505C91.0637 45.8542 89.3614 46.1548 89.2626 46.8219C89.1639 47.489 90.7061 48.2699 92.7073 48.5662C94.7086 48.8624 96.4109 48.5618 96.5097 47.8947Z" fill="#F64749"/>
<path id="Vector_26" d="M91.3254 35.8326L92.5301 47.056L96.4946 47.8793L97.9122 39.3419" fill="#F64749"/>
<path id="Vector_27" d="M108.818 47.6642C110.829 47.4466 112.401 46.7267 112.328 46.0563C112.256 45.3858 110.566 45.0187 108.555 45.2363C106.544 45.4539 104.972 46.1738 105.044 46.8442C105.117 47.5146 106.806 47.8817 108.818 47.6642Z" fill="#F64749"/>
<path id="Vector_28" d="M104.271 35.6893L108.265 46.2468L112.309 46.0446L111.53 37.4253" fill="#F64749"/>
</g>
<defs>
<clipPath id="clip0_0_1451">
<rect width="180.57" height="60" fill="white"/>
</clipPath>
</defs>
</svg>
