<svg width="35" height="35" viewBox="0 0 35 35" fill="none" xmlns="http://www.w3.org/2000/svg">
<g id="capabilities 1">
<g id="Group">
<path id="Vector" d="M27.4914 17.9648L26.5891 17.4453C26.3813 17.325 26.2828 17.0844 26.332 16.8492C26.5891 15.6352 26.5891 14.443 26.332 13.2289C26.2828 12.9938 26.3813 12.7531 26.5891 12.6328L27.4914 12.1133C27.7539 11.9602 27.8414 11.6266 27.6938 11.3641L25.7797 8.05C25.7065 7.92454 25.5868 7.83295 25.4466 7.79508C25.3064 7.75721 25.1569 7.7761 25.0305 7.84766L24.1336 8.36719C23.9258 8.4875 23.6688 8.45469 23.4883 8.29609C22.5753 7.48219 21.5051 6.86424 20.3438 6.48047C20.2338 6.44618 20.1376 6.37797 20.0688 6.28563C20.0001 6.19328 19.9623 6.08154 19.9609 5.96641V4.92188C19.9609 4.62109 19.7149 4.375 19.4141 4.375H15.5859C15.2852 4.375 15.0391 4.62109 15.0391 4.92188V5.96641C15.0391 6.20156 14.8805 6.40938 14.6563 6.48047C13.4805 6.86875 12.4141 7.49219 11.5117 8.29609C11.3313 8.45469 11.0742 8.4875 10.8664 8.36719L9.96954 7.84766C9.84314 7.7761 9.69364 7.75721 9.55341 7.79508C9.41318 7.83295 9.29351 7.92454 9.22032 8.05L7.30626 11.3641C7.1586 11.6266 7.2461 11.9602 7.5086 12.1133L8.41095 12.6328C8.61876 12.7531 8.7172 12.9938 8.66798 13.2289C8.41095 14.443 8.41095 15.6352 8.66798 16.8492C8.7172 17.0844 8.61876 17.325 8.41095 17.4453L7.5086 17.9648C7.2461 18.118 7.1586 18.4516 7.30626 18.7141L9.22032 22.0281C9.37345 22.2906 9.70704 22.3781 9.96954 22.2305L10.4891 21.9297L10.8664 21.7109C11.0742 21.5906 11.3313 21.6234 11.5117 21.782C12.4247 22.5959 13.4949 23.2139 14.6563 23.5977C14.8805 23.6688 15.0391 23.8766 15.0391 24.1117V25.1562C15.0391 25.457 15.2852 25.7031 15.5859 25.7031H19.4141C19.7149 25.7031 19.9609 25.457 19.9609 25.1562V24.1117C19.9609 23.8766 20.1195 23.6688 20.3438 23.5977C21.5195 23.2094 22.5859 22.5859 23.4883 21.782C23.6688 21.6234 23.9258 21.5906 24.1336 21.7109L25.0305 22.2305C25.293 22.3781 25.6266 22.2906 25.7797 22.0281L27.6938 18.7141C27.8414 18.4516 27.7539 18.118 27.4914 17.9648Z" fill="#F64749"/>
<path id="Vector_2" d="M16.3953 25.7031H15.5859C15.2851 25.7031 15.039 25.457 15.039 25.1562V24.1117C15.039 23.8765 14.8805 23.6687 14.6562 23.5976C13.4949 23.2139 12.4247 22.5959 11.5117 21.782C11.3312 21.6234 11.0742 21.5906 10.8664 21.7109L10.489 21.9297C10.1883 21.4539 10.2703 20.7976 10.7406 20.4148C11.2109 20.032 11.9109 20.114 12.343 20.5461L15.4437 23.6469C15.9962 24.1967 16.3337 24.9261 16.3953 25.7031ZM24.5109 21.9297L24.1336 21.7109C23.9258 21.5906 23.6687 21.6234 23.4883 21.782C22.5753 22.5959 21.5051 23.2139 20.3437 23.5976C20.1195 23.6687 19.9609 23.8765 19.9609 24.1117V25.1562C19.9609 25.457 19.7148 25.7031 19.414 25.7031H18.6047C18.6648 24.9265 19.0039 24.1992 19.5562 23.6469L22.657 20.5461C23.089 20.114 23.7891 20.032 24.2594 20.4148C24.7297 20.7976 24.8117 21.4539 24.5109 21.9297Z" fill="#CC2426"/>
<path id="Vector_3" d="M17.5 22.4219C21.2754 22.4219 24.3359 19.3613 24.3359 15.5859C24.3359 11.8106 21.2754 8.75 17.5 8.75C13.7246 8.75 10.6641 11.8106 10.6641 15.5859C10.6641 19.3613 13.7246 22.4219 17.5 22.4219Z" fill="#CC2426"/>
<path id="Vector_4" d="M17.5 21.875C21.2754 21.875 24.3359 18.8144 24.3359 15.0391C24.3359 11.2637 21.2754 8.20312 17.5 8.20312C13.7246 8.20312 10.6641 11.2637 10.6641 15.0391C10.6641 18.8144 13.7246 21.875 17.5 21.875Z" fill="#F0F0F0"/>
<path id="Vector_5" d="M17.5 20.7812C20.6713 20.7812 23.2422 18.2104 23.2422 15.0391C23.2422 11.8677 20.6713 9.29688 17.5 9.29688C14.3287 9.29688 11.7578 11.8677 11.7578 15.0391C11.7578 18.2104 14.3287 20.7812 17.5 20.7812Z" fill="#FAB400"/>
<path id="Vector_6" d="M23.2422 15.0391C23.2422 15.1211 23.2422 15.2086 23.2367 15.2906C23.0836 12.2555 20.5734 9.84375 17.5 9.84375C14.4266 9.84375 11.9164 12.2555 11.7633 15.2906C11.7578 15.2086 11.7578 15.1211 11.7578 15.0391C11.7578 11.8672 14.3281 9.29688 17.5 9.29688C20.6719 9.29688 23.2422 11.8672 23.2422 15.0391Z" fill="#DC9600"/>
<path id="Vector_7" d="M4.375 19.6875V23.4823C4.375 23.8482 4.5582 24.19 4.86281 24.3929L10.2063 27.9508C10.4312 28.1006 10.6157 28.3037 10.7432 28.5419C10.8708 28.7801 10.9375 29.0461 10.9375 29.3164V30.625H16.4062V26.5153C16.4062 25.645 16.0606 24.8104 15.4454 24.1949L12.3408 21.0903C11.9115 20.661 11.212 20.579 10.7423 20.9634C10.6161 21.0658 10.513 21.1936 10.4394 21.3384C10.3658 21.4833 10.3234 21.642 10.3151 21.8042C10.3067 21.9665 10.3325 22.1286 10.3909 22.2803C10.4492 22.4319 10.5387 22.5696 10.6537 22.6844L11.8486 23.8788C12.1827 24.2129 12.2719 24.7511 11.9984 25.1361C11.8616 25.3298 11.657 25.4651 11.4251 25.515C11.1933 25.565 10.9511 25.5259 10.7466 25.4057L6.83266 23.1C6.75034 23.052 6.68208 22.9831 6.63468 22.9004C6.58727 22.8177 6.56239 22.724 6.5625 22.6286V19.7455C6.5625 19.2008 6.19008 18.6955 5.6525 18.608C5.49551 18.5815 5.33463 18.5896 5.18108 18.6317C5.02752 18.6737 4.88498 18.7487 4.76338 18.8515C4.64177 18.9543 4.54403 19.0823 4.47696 19.2267C4.40988 19.3711 4.37509 19.5283 4.375 19.6875ZM30.625 19.6875V23.4823C30.625 23.8482 30.4418 24.19 30.1372 24.3929L24.7937 27.9508C24.5688 28.1006 24.3843 28.3037 24.2568 28.5419C24.1292 28.7801 24.0625 29.0461 24.0625 29.3164V30.625H18.5938V26.5153C18.5938 25.6452 18.9394 24.8107 19.5546 24.1949L22.6592 21.0903C23.0885 20.661 23.788 20.579 24.2577 20.9634C24.3839 21.0658 24.487 21.1936 24.5606 21.3384C24.6342 21.4833 24.6766 21.642 24.6849 21.8042C24.6933 21.9665 24.6675 22.1286 24.6091 22.2803C24.5508 22.4319 24.4613 22.5696 24.3463 22.6844L23.1514 23.8788C22.8173 24.2129 22.7281 24.7511 23.0016 25.1361C23.1384 25.3298 23.343 25.4651 23.5749 25.515C23.8067 25.565 24.0489 25.5259 24.2534 25.4057L28.1673 23.1C28.2497 23.052 28.3179 22.9831 28.3653 22.9004C28.4127 22.8177 28.4376 22.724 28.4375 22.6286V19.7455C28.4375 19.2008 28.8099 18.6955 29.3475 18.608C29.5045 18.5815 29.6654 18.5896 29.8189 18.6317C29.9725 18.6737 30.115 18.7487 30.2366 18.8515C30.3582 18.9543 30.456 19.0823 30.523 19.2267C30.5901 19.3711 30.6249 19.5283 30.625 19.6875Z" fill="#F0C8A0"/>
<path id="Vector_8" d="M17.9255 11.6878L19.0324 13.0589C19.092 13.1332 19.1702 13.1901 19.2593 13.2251L20.9497 13.8841C21.0266 13.914 21.0958 13.961 21.1519 14.0215C21.2081 14.082 21.2499 14.1544 21.2741 14.2333C21.2983 14.3123 21.3043 14.3956 21.2917 14.4772C21.2791 14.5588 21.2482 14.6365 21.2013 14.7044L20.218 16.1296C20.1589 16.2154 20.1255 16.3163 20.1217 16.4205L20.0561 18.2356C20.0531 18.3194 20.0308 18.4014 19.991 18.4753C19.9512 18.5492 19.895 18.6129 19.8266 18.6615C19.7583 18.7102 19.6796 18.7424 19.5968 18.7558C19.514 18.7692 19.4292 18.7633 19.349 18.7387L17.6613 18.2197C17.5566 18.1875 17.4445 18.1875 17.3398 18.2197L15.6521 18.7387C15.5719 18.7633 15.4871 18.7692 15.4043 18.7558C15.3215 18.7424 15.2428 18.7102 15.1745 18.6615C15.1061 18.6129 15.0499 18.5492 15.0101 18.4753C14.9703 18.4014 14.948 18.3194 14.945 18.2356L14.8794 16.4205C14.8755 16.3164 14.8422 16.2155 14.7831 16.1296L13.7999 14.7044C13.7531 14.6364 13.7222 14.5588 13.7097 14.4772C13.6971 14.3957 13.7032 14.3123 13.7274 14.2334C13.7516 14.1546 13.7933 14.0822 13.8494 14.0217C13.9055 13.9612 13.9746 13.9141 14.0514 13.8841L15.7418 13.2251C15.8304 13.1907 15.9086 13.1332 15.9688 13.0589L17.0756 11.6878C17.1267 11.6243 17.1914 11.573 17.265 11.5378C17.3385 11.5025 17.419 11.4843 17.5006 11.4843C17.5821 11.4843 17.6626 11.5025 17.7362 11.5378C17.8097 11.573 17.8744 11.6243 17.9255 11.6878Z" fill="#DC9600"/>
<path id="Vector_9" d="M17.9255 11.4647L19.0324 12.8357C19.092 12.9101 19.1702 12.967 19.2593 13.002L20.9497 13.6609C21.0266 13.6909 21.0958 13.7379 21.1519 13.7984C21.2081 13.8589 21.2499 13.9313 21.2741 14.0102C21.2983 14.0891 21.3043 14.1725 21.2917 14.2541C21.2791 14.3357 21.2482 14.4133 21.2013 14.4813L20.218 15.9064C20.1589 15.9923 20.1255 16.0932 20.1217 16.1974L20.0561 18.0124C20.0531 18.0963 20.0308 18.1783 19.991 18.2522C19.9512 18.326 19.895 18.3897 19.8266 18.4384C19.7583 18.487 19.6796 18.5193 19.5968 18.5327C19.514 18.546 19.4292 18.5402 19.349 18.5156L17.6613 17.9966C17.5566 17.9643 17.4445 17.9643 17.3398 17.9966L15.6521 18.5156C15.5719 18.5402 15.4871 18.546 15.4043 18.5327C15.3215 18.5193 15.2428 18.487 15.1745 18.4384C15.1061 18.3897 15.0499 18.326 15.0101 18.2522C14.9703 18.1783 14.948 18.0963 14.945 18.0124L14.8794 16.1974C14.8755 16.0932 14.8422 15.9923 14.7831 15.9064L13.7999 14.4813C13.7531 14.4133 13.7222 14.3356 13.7097 14.2541C13.6971 14.1725 13.7032 14.0892 13.7274 14.0103C13.7516 13.9314 13.7933 13.859 13.8494 13.7985C13.9055 13.738 13.9746 13.691 14.0514 13.6609L15.7418 13.002C15.8304 12.9675 15.9086 12.9101 15.9688 12.8357L17.0756 11.4647C17.1267 11.4011 17.1914 11.3499 17.265 11.3146C17.3385 11.2794 17.419 11.2611 17.5006 11.2611C17.5821 11.2611 17.6626 11.2794 17.7362 11.3146C17.8097 11.3499 17.8744 11.4011 17.9255 11.4647Z" fill="#2EC2F1"/>
<path id="Vector_10" d="M15.9715 16.1574C15.9602 15.8446 15.8596 15.5415 15.6816 15.284L15.0916 14.4287L16.1383 14.0207C16.4051 13.9168 16.6403 13.744 16.8197 13.522L17.5 12.6787L18.1814 13.5225C18.3624 13.7457 18.5965 13.9168 18.8601 14.0202L19.9084 14.4287L19.3178 15.2846C19.1402 15.542 19.0398 15.8448 19.0285 16.1574L18.9891 17.2599L17.9823 16.9504C17.6677 16.8536 17.3312 16.8536 17.0166 16.9504L16.0114 17.2593L15.9715 16.1574Z" fill="#F0F0F0"/>
<path id="Vector_11" d="M19.9063 14.4265L19.6109 14.8585L18.8617 14.5687C18.5938 14.4648 18.3641 14.2953 18.1836 14.071L17.5 13.2234L16.8219 14.071C16.6414 14.2898 16.4062 14.4648 16.1383 14.5687L15.3891 14.8585L15.0938 14.4265L16.1383 14.0218C16.4062 13.9179 16.6414 13.7429 16.8219 13.5242L17.5 12.6765L18.1836 13.5242C18.3641 13.7484 18.5938 13.9179 18.8617 14.0218L19.9063 14.4265Z" fill="#D2D2D2"/>
<path id="Vector_12" d="M32.2656 15.5859H31.1719C31.0268 15.5859 30.8877 15.5283 30.7852 15.4258C30.6826 15.3232 30.625 15.1841 30.625 15.0391C30.625 14.894 30.6826 14.7549 30.7852 14.6524C30.8877 14.5498 31.0268 14.4922 31.1719 14.4922H32.2656C32.4107 14.4922 32.5498 14.5498 32.6523 14.6524C32.7549 14.7549 32.8125 14.894 32.8125 15.0391C32.8125 15.1841 32.7549 15.3232 32.6523 15.4258C32.5498 15.5283 32.4107 15.5859 32.2656 15.5859Z" fill="#F64749"/>
<path id="Vector_13" d="M30.4647 18.16L29.6915 17.3862C29.6407 17.3354 29.6004 17.2751 29.5729 17.2088C29.5455 17.1425 29.5313 17.0714 29.5313 16.9996C29.5313 16.9277 29.5455 16.8566 29.5729 16.7903C29.6004 16.724 29.6407 16.6637 29.6915 16.6129C29.7422 16.5621 29.8025 16.5219 29.8689 16.4944C29.9352 16.4669 30.0063 16.4528 30.0781 16.4528C30.1499 16.4528 30.221 16.4669 30.2874 16.4944C30.3537 16.5219 30.414 16.5621 30.4647 16.6129L31.238 17.3867C31.2888 17.4375 31.3291 17.4978 31.3566 17.5641C31.384 17.6305 31.3982 17.7016 31.3982 17.7734C31.3982 17.8452 31.384 17.9163 31.3566 17.9826C31.3291 18.049 31.2888 18.1092 31.238 18.16C31.1872 18.2108 31.127 18.2511 31.0606 18.2785C30.9943 18.306 30.9232 18.3202 30.8514 18.3202C30.7796 18.3202 30.7085 18.306 30.6421 18.2785C30.5758 18.2511 30.5155 18.2108 30.4647 18.16Z" fill="#2EC2F1"/>
<path id="Vector_14" d="M29.6915 13.4646C29.6406 13.4139 29.6003 13.3536 29.5728 13.2873C29.5453 13.221 29.5311 13.1498 29.5311 13.078C29.5311 13.0062 29.5453 12.9351 29.5728 12.8687C29.6003 12.8024 29.6406 12.7421 29.6915 12.6914L30.4648 11.9181C30.5155 11.8673 30.5758 11.827 30.6421 11.7996C30.7085 11.7721 30.7796 11.7579 30.8514 11.7579C30.9232 11.7579 30.9943 11.7721 31.0606 11.7996C31.127 11.827 31.1873 11.8673 31.238 11.9181C31.2888 11.9689 31.3291 12.0291 31.3566 12.0955C31.384 12.1618 31.3982 12.2329 31.3982 12.3047C31.3982 12.3765 31.384 12.4476 31.3566 12.514C31.3291 12.5803 31.2888 12.6406 31.238 12.6914L30.4648 13.4646C30.414 13.5155 30.3537 13.5558 30.2874 13.5833C30.2211 13.6108 30.1499 13.625 30.0781 13.625C30.0063 13.625 29.9352 13.6108 29.8688 13.5833C29.8025 13.5558 29.7422 13.5155 29.6915 13.4646Z" fill="#FAB400"/>
<path id="Vector_15" d="M2.73438 14.4922H3.82812C3.97317 14.4922 4.11226 14.5498 4.21482 14.6524C4.31738 14.7549 4.375 14.894 4.375 15.0391C4.375 15.1841 4.31738 15.3232 4.21482 15.4258C4.11226 15.5283 3.97317 15.5859 3.82812 15.5859H2.73438C2.58933 15.5859 2.45024 15.5283 2.34768 15.4258C2.24512 15.3232 2.1875 15.1841 2.1875 15.0391C2.1875 14.894 2.24512 14.7549 2.34768 14.6524C2.45024 14.5498 2.58933 14.4922 2.73438 14.4922Z" fill="#F64749"/>
<path id="Vector_16" d="M4.53524 11.9181L5.30852 12.6919C5.3593 12.7427 5.39957 12.803 5.42705 12.8693C5.45453 12.9356 5.46867 13.0067 5.46867 13.0786C5.46867 13.1504 5.45453 13.2215 5.42705 13.2878C5.39957 13.3541 5.3593 13.4144 5.30852 13.4652C5.25775 13.516 5.19747 13.5562 5.13113 13.5837C5.06479 13.6112 4.99369 13.6253 4.92188 13.6253C4.85007 13.6253 4.77897 13.6112 4.71263 13.5837C4.64629 13.5562 4.58601 13.516 4.53524 13.4652L3.76196 12.6914C3.71118 12.6406 3.67091 12.5803 3.64343 12.514C3.61595 12.4476 3.60181 12.3765 3.60181 12.3047C3.60181 12.2329 3.61595 12.1618 3.64343 12.0955C3.67091 12.0291 3.71118 11.9689 3.76196 11.9181C3.81273 11.8673 3.87301 11.827 3.93935 11.7996C4.00569 11.7721 4.07679 11.7579 4.1486 11.7579C4.2204 11.7579 4.29151 11.7721 4.35785 11.7996C4.42419 11.827 4.48447 11.8673 4.53524 11.9181Z" fill="#2EC2F1"/>
<path id="Vector_17" d="M5.30852 16.6135C5.35935 16.6642 5.39968 16.7245 5.42719 16.7908C5.4547 16.8572 5.46887 16.9283 5.46887 17.0001C5.46887 17.0719 5.4547 17.1431 5.42719 17.2094C5.39968 17.2757 5.35935 17.336 5.30852 17.3868L4.53524 18.16C4.48447 18.2108 4.42419 18.2511 4.35785 18.2786C4.29151 18.306 4.2204 18.3202 4.1486 18.3202C4.07679 18.3202 4.00569 18.306 3.93935 18.2786C3.87301 18.2511 3.81273 18.2108 3.76196 18.16C3.71118 18.1093 3.67091 18.049 3.64343 17.9826C3.61595 17.9163 3.60181 17.8452 3.60181 17.7734C3.60181 17.7016 3.61595 17.6305 3.64343 17.5641C3.67091 17.4978 3.71118 17.4375 3.76196 17.3868L4.53524 16.6135C4.58598 16.5626 4.64625 16.5223 4.71259 16.4948C4.77894 16.4673 4.85006 16.4531 4.92188 16.4531C4.9937 16.4531 5.06482 16.4673 5.13117 16.4948C5.19751 16.5223 5.25778 16.5626 5.30852 16.6135Z" fill="#FAB400"/>
</g>
</g>
</svg>
