<svg width="30" height="30" viewBox="0 0 30 30" fill="none" xmlns="http://www.w3.org/2000/svg">
<g id="certificate 1">
<g id="Group">
<g id="Layer 2">
<path id="Vector" d="M27.5 22.9L19.2375 8.58747C19.1168 8.37671 18.9181 8.22188 18.6842 8.15639C18.4503 8.09091 18.2001 8.12003 17.9875 8.23747L11.6 11.9125C11.3914 12.0352 11.2392 12.2349 11.1761 12.4686C11.113 12.7023 11.144 12.9514 11.2625 13.1625L19.525 27.5C19.6862 27.7817 19.9192 28.0158 20.2002 28.1783C20.4813 28.3407 20.8004 28.4259 21.125 28.425H21.25C21.5948 28.4043 21.927 28.2881 22.2096 28.0894C22.4921 27.8907 22.7139 27.6174 22.85 27.3L23.6375 25.4125L25.6875 25.6625C26.0354 25.7104 26.3897 25.6596 26.7102 25.5159C27.0306 25.3723 27.3043 25.1415 27.5 24.85C27.6802 24.5567 27.7756 24.2192 27.7756 23.875C27.7756 23.5307 27.6802 23.1933 27.5 22.9Z" fill="#2EC2F1"/>
<path id="Vector_2" d="M19.3375 12.5C19.3069 12.3797 19.2524 12.2668 19.1772 12.168C19.1021 12.0692 19.0078 11.9865 18.9 11.925L12.5 8.23746C12.2867 8.12325 12.0376 8.0959 11.8046 8.16113C11.5717 8.22635 11.3729 8.37911 11.25 8.58746L2.9875 22.9C2.80731 23.1932 2.71191 23.5307 2.71191 23.875C2.71191 24.2192 2.80731 24.5567 2.9875 24.85C3.17868 25.1376 3.44559 25.3669 3.75881 25.5125C4.07202 25.658 4.41936 25.7143 4.7625 25.675L6.7875 25.4125L7.6 27.3125C7.73615 27.6299 7.95789 27.9032 8.24044 28.1019C8.52299 28.3006 8.85522 28.4167 9.2 28.4375H9.375C9.70061 28.4358 10.02 28.3483 10.301 28.1837C10.5819 28.019 10.8144 27.7832 10.975 27.5L19.2375 13.175C19.3569 12.9714 19.3927 12.7294 19.3375 12.5Z" fill="#2EC2F1"/>
<path id="Vector_3" d="M25.375 10.3875L24.2625 9.27497C24.1466 9.15817 24.055 9.01965 23.9928 8.86736C23.9306 8.71506 23.899 8.55198 23.9 8.38747V7.13747C23.9 6.3042 23.5698 5.50488 22.9818 4.9145C22.3938 4.32411 21.5958 3.99078 20.7625 3.98747H19.5125C19.348 3.98842 19.1849 3.95689 19.0326 3.89469C18.8803 3.83248 18.7418 3.74083 18.625 3.62497L17.5 2.49997C16.9002 1.92836 16.1035 1.6095 15.275 1.6095C14.4465 1.6095 13.6497 1.92836 13.05 2.49997L11.95 3.59997C11.8332 3.71583 11.6947 3.80748 11.5424 3.86969C11.3901 3.93189 11.227 3.96342 11.0625 3.96247H9.81249C9.39465 3.95418 8.97933 4.02911 8.59074 4.18292C8.20214 4.33672 7.84803 4.56631 7.54905 4.85832C7.25006 5.15032 7.01217 5.49891 6.84923 5.88376C6.68629 6.26862 6.60157 6.68205 6.59999 7.09997V8.34997C6.60764 8.51986 6.58055 8.68951 6.52037 8.84856C6.46019 9.00761 6.36819 9.15271 6.24999 9.27497L5.13749 10.3875C4.84693 10.6778 4.6167 11.0228 4.46009 11.4025C4.30348 11.7822 4.22358 12.1892 4.22499 12.6C4.2243 13.4329 4.5522 14.2324 5.13749 14.825L6.24999 15.925C6.36735 16.0433 6.45988 16.1838 6.52213 16.3384C6.58438 16.4929 6.61511 16.6584 6.61249 16.825V18.075C6.6092 18.4886 6.68742 18.8989 6.84268 19.2823C6.99794 19.6658 7.22722 20.0149 7.5174 20.3097C7.80759 20.6045 8.153 20.8393 8.53393 21.0007C8.91485 21.162 9.32383 21.2467 9.73749 21.25H10.9875C11.1529 21.2507 11.3165 21.2842 11.4688 21.3485C11.6212 21.4129 11.7592 21.5069 11.875 21.625L12.975 22.725C13.5687 23.3082 14.3677 23.635 15.2 23.635C16.0323 23.635 16.8313 23.3082 17.425 22.725L18.525 21.625C18.6408 21.5069 18.7788 21.4129 18.9312 21.3485C19.0835 21.2842 19.2471 21.2507 19.4125 21.25H20.6625C21.4936 21.2467 22.2897 20.9151 22.8774 20.3274C23.4651 19.7397 23.7967 18.9436 23.8 18.1125V16.8625C23.7974 16.6959 23.8281 16.5304 23.8904 16.3759C23.9526 16.2213 24.0451 16.0808 24.1625 15.9625L25.275 14.8625C25.5757 14.5754 25.8168 14.2318 25.9846 13.8515C26.1524 13.4711 26.2436 13.0613 26.2529 12.6457C26.2622 12.2301 26.1894 11.8167 26.0388 11.4292C25.8881 11.0417 25.6626 10.6877 25.375 10.3875Z" fill="#F64749"/>
<path id="Vector_4" d="M14.425 15.5249C14.1732 15.5227 13.9317 15.4243 13.75 15.2499L11.675 13.1624C11.4994 12.9867 11.4008 12.7484 11.4008 12.4999C11.4008 12.2515 11.4994 12.0132 11.675 11.8374C11.8544 11.6641 12.0942 11.5672 12.3437 11.5672C12.5933 11.5672 12.833 11.6641 13.0125 11.8374L14.425 13.2624L17.925 9.74995C18.1045 9.57658 18.3442 9.47968 18.5937 9.47968C18.8433 9.47968 19.083 9.57658 19.2625 9.74995C19.4381 9.92573 19.5367 10.164 19.5367 10.4124C19.5367 10.6609 19.4381 10.8992 19.2625 11.0749L15.0875 15.2499C14.9103 15.4236 14.673 15.5221 14.425 15.5249Z" fill="#FFDB45"/>
</g>
</g>
</g>
</svg>
