<svg width="30" height="30" viewBox="0 0 30 30" fill="none" xmlns="http://www.w3.org/2000/svg">
<g id="currently 1">
<g id="Group">
<path id="Vector" d="M23.595 10.83L18.762 10.86L24.114 1.80003C24.1665 1.70909 24.1942 1.60595 24.1944 1.50093C24.1945 1.39592 24.1671 1.2927 24.1149 1.20159C24.0627 1.11049 23.9874 1.03468 23.8967 0.981766C23.806 0.928847 23.703 0.900664 23.598 0.900032H10.317C10.1867 0.899381 10.0597 0.941187 9.9552 1.01913C9.85073 1.09707 9.77449 1.20691 9.738 1.33203L5.838 14.832C5.81191 14.9215 5.80701 15.0157 5.82367 15.1074C5.84034 15.199 5.87811 15.2855 5.934 15.36C5.98988 15.4346 6.06235 15.495 6.14567 15.5367C6.22898 15.5783 6.32085 15.6 6.414 15.6H10.2L5.835 28.305C5.79096 28.4331 5.79156 28.5723 5.83669 28.7C5.88182 28.8277 5.96883 28.9364 6.08357 29.0084C6.19831 29.0804 6.33402 29.1114 6.46864 29.0964C6.60325 29.0815 6.72885 29.0214 6.825 28.926L24.021 11.856C24.1056 11.7721 24.1633 11.6649 24.1868 11.548C24.2102 11.4312 24.1983 11.31 24.1526 11.1999C24.1069 11.0899 24.0295 10.9959 23.9302 10.93C23.8309 10.8642 23.7142 10.8293 23.595 10.83Z" fill="#F64749"/>
</g>
</g>
</svg>
