<svg width="169" height="90" viewBox="0 0 169 90" fill="none" xmlns="http://www.w3.org/2000/svg">
<g id="Dashboard 3" clip-path="url(#clip0_0_1183)">
<path id="Vector" d="M7.8988 89.7408L7.93383 89.5561C7.94159 89.5155 8.73878 85.4703 11.7271 83.123C14.7156 80.7755 18.8345 80.9593 18.8757 80.9614L19.0635 80.9711L19.0285 81.1557C19.0207 81.1963 18.2235 85.2415 15.2351 87.5889C12.2467 89.9363 8.12777 89.7526 8.0866 89.7505L7.8988 89.7408ZM11.9298 83.381C9.40311 85.3656 8.49333 88.6107 8.29865 89.4267C9.13776 89.4303 12.5083 89.3136 15.0325 87.3308C17.5564 85.3483 18.4682 82.1016 18.6636 81.2852C17.824 81.2816 14.4539 81.3983 11.9298 83.381Z" fill="#574FF3"/>
<path id="Vector_2" d="M13.1182 84.2811C11.7493 87.8073 8.14543 89.6976 8.14543 89.6976C8.14543 89.6976 6.76115 85.8708 8.13012 82.3446C9.4991 78.8184 13.1029 76.9281 13.1029 76.9281C13.1029 76.9281 14.4872 80.7549 13.1182 84.2811Z" fill="#574FF3"/>
<path id="Vector_3" d="M163.918 89.7505C163.876 89.7526 159.757 89.9363 156.769 87.5889C153.781 85.2415 152.983 81.1963 152.976 81.1557L152.941 80.9711L153.128 80.9614C153.17 80.9593 157.289 80.7755 160.277 83.123C163.265 85.4703 164.063 89.5155 164.07 89.5561L164.105 89.7409L163.918 89.7505ZM153.341 81.2852C153.536 82.1016 154.448 85.3483 156.972 87.3309C159.496 89.3137 162.866 89.4303 163.706 89.4267C163.511 88.6107 162.601 85.3656 160.074 83.381C157.55 81.3983 154.18 81.2816 153.341 81.2852Z" fill="#F1F1F1"/>
<path id="Vector_4" d="M158.886 84.2811C160.255 87.8073 163.859 89.6976 163.859 89.6976C163.859 89.6976 165.243 85.8708 163.874 82.3446C162.505 78.8184 158.901 76.9281 158.901 76.9281C158.901 76.9281 157.517 80.7549 158.886 84.2811Z" fill="#F1F1F1"/>
<path id="Vector_5" d="M96.7909 88.8977L94.3974 87.8899L92.7554 75.8912H70.8901L69.1103 87.8409L66.969 88.9115C66.8665 88.9628 66.7843 89.0471 66.7358 89.1508C66.6872 89.2546 66.6752 89.3717 66.7015 89.4832C66.7278 89.5947 66.791 89.694 66.8808 89.7651C66.9706 89.8362 67.0818 89.8748 67.1964 89.8748H96.5936C96.711 89.8749 96.8248 89.8342 96.9157 89.7599C97.0065 89.6856 97.0688 89.5821 97.0921 89.467C97.1153 89.3519 97.098 89.2323 97.0431 89.1286C96.9882 89.0248 96.8991 88.9432 96.7909 88.8977Z" fill="#F64749"/>
<path id="Vector_6" d="M135.647 77.4876H28.2383C27.6748 77.4863 27.1347 77.2615 26.7367 76.8626C26.3387 76.4637 26.1151 75.9232 26.1151 75.3596V60.2136H137.77V75.3596C137.77 75.9231 137.547 76.4637 137.149 76.8626C136.751 77.2615 136.211 77.4863 135.647 77.4876Z" fill="#CCCCCC"/>
<path id="Vector_7" d="M137.883 67.3719H26.0171V2.56521C26.0179 1.8851 26.2884 1.23307 26.7693 0.752168C27.2502 0.271266 27.9023 0.000762309 28.5824 0H135.317C135.997 0.000761863 136.649 0.271264 137.13 0.752166C137.611 1.23307 137.882 1.8851 137.883 2.56521V67.3719Z" fill="#3F3D56"/>
<path id="Vector_8" d="M131.201 62.6682H32.6984C32.174 62.6677 31.6714 62.4591 31.3006 62.0884C30.9298 61.7176 30.7213 61.215 30.7207 60.6906V6.68128C30.7213 6.15694 30.9298 5.65425 31.3006 5.28348C31.6713 4.91272 32.174 4.70415 32.6984 4.70355H131.201C131.726 4.70415 132.228 4.91272 132.599 5.28348C132.97 5.65425 133.178 6.15694 133.179 6.68128V60.6906C133.178 61.215 132.97 61.7176 132.599 62.0884C132.228 62.4591 131.726 62.6677 131.201 62.6682Z" fill="white"/>
<path id="Vector_9" d="M168.624 90H0.260493C0.203794 90.0012 0.148289 89.9836 0.102627 89.95C0.0569645 89.9164 0.023709 89.8686 0.00804223 89.8141C-0.00173869 89.777 -0.00287712 89.7381 0.00471347 89.7005C0.0123041 89.6629 0.0284208 89.6275 0.0518255 89.5971C0.0752303 89.5667 0.105298 89.5421 0.139715 89.5251C0.174132 89.5082 0.211981 89.4993 0.250349 89.4993H168.604C168.664 89.4972 168.722 89.5154 168.77 89.551C168.819 89.5865 168.853 89.6373 168.869 89.6951C168.877 89.7317 168.877 89.7697 168.868 89.8062C168.86 89.8428 168.843 89.8769 168.82 89.9062C168.796 89.9354 168.766 89.9591 168.733 89.9753C168.699 89.9915 168.662 90 168.624 90Z" fill="#CCCCCC"/>
<path id="Vector_10" d="M52.2239 25.1292H36.0171V26.6512H52.2239V25.1292Z" fill="#F64749"/>
<path id="Vector_11" d="M52.2239 28.8203H36.0171V30.3423H52.2239V28.8203Z" fill="#F64749"/>
<path id="Vector_12" d="M52.2239 32.5928H36.0171V34.1149H52.2239V32.5928Z" fill="#F64749"/>
<path id="Vector_13" d="M52.2239 36.3654H36.0171V37.8874H52.2239V36.3654Z" fill="#F64749"/>
<path id="Vector_14" d="M48.385 41.1593H39.8557V42.4801H48.385V41.1593Z" fill="#574FF3"/>
<path id="Vector_15" d="M77.4426 34.569H77.2876V35.0339H77.4426V34.569Z" fill="#F64749"/>
<path id="Vector_16" d="M77.4426 44.9395H77.2876V43.9489H77.4426V44.9395ZM77.4426 42.9584H77.2876V41.9678H77.4426V42.9584ZM77.4426 40.9772H77.2876V39.9867H77.4426V40.9772ZM77.4426 38.9961H77.2876V38.0055H77.4426V38.9961ZM77.4426 37.015H77.2876V36.0244H77.4426V37.015Z" fill="#F64749"/>
<path id="Vector_17" d="M77.4426 45.9301H77.2876V46.395H77.4426V45.9301Z" fill="#F64749"/>
<path id="Vector_18" d="M94.4116 34.569H94.2566V35.0339H94.4116V34.569Z" fill="#F64749"/>
<path id="Vector_19" d="M94.4116 44.9395H94.2566V43.9489H94.4116V44.9395ZM94.4116 42.9584H94.2566V41.9678H94.4116V42.9584ZM94.4116 40.9772H94.2566V39.9867H94.4116V40.9772ZM94.4116 38.9961H94.2566V38.0055H94.4116V38.9961ZM94.4116 37.015H94.2566V36.0244H94.4116V37.015Z" fill="#F64749"/>
<path id="Vector_20" d="M94.4116 45.9301H94.2566V46.395H94.4116V45.9301Z" fill="#F64749"/>
<path id="Vector_21" d="M102.971 25.4742H102.816V25.9391H102.971V25.4742Z" fill="#F64749"/>
<path id="Vector_22" d="M102.971 44.9781H102.816V44.0261H102.971V44.9781ZM102.971 43.0742H102.816V42.1222H102.971V43.0742ZM102.971 41.1703H102.816V40.2183H102.971V41.1703ZM102.971 39.2664H102.816V38.3144H102.971V39.2664ZM102.971 37.3625H102.816V36.4105H102.971V37.3625ZM102.971 35.4586H102.816V34.5066H102.971V35.4586ZM102.971 33.5547H102.816V32.6027H102.971V33.5547ZM102.971 31.6508H102.816V30.6988H102.971V31.6508ZM102.971 29.7468H102.816V28.7949H102.971V29.7468ZM102.971 27.8429H102.816V26.891H102.971V27.8429Z" fill="#F64749"/>
<path id="Vector_23" d="M102.971 45.9301H102.816V46.395H102.971V45.9301Z" fill="#F64749"/>
<path id="Vector_24" d="M111.446 21.7549H111.291V22.2198H111.446V21.7549Z" fill="#F64749"/>
<path id="Vector_25" d="M111.446 44.9817H111.291V44.0333H111.446V44.9817ZM111.446 43.0849H111.291V42.1365H111.446V43.0849ZM111.446 41.1881H111.291V40.2396H111.446V41.1881ZM111.446 39.2913H111.291V38.3428H111.446V39.2913ZM111.446 37.3944H111.291V36.446H111.446V37.3944ZM111.446 35.4976H111.291V34.5492H111.446V35.4976ZM111.446 33.6008H111.291V32.6524H111.446V33.6008ZM111.446 31.704H111.291V30.7556H111.446V31.704ZM111.446 29.8072H111.291V28.8587H111.446V29.8072ZM111.446 27.9103H111.291V26.9619H111.446V27.9103ZM111.446 26.0135H111.291V25.0651H111.446V26.0135ZM111.446 24.1167H111.291V23.1683H111.446V24.1167Z" fill="#F64749"/>
<path id="Vector_26" d="M111.446 45.9301H111.291V46.395H111.446V45.9301Z" fill="#F64749"/>
<path id="Vector_27" d="M85.9658 28.3411H85.8108V28.806H85.9658V28.3411Z" fill="#F64749"/>
<path id="Vector_28" d="M85.9658 45.0288H85.8108V44.1276H85.9658V45.0288ZM85.9658 43.2263H85.8108V42.325H85.9658V43.2263ZM85.9658 41.4237H85.8108V40.5225H85.9658V41.4237ZM85.9658 39.6212H85.8108V38.72H85.9658V39.6212ZM85.9658 37.8187H85.8108V36.9174H85.9658V37.8187ZM85.9658 36.0161H85.8108V35.1149H85.9658V36.0161ZM85.9658 34.2136H85.8108V33.3123H85.9658V34.2136ZM85.9658 32.4111H85.8108V31.5098H85.9658V32.4111ZM85.9658 30.6085H85.8108V29.7073H85.9658V30.6085Z" fill="#F64749"/>
<path id="Vector_29" d="M85.9658 45.9301H85.8108V46.395H85.9658V45.9301Z" fill="#F64749"/>
<path id="Vector_30" d="M120.041 46.6109H68.7367C68.6942 46.6109 68.6533 46.594 68.6232 46.5639C68.5931 46.5337 68.5762 46.4929 68.5762 46.4503V21.8603C68.5762 21.8177 68.5931 21.7768 68.6232 21.7467C68.6533 21.7166 68.6942 21.6997 68.7367 21.6997C68.7793 21.6997 68.8202 21.7166 68.8503 21.7467C68.8804 21.7768 68.8973 21.8177 68.8973 21.8603V46.2898H120.041C120.083 46.2898 120.124 46.3067 120.154 46.3368C120.184 46.3669 120.201 46.4077 120.201 46.4503C120.201 46.4929 120.184 46.5337 120.154 46.5639C120.124 46.594 120.083 46.6109 120.041 46.6109Z" fill="#F64749"/>
<path id="Vector_31" d="M94.4046 34.7848L85.8746 28.3958L77.4612 34.6975L77.2687 34.4405L85.8746 27.9946L94.3639 34.3532L102.8 25.1214L102.834 25.1076L111.343 21.679L111.463 21.977L102.988 25.3918L94.4046 34.7848Z" fill="#3F3D56"/>
<path id="Vector_32" d="M77.3651 35.5323C77.8971 35.5323 78.3284 35.101 78.3284 34.5689C78.3284 34.0369 77.8971 33.6056 77.3651 33.6056C76.833 33.6056 76.4017 34.0369 76.4017 34.5689C76.4017 35.101 76.833 35.5323 77.3651 35.5323Z" fill="#574FF3"/>
<path id="Vector_33" d="M85.8746 29.2705C86.4066 29.2705 86.838 28.8392 86.838 28.3072C86.838 27.7751 86.4066 27.3438 85.8746 27.3438C85.3426 27.3438 84.9113 27.7751 84.9113 28.3072C84.9113 28.8392 85.3426 29.2705 85.8746 29.2705Z" fill="#574FF3"/>
<path id="Vector_34" d="M94.3842 35.5323C94.9163 35.5323 95.3476 35.101 95.3476 34.5689C95.3476 34.0369 94.9163 33.6056 94.3842 33.6056C93.8522 33.6056 93.4209 34.0369 93.4209 34.5689C93.4209 35.101 93.8522 35.5323 94.3842 35.5323Z" fill="#574FF3"/>
<path id="Vector_35" d="M102.894 26.2199C103.426 26.2199 103.857 25.7886 103.857 25.2566C103.857 24.7245 103.426 24.2932 102.894 24.2932C102.362 24.2932 101.93 24.7245 101.93 25.2566C101.93 25.7886 102.362 26.2199 102.894 26.2199Z" fill="#574FF3"/>
<path id="Vector_36" d="M111.403 22.6876C111.935 22.6876 112.367 22.2563 112.367 21.7243C112.367 21.1922 111.935 20.7609 111.403 20.7609C110.871 20.7609 110.44 21.1922 110.44 21.7243C110.44 22.2563 110.871 22.6876 111.403 22.6876Z" fill="#574FF3"/>
<path id="Vector_37" d="M57.2891 4.70355H56.9611V62.6683H57.2891V4.70355Z" fill="#F64749"/>
<path id="Vector_38" d="M134.627 62.075C134.74 61.9402 134.823 61.7821 134.868 61.612C134.914 61.4418 134.922 61.2638 134.891 61.0903C134.86 60.9169 134.792 60.7522 134.691 60.6081C134.59 60.4639 134.458 60.3436 134.305 60.2558L135.106 56.0497L133.052 56.9056L132.607 60.7685C132.476 61.0348 132.448 61.3397 132.527 61.6255C132.606 61.9113 132.788 62.1581 133.037 62.3191C133.286 62.4801 133.585 62.5442 133.878 62.4993C134.171 62.4543 134.438 62.3033 134.627 62.075Z" fill="#FFB7B7"/>
<path id="Vector_39" d="M144.867 87.8844H143.128L142.301 81.1768L144.868 81.1769L144.867 87.8844Z" fill="#FFB7B7"/>
<path id="Vector_40" d="M145.311 89.5702L139.704 89.57V89.4991C139.704 88.9202 139.934 88.3651 140.343 87.9559C140.752 87.5466 141.307 87.3166 141.886 87.3166L145.311 87.3167L145.311 89.5702Z" fill="#2F2E41"/>
<path id="Vector_41" d="M135.364 87.8844H133.625L132.797 81.1768L135.364 81.1769L135.364 87.8844Z" fill="#FFB7B7"/>
<path id="Vector_42" d="M135.382 89.5702L129.774 89.57V89.4991C129.774 88.9202 130.004 88.3651 130.414 87.9559C130.823 87.5466 131.378 87.3166 131.957 87.3166L135.382 87.3167L135.382 89.5702Z" fill="#2F2E41"/>
<path id="Vector_43" d="M135.221 59.5549L133.519 63.4762L132.115 86.0155L135.661 85.8736L136.63 75.1291L139.617 65.5592L141.335 76.2281L142.044 85.5898L144.978 85.7169L146.148 59.5549H135.221Z" fill="#2F2E41"/>
<path id="Vector_44" d="M143.73 40.2048L138.796 40.3282L135.9 41.8151L135.741 52.7851L133.935 60.359C133.935 60.359 145.221 61.1358 146.782 60.001L144.938 51.3484L147.411 41.9975L143.73 40.2048Z" fill="#574FF3"/>
<path id="Vector_45" d="M136.427 41.9866L135.9 41.8151C135.9 41.8151 134.228 42.8879 134.387 45.4817C134.387 45.4817 134.325 46.8239 134.385 47.7171C134.453 48.7417 132.399 58.9229 132.399 58.9229H135.377L136.654 49.703L136.427 41.9866Z" fill="#574FF3"/>
<path id="Vector_46" d="M147.333 62.2169C147.22 62.082 147.138 61.9239 147.092 61.7538C147.047 61.5837 147.039 61.4056 147.07 61.2322C147.1 61.0587 147.169 60.8941 147.27 60.7499C147.371 60.6057 147.502 60.4855 147.655 60.3976L146.854 56.1915L148.908 57.0474L149.354 60.9104C149.484 61.1766 149.513 61.4815 149.433 61.7673C149.354 62.0531 149.173 62.2999 148.924 62.4609C148.675 62.622 148.375 62.6861 148.082 62.6411C147.789 62.5961 147.523 62.4452 147.333 62.2169Z" fill="#FFB7B7"/>
<path id="Vector_47" d="M146.669 42.1285L147.196 41.957C147.196 41.957 148.867 43.0298 148.708 45.6235C148.708 45.6235 148.771 46.9657 148.711 47.859C148.642 48.8835 149.562 59.0648 149.562 59.0648H146.583L145.307 49.8448L146.669 42.1285Z" fill="#574FF3"/>
<path id="Vector_48" d="M144.941 35.6025C144.941 36.2789 144.74 36.9401 144.364 37.5025C143.989 38.0649 143.454 38.5032 142.83 38.762C142.205 39.0209 141.517 39.0886 140.854 38.9566C140.19 38.8247 139.581 38.499 139.103 38.0207C138.624 37.5424 138.299 36.9331 138.167 36.2697C138.035 35.6063 138.102 34.9186 138.361 34.2937C138.62 33.6688 139.058 33.1347 139.621 32.7589C140.183 32.3831 140.844 32.1826 141.521 32.1826C141.969 32.1814 142.413 32.2686 142.827 32.439C143.241 32.6094 143.618 32.8597 143.936 33.1757C144.253 33.4917 144.505 33.8671 144.678 34.2806C144.85 34.6941 144.94 35.1374 144.941 35.5854C144.941 35.5911 144.941 35.5968 144.941 35.6025Z" fill="#FFB7B7"/>
<path id="Vector_49" d="M138.112 31.0089C138.513 30.1475 139.288 30.3178 139.966 30.6098C140.825 30.4193 141.642 29.8491 142.567 30.1864C143.478 31.5118 146.538 31.1218 145.887 33.2796C145.886 33.7967 146.86 33.4957 146.69 34.3425C147.205 35.9722 144.828 39.0586 143.463 38.4086C143.8 37.7899 144.571 36.3846 143.402 36.2452C140.885 38.5864 143.142 31.7869 139.98 33.7643C138.934 34.7223 137.501 31.9672 138.112 31.0089Z" fill="#2F2E41"/>
</g>
<defs>
<clipPath id="clip0_0_1183">
<rect width="168.875" height="90" fill="white"/>
</clipPath>
</defs>
</svg>
