<svg width="30" height="30" viewBox="0 0 30 30" fill="none" xmlns="http://www.w3.org/2000/svg">
<g id="eduation 1" clip-path="url(#clip0_0_1603)">
<g id="Group">
<g id="Group_2">
<path id="Vector" d="M30 21.2068C30 24.062 29.5345 26.3793 28.9655 26.3793C25.4942 25.8245 21.99 25.4996 18.4759 25.4068L17.1931 24.7965C17.54 24.1805 17.6656 23.4642 17.5489 22.7669C17.4322 22.0696 17.0803 21.4333 16.5517 20.9637C16.5362 19.2465 17.3379 17.7775 17.0121 17.0482C21.0155 16.9986 25.0107 16.6598 28.9655 16.0344C29.5345 16.0344 30 18.3517 30 21.2068Z" fill="#F64749"/>
<path id="Vector_2" d="M7.75861 8.82414L0.34654 6.17586C0.246686 6.13962 0.160412 6.07351 0.0994434 5.98652C0.0384747 5.89953 0.00576782 5.79588 0.00576782 5.68965C0.00576782 5.58343 0.0384747 5.47978 0.0994434 5.39279C0.160412 5.3058 0.246686 5.23969 0.34654 5.20345L14.819 0.0310345C14.9358 -0.0103448 15.0641 -0.0103448 15.181 0.0310345L29.6534 5.20345C29.7533 5.23969 29.8396 5.3058 29.9005 5.39279C29.9615 5.47978 29.9942 5.58343 29.9942 5.68965C29.9942 5.79588 29.9615 5.89953 29.9005 5.98652C29.8396 6.07351 29.7533 6.13962 29.6534 6.17586L26.3431 7.36034L24.9103 7.87241L22.2414 8.82414H7.75861Z" fill="#393F4B"/>
<g id="Group_3">
<path id="Vector_3" d="M1.1069 26.3637L1.03448 26.3793C1.05931 26.3793 1.08414 26.3741 1.1069 26.3637ZM1.09655 16.0448C1.07569 16.0424 1.05497 16.039 1.03448 16.0344C1.05552 16.0353 1.07636 16.0388 1.09655 16.0448ZM1.10173 16.0448C4.82466 16.6314 8.58352 16.9615 12.3517 17.0327C12.6931 17.7879 13.9655 19.3758 13.9655 21.2068C13.9655 21.331 13.9655 21.4499 13.9603 21.5689C13.647 22.0446 13.4706 22.5974 13.4505 23.1667C13.4305 23.736 13.5675 24.2999 13.8466 24.7965L12.569 25.3758C8.73 25.443 4.90035 25.773 1.1069 26.3637L1.10173 16.0448Z" fill="#F64749"/>
</g>
<path id="Vector_4" d="M12.9259 21.5689C12.931 21.45 12.931 21.331 12.931 21.2069C12.9883 19.7921 12.7921 18.3784 12.3517 17.0327C13.2 17.0586 14.0845 17.0689 15 17.0689C15.6879 17.0689 16.3604 17.0637 17.0121 17.0482C17.4296 18.31 17.6222 19.6353 17.581 20.9637L12.9259 21.5689ZM15.5173 26.3793L14.1414 29.6741C14.104 29.7696 14.039 29.8519 13.9548 29.9104C13.8705 29.9689 13.7707 30.001 13.6681 30.0027C13.5656 30.0043 13.4648 29.9755 13.3787 29.9197C13.2926 29.864 13.225 29.7839 13.1845 29.6896L12.8069 28.8206L11.9379 29.1931C11.8445 29.234 11.741 29.2462 11.6406 29.2281C11.5401 29.21 11.4474 29.1624 11.3741 29.0914C11.3009 29.0204 11.2505 28.9291 11.2293 28.8293C11.2081 28.7295 11.2171 28.6257 11.2552 28.531L12.569 25.3758L12.8121 24.7965L15.5173 26.3793ZM18.2224 24.7965L18.4759 25.4069L19.7793 28.531C19.8174 28.6257 19.8264 28.7295 19.8052 28.8293C19.784 28.9291 19.7336 29.0204 19.6604 29.0914C19.5871 29.1624 19.4944 29.21 19.394 29.2281C19.2935 29.2462 19.19 29.234 19.0966 29.1931L18.2276 28.8206L17.85 29.6896C17.8095 29.7839 17.7419 29.864 17.6558 29.9197C17.5697 29.9755 17.4689 30.0043 17.3664 30.0027C17.2638 30.001 17.164 29.9689 17.0798 29.9104C16.9955 29.8519 16.9305 29.7696 16.8931 29.6741L15.5173 26.3793L18.2224 24.7965Z" fill="#2EC2F1"/>
<path id="Vector_5" d="M7.75861 12.4137V6.72409C7.75861 5.86547 11.0017 5.17236 15 5.17236C18.9983 5.17236 22.2414 5.86547 22.2414 6.72409V12.4137H7.75861Z" fill="#464F5E"/>
<path id="Vector_6" d="M25.8621 7.75864C25.7249 7.75864 25.5933 7.70415 25.4963 7.60714C25.3993 7.51014 25.3448 7.37858 25.3448 7.2414V3.8483C25.3448 3.71112 25.3993 3.57955 25.4963 3.48255C25.5933 3.38555 25.7249 3.33105 25.8621 3.33105C25.9992 3.33105 26.1308 3.38555 26.2278 3.48255C26.3248 3.57955 26.3793 3.71112 26.3793 3.8483V7.2414C26.3793 7.37858 26.3248 7.51014 26.2278 7.60714C26.1308 7.70415 25.9992 7.75864 25.8621 7.75864Z" fill="#EDC100"/>
<path id="Vector_7" d="M24.8276 8.27582V9.82754C24.8276 9.96472 24.8821 10.0963 24.9791 10.1933C25.0761 10.2903 25.2076 10.3448 25.3448 10.3448H26.3793C26.5165 10.3448 26.648 10.2903 26.745 10.1933C26.842 10.0963 26.8965 9.96472 26.8965 9.82754V8.27582C26.8965 8.00145 26.7876 7.73833 26.5935 7.54433C26.3995 7.35032 26.1364 7.24133 25.8621 7.24133C25.5877 7.24133 25.3246 7.35032 25.1306 7.54433C24.9366 7.73833 24.8276 8.00145 24.8276 8.27582Z" fill="#F1D24B"/>
<path id="Vector_8" d="M15 13.9655C18.9993 13.9655 22.2414 13.2708 22.2414 12.4138C22.2414 11.5568 18.9993 10.8621 15 10.8621C11.0007 10.8621 7.75861 11.5568 7.75861 12.4138C7.75861 13.2708 11.0007 13.9655 15 13.9655Z" fill="#393F4B"/>
<path id="Vector_9" d="M2.06897 21.2069C2.06897 23.9379 1.64483 26.1775 1.1069 26.3637C1.08425 26.3743 1.05948 26.3796 1.03448 26.3793C0.465517 26.3793 0 24.062 0 21.2069C0 18.3517 0.465517 16.0344 1.03448 16.0344C1.03729 16.0341 1.04014 16.0344 1.04282 16.0353C1.0455 16.0362 1.04796 16.0377 1.05 16.0396C1.06034 16.0396 1.07586 16.0448 1.09655 16.0448H1.10172C1.63966 16.2258 2.06897 18.4655 2.06897 21.2069Z" fill="#A41617"/>
<path id="Vector_10" d="M18.6207 23.2759C18.6207 23.8897 18.4387 24.4897 18.0977 25C17.7566 25.5104 17.272 25.9082 16.7049 26.1431C16.1378 26.378 15.5138 26.4394 14.9118 26.3197C14.3098 26.1999 13.7568 25.9044 13.3228 25.4703C12.8887 25.0363 12.5932 24.4833 12.4734 23.8813C12.3537 23.2793 12.4151 22.6553 12.65 22.0882C12.8849 21.5211 13.2827 21.0365 13.7931 20.6954C14.3034 20.3544 14.9034 20.1724 15.5172 20.1724C16.2801 20.1679 17.0167 20.4504 17.581 20.9638C17.9083 21.2535 18.1702 21.6094 18.3495 22.008C18.5287 22.4066 18.6212 22.8388 18.6207 23.2759Z" fill="#FFDB45"/>
</g>
</g>
</g>
<defs>
<clipPath id="clip0_0_1603">
<rect width="30" height="30" fill="white"/>
</clipPath>
</defs>
</svg>
