<svg width="113" height="108" viewBox="0 0 113 108" fill="none" xmlns="http://www.w3.org/2000/svg">
<g id="food 1" clip-path="url(#clip0_0_1242)">
<path id="Vector" d="M64.7923 105.302L33.257 105.406C24.8907 102.893 18.0362 94.1612 17.9929 81.0703C17.9845 79.0982 18.1335 77.1286 18.4384 75.1802L43.8386 69.4737L63.4333 65.0719C64.8772 66.3649 66.2226 67.7638 67.4583 69.2569L48.7213 79.1506L39.8822 83.8182L49.8147 80.3915L70.4301 73.2794C71.7157 75.245 72.8612 77.2988 73.858 79.4254L67.6379 85.8538L74.6743 81.2473C74.7044 81.3179 74.7344 81.3886 74.7642 81.4594C79.2236 92.0461 73.6906 105.272 64.7923 105.302Z" fill="#F2F2F2"/>
<path id="Vector_2" d="M59.6099 62.1089C54.841 63.4786 48.9779 65.209 42.9497 67.0077C34.2339 69.609 25.1732 72.3542 18.5768 74.3609L18.5811 74.3374C18.8249 72.9293 19.3981 71.5987 20.254 70.4543C25.1405 64.101 31.3626 59.6628 38.2875 58.0145H38.2881C40.2354 57.55 42.2299 57.3121 44.2318 57.3054C49.7413 57.2871 54.9599 59.0152 59.6099 62.1089Z" fill="#F2F2F2"/>
<path id="Vector_3" d="M39.1729 108C51.0262 108 60.6353 106.614 60.6353 104.904C60.6353 103.195 51.0262 101.809 39.1729 101.809C27.3195 101.809 17.7104 103.195 17.7104 104.904C17.7104 106.614 27.3195 108 39.1729 108Z" fill="#3F3D56"/>
<path id="Vector_4" d="M31.5372 76.0127V80.828L34.9767 81.2408L37.0404 78.6268L35.3895 75.3248L31.5372 76.0127Z" fill="#FBBEBE"/>
<path id="Vector_5" d="M44.6073 95.8242L46.3958 100.639L49.6977 99.5389L47.2213 95.549L44.6073 95.8242Z" fill="#FBBEBE"/>
<path id="Vector_6" d="M40.4798 54.8255C40.4798 54.8255 22.5944 53.0369 23.1448 57.9898C23.6951 62.9427 31.5371 77.1134 31.5371 77.1134L36.7652 76.1503C36.7652 76.1503 33.0505 70.372 33.3257 68.4459C33.6008 66.5198 32.5002 63.9057 32.5002 63.9057L35.1142 64.3185L36.6276 66.6573L39.7919 82.8917L44.6072 97.4752L48.1843 96.5121C48.1843 96.5121 46.2582 90.4586 46.8085 88.5325C47.3588 86.6064 44.1945 79.1771 44.1945 79.1771L46.3957 66.2446C46.3957 66.2446 50.6607 65.0064 49.4225 60.7414C48.1843 56.4764 40.4798 54.8255 40.4798 54.8255Z" fill="#2F2E41"/>
<path id="Vector_7" d="M33.0506 79.3146C33.0506 79.3146 30.9869 77.6637 31.1245 78.3516C31.2022 78.853 31.2022 79.3635 31.1245 79.865L29.1983 84.1299C29.1983 84.1299 24.5206 88.3949 28.7856 88.5325C33.0506 88.6701 35.2518 84.2675 35.2518 84.2675C35.2518 84.2675 41.1678 79.865 40.4799 79.1771C39.792 78.4892 36.1816 76.9093 36.1816 76.9093C36.1816 76.9093 34.9767 80.2777 33.0506 79.3146Z" fill="#2F2E41"/>
<path id="Vector_8" d="M46.2582 98.4382C46.2582 98.4382 44.332 96.6497 44.1945 97.4752C44.0569 98.3006 43.9193 99.4013 43.9193 99.4013L41.0301 102.153C41.0301 102.153 36.9027 106.143 40.4798 106.28C41.5136 106.327 42.5448 106.141 43.4972 105.736C44.4497 105.332 45.2991 104.718 45.983 103.941C45.983 103.941 51.211 102.841 50.9359 102.015C50.6607 101.19 49.281 97.9963 48.6639 97.8733C48.0467 97.7503 47.9091 99.5389 46.2582 98.4382Z" fill="#2F2E41"/>
<path id="Vector_9" d="M39.6544 35.014C42.0098 35.014 43.9193 33.1045 43.9193 30.749C43.9193 28.3936 42.0098 26.4841 39.6544 26.4841C37.2989 26.4841 35.3894 28.3936 35.3894 30.749C35.3894 33.1045 37.2989 35.014 39.6544 35.014Z" fill="#FBBEBE"/>
<path id="Vector_10" d="M37.7283 33.6382C37.7283 33.6382 39.5168 38.4535 39.3792 38.8662C39.2416 39.279 45.02 35.4267 45.02 35.4267C45.02 35.4267 42.5436 34.8764 42.5436 32.6752L37.7283 33.6382Z" fill="#FBBEBE"/>
<path id="Vector_11" d="M53.4124 40.6548C53.4124 40.6548 55.8888 43.1312 56.3016 43.9567C56.7143 44.7822 66.0697 55.2382 66.0697 55.2382C66.0697 55.2382 72.2608 62.5299 69.7844 62.6675C67.3079 62.8051 64.1436 56.8892 64.1436 56.8892C64.1436 56.8892 55.3385 50.4229 54.9258 48.9096L49.8353 43.6815L53.4124 40.6548Z" fill="#FBBEBE"/>
<path id="Vector_12" d="M40.4798 37.7656H38.9664L36.9027 41.0675C36.9027 41.0675 34.8391 42.8561 36.3524 46.5707C37.8658 50.2854 39.104 54.9631 39.104 54.9631C39.104 54.9631 43.5066 55.5134 44.332 56.8892C45.1575 58.265 49.8352 62.6675 49.8352 62.6675C49.8352 62.6675 50.6607 59.7784 50.3856 55.5134C50.1104 51.2484 50.3856 44.7822 50.3856 44.7822L50.1104 36.2522C50.1104 36.2522 44.7966 35.0206 44.4267 35.2237C44.0569 35.4268 40.4798 37.7656 40.4798 37.7656Z" fill="#F64749"/>
<path id="Vector_13" d="M48.0468 36.665L50.1104 36.2522C50.1104 36.2522 52.3117 37.628 54.3754 41.6178C54.3754 41.6178 49.9729 44.507 49.5601 44.3694C49.1474 44.2318 48.0468 36.665 48.0468 36.665Z" fill="#F64749"/>
<path id="Vector_14" d="M35.3894 46.0204C35.3894 46.0204 32.2251 51.1108 33.1881 53.0369C34.1512 54.9631 35.3894 54.8255 35.3894 54.8255C35.3894 54.8255 37.7283 54.4127 37.7283 52.4866C37.7283 50.5605 38.6913 50.4229 38.6913 50.4229C38.6913 50.4229 44.7448 45.4701 42.406 45.4701C40.0671 45.4701 36.9028 48.9096 36.9028 48.9096L36.7652 45.7452L35.3894 46.0204Z" fill="#FBBEBE"/>
<path id="Vector_15" d="M37.453 40.9299C37.453 40.9299 35.3894 41.4803 34.9766 43.6815C34.5639 45.8828 34.7015 46.9834 34.7015 46.9834L37.453 46.7083V40.9299Z" fill="#F64749"/>
<path id="Vector_16" opacity="0.1" d="M33.6008 51.9363C33.6008 51.9363 35.8021 49.0471 36.0773 49.4599L33.6008 51.9363Z" fill="black"/>
<path id="Vector_17" d="M41.821 25.5858C41.821 25.5858 39.5592 23.3259 37.3817 24.8432C35.2042 26.3606 34.1902 27.8057 34.4333 28.7872C34.6763 29.7686 35.3551 31.1248 35.3551 31.1248C35.3551 31.1248 34.9021 29.0903 36.7328 28.891C38.5634 28.6917 41.0663 27.4113 41.0663 27.4113L42.8765 31.0279C42.8765 31.0279 43.0967 30.1731 43.7751 30.3989C44.4534 30.6247 43.8062 25.8055 41.821 25.5858Z" fill="#2F2E41"/>
<path id="Vector_18" d="M26.344 101.244C26.344 103.25 25.1515 103.951 23.6803 103.951C23.6463 103.951 23.6122 103.95 23.5783 103.949C23.5101 103.948 23.4426 103.945 23.3759 103.94C22.0482 103.846 21.0167 103.11 21.0167 101.244C21.0167 99.3134 23.484 96.8771 23.6693 96.6968L23.6696 96.6965C23.6768 96.6895 23.6803 96.6861 23.6803 96.6861C23.6803 96.6861 26.344 99.2381 26.344 101.244Z" fill="#574FF3"/>
<path id="Vector_19" d="M23.5833 103.644L24.5575 102.282L23.5809 103.793L23.5783 103.949C23.5101 103.948 23.4426 103.945 23.3759 103.94L23.4809 101.933L23.4801 101.918L23.4819 101.915L23.4918 101.725L22.5127 100.211L23.4949 101.583L23.4971 101.623L23.5765 100.107L22.7383 98.5418L23.5867 99.8406L23.6693 96.6968L23.6696 96.6861V96.6965L23.6558 99.1756L24.4903 98.1927L23.6524 99.3891L23.6304 100.747L24.4095 99.4438L23.6271 100.947L23.6148 101.701L24.7459 99.8878L23.6106 101.965L23.5833 103.644Z" fill="#3F3D56"/>
<path id="Vector_20" d="M86.8549 30.2215C86.8549 30.2215 86.0084 32.8534 84.6876 36.6349C84.2604 37.8633 83.7821 39.2117 83.2663 40.631C82.5478 42.6074 81.7565 44.7215 80.9277 46.8357C80.4179 48.1369 79.8943 49.4361 79.3647 50.7058C76.5183 57.511 73.4868 63.4066 71.5005 63.4893C67.0379 63.6744 57.4788 33.816 56.4355 30.5168C56.3745 30.3239 56.343 30.2215 56.343 30.2215H86.8549Z" fill="#3F3D56"/>
<path id="Vector_21" opacity="0.1" d="M84.6876 36.6349C84.2604 37.8633 83.7821 39.2117 83.2663 40.631L71.4454 30.2215H77.4041L84.6876 36.6349Z" fill="black"/>
<path id="Vector_22" opacity="0.1" d="M80.9277 46.8357C80.4179 48.1369 79.8943 49.4361 79.3647 50.7058L56.4355 30.5168C56.3745 30.3239 56.343 30.2215 56.343 30.2215H62.0596L80.9277 46.8357Z" fill="black"/>
<path id="Vector_23" d="M72.128 3.77673C70.7293 4.88472 68.5175 4.46576 67.1732 5.63924C66.2537 6.44191 66.0084 7.81451 66.2593 9.00902C66.5102 10.2035 67.177 11.2635 67.8477 12.2832C68.3106 12.987 68.7909 13.6963 69.4413 14.2316C70.3508 14.9799 71.5179 15.3283 72.6619 15.6081C75.1533 16.2173 77.6974 16.586 80.2592 16.7094C81.4016 16.7643 82.6954 16.7094 83.4651 15.8634C83.9134 15.3708 84.0936 14.6957 84.225 14.0428C84.4304 13.0214 84.5446 11.9218 84.12 10.9704C83.7711 10.1885 83.0993 9.60232 82.4193 9.08194C80.2862 7.4497 77.7739 6.09837 76.472 3.74902C75.9545 2.81519 75.6353 1.73307 74.851 1.00853C73.8287 0.0641555 71.5539 -0.322 70.3501 0.308859C70.536 0.732847 72.9665 3.11252 72.128 3.77673Z" fill="#574FF3"/>
<path id="Vector_24" d="M60.3741 14.789C59.9594 16.2271 59.5773 17.7487 59.9265 19.2041C60.3869 21.123 62.0694 22.5601 63.915 23.2587C65.7606 23.9572 67.7733 24.0388 69.7453 24.1124L80.0701 24.498C81.3677 24.5465 82.6903 24.5997 83.9097 25.0457C84.9148 25.4134 86.1094 26.0187 86.9473 25.353C87.3274 25.051 87.4981 24.5621 87.633 24.0958C88.0718 22.5786 88.3173 20.9124 87.7272 19.4474C87.0509 17.7685 85.3833 16.6654 83.6519 16.1381C81.9205 15.6108 80.0868 15.5594 78.2879 15.3603C76.463 15.1582 74.6586 14.801 72.8944 14.2926C71.4195 13.8676 69.9252 13.3067 68.8342 12.2269C68.2441 11.6428 67.7972 10.9306 67.241 10.3141C64.0546 6.78295 61.1578 12.0714 60.3741 14.789Z" fill="#574FF3"/>
<path id="Vector_25" d="M58.1053 21.3959C57.101 21.8457 56.23 22.5472 55.5764 23.4325C54.9229 24.3178 54.5091 25.3569 54.375 26.449C54.2409 27.5412 54.3912 28.6495 54.8112 29.6666C55.2312 30.6837 55.9067 31.575 56.7723 32.2544C58.3444 33.4882 60.4018 33.9173 62.3951 34.0609C64.3416 34.2012 66.2964 34.1047 68.2455 34.0081L85.4905 33.154C86.5014 33.1039 87.6454 32.9876 88.2625 32.1854C88.723 31.5866 88.7501 30.7609 88.6401 30.0135C88.2446 27.3253 86.2147 24.9454 83.6226 24.1306C82.6449 23.8234 81.6156 23.7261 80.5953 23.6307L73.2028 22.939C72.2073 22.8458 71.206 22.7517 70.2411 22.4894C67.3177 21.6947 64.7055 19.3746 61.6956 19.7182C59.6537 19.9512 57.9724 21.3808 56.4891 22.8033" fill="#574FF3"/>
<path id="Vector_26" opacity="0.1" d="M67.7604 9.74901C67.7604 9.74901 70.1732 14.1052 82.5495 15.8641L67.7604 9.74901Z" fill="black"/>
<path id="Vector_27" opacity="0.1" d="M60.9144 21.1587C60.9144 21.1587 65.3981 25.6939 83.9021 25.6939L60.9144 21.1587Z" fill="black"/>
<path id="Vector_28" d="M71.3037 7.58364C71.956 7.58364 72.4848 7.40737 72.4848 7.18994C72.4848 6.9725 71.956 6.79623 71.3037 6.79623C70.6514 6.79623 70.1226 6.9725 70.1226 7.18994C70.1226 7.40737 70.6514 7.58364 71.3037 7.58364Z" fill="#3F3D56"/>
<path id="Vector_29" d="M75.2407 10.1427C75.893 10.1427 76.4218 9.96645 76.4218 9.74902C76.4218 9.53158 75.893 9.35532 75.2407 9.35532C74.5884 9.35532 74.0596 9.53158 74.0596 9.74902C74.0596 9.96645 74.5884 10.1427 75.2407 10.1427Z" fill="#3F3D56"/>
<path id="Vector_30" d="M79.7683 12.8986C80.4206 12.8986 80.9494 12.7224 80.9494 12.5049C80.9494 12.2875 80.4206 12.1112 79.7683 12.1112C79.116 12.1112 78.5872 12.2875 78.5872 12.5049C78.5872 12.7224 79.116 12.8986 79.7683 12.8986Z" fill="#3F3D56"/>
<path id="Vector_31" d="M64.0202 14.0797C64.6725 14.0797 65.2013 13.9035 65.2013 13.686C65.2013 13.4686 64.6725 13.2923 64.0202 13.2923C63.3679 13.2923 62.8391 13.4686 62.8391 13.686C62.8391 13.9035 63.3679 14.0797 64.0202 14.0797Z" fill="#3F3D56"/>
<path id="Vector_32" d="M74.0596 17.8199C74.712 17.8199 75.2408 17.6436 75.2408 17.4262C75.2408 17.2088 74.712 17.0325 74.0596 17.0325C73.4073 17.0325 72.8785 17.2088 72.8785 17.4262C72.8785 17.6436 73.4073 17.8199 74.0596 17.8199Z" fill="#3F3D56"/>
<path id="Vector_33" d="M59.8863 25.4971C60.5386 25.4971 61.0674 25.3208 61.0674 25.1034C61.0674 24.886 60.5386 24.7097 59.8863 24.7097C59.234 24.7097 58.7052 24.886 58.7052 25.1034C58.7052 25.3208 59.234 25.4971 59.8863 25.4971Z" fill="#3F3D56"/>
<path id="Vector_34" d="M67.3667 18.2136C68.019 18.2136 68.5478 18.0373 68.5478 17.8199C68.5478 17.6025 68.019 17.4262 67.3667 17.4262C66.7143 17.4262 66.1855 17.6025 66.1855 17.8199C66.1855 18.0373 66.7143 18.2136 67.3667 18.2136Z" fill="#3F3D56"/>
<path id="Vector_35" d="M62.8391 28.4498C63.4914 28.4498 64.0202 28.2736 64.0202 28.0561C64.0202 27.8387 63.4914 27.6624 62.8391 27.6624C62.1868 27.6624 61.658 27.8387 61.658 28.0561C61.658 28.2736 62.1868 28.4498 62.8391 28.4498Z" fill="#3F3D56"/>
<path id="Vector_36" d="M70.5163 26.6782C71.1686 26.6782 71.6974 26.5019 71.6974 26.2845C71.6974 26.0671 71.1686 25.8908 70.5163 25.8908C69.864 25.8908 69.3352 26.0671 69.3352 26.2845C69.3352 26.5019 69.864 26.6782 70.5163 26.6782Z" fill="#3F3D56"/>
<path id="Vector_37" d="M75.1423 36.127C75.849 36.127 76.4219 34.9372 76.4219 33.4695C76.4219 32.0019 75.849 30.8121 75.1423 30.8121C74.4357 30.8121 73.8628 32.0019 73.8628 33.4695C73.8628 34.9372 74.4357 36.127 75.1423 36.127Z" fill="#574FF3"/>
<path id="Vector_38" d="M76.7172 37.1113C77.4238 37.1113 77.9967 35.9215 77.9967 34.4538C77.9967 32.9861 77.4238 31.7963 76.7172 31.7963C76.0105 31.7963 75.4376 32.9861 75.4376 34.4538C75.4376 35.9215 76.0105 37.1113 76.7172 37.1113Z" fill="#574FF3"/>
<path id="Vector_39" d="M74.0918 60.0786C74.1024 60.026 74.3677 58.7692 75.7558 56.9357C77.0294 55.2536 79.5344 52.7505 84.2363 50.3788C93.144 45.8857 95.1372 37.4444 95.1562 37.3595L95.3943 37.4132C95.3894 37.4348 94.8909 39.5959 93.2863 42.2855C91.1568 45.8493 88.0556 48.7323 84.3462 50.5966C75.4538 55.082 74.3411 60.077 74.3309 60.127L74.0918 60.0786Z" fill="#3F3D56"/>
<path id="Vector_40" d="M95.6118 36.4564C96.4875 36.4564 97.1974 35.7465 97.1974 34.8708C97.1974 33.9952 96.4875 33.2853 95.6118 33.2853C94.7361 33.2853 94.0262 33.9952 94.0262 34.8708C94.0262 35.7465 94.7361 36.4564 95.6118 36.4564Z" fill="#574FF3"/>
<path id="Vector_41" d="M95.2981 44.1493C96.1738 44.1493 96.8836 43.4394 96.8836 42.5638C96.8836 41.6881 96.1738 40.9782 95.2981 40.9782C94.4224 40.9782 93.7125 41.6881 93.7125 42.5638C93.7125 43.4394 94.4224 44.1493 95.2981 44.1493Z" fill="#F64749"/>
<path id="Vector_42" d="M90.1401 44.6892C91.0158 44.6892 91.7257 43.9793 91.7257 43.1037C91.7257 42.228 91.0158 41.5181 90.1401 41.5181C89.2644 41.5181 88.5546 42.228 88.5546 43.1037C88.5546 43.9793 89.2644 44.6892 90.1401 44.6892Z" fill="#574FF3"/>
<path id="Vector_43" d="M90.9419 49.9235C91.8176 49.9235 92.5274 49.2136 92.5274 48.338C92.5274 47.4623 91.8176 46.7524 90.9419 46.7524C90.0662 46.7524 89.3563 47.4623 89.3563 48.338C89.3563 49.2136 90.0662 49.9235 90.9419 49.9235Z" fill="#574FF3"/>
<path id="Vector_44" d="M83.5238 50.0309C84.3995 50.0309 85.1093 49.321 85.1093 48.4454C85.1093 47.5697 84.3995 46.8598 83.5238 46.8598C82.6481 46.8598 81.9382 47.5697 81.9382 48.4454C81.9382 49.321 82.6481 50.0309 83.5238 50.0309Z" fill="#F64749"/>
<path id="Vector_45" d="M74.7545 60.7726C74.7545 60.7726 76.2456 56.8327 81.7238 57.9205L74.7545 60.7726Z" fill="#3F3D56"/>
<path id="Vector_46" d="M73.3727 59.3949C73.3727 59.3949 75.6656 55.8608 71.546 52.0894L73.3727 59.3949Z" fill="#3F3D56"/>
<path id="Vector_47" d="M110.911 61.2709L108.286 60.2351L105.661 59.1994L107.871 57.4442L110.08 55.6888L110.495 58.4799L110.911 61.2709Z" fill="#F2F2F2"/>
<path id="Vector_48" d="M5.24963 43.3856L2.62488 42.3498L0 41.3141L2.20939 39.5588L4.41878 37.8034L4.83427 40.5945L5.24963 43.3856Z" fill="#F2F2F2"/>
<path id="Vector_49" d="M97.8407 76.5423L95.2159 75.5064L92.5911 74.4707L94.8005 72.7155L97.0098 70.9601L97.4253 73.7512L97.8407 76.5423Z" fill="#F2F2F2"/>
<path id="Vector_50" d="M112.004 86.2769L109.525 87.6247L107.046 88.9727L107.118 86.1519L107.19 83.331L109.597 84.8039L112.004 86.2769Z" fill="#F2F2F2"/>
<path id="Vector_51" d="M18.5872 32.3457L16.1082 33.6935L13.6293 35.0415L13.7014 32.2207L13.7735 29.3998L16.1804 30.8727L18.5872 32.3457Z" fill="#F2F2F2"/>
</g>
<defs>
<clipPath id="clip0_0_1242">
<rect width="112.004" height="108" fill="white"/>
</clipPath>
</defs>
</svg>
