<svg width="162" height="80" viewBox="0 0 162 80" fill="none" xmlns="http://www.w3.org/2000/svg">
<g id="learning 1" clip-path="url(#clip0_0_1386)">
<path id="Vector" d="M92.6409 78.2892C91.6409 78.2885 90.6821 77.8908 89.9753 77.1835C89.2685 76.4761 88.8714 75.5171 88.8714 74.5171C88.8714 73.5172 89.2685 72.5581 89.9753 71.8508C90.6821 71.1435 91.6409 70.7457 92.6409 70.7451H148.67C148.388 70.2277 147.973 69.7958 147.466 69.4948C146.96 69.1938 146.382 69.0347 145.793 69.0343H34.4209C32.9679 69.0359 31.575 69.6143 30.5482 70.6424C29.5214 71.6704 28.9447 73.0641 28.9449 74.5171C28.9456 75.9699 29.5226 77.363 30.5492 78.3909C31.5758 79.4188 32.9682 79.9974 34.4209 80H145.792C146.382 79.9996 146.96 79.8405 147.466 79.5394C147.972 79.2384 148.388 78.8065 148.67 78.2892L92.6409 78.2892Z" fill="#F64749"/>
<path id="Vector_2" d="M148.745 72.8235H95.4738C95.3923 72.8233 95.3141 72.7908 95.2566 72.7331C95.199 72.6753 95.1666 72.5971 95.1666 72.5156C95.1666 72.4341 95.199 72.3559 95.2566 72.2981C95.3141 72.2404 95.3923 72.2079 95.4738 72.2077H148.745C148.826 72.2079 148.904 72.2404 148.962 72.2981C149.02 72.3559 149.052 72.4341 149.052 72.5156C149.052 72.5971 149.02 72.6753 148.962 72.7331C148.904 72.7908 148.826 72.8233 148.745 72.8235Z" fill="#CCCCCC"/>
<path id="Vector_3" d="M148.745 74.825H95.4738C95.3921 74.825 95.3138 74.7926 95.2561 74.7349C95.1983 74.6771 95.1659 74.5988 95.1659 74.5171C95.1659 74.4354 95.1983 74.3571 95.2561 74.2994C95.3138 74.2416 95.3921 74.2092 95.4738 74.2092H148.745C148.826 74.2092 148.905 74.2416 148.962 74.2994C149.02 74.3571 149.053 74.4354 149.053 74.5171C149.053 74.5988 149.02 74.6771 148.962 74.7349C148.905 74.7926 148.826 74.825 148.745 74.825Z" fill="#CCCCCC"/>
<path id="Vector_4" d="M148.745 76.8265H95.4738C95.3923 76.8263 95.3141 76.7938 95.2566 76.7361C95.199 76.6784 95.1666 76.6002 95.1666 76.5186C95.1666 76.4371 95.199 76.3589 95.2566 76.3011C95.3141 76.2434 95.3923 76.2109 95.4738 76.2107H148.745C148.826 76.2109 148.904 76.2434 148.962 76.3011C149.02 76.3589 149.052 76.4371 149.052 76.5186C149.052 76.6002 149.02 76.6784 148.962 76.7361C148.904 76.7938 148.826 76.8263 148.745 76.8265Z" fill="#CCCCCC"/>
<path id="Vector_5" d="M78.1684 67.6658C77.1685 67.6651 76.2097 67.2674 75.5028 66.5601C74.796 65.8527 74.3989 64.8937 74.3989 63.8937C74.3989 62.8938 74.796 61.9347 75.5028 61.2274C76.2097 60.5201 77.1685 60.1224 78.1684 60.1217H134.198C133.916 59.6043 133.5 59.1725 132.994 58.8714C132.487 58.5704 131.909 58.4113 131.32 58.4109H19.9485C18.4955 58.4125 17.1026 58.9909 16.0758 60.019C15.049 61.047 14.4723 62.4407 14.4724 63.8937C14.4732 65.3465 15.0501 66.7396 16.0768 67.7675C17.1034 68.7954 18.4958 69.3741 19.9485 69.3766H131.32C131.909 69.3762 132.487 69.2171 132.994 68.916C133.5 68.615 133.916 68.1831 134.198 67.6658L78.1684 67.6658Z" fill="#F9AF0B"/>
<path id="Vector_6" d="M134.272 62.2002H81.0013C80.9197 62.2 80.8416 62.1674 80.784 62.1097C80.7264 62.052 80.6941 61.9738 80.6941 61.8922C80.6941 61.8107 80.7264 61.7325 80.784 61.6748C80.8416 61.617 80.9197 61.5845 81.0013 61.5843H134.272C134.354 61.5843 134.432 61.6168 134.49 61.6745C134.548 61.7323 134.58 61.8106 134.58 61.8922C134.58 61.9739 134.548 62.0522 134.49 62.11C134.432 62.1677 134.354 62.2002 134.272 62.2002Z" fill="#CCCCCC"/>
<path id="Vector_7" d="M134.272 64.2017H81.0013C80.9196 64.2017 80.8413 64.1692 80.7836 64.1115C80.7258 64.0537 80.6934 63.9754 80.6934 63.8937C80.6934 63.8121 80.7258 63.7337 80.7836 63.676C80.8413 63.6183 80.9196 63.5858 81.0013 63.5858H134.272C134.354 63.5858 134.432 63.6183 134.49 63.676C134.548 63.7337 134.58 63.8121 134.58 63.8937C134.58 63.9754 134.548 64.0537 134.49 64.1115C134.432 64.1692 134.354 64.2017 134.272 64.2017Z" fill="#CCCCCC"/>
<path id="Vector_8" d="M134.272 66.2032H81.0013C80.9197 66.203 80.8416 66.1704 80.784 66.1127C80.7264 66.055 80.6941 65.9768 80.6941 65.8952C80.6941 65.8137 80.7264 65.7355 80.784 65.6778C80.8416 65.62 80.9197 65.5875 81.0013 65.5873H134.272C134.313 65.5872 134.353 65.5951 134.39 65.6105C134.428 65.626 134.462 65.6486 134.49 65.6772C134.519 65.7058 134.542 65.7398 134.557 65.7772C134.573 65.8146 134.581 65.8547 134.581 65.8952C134.581 65.9357 134.573 65.9758 134.557 66.0132C134.542 66.0507 134.519 66.0846 134.49 66.1132C134.462 66.1418 134.428 66.1645 134.39 66.1799C134.353 66.1954 134.313 66.2033 134.272 66.2032Z" fill="#CCCCCC"/>
<path id="Vector_9" d="M63.696 56.688C62.696 56.6873 61.7373 56.2895 61.0304 55.5822C60.3236 54.8749 59.9265 53.9158 59.9265 52.9159C59.9265 51.9159 60.3236 50.9568 61.0304 50.2495C61.7373 49.5422 62.696 49.1445 63.696 49.1438H119.725C119.444 48.6265 119.028 48.1946 118.521 47.8936C118.015 47.5925 117.437 47.4334 116.848 47.433H5.47604C4.02302 47.4346 2.63008 48.013 1.60328 49.0411C0.576483 50.0692 -0.000180784 51.4628 4.2514e-08 52.9159C0.000735171 54.3686 0.577693 55.7617 1.60429 56.7896C2.63089 57.8175 4.0233 58.3962 5.47604 58.3987H116.848C117.437 58.3983 118.015 58.2392 118.521 57.9382C119.028 57.6371 119.444 57.2053 119.725 56.6879L63.696 56.688Z" fill="#F64749"/>
<path id="Vector_10" d="M119.8 51.2223H66.5289C66.4473 51.2221 66.3692 51.1896 66.3116 51.1319C66.254 51.0741 66.2217 50.9959 66.2217 50.9144C66.2217 50.8328 66.254 50.7546 66.3116 50.6969C66.3692 50.6392 66.4473 50.6066 66.5289 50.6064H119.8C119.881 50.6064 119.96 50.6389 120.018 50.6966C120.075 50.7544 120.108 50.8327 120.108 50.9144C120.108 50.996 120.075 51.0744 120.018 51.1321C119.96 51.1899 119.881 51.2223 119.8 51.2223Z" fill="#CCCCCC"/>
<path id="Vector_11" d="M119.8 53.2238H66.5289C66.4884 53.2238 66.4484 53.2158 66.411 53.2004C66.3737 53.1849 66.3397 53.1622 66.3111 53.1336C66.2825 53.105 66.2599 53.0711 66.2444 53.0337C66.2289 52.9963 66.2209 52.9563 66.2209 52.9159C66.2209 52.8754 66.2289 52.8354 66.2444 52.798C66.2599 52.7607 66.2825 52.7267 66.3111 52.6981C66.3397 52.6695 66.3737 52.6469 66.411 52.6314C66.4484 52.6159 66.4884 52.6079 66.5289 52.6079H119.8C119.84 52.6079 119.88 52.6159 119.918 52.6314C119.955 52.6469 119.989 52.6695 120.018 52.6981C120.046 52.7267 120.069 52.7607 120.084 52.798C120.1 52.8354 120.108 52.8754 120.108 52.9159C120.108 52.9563 120.1 52.9963 120.084 53.0337C120.069 53.0711 120.046 53.105 120.018 53.1336C119.989 53.1622 119.955 53.1849 119.918 53.2004C119.88 53.2158 119.84 53.2238 119.8 53.2238Z" fill="#CCCCCC"/>
<path id="Vector_12" d="M119.8 55.2253H66.5289C66.4472 55.2253 66.3689 55.1929 66.3111 55.1351C66.2534 55.0774 66.2209 54.9991 66.2209 54.9174C66.2209 54.8357 66.2534 54.7574 66.3111 54.6997C66.3689 54.6419 66.4472 54.6095 66.5289 54.6095H119.8C119.84 54.6095 119.88 54.6174 119.918 54.6329C119.955 54.6484 119.989 54.6711 120.018 54.6997C120.046 54.7282 120.069 54.7622 120.084 54.7996C120.1 54.8369 120.108 54.8769 120.108 54.9174C120.108 54.9578 120.1 54.9979 120.084 55.0352C120.069 55.0726 120.046 55.1065 120.018 55.1351C119.989 55.1637 119.955 55.1864 119.918 55.2019C119.88 55.2173 119.84 55.2253 119.8 55.2253Z" fill="#CCCCCC"/>
<path id="Vector_13" d="M121.03 33.269C120.738 33.2686 120.457 33.1571 120.244 32.9572C120.03 32.7573 119.901 32.4839 119.882 32.1923L119.711 29.582C119.691 29.2771 119.793 28.9768 119.995 28.7471C120.196 28.5174 120.481 28.3771 120.785 28.3571L141.236 27.0178C141.558 26.9967 141.882 27.0393 142.188 27.1432C142.493 27.247 142.776 27.4101 143.019 27.6232C143.262 27.8362 143.46 28.0949 143.603 28.3847C143.746 28.6744 143.83 28.9895 143.851 29.3118C143.872 29.6342 143.83 29.9575 143.726 30.2634C143.622 30.5693 143.459 30.8518 143.246 31.0947C143.033 31.3375 142.774 31.5361 142.485 31.6789C142.195 31.8218 141.88 31.9062 141.557 31.9273L121.107 33.2665C121.081 33.2681 121.056 33.269 121.03 33.269Z" fill="#F9AF0B"/>
<path id="Vector_14" d="M125.063 33.6056C124.765 33.6051 124.478 33.4893 124.264 33.2826C124.049 33.0759 123.923 32.7942 123.912 32.4965L123.766 28.5977C123.76 28.4465 123.785 28.2957 123.837 28.1539C123.89 28.0121 123.97 27.882 124.073 27.7711C124.176 27.6602 124.299 27.5707 124.437 27.5076C124.575 27.4445 124.723 27.4092 124.874 27.4036L141.691 26.775C141.997 26.7636 142.294 26.874 142.518 27.0818C142.742 27.2896 142.874 27.5779 142.885 27.8832L143.031 31.782C143.037 31.9332 143.013 32.084 142.96 32.2258C142.907 32.3677 142.827 32.4977 142.724 32.6086C142.622 32.7195 142.498 32.809 142.36 32.8721C142.223 32.9352 142.074 32.9705 141.923 32.9762L125.106 33.6047C125.091 33.6053 125.077 33.6056 125.063 33.6056Z" fill="#2F2E41"/>
<path id="Vector_15" d="M144.769 69.5449H142.153C141.848 69.5446 141.555 69.4231 141.339 69.2071C141.123 68.9912 141.002 68.6983 141.001 68.3929V46.5908C141.002 46.2854 141.123 45.9926 141.339 45.7766C141.555 45.5606 141.848 45.4391 142.153 45.4388H144.769C145.075 45.4391 145.368 45.5606 145.583 45.7766C145.799 45.9926 145.921 46.2854 145.921 46.5908V68.3929C145.921 68.6983 145.799 68.9912 145.583 69.2071C145.368 69.4231 145.075 69.5446 144.769 69.5449Z" fill="#2F2E41"/>
<path id="Vector_16" d="M133.158 58.0205L130.921 56.6646C130.66 56.506 130.473 56.2503 130.4 55.9536C130.327 55.657 130.375 55.3436 130.533 55.0823L141.834 36.4378C141.993 36.1767 142.249 35.9893 142.545 35.9166C142.842 35.8438 143.155 35.8917 143.417 36.0497L145.654 37.4057C145.915 37.5643 146.102 37.82 146.175 38.1166C146.248 38.4132 146.2 38.7266 146.042 38.988L134.741 57.6325C134.582 57.8935 134.326 58.0809 134.03 58.1537C133.733 58.2264 133.42 58.1785 133.158 58.0205Z" fill="#2F2E41"/>
<path id="Vector_17" d="M140.796 22.6859C145.788 22.6859 149.835 18.6391 149.835 13.647C149.835 8.65501 145.788 4.60817 140.796 4.60817C135.804 4.60817 131.757 8.65501 131.757 13.647C131.757 18.6391 135.804 22.6859 140.796 22.6859Z" fill="#F9AF0B"/>
<path id="Vector_18" d="M135.903 16.7332C135.613 16.6377 135.346 16.481 135.121 16.2737C134.971 16.1257 134.856 15.9469 134.784 15.7497C134.711 15.5526 134.682 15.3419 134.699 15.1325C134.709 14.9833 134.753 14.8383 134.827 14.7088C134.902 14.5793 135.006 14.4689 135.13 14.3862C135.454 14.1788 135.886 14.1782 136.326 14.3722L136.309 10.8435L136.664 10.8419L136.684 14.9901L136.41 14.8184C136.094 14.6195 135.641 14.4795 135.322 14.6845C135.243 14.7387 135.177 14.8104 135.131 14.894C135.084 14.9775 135.057 15.0708 135.052 15.1664C135.04 15.3224 135.062 15.4792 135.116 15.626C135.17 15.7728 135.255 15.9063 135.365 16.0173C135.757 16.3912 136.328 16.5081 136.979 16.6126L136.923 16.9625C136.577 16.9167 136.236 16.84 135.903 16.7332Z" fill="#2F2E41"/>
<path id="Vector_19" d="M132.656 10.6653L132.609 11.0166L134.502 11.2666L134.548 10.9152L132.656 10.6653Z" fill="#2F2E41"/>
<path id="Vector_20" d="M138.63 11.454L138.583 11.8054L140.476 12.0553L140.522 11.704L138.63 11.454Z" fill="#2F2E41"/>
<path id="Vector_21" d="M148.344 52.4403H133.102C132.702 52.4399 132.319 52.281 132.037 51.9986C131.755 51.7162 131.596 51.3333 131.595 50.9339L134.786 26.4643C134.789 26.0668 134.948 25.6863 135.231 25.4062C135.513 25.1261 135.894 24.969 136.292 24.9693H141.701C143.862 24.9717 145.933 25.8311 147.461 27.3588C148.988 28.8865 149.848 30.9579 149.85 33.1184V50.9339C149.85 51.3333 149.691 51.7162 149.408 51.9986C149.126 52.281 148.743 52.4399 148.344 52.4403Z" fill="#2F2E41"/>
<path id="Vector_22" d="M161.457 42.7983C161.551 42.9998 161.585 43.2243 161.555 43.4446C161.524 43.6649 161.431 43.8717 161.286 44.0402L159.576 46.0196C159.477 46.1341 159.356 46.228 159.221 46.2959C159.086 46.3638 158.939 46.4044 158.788 46.4154C158.637 46.4265 158.485 46.4076 158.342 46.3601C158.198 46.3125 158.065 46.2371 157.951 46.1382L142.443 32.7399C142.198 32.5287 141.998 32.2715 141.853 31.9828C141.707 31.6941 141.621 31.3797 141.597 31.0575C141.574 30.7353 141.614 30.4115 141.715 30.1048C141.817 29.7981 141.978 29.5144 142.189 29.27C142.4 29.0255 142.658 28.825 142.946 28.68C143.235 28.535 143.549 28.4482 143.872 28.4247C144.194 28.4013 144.518 28.4415 144.824 28.5431C145.131 28.6448 145.415 28.8058 145.659 29.0171L161.167 42.4153C161.29 42.521 161.389 42.6516 161.457 42.7983Z" fill="#F9AF0B"/>
<path id="Vector_23" d="M158.034 38.3768C158.129 38.5783 158.162 38.8027 158.132 39.023C158.102 39.2433 158.008 39.4502 157.863 39.6186L154.942 42.9996C154.742 43.2305 154.459 43.3726 154.154 43.3949C153.849 43.4171 153.548 43.3176 153.317 43.1182L140.583 32.1162C140.468 32.0174 140.374 31.8969 140.306 31.7617C140.239 31.6265 140.198 31.4793 140.187 31.3284C140.176 31.1775 140.195 31.0259 140.242 30.8823C140.29 30.7387 140.365 30.6059 140.464 30.4914L143.385 27.1104C143.484 26.9959 143.605 26.902 143.74 26.8341C143.875 26.7662 144.022 26.7256 144.173 26.7146C144.324 26.7036 144.475 26.7224 144.619 26.77C144.763 26.8175 144.896 26.8929 145.01 26.9919L157.744 37.9937C157.867 38.0995 157.966 38.2301 158.034 38.3768Z" fill="#2F2E41"/>
<path id="Vector_24" d="M140.965 8.28608C139.757 7.28617 138.142 8.23188 136.775 8.09766C135.468 7.96924 134.416 6.81876 134.129 5.58072C133.794 4.13635 134.52 2.66915 135.612 1.74388C136.808 0.730499 138.414 0.415587 139.945 0.569792C141.699 0.746528 143.316 1.532 144.771 2.49157C146.175 3.38829 147.47 4.44445 148.631 5.63898C149.672 6.74513 150.561 8.07032 150.865 9.57963C151.142 10.9513 150.98 12.4802 150.188 13.6616C149.768 14.2675 149.199 14.7548 148.536 15.0766C147.844 15.4325 147.105 15.6916 146.436 16.0918C145.425 16.6969 144.455 17.9302 144.799 19.1879C144.873 19.4627 145.013 19.7151 145.208 19.9229C145.441 20.1725 145.847 19.8291 145.613 19.5789C145.202 19.1395 145.207 18.5429 145.411 18.0051C145.655 17.3987 146.097 16.8932 146.666 16.5712C147.366 16.1532 148.142 15.8887 148.861 15.5064C149.548 15.1566 150.141 14.6459 150.589 14.0176C151.434 12.7949 151.664 11.2202 151.44 9.7717C151.197 8.20426 150.362 6.79157 149.327 5.61412C148.201 4.33273 146.827 3.25605 145.426 2.29197C143.923 1.2575 142.267 0.39024 140.447 0.0997561C138.87 -0.152049 137.17 0.0537327 135.812 0.936408C134.544 1.76033 133.586 3.1544 133.518 4.6931C133.496 5.39303 133.661 6.08614 133.996 6.70109C134.331 7.31605 134.823 7.83064 135.423 8.19191C136.039 8.54436 136.749 8.69476 137.454 8.6219C138.208 8.55921 138.96 8.31361 139.721 8.36337C140.065 8.37771 140.396 8.50389 140.662 8.7228C140.926 8.94127 141.227 8.50276 140.965 8.28608Z" fill="#2F2E41"/>
<path id="Vector_25" d="M130.337 55.3972C130.34 55.3772 130.344 55.3573 130.348 55.3374C130.38 55.1893 130.44 55.049 130.526 54.9246C130.613 54.8001 130.722 54.6939 130.85 54.6123L133.048 53.1944C133.305 53.0292 133.617 52.9725 133.915 53.037C134.214 53.1014 134.475 53.2816 134.641 53.5381L141.422 64.0514C141.587 64.3082 141.644 64.6202 141.58 64.9189C141.515 65.2175 141.335 65.4783 141.078 65.644L138.88 67.0618C138.623 67.2271 138.311 67.2837 138.012 67.2193C137.714 67.1549 137.453 66.9747 137.287 66.7182L130.506 56.2048C130.351 55.9661 130.291 55.6781 130.337 55.3972Z" fill="#2F2E41"/>
</g>
<defs>
<clipPath id="clip0_0_1386">
<rect width="161.566" height="80" fill="white"/>
</clipPath>
</defs>
</svg>
