<svg width="104" height="108" viewBox="0 0 104 108" fill="none" xmlns="http://www.w3.org/2000/svg">
<g id="ProblemSolve 1" clip-path="url(#clip0_0_1102)">
<path id="Vector" d="M71.9371 13.1747L71.7395 13.3822L85.297 26.2898L85.4946 26.0823L71.9371 13.1747Z" fill="#E6E6E6"/>
<path id="Vector_2" d="M85.5163 24.6826L85.23 24.6999L85.3164 26.1101L83.9035 26.0931L83.9004 26.3798L85.6212 26.4002L85.5163 24.6826Z" fill="#E6E6E6"/>
<path id="Vector_3" d="M73.3339 13.0845L73.3308 13.3711L71.918 13.3541L72.0044 14.7643L71.718 14.7816L71.6134 13.0639L73.3339 13.0845Z" fill="#E6E6E6"/>
<path id="Vector_4" d="M78.6171 21.3081C79.4874 21.3081 80.193 20.6026 80.193 19.7322C80.193 18.8619 79.4874 18.1563 78.6171 18.1563C77.7467 18.1563 77.0411 18.8619 77.0411 19.7322C77.0411 20.6026 77.7467 21.3081 78.6171 21.3081Z" fill="#E6E6E6"/>
<path id="Vector_5" d="M31.4809 13.1746L17.9233 26.0823L18.1209 26.2898L31.6785 13.3822L31.4809 13.1746Z" fill="#E6E6E6"/>
<path id="Vector_6" d="M17.7969 26.4002L19.5177 26.3798L19.5144 26.0931L18.1017 26.1101L18.1881 24.6999L17.9018 24.6826L17.7969 26.4002Z" fill="#E6E6E6"/>
<path id="Vector_7" d="M31.8046 13.0639L31.6999 14.7816L31.4136 14.7643L31.4998 13.3541L30.0871 13.3711L30.084 13.0845L31.8046 13.0639Z" fill="#E6E6E6"/>
<path id="Vector_8" d="M24.8009 21.3081C25.6713 21.3081 26.3768 20.6026 26.3768 19.7322C26.3768 18.8619 25.6713 18.1563 24.8009 18.1563C23.9305 18.1563 23.225 18.8619 23.225 19.7322C23.225 20.6026 23.9305 21.3081 24.8009 21.3081Z" fill="#E6E6E6"/>
<path id="Vector_9" d="M63.4567 32.6645H39.6747C39.3328 32.6641 39.0051 32.5281 38.7634 32.2864C38.5217 32.0447 38.3857 31.7169 38.3853 31.3751V1.28939C38.3857 0.94754 38.5217 0.619807 38.7634 0.378084C39.0051 0.136361 39.3328 0.000389294 39.6747 0H63.4567C63.7986 0.000389294 64.1263 0.136361 64.368 0.378084C64.6098 0.619807 64.7457 0.94754 64.7461 1.28939V31.3751C64.7457 31.7169 64.6098 32.0447 64.368 32.2864C64.1263 32.5281 63.7986 32.6641 63.4567 32.6645ZM39.6747 0.286531C39.4088 0.28683 39.1539 0.392583 38.9659 0.580591C38.7779 0.768598 38.6721 1.0235 38.6718 1.28939V31.3751C38.6721 31.641 38.7779 31.8959 38.9659 32.0839C39.1539 32.2719 39.4088 32.3777 39.6747 32.378H63.4567C63.7226 32.3777 63.9775 32.2719 64.1655 32.0839C64.3535 31.8959 64.4593 31.641 64.4596 31.3751V1.28939C64.4593 1.0235 64.3535 0.768598 64.1655 0.580591C63.9775 0.392583 63.7226 0.28683 63.4567 0.286531H39.6747Z" fill="#3F3D56"/>
<path id="Vector_10" d="M49.5874 14.4614H44.3525C44.1815 14.4613 44.0177 14.3933 43.8968 14.2724C43.7759 14.1515 43.708 13.9877 43.7078 13.8168V7.6392C43.708 7.46828 43.7759 7.3044 43.8968 7.18354C44.0177 7.06268 44.1815 6.9947 44.3525 6.99451H49.5874C49.7583 6.9947 49.9222 7.06268 50.043 7.18354C50.1639 7.3044 50.2319 7.46827 50.2321 7.6392V13.8167C50.2319 13.9877 50.1639 14.1515 50.043 14.2724C49.9222 14.3933 49.7583 14.4613 49.5874 14.4614Z" fill="#F9AF0B"/>
<path id="Vector_11" d="M59.7592 17.3267H54.5243C54.3534 17.3265 54.1895 17.2586 54.0687 17.1377C53.9478 17.0168 53.8798 16.853 53.8796 16.682V10.5045C53.8798 10.3336 53.9478 10.1697 54.0687 10.0488C54.1895 9.92798 54.3534 9.85999 54.5243 9.8598H59.7592C59.9302 9.85999 60.094 9.92798 60.2149 10.0488C60.3358 10.1697 60.4037 10.3336 60.4039 10.5045V16.682C60.4037 16.853 60.3358 17.0168 60.2149 17.1377C60.094 17.2586 59.9302 17.3265 59.7592 17.3267Z" fill="#F64749"/>
<path id="Vector_12" d="M51.5931 26.0659H46.3582C46.1873 26.0657 46.0234 25.9978 45.9025 25.8769C45.7817 25.756 45.7137 25.5922 45.7135 25.4212V19.2437C45.7137 19.0728 45.7817 18.9089 45.9025 18.788C46.0234 18.6672 46.1873 18.5992 46.3582 18.599H51.5931C51.764 18.5992 51.9279 18.6672 52.0488 18.788C52.1696 18.9089 52.2376 19.0728 52.2378 19.2437V25.4212C52.2376 25.5922 52.1696 25.756 52.0488 25.8769C51.9279 25.9978 51.764 26.0657 51.5931 26.0659Z" fill="#F9AF0B"/>
<path id="Vector_13" d="M101.842 63.6H78.06C77.7182 63.5996 77.3904 63.4636 77.1487 63.2219C76.907 62.9802 76.771 62.6524 76.7706 62.3106V32.2249C76.771 31.883 76.907 31.5553 77.1487 31.3136C77.3904 31.0718 77.7182 30.9359 78.06 30.9355H101.842C102.184 30.9359 102.512 31.0718 102.753 31.3136C102.995 31.5553 103.131 31.883 103.131 32.2249V62.3106C103.131 62.6524 102.995 62.9802 102.753 63.2219C102.512 63.4636 102.184 63.5996 101.842 63.6ZM78.06 31.222C77.7941 31.2223 77.5392 31.3281 77.3512 31.5161C77.1632 31.7041 77.0575 31.959 77.0572 32.2249V62.3106C77.0575 62.5765 77.1632 62.8314 77.3512 63.0194C77.5392 63.2074 77.7941 63.3131 78.06 63.3134H101.842C102.108 63.3131 102.363 63.2074 102.551 63.0194C102.739 62.8314 102.845 62.5765 102.845 62.3106V32.2249C102.845 31.959 102.739 31.7041 102.551 31.5161C102.363 31.3281 102.108 31.2223 101.842 31.222H78.06Z" fill="#3F3D56"/>
<path id="Vector_14" d="M94.0341 37.5974H85.868C85.716 37.5974 85.5702 37.537 85.4628 37.4295C85.3553 37.322 85.2949 37.1763 85.2949 37.0243C85.2949 36.8723 85.3553 36.7265 85.4628 36.6191C85.5702 36.5116 85.716 36.4512 85.868 36.4512H94.0341C94.1861 36.4512 94.3319 36.5116 94.4393 36.6191C94.5468 36.7265 94.6072 36.8723 94.6072 37.0243C94.6072 37.1763 94.5468 37.322 94.4393 37.4295C94.3319 37.537 94.1861 37.5974 94.0341 37.5974Z" fill="#F9AF0B"/>
<path id="Vector_15" d="M98.0455 43.0415H81.8565C81.7812 43.0416 81.7066 43.0269 81.6369 42.9981C81.5673 42.9694 81.504 42.9272 81.4507 42.874C81.3973 42.8207 81.355 42.7575 81.3262 42.6879C81.2973 42.6183 81.2825 42.5437 81.2825 42.4684C81.2825 42.393 81.2973 42.3184 81.3262 42.2489C81.355 42.1793 81.3973 42.116 81.4507 42.0628C81.504 42.0096 81.5673 41.9674 81.6369 41.9387C81.7066 41.9099 81.7812 41.8952 81.8565 41.8953H98.0455C98.1208 41.8952 98.1955 41.9099 98.2651 41.9387C98.3347 41.9674 98.398 42.0096 98.4514 42.0628C98.5047 42.116 98.547 42.1793 98.5758 42.2489C98.6047 42.3184 98.6196 42.393 98.6196 42.4684C98.6196 42.5437 98.6047 42.6183 98.5758 42.6879C98.547 42.7575 98.5047 42.8207 98.4514 42.874C98.398 42.9272 98.3347 42.9694 98.2651 42.9981C98.1955 43.0269 98.1208 43.0416 98.0455 43.0415Z" fill="#F64749"/>
<path id="Vector_16" d="M98.0455 46.05H81.8565C81.7812 46.0501 81.7066 46.0354 81.6369 46.0067C81.5673 45.9779 81.504 45.9357 81.4507 45.8825C81.3973 45.8293 81.355 45.7661 81.3262 45.6965C81.2973 45.6269 81.2825 45.5523 81.2825 45.4769C81.2825 45.4016 81.2973 45.327 81.3262 45.2574C81.355 45.1878 81.3973 45.1246 81.4507 45.0714C81.504 45.0181 81.5673 44.9759 81.6369 44.9472C81.7066 44.9185 81.7812 44.9037 81.8565 44.9039H98.0455C98.1208 44.9037 98.1955 44.9185 98.2651 44.9472C98.3347 44.9759 98.398 45.0181 98.4514 45.0714C98.5047 45.1246 98.547 45.1878 98.5758 45.2574C98.6047 45.327 98.6196 45.4016 98.6196 45.4769C98.6196 45.5523 98.6047 45.6269 98.5758 45.6965C98.547 45.7661 98.5047 45.8293 98.4514 45.8825C98.398 45.9357 98.3347 45.9779 98.2651 46.0067C98.1955 46.0354 98.1208 46.0501 98.0455 46.05Z" fill="#F64749"/>
<path id="Vector_17" d="M98.0455 49.0586H81.8565C81.7812 49.0587 81.7066 49.044 81.6369 49.0153C81.5673 48.9865 81.504 48.9443 81.4507 48.8911C81.3973 48.8379 81.355 48.7747 81.3262 48.7051C81.2973 48.6355 81.2825 48.5609 81.2825 48.4855C81.2825 48.4102 81.2973 48.3356 81.3262 48.266C81.355 48.1964 81.3973 48.1332 81.4507 48.08C81.504 48.0267 81.5673 47.9846 81.6369 47.9558C81.7066 47.9271 81.7812 47.9123 81.8565 47.9125H98.0455C98.1208 47.9123 98.1955 47.9271 98.2651 47.9558C98.3347 47.9846 98.398 48.0267 98.4514 48.08C98.5047 48.1332 98.547 48.1964 98.5758 48.266C98.6047 48.3356 98.6196 48.4102 98.6196 48.4855C98.6196 48.5609 98.6047 48.6355 98.5758 48.7051C98.547 48.7747 98.5047 48.8379 98.4514 48.8911C98.398 48.9443 98.3347 48.9865 98.2651 49.0153C98.1955 49.044 98.1208 49.0587 98.0455 49.0586Z" fill="#F64749"/>
<path id="Vector_18" d="M98.0455 52.0671H81.8565C81.7812 52.0673 81.7066 52.0525 81.6369 52.0238C81.5673 51.9951 81.504 51.9529 81.4507 51.8997C81.3973 51.8464 81.355 51.7832 81.3262 51.7136C81.2973 51.644 81.2825 51.5694 81.2825 51.4941C81.2825 51.4187 81.2973 51.3441 81.3262 51.2746C81.355 51.205 81.3973 51.1417 81.4507 51.0885C81.504 51.0353 81.5673 50.9931 81.6369 50.9644C81.7066 50.9356 81.7812 50.9209 81.8565 50.921H98.0455C98.1208 50.9209 98.1955 50.9356 98.2651 50.9644C98.3347 50.9931 98.398 51.0353 98.4514 51.0885C98.5047 51.1417 98.547 51.205 98.5758 51.2746C98.6047 51.3441 98.6196 51.4187 98.6196 51.4941C98.6196 51.5694 98.6047 51.644 98.5758 51.7136C98.547 51.7832 98.5047 51.8464 98.4514 51.8997C98.398 51.9529 98.3347 51.9951 98.2651 52.0238C98.1955 52.0525 98.1208 52.0673 98.0455 52.0671Z" fill="#F64749"/>
<path id="Vector_19" d="M98.0455 55.0757H81.8565C81.7812 55.0758 81.7066 55.0611 81.6369 55.0324C81.5673 55.0036 81.504 54.9614 81.4507 54.9082C81.3973 54.855 81.355 54.7917 81.3262 54.7222C81.2973 54.6526 81.2825 54.578 81.2825 54.5026C81.2825 54.4273 81.2973 54.3527 81.3262 54.2831C81.355 54.2135 81.3973 54.1503 81.4507 54.0971C81.504 54.0438 81.5673 54.0016 81.6369 53.9729C81.7066 53.9442 81.7812 53.9294 81.8565 53.9296H98.0455C98.1208 53.9294 98.1955 53.9442 98.2651 53.9729C98.3347 54.0016 98.398 54.0438 98.4514 54.0971C98.5047 54.1503 98.547 54.2135 98.5758 54.2831C98.6047 54.3527 98.6196 54.4273 98.6196 54.5026C98.6196 54.578 98.6047 54.6526 98.5758 54.7222C98.547 54.7917 98.5047 54.855 98.4514 54.9082C98.398 54.9614 98.3347 55.0036 98.2651 55.0324C98.1955 55.0611 98.1208 55.0758 98.0455 55.0757Z" fill="#F64749"/>
<path id="Vector_20" d="M98.0455 58.0843H81.8565C81.7812 58.0844 81.7066 58.0697 81.6369 58.041C81.5673 58.0122 81.504 57.97 81.4507 57.9168C81.3973 57.8636 81.355 57.8004 81.3262 57.7308C81.2973 57.6612 81.2825 57.5866 81.2825 57.5112C81.2825 57.4359 81.2973 57.3613 81.3262 57.2917C81.355 57.2221 81.3973 57.1589 81.4507 57.1057C81.504 57.0524 81.5673 57.0103 81.6369 56.9815C81.7066 56.9528 81.7812 56.938 81.8565 56.9382H98.0455C98.1208 56.938 98.1955 56.9528 98.2651 56.9815C98.3347 57.0103 98.398 57.0524 98.4514 57.1057C98.5047 57.1589 98.547 57.2221 98.5758 57.2917C98.6047 57.3613 98.6196 57.4359 98.6196 57.5112C98.6196 57.5866 98.6047 57.6612 98.5758 57.7308C98.547 57.8004 98.5047 57.8636 98.4514 57.9168C98.398 57.97 98.3347 58.0122 98.2651 58.041C98.1955 58.0697 98.1208 58.0844 98.0455 58.0843Z" fill="#F64749"/>
<path id="Vector_21" d="M25.0714 63.6H1.28939C0.947539 63.5996 0.619804 63.4636 0.378081 63.2219C0.136358 62.9802 0.000388841 62.6524 0 62.3106V32.2249C0.000388841 31.883 0.136358 31.5553 0.378081 31.3136C0.619804 31.0718 0.947539 30.9359 1.28939 30.9355H25.0714C25.4133 30.9359 25.741 31.0718 25.9827 31.3136C26.2245 31.5553 26.3604 31.883 26.3608 32.2249V62.3106C26.3604 62.6524 26.2245 62.9802 25.9827 63.2219C25.741 63.4636 25.4133 63.5996 25.0714 63.6ZM1.28939 31.222C1.0235 31.2223 0.768598 31.3281 0.580591 31.5161C0.392583 31.7041 0.286827 31.959 0.286529 32.2249V62.3106C0.286827 62.5765 0.392583 62.8314 0.580591 63.0194C0.768598 63.2074 1.0235 63.3131 1.28939 63.3134H25.0714C25.3373 63.3131 25.5922 63.2074 25.7802 63.0194C25.9682 62.8314 26.074 62.5765 26.0743 62.3106V32.2249C26.074 31.959 25.9682 31.7041 25.7802 31.5161C25.5922 31.3281 25.3373 31.2223 25.0714 31.222H1.28939Z" fill="#3F3D56"/>
<path id="Vector_22" d="M21.2997 38.0388H14.1365C13.9845 38.0388 13.8387 37.9784 13.7313 37.8709C13.6238 37.7634 13.5634 37.6177 13.5634 37.4657C13.5634 37.3137 13.6238 37.168 13.7313 37.0605C13.8387 36.953 13.9845 36.8926 14.1365 36.8926H21.2997C21.4517 36.8926 21.5975 36.953 21.705 37.0605C21.8124 37.168 21.8728 37.3137 21.8728 37.4657C21.8728 37.6177 21.8124 37.7634 21.705 37.8709C21.5975 37.9784 21.4517 38.0388 21.2997 38.0388Z" fill="#3F3D56"/>
<path id="Vector_23" d="M21.2997 41.0473H14.1365C13.9845 41.0473 13.8387 40.9869 13.7313 40.8795C13.6238 40.772 13.5634 40.6262 13.5634 40.4742C13.5634 40.3223 13.6238 40.1765 13.7313 40.069C13.8387 39.9616 13.9845 39.9012 14.1365 39.9012H21.2997C21.4517 39.9012 21.5975 39.9616 21.705 40.069C21.8124 40.1765 21.8728 40.3223 21.8728 40.4742C21.8728 40.6262 21.8124 40.772 21.705 40.8795C21.5975 40.9869 21.4517 41.0473 21.2997 41.0473Z" fill="#3F3D56"/>
<path id="Vector_24" d="M10.461 42.7604H5.22606C5.05513 42.7602 4.89126 42.6922 4.7704 42.5714C4.64954 42.4505 4.58155 42.2866 4.58136 42.1157V35.9382C4.58155 35.7672 4.64954 35.6034 4.7704 35.4825C4.89126 35.3616 5.05513 35.2936 5.22606 35.2935H10.461C10.6319 35.2936 10.7958 35.3616 10.9166 35.4825C11.0375 35.6034 11.1055 35.7672 11.1057 35.9382V42.1157C11.1055 42.2866 11.0375 42.4505 10.9166 42.5714C10.7958 42.6922 10.6319 42.7602 10.461 42.7604Z" fill="#F9AF0B"/>
<path id="Vector_25" d="M21.2501 47.2078H5.06111C4.98577 47.2079 4.91115 47.1932 4.84151 47.1644C4.77186 47.1357 4.70857 47.0935 4.65526 47.0403C4.60194 46.987 4.55964 46.9238 4.53078 46.8542C4.50191 46.7846 4.48706 46.71 4.48706 46.6347C4.48706 46.5594 4.50191 46.4848 4.53078 46.4152C4.55964 46.3456 4.60194 46.2824 4.65526 46.2291C4.70857 46.1759 4.77186 46.1337 4.84151 46.105C4.91115 46.0762 4.98577 46.0615 5.06111 46.0616H21.2501C21.3254 46.0615 21.4001 46.0762 21.4697 46.105C21.5393 46.1337 21.6026 46.1759 21.656 46.2291C21.7093 46.2824 21.7516 46.3456 21.7804 46.4152C21.8093 46.4848 21.8241 46.5594 21.8241 46.6347C21.8241 46.71 21.8093 46.7846 21.7804 46.8542C21.7516 46.9238 21.7093 46.987 21.656 47.0403C21.6026 47.0935 21.5393 47.1357 21.4697 47.1644C21.4001 47.1932 21.3254 47.2079 21.2501 47.2078Z" fill="#F64749"/>
<path id="Vector_26" d="M21.2501 50.2163H5.06111C4.98577 50.2164 4.91115 50.2017 4.84151 50.173C4.77186 50.1442 4.70857 50.102 4.65526 50.0488C4.60194 49.9956 4.55964 49.9324 4.53078 49.8628C4.50191 49.7932 4.48706 49.7186 4.48706 49.6433C4.48706 49.5679 4.50191 49.4933 4.53078 49.4237C4.55964 49.3541 4.60194 49.2909 4.65526 49.2377C4.70857 49.1845 4.77186 49.1423 4.84151 49.1135C4.91115 49.0848 4.98577 49.0701 5.06111 49.0702H21.2501C21.3254 49.0701 21.4001 49.0848 21.4697 49.1135C21.5393 49.1423 21.6026 49.1845 21.656 49.2377C21.7093 49.2909 21.7516 49.3541 21.7804 49.4237C21.8093 49.4933 21.8241 49.5679 21.8241 49.6433C21.8241 49.7186 21.8093 49.7932 21.7804 49.8628C21.7516 49.9324 21.7093 49.9956 21.656 50.0488C21.6026 50.102 21.5393 50.1442 21.4697 50.173C21.4001 50.2017 21.3254 50.2164 21.2501 50.2163Z" fill="#F64749"/>
<path id="Vector_27" d="M21.2501 53.2249H5.06111C4.98577 53.225 4.91115 53.2103 4.84151 53.1815C4.77186 53.1528 4.70857 53.1106 4.65526 53.0574C4.60194 53.0041 4.55964 52.9409 4.53078 52.8713C4.50191 52.8017 4.48706 52.7271 4.48706 52.6518C4.48706 52.5765 4.50191 52.5019 4.53078 52.4323C4.55964 52.3627 4.60194 52.2995 4.65526 52.2462C4.70857 52.193 4.77186 52.1508 4.84151 52.1221C4.91115 52.0933 4.98577 52.0786 5.06111 52.0787H21.2501C21.3254 52.0786 21.4001 52.0933 21.4697 52.1221C21.5393 52.1508 21.6026 52.193 21.656 52.2462C21.7093 52.2995 21.7516 52.3627 21.7804 52.4323C21.8093 52.5019 21.8241 52.5765 21.8241 52.6518C21.8241 52.7271 21.8093 52.8017 21.7804 52.8713C21.7516 52.9409 21.7093 53.0041 21.656 53.0574C21.6026 53.1106 21.5393 53.1528 21.4697 53.1815C21.4001 53.2103 21.3254 53.225 21.2501 53.2249Z" fill="#F64749"/>
<path id="Vector_28" d="M21.2501 56.2335H5.06111C4.98577 56.2336 4.91115 56.2189 4.84151 56.1901C4.77186 56.1614 4.70857 56.1192 4.65526 56.066C4.60194 56.0127 4.55964 55.9495 4.53078 55.8799C4.50191 55.8103 4.48706 55.7357 4.48706 55.6604C4.48706 55.5851 4.50191 55.5105 4.53078 55.4409C4.55964 55.3713 4.60194 55.3081 4.65526 55.2548C4.70857 55.2016 4.77186 55.1594 4.84151 55.1307C4.91115 55.1019 4.98577 55.0872 5.06111 55.0873H21.2501C21.3254 55.0872 21.4001 55.1019 21.4697 55.1307C21.5393 55.1594 21.6026 55.2016 21.656 55.2548C21.7093 55.3081 21.7516 55.3713 21.7804 55.4409C21.8093 55.5105 21.8241 55.5851 21.8241 55.6604C21.8241 55.7357 21.8093 55.8103 21.7804 55.8799C21.7516 55.9495 21.7093 56.0127 21.656 56.066C21.6026 56.1192 21.5393 56.1614 21.4697 56.1901C21.4001 56.2189 21.3254 56.2336 21.2501 56.2335Z" fill="#F64749"/>
<path id="Vector_29" d="M21.2501 59.242H5.06111C4.98577 59.2421 4.91115 59.2274 4.84151 59.1987C4.77186 59.1699 4.70857 59.1277 4.65526 59.0745C4.60194 59.0213 4.55964 58.9581 4.53078 58.8885C4.50191 58.8189 4.48706 58.7443 4.48706 58.6689C4.48706 58.5936 4.50191 58.519 4.53078 58.4494C4.55964 58.3798 4.60194 58.3166 4.65526 58.2634C4.70857 58.2102 4.77186 58.168 4.84151 58.1392C4.91115 58.1105 4.98577 58.0958 5.06111 58.0959H21.2501C21.3254 58.0958 21.4001 58.1105 21.4697 58.1392C21.5393 58.168 21.6026 58.2102 21.656 58.2634C21.7093 58.3166 21.7516 58.3798 21.7804 58.4494C21.8093 58.519 21.8241 58.5936 21.8241 58.6689C21.8241 58.7443 21.8093 58.8189 21.7804 58.8885C21.7516 58.9581 21.7093 59.0213 21.656 59.0745C21.6026 59.1277 21.5393 59.1699 21.4697 59.1987C21.4001 59.2274 21.3254 59.2421 21.2501 59.242Z" fill="#F64749"/>
<path id="Vector_30" d="M34.062 81.0374V74.8599C34.0622 74.689 34.1302 74.5251 34.251 74.4042C34.3719 74.2834 34.5358 74.2154 34.7067 74.2152H39.9416C40.1125 74.2154 40.2764 74.2834 40.3973 74.4042C40.5181 74.5251 40.5861 74.689 40.5863 74.8599V81.0374C40.5861 81.2084 40.5181 81.3722 40.3973 81.4931C40.2764 81.614 40.1125 81.682 39.9416 81.6821H34.7067C34.5358 81.682 34.3719 81.614 34.251 81.4931C34.1302 81.3722 34.0622 81.2084 34.062 81.0374Z" fill="#E6E6E6"/>
<path id="Vector_31" d="M35.9478 78.9803V72.8028C35.9479 72.6318 36.0159 72.468 36.1368 72.3471C36.2577 72.2263 36.4215 72.1583 36.5924 72.1581H41.8274C41.9983 72.1583 42.1622 72.2263 42.283 72.3471C42.4039 72.468 42.4719 72.6318 42.4721 72.8028V78.9803C42.4719 79.1512 42.4039 79.3151 42.283 79.436C42.1622 79.5568 41.9983 79.6248 41.8274 79.625H36.5924C36.4215 79.6248 36.2577 79.5568 36.1368 79.436C36.0159 79.3151 35.9479 79.1512 35.9478 78.9803Z" fill="#F9AF0B"/>
<path id="Vector_32" d="M59.4144 77.0037C59.2174 76.8899 59.0478 76.7343 58.9175 76.5478C58.7872 76.3613 58.6993 76.1485 58.6601 75.9244C58.6209 75.7003 58.6313 75.4704 58.6906 75.2507C58.7499 75.0311 58.8566 74.8271 59.0033 74.6532L57.3806 62.7924L60.7608 62.9583L61.2915 74.5273C61.5673 74.793 61.7361 75.1507 61.7659 75.5326C61.7956 75.9145 61.6843 76.294 61.4529 76.5992C61.2215 76.9045 60.8862 77.1143 60.5105 77.1888C60.1348 77.2634 59.7448 77.1975 59.4144 77.0037Z" fill="#A0616A"/>
<path id="Vector_33" d="M61.2247 63.1164C61.1554 63.1979 61.0667 63.2607 60.9667 63.2988L57.929 64.4582C57.7765 64.5164 57.6074 64.514 57.4566 64.4513C57.3058 64.3887 57.1847 64.2706 57.1183 64.1214L54.4275 58.0742C54.1692 57.5133 54.1252 56.8771 54.3039 56.286C54.436 55.8641 54.6795 55.4856 55.0087 55.1905C55.3379 54.8953 55.7407 54.6945 56.1745 54.609C56.5081 54.5404 56.8526 54.5452 57.1842 54.6233C57.5815 54.7119 57.9504 54.8981 58.2576 55.1651C58.5648 55.4322 58.8006 55.7716 58.9436 56.1527L61.336 62.4767C61.3762 62.5835 61.3871 62.6992 61.3676 62.8117C61.348 62.9242 61.2987 63.0294 61.2247 63.1164Z" fill="#2F2E41"/>
<path id="Vector_34" d="M45.3955 105.953H43.2938L42.5318 97.8084L45.3959 97.8468L45.3955 105.953Z" fill="#A0616A"/>
<path id="Vector_35" d="M41.7926 105.353H45.8459V107.905H39.2406C39.2406 107.569 39.3066 107.238 39.4349 106.928C39.5631 106.618 39.7511 106.337 39.9881 106.1C40.2251 105.863 40.5064 105.675 40.816 105.547C41.1256 105.419 41.4575 105.353 41.7926 105.353Z" fill="#2F2E41"/>
<path id="Vector_36" d="M55.1669 105.953H53.0652L52.0654 97.8466L55.1673 97.8468L55.1669 105.953Z" fill="#A0616A"/>
<path id="Vector_37" d="M51.564 105.353H55.6172V107.905H49.012C49.012 107.569 49.078 107.238 49.2062 106.928C49.3345 106.618 49.5225 106.337 49.7594 106.1C49.9964 105.863 50.2777 105.675 50.5874 105.547C50.897 105.419 51.2289 105.353 51.564 105.353Z" fill="#2F2E41"/>
<path id="Vector_38" d="M55.4312 103.069L52.1304 102.825C51.9426 102.81 51.7666 102.728 51.6352 102.593C51.5038 102.459 51.4261 102.28 51.4168 102.092L50.6808 86.8815C50.6737 86.7355 50.6136 86.5972 50.5118 86.4924C50.4099 86.3876 50.2733 86.3235 50.1276 86.3123C49.9818 86.3011 49.837 86.3434 49.7203 86.4314C49.6036 86.5194 49.523 86.6469 49.4937 86.7901L46.4232 101.774C46.3852 101.959 46.2812 102.123 46.1307 102.236C45.9802 102.349 45.7936 102.403 45.606 102.388L42.6222 102.15C42.5199 102.141 42.4203 102.113 42.3292 102.066C42.2381 102.019 42.1573 101.954 42.0915 101.875C42.0257 101.796 41.9764 101.705 41.9462 101.607C41.9161 101.509 41.9059 101.406 41.9161 101.304L44.6842 73.6222C44.695 73.5141 44.7286 73.4094 44.7827 73.3151C44.8369 73.2207 44.9103 73.1389 44.9983 73.075C45.0862 73.0111 45.1867 72.9665 45.2931 72.9441C45.3995 72.9217 45.5095 72.9221 45.6157 72.9452L56.1424 75.2336C56.3168 75.2719 56.4725 75.3693 56.5833 75.5093C56.694 75.6493 56.7528 75.8233 56.7498 76.0018L56.2596 102.314C56.2557 102.516 56.173 102.708 56.0291 102.85C55.8853 102.991 55.6918 103.071 55.49 103.071C55.4705 103.071 55.4509 103.07 55.4312 103.069Z" fill="#F9AF0B"/>
<path id="Vector_39" d="M52.5435 50.4769C54.8688 50.4769 56.7539 48.5918 56.7539 46.2664C56.7539 43.9411 54.8688 42.056 52.5435 42.056C50.2181 42.056 48.333 43.9411 48.333 46.2664C48.333 48.5918 50.2181 50.4769 52.5435 50.4769Z" fill="#A0616A"/>
<path id="Vector_40" d="M46.0107 75.7569C45.6058 75.3938 45.2844 74.9474 45.0685 74.4483C44.8527 73.9491 44.7475 73.4092 44.7603 72.8655C44.7603 66.814 49.9984 53.2939 50.1627 52.872C50.1787 52.7704 50.3169 52.7265 51.042 52.2367C51.7675 51.7465 52.8137 51.6712 54.1516 52.0129C54.2876 52.0477 54.4114 52.1191 54.5097 52.2194C54.6079 52.3197 54.6767 52.445 54.7087 52.5817L54.9576 52.9413C54.9793 53.0325 55.022 53.1173 55.0824 53.189C55.1428 53.2606 55.2192 53.3171 55.3054 53.3538C56.3843 53.8083 59.8137 55.9043 58.6451 63.7924C57.5596 71.1198 57.1191 75.4291 56.9801 76.9418C56.9637 77.1213 56.8849 77.2894 56.7574 77.4167C56.6298 77.5441 56.4616 77.6227 56.2821 77.6388C55.7531 77.6861 54.8452 77.7491 53.7639 77.7491C51.2574 77.7491 47.8194 77.4109 46.0107 75.7569Z" fill="#2F2E41"/>
<path id="Vector_41" d="M40.9795 73.515C40.8794 73.3107 40.8253 73.087 40.821 72.8595C40.8166 72.632 40.8623 72.4064 40.9546 72.1985C41.0469 71.9905 41.1837 71.8054 41.3553 71.656C41.527 71.5067 41.7293 71.3968 41.9479 71.3341L47.2096 60.5812L49.9239 62.6024L43.9181 72.5046C43.9991 72.8789 43.9399 73.27 43.7519 73.6037C43.5638 73.9374 43.2598 74.1905 42.8976 74.315C42.5354 74.4396 42.1401 74.4269 41.7866 74.2795C41.433 74.132 41.1459 73.86 40.9795 73.515Z" fill="#A0616A"/>
<path id="Vector_42" d="M50.2211 62.9921C50.1181 63.0213 50.0094 63.0239 49.9051 62.9999L46.7368 62.2699C46.5776 62.2333 46.4386 62.137 46.3483 62.0009C46.258 61.8649 46.2233 61.6994 46.2513 61.5385L47.3866 55.0178C47.4846 54.408 47.8026 53.8553 48.2803 53.464C48.6252 53.1873 49.0383 53.0087 49.4761 52.9471C49.9139 52.8855 50.3602 52.9431 50.768 53.1139C51.0833 53.2427 51.3667 53.4388 51.5985 53.6883C51.879 53.9833 52.0816 54.3435 52.1879 54.7364C52.2942 55.1293 52.3008 55.5425 52.2072 55.9387L50.67 62.523C50.6438 62.6342 50.5884 62.7363 50.5095 62.8188C50.4305 62.9013 50.331 62.9611 50.2211 62.9921Z" fill="#2F2E41"/>
<path id="Vector_43" d="M51.5577 50.0707C51.3528 49.8616 51.2015 49.6061 51.1167 49.3259C51.032 49.0457 51.0163 48.7491 51.071 48.4615C51.2178 47.6936 51.304 47.1912 51.3203 47.0084C51.3762 46.3831 50.7441 45.8769 50.1186 45.7963C50.0944 45.7931 50.0741 45.791 50.0571 45.7897C50.0731 45.8053 50.0902 45.8213 50.1052 45.8354C50.224 45.947 50.3719 46.086 50.3368 46.2293C50.3156 46.3156 50.2367 46.3769 50.0956 46.4163C49.1174 46.6901 48.364 46.4388 47.7246 45.625C47.5449 45.3937 47.4214 45.1239 47.3638 44.8367C47.1348 43.713 47.745 42.7551 48.2973 42.1495C48.7528 41.6502 49.4911 41.044 50.4221 40.992C51.1461 40.9516 52.007 41.3682 52.2647 42.119C52.3862 41.9389 52.5481 41.7895 52.7374 41.6828C52.9266 41.5761 53.1382 41.515 53.3552 41.5043C53.8495 41.4935 54.336 41.6289 54.7538 41.8932C56.7954 43.0627 57.6727 45.8485 56.6698 47.9768C56.0389 49.3156 54.6719 50.3122 53.1024 50.5778C53.0042 50.5945 52.9047 50.6029 52.805 50.6029C52.572 50.6025 52.3415 50.5552 52.1272 50.4638C51.9128 50.3723 51.7192 50.2386 51.5577 50.0707Z" fill="#2F2E41"/>
<path id="Vector_44" d="M31.8135 108H65.2421C65.2876 108 65.3312 107.982 65.3633 107.95C65.3955 107.918 65.4135 107.874 65.4135 107.829C65.4135 107.783 65.3955 107.74 65.3633 107.707C65.3312 107.675 65.2876 107.657 65.2421 107.657H31.8135C31.7681 107.657 31.7244 107.675 31.6923 107.707C31.6601 107.74 31.6421 107.783 31.6421 107.829C31.6421 107.874 31.6601 107.918 31.6923 107.95C31.7244 107.982 31.7681 108 31.8135 108Z" fill="#3F3D56"/>
</g>
<defs>
<clipPath id="clip0_0_1102">
<rect width="103.131" height="108" fill="white"/>
</clipPath>
</defs>
</svg>
