<svg width="158" height="70" viewBox="0 0 158 70" fill="none" xmlns="http://www.w3.org/2000/svg">
<g id="Research 1" clip-path="url(#clip0_0_1147)">
<path id="Vector" d="M67.1203 44.7205H3.24771C2.38666 44.7195 1.56116 44.3771 0.952301 43.7682C0.343446 43.1593 0.000966471 42.3338 0 41.4728V2.47324C0.000725761 1.81754 0.26152 1.18889 0.725167 0.725229C1.18881 0.261565 1.81745 0.000748567 2.47316 0H67.8581C68.5235 0.000749495 69.1615 0.265431 69.632 0.735973C70.1026 1.20652 70.3672 1.84449 70.368 2.50993V41.4728C70.367 42.3338 70.0245 43.1593 69.4157 43.7682C68.8068 44.3771 67.9813 44.7195 67.1203 44.7205Z" fill="white"/>
<path id="Vector_2" d="M67.1203 44.7205H3.24771C2.38666 44.7195 1.56116 44.3771 0.952301 43.7682C0.343446 43.1593 0.000966471 42.3338 0 41.4728V2.47324C0.000725761 1.81754 0.26152 1.18889 0.725167 0.725229C1.18881 0.261565 1.81745 0.000748567 2.47316 0H67.8581C68.5235 0.000749495 69.1615 0.265431 69.632 0.735973C70.1026 1.20652 70.3672 1.84449 70.368 2.50993V41.4728C70.367 42.3338 70.0245 43.1593 69.4157 43.7682C68.8068 44.3771 67.9813 44.7195 67.1203 44.7205ZM2.47316 0.702208C2.00363 0.702757 1.55349 0.889529 1.22148 1.22155C0.889483 1.55356 0.702734 2.00371 0.702208 2.47324V41.4728C0.702976 42.1477 0.971409 42.7947 1.44862 43.2719C1.92583 43.7491 2.57284 44.0175 3.24771 44.0183H67.1203C67.7951 44.0175 68.4422 43.7491 68.9194 43.2719C69.3966 42.7947 69.665 42.1477 69.6658 41.4728V2.50993C69.6653 2.03066 69.4746 1.57117 69.1357 1.23227C68.7969 0.893373 68.3374 0.702745 67.8581 0.702208H2.47316Z" fill="#E6E6E6"/>
<path id="Vector_3" d="M29.1612 34.8464H10.0225C9.55429 34.8457 9.10219 34.6751 8.75013 34.3664C8.39807 34.0577 8.16997 33.6317 8.10814 33.1676C8.09651 33.084 8.09094 32.9997 8.09146 32.9153V11.8052C8.09204 11.2932 8.29568 10.8023 8.6577 10.4403C9.01972 10.0783 9.51056 9.87466 10.0225 9.87408H29.1612C29.6732 9.87466 30.164 10.0783 30.5261 10.4403C30.8881 10.8023 31.0917 11.2932 31.0923 11.8052V32.9153C31.0917 33.4273 30.8881 33.9181 30.5261 34.2801C30.164 34.6421 29.6732 34.8458 29.1612 34.8464ZM10.0225 10.9274C9.78982 10.9277 9.56672 11.0202 9.40216 11.1848C9.23761 11.3493 9.14504 11.5724 9.14478 11.8052V32.9153C9.1444 32.9514 9.14663 32.9874 9.15146 33.0232C9.17834 33.2355 9.28158 33.4307 9.44188 33.5723C9.60219 33.714 9.8086 33.7925 10.0225 33.7931H29.1612C29.3939 33.7928 29.617 33.7002 29.7816 33.5357C29.9461 33.3711 30.0387 33.148 30.039 32.9153V11.8052C30.0387 11.5724 29.9461 11.3493 29.7816 11.1848C29.617 11.0202 29.3939 10.9277 29.1612 10.9274H10.0225Z" fill="#E6E6E6"/>
<path id="Vector_4" d="M60.8721 27.9823H37.6992C37.3267 27.9823 36.9695 27.8343 36.7061 27.571C36.4428 27.3076 36.2948 26.9504 36.2948 26.5779C36.2948 26.2054 36.4428 25.8482 36.7061 25.5848C36.9695 25.3214 37.3267 25.1735 37.6992 25.1735H60.8721C61.2446 25.1735 61.6018 25.3214 61.8652 25.5848C62.1285 25.8482 62.2765 26.2054 62.2765 26.5779C62.2765 26.9504 62.1285 27.3076 61.8652 27.571C61.6018 27.8343 61.2446 27.9823 60.8721 27.9823Z" fill="#E6E6E6"/>
<path id="Vector_5" d="M50.339 22.0135H37.6992C37.3267 22.0135 36.9695 21.8655 36.7061 21.6021C36.4428 21.3388 36.2948 20.9815 36.2948 20.6091C36.2948 20.2366 36.4428 19.8794 36.7061 19.616C36.9695 19.3526 37.3267 19.2047 37.6992 19.2047H50.339C50.7114 19.2047 51.0687 19.3526 51.332 19.616C51.5954 19.8794 51.7434 20.2366 51.7434 20.6091C51.7434 20.9815 51.5954 21.3388 51.332 21.6021C51.0687 21.8655 50.7114 22.0135 50.339 22.0135Z" fill="#F64749"/>
<path id="Vector_6" d="M25.9023 21.78C25.9023 24.8826 23.0335 24.4133 19.4947 24.4133C15.9558 24.4133 13.087 24.8826 13.087 21.78C13.087 18.6775 14.4884 13.178 19.4947 13.178C24.6735 13.178 25.9023 18.6775 25.9023 21.78Z" fill="#2F2E41"/>
<path id="Vector_7" d="M26.1614 27.0016C26.0378 26.6449 25.7914 26.3437 25.4663 26.1519C25.4035 26.1134 25.3377 26.0799 25.2696 26.0519C24.9844 25.9333 24.6709 25.9004 24.3673 25.9571C24.0637 26.0139 23.7832 26.1578 23.5601 26.3714C23.337 26.585 23.181 26.859 23.1111 27.1599C23.0412 27.4607 23.0604 27.7754 23.1665 28.0655L25.719 33.8675H29.0809L26.1614 27.0016Z" fill="#FB7C25"/>
<path id="Vector_8" d="M15.0227 27.3176C14.8209 27.2202 14.6009 27.1664 14.3769 27.16C14.1529 27.1535 13.9301 27.1945 13.723 27.2802C13.516 27.3659 13.3294 27.4944 13.1755 27.6572C13.0216 27.8201 12.9039 28.0137 12.8301 28.2253L10.4531 33.8166C10.5748 33.8506 10.7007 33.8677 10.827 33.8675H13.8097L15.8249 29.2891C15.9594 28.9195 15.9517 28.5131 15.8035 28.1489C15.6553 27.7846 15.377 27.4884 15.0227 27.3176Z" fill="#FB7C25"/>
<path id="Vector_9" d="M19.4732 24.4081C21.8545 24.4081 23.785 22.4777 23.785 20.0964C23.785 17.7151 21.8545 15.7847 19.4732 15.7847C17.0919 15.7847 15.1615 17.7151 15.1615 20.0964C15.1615 22.4777 17.0919 24.4081 19.4732 24.4081Z" fill="#FFB8B8"/>
<path id="Vector_10" d="M25.5418 26.2204C25.5173 26.1976 25.4927 26.173 25.4663 26.152C25.1658 25.881 24.81 25.6783 24.4236 25.558C24.0372 25.4377 23.6293 25.4026 23.2281 25.455L15.2825 26.4609C14.5547 26.551 13.8905 26.921 13.431 27.4926C12.9715 28.0642 12.7528 28.7924 12.8213 29.5226C12.9301 30.7479 13.1057 32.2945 13.3866 33.8675H25.9386L26.4003 28.5026C26.4374 28.0822 26.3795 27.6588 26.2309 27.2637C26.0823 26.8687 25.8468 26.5121 25.5418 26.2204Z" fill="#FB7C25"/>
<path id="Vector_11" d="M14.4915 19.6734H16.1968L16.9492 17.5668L17.0996 19.6734H17.9147L18.3536 18.4446L18.4414 19.6734H24.4979C24.4979 18.4629 24.017 17.3019 23.1611 16.4459C22.3051 15.59 21.1441 15.1091 19.9336 15.1091H19.0558C17.8453 15.1091 16.6843 15.59 15.8283 16.4459C14.9723 17.3019 14.4915 18.4629 14.4915 19.6734Z" fill="#2F2E41"/>
<path id="Vector_12" d="M87.2949 41.4728V2.50993C87.2957 1.84449 87.5603 1.20652 88.0309 0.735973C88.5014 0.265431 89.1394 0.000749495 89.8048 0H155.19C155.845 0.000748567 156.474 0.261565 156.938 0.725229C157.401 1.18889 157.662 1.81754 157.663 2.47324V41.4728C157.662 42.3338 157.319 43.1593 156.711 43.7682C156.102 44.3771 155.276 44.7195 154.415 44.7205H90.5426C89.6816 44.7195 88.8561 44.3771 88.2472 43.7682C87.6384 43.1593 87.2959 42.3338 87.2949 41.4728Z" fill="white"/>
<path id="Vector_13" d="M87.2949 41.4728V2.50993C87.2957 1.84449 87.5603 1.20652 88.0309 0.735973C88.5014 0.265431 89.1394 0.000749495 89.8048 0H155.19C155.845 0.000748567 156.474 0.261565 156.938 0.725229C157.401 1.18889 157.662 1.81754 157.663 2.47324V41.4728C157.662 42.3338 157.319 43.1593 156.711 43.7682C156.102 44.3771 155.276 44.7195 154.415 44.7205H90.5426C89.6816 44.7195 88.8561 44.3771 88.2472 43.7682C87.6384 43.1593 87.2959 42.3338 87.2949 41.4728ZM89.8048 0.702208C89.3255 0.702745 88.8661 0.893373 88.5272 1.23227C88.1883 1.57117 87.9977 2.03066 87.9971 2.50993V41.4728C87.9979 42.1477 88.2663 42.7947 88.7435 43.2719C89.2207 43.7491 89.8678 44.0175 90.5426 44.0183H154.415C155.09 44.0175 155.737 43.7491 156.214 43.2719C156.691 42.7947 156.96 42.1477 156.961 41.4728V2.47324C156.96 2.00371 156.773 1.55356 156.441 1.22155C156.109 0.889529 155.659 0.702757 155.19 0.702208H89.8048Z" fill="#E6E6E6"/>
<path id="Vector_14" d="M126.571 32.9153V11.8052C126.571 11.2932 126.775 10.8023 127.137 10.4403C127.499 10.0783 127.99 9.87466 128.502 9.87408H147.64C148.152 9.87466 148.643 10.0783 149.005 10.4403C149.367 10.8023 149.571 11.2932 149.572 11.8052V32.9153C149.572 32.9997 149.566 33.084 149.555 33.1676C149.493 33.6317 149.265 34.0577 148.913 34.3664C148.561 34.6751 148.109 34.8457 147.64 34.8464H128.502C127.99 34.8458 127.499 34.6421 127.137 34.2801C126.775 33.9181 126.571 33.4273 126.571 32.9153ZM128.502 10.9274C128.269 10.9277 128.046 11.0202 127.881 11.1848C127.717 11.3493 127.624 11.5724 127.624 11.8052V32.9153C127.624 33.148 127.717 33.3711 127.881 33.5357C128.046 33.7002 128.269 33.7928 128.502 33.7931H147.64C147.854 33.7925 148.061 33.714 148.221 33.5723C148.381 33.4307 148.485 33.2355 148.512 33.0232C148.516 32.9874 148.519 32.9514 148.518 32.9153V11.8052C148.518 11.5724 148.425 11.3493 148.261 11.1848C148.096 11.0202 147.873 10.9277 147.64 10.9274H128.502Z" fill="#E6E6E6"/>
<path id="Vector_15" d="M95.3864 26.5779C95.3868 26.2055 95.5349 25.8486 95.7982 25.5853C96.0615 25.322 96.4184 25.1739 96.7908 25.1735H119.964C120.336 25.1735 120.693 25.3214 120.957 25.5848C121.22 25.8482 121.368 26.2054 121.368 26.5779C121.368 26.9504 121.22 27.3076 120.957 27.571C120.693 27.8343 120.336 27.9823 119.964 27.9823H96.7908C96.4184 27.9819 96.0615 27.8338 95.7982 27.5705C95.5349 27.3072 95.3868 26.9502 95.3864 26.5779Z" fill="#E6E6E6"/>
<path id="Vector_16" d="M95.3864 20.6091C95.3868 20.2367 95.5349 19.8798 95.7982 19.6165C96.0615 19.3532 96.4184 19.2051 96.7908 19.2047H109.431C109.803 19.2047 110.16 19.3526 110.424 19.616C110.687 19.8794 110.835 20.2366 110.835 20.6091C110.835 20.9815 110.687 21.3388 110.424 21.6021C110.16 21.8655 109.803 22.0135 109.431 22.0135H96.7908C96.4184 22.0131 96.0615 21.865 95.7982 21.6017C95.5349 21.3384 95.3868 20.9814 95.3864 20.6091Z" fill="#F64749"/>
<path id="Vector_17" d="M133.341 18.0776C134.572 20.4974 135.542 22.9931 138.257 22.9931C139.56 22.9931 140.811 22.4752 141.733 21.5534C142.654 20.6316 143.172 19.3813 143.172 18.0776C143.172 16.774 142.654 15.5237 141.733 14.6019C140.811 13.6801 139.56 13.1622 138.257 13.1622C135.498 13.1276 131.051 13.5738 133.341 18.0776Z" fill="#2F2E41"/>
<path id="Vector_18" d="M138.015 23.0888C140.396 23.0888 142.327 21.1584 142.327 18.7771C142.327 16.3958 140.396 14.4653 138.015 14.4653C135.634 14.4653 133.703 16.3958 133.703 18.7771C133.703 21.1584 135.634 23.0888 138.015 23.0888Z" fill="#A0616A"/>
<path id="Vector_19" d="M143.902 26.6365C143.624 26.3337 143.321 26.0542 142.997 25.8009C141.582 24.6916 139.808 24.1417 138.013 24.256C137.942 24.2595 137.87 24.2648 137.798 24.2718C136.758 24.3549 135.748 24.6584 134.836 25.1621C133.923 25.6657 133.127 26.3581 132.503 27.193C131.869 28.0407 131.423 29.014 131.195 30.0479C130.968 31.0818 130.963 32.1524 131.183 33.1881C131.23 33.4076 131.272 33.6287 131.313 33.8499H145.606L145.771 32.744C145.936 31.6509 145.854 30.5348 145.53 29.4778C145.207 28.4208 144.65 27.4499 143.902 26.6365Z" fill="#FB7C25"/>
<path id="Vector_20" d="M146.091 27.7898C145.99 27.213 145.69 26.6897 145.243 26.3112C144.796 25.9327 144.231 25.7229 143.645 25.7183C143.622 25.7183 143.598 25.7201 143.575 25.7201C143.38 25.7245 143.186 25.7516 142.998 25.8008C142.68 25.8851 142.383 26.0313 142.122 26.2309C141.862 26.4305 141.643 26.6796 141.479 26.9639C141.315 27.2482 141.208 27.5621 141.166 27.8876C141.124 28.2131 141.146 28.5438 141.231 28.8607L142.581 33.8499H147.125L146.091 27.7898Z" fill="#FB7C25"/>
<path id="Vector_21" d="M136.093 26.482C135.922 26.1457 135.676 25.8527 135.375 25.6253C135.162 25.4642 134.923 25.3396 134.669 25.2566C134.565 25.2211 134.459 25.193 134.351 25.1724C133.764 25.0612 133.157 25.1637 132.638 25.4611C132.12 25.7585 131.725 26.2314 131.525 26.7945L129.053 33.8499H133.744L136.137 28.6606C136.296 28.3182 136.375 27.9438 136.368 27.5662C136.36 27.1885 136.266 26.8177 136.093 26.482Z" fill="#FB7C25"/>
<path id="Vector_22" d="M133.439 16.3403C134.425 17.0194 135.594 17.3808 136.791 17.376C136.364 17.672 135.878 17.8719 135.367 17.962C136.958 18.3033 138.602 18.3125 140.197 17.9892C140.551 17.9323 140.893 17.8148 141.208 17.6419C141.365 17.5543 141.501 17.4347 141.609 17.2909C141.716 17.1471 141.792 16.9823 141.832 16.8072C141.938 16.2018 141.466 15.6518 140.976 15.2811C140.225 14.7222 139.36 14.3372 138.442 14.1538C137.525 13.9704 136.578 13.9933 135.67 14.2208C135.077 14.374 134.483 14.6329 134.098 15.1089C133.714 15.5849 133.599 16.3187 133.966 16.8088L133.439 16.3403Z" fill="#2F2E41"/>
<path id="Vector_23" d="M110.768 70H46.8952C46.0341 69.999 45.2086 69.6565 44.5998 69.0477C43.9909 68.4388 43.6484 67.6133 43.6475 66.7523V27.7527C43.6482 27.097 43.909 26.4684 44.3726 26.0047C44.8363 25.541 45.4649 25.2802 46.1206 25.2795H111.506C112.171 25.2802 112.809 25.5449 113.28 26.0155C113.75 26.486 114.015 27.124 114.015 27.7894V66.7523C114.014 67.6133 113.672 68.4388 113.063 69.0477C112.454 69.6565 111.629 69.999 110.768 70Z" fill="white"/>
<path id="Vector_24" d="M110.768 70H46.8952C46.0341 69.999 45.2086 69.6565 44.5998 69.0477C43.9909 68.4388 43.6484 67.6133 43.6475 66.7523V27.7527C43.6482 27.097 43.909 26.4684 44.3726 26.0047C44.8363 25.541 45.4649 25.2802 46.1206 25.2795H111.506C112.171 25.2802 112.809 25.5449 113.28 26.0155C113.75 26.486 114.015 27.124 114.015 27.7894V66.7523C114.014 67.6133 113.672 68.4388 113.063 69.0477C112.454 69.6565 111.629 69.999 110.768 70ZM46.1206 25.9817C45.6511 25.9822 45.2009 26.169 44.8689 26.501C44.5369 26.833 44.3502 27.2832 44.3497 27.7527V66.7523C44.3504 67.4271 44.6189 68.0742 45.0961 68.5514C45.5733 69.0286 46.2203 69.297 46.8952 69.2978H110.768C111.443 69.297 112.09 69.0286 112.567 68.5514C113.044 68.0742 113.312 67.4271 113.313 66.7523V27.7894C113.313 27.3101 113.122 26.8507 112.783 26.5118C112.444 26.1729 111.985 25.9822 111.506 25.9817H46.1206Z" fill="#F64749"/>
<path id="Vector_25" d="M72.8087 60.1258H53.67C53.2017 60.1252 52.7496 59.9546 52.3976 59.6459C52.0455 59.3372 51.8174 58.9112 51.7556 58.447C51.744 58.3635 51.7384 58.2792 51.7389 58.1948V37.0846C51.7395 36.5727 51.9431 36.0818 52.3052 35.7198C52.6672 35.3578 53.158 35.1541 53.67 35.1536H72.8087C73.3207 35.1541 73.8115 35.3578 74.1735 35.7198C74.5355 36.0818 74.7392 36.5727 74.7398 37.0846V58.1948C74.7392 58.7067 74.5355 59.1976 74.1735 59.5596C73.8115 59.9216 73.3207 60.1253 72.8087 60.1258ZM53.67 36.2069C53.4373 36.2071 53.2142 36.2997 53.0496 36.4643C52.8851 36.6288 52.7925 36.8519 52.7922 37.0846V58.1948C52.7919 58.2309 52.7941 58.2669 52.7989 58.3027C52.8258 58.5149 52.929 58.7101 53.0893 58.8518C53.2497 58.9935 53.4561 59.072 53.67 59.0725H72.8087C73.0414 59.0723 73.2645 58.9797 73.4291 58.8151C73.5936 58.6506 73.6862 58.4275 73.6864 58.1948V37.0846C73.6862 36.8519 73.5936 36.6288 73.4291 36.4643C73.2645 36.2997 73.0414 36.2071 72.8087 36.2069H53.67Z" fill="#E6E6E6"/>
<path id="Vector_26" d="M62.9615 39.0129C61.7156 38.4333 60.1859 38.2433 58.9182 38.7819C57.6505 39.3204 56.7862 40.7009 57.1961 41.9226C57.382 42.4765 57.8053 43.0213 57.6404 43.5807C57.5134 44.0113 57.0706 44.2956 56.6357 44.4978C56.2009 44.6999 55.7252 44.8698 55.4107 45.2108C55.0962 45.5517 55.0306 46.1386 55.4235 46.403C55.5529 46.4901 55.7147 46.5314 55.8402 46.6232C55.9471 46.7101 56.0243 46.8282 56.061 46.9611C56.0976 47.094 56.0919 47.235 56.0446 47.3644C55.94 47.6249 55.7671 47.8524 55.5441 48.0229C55.0981 48.4075 54.5087 48.8477 54.6472 49.3937C54.6985 49.5396 54.7844 49.671 54.8974 49.7767C55.0103 49.8824 55.1472 49.9592 55.2962 50.0007C55.6057 50.09 55.9268 50.1324 56.2489 50.1265L69.4093 50.5411C69.8438 50.5737 70.2806 50.5493 70.7087 50.4685C70.9168 50.4305 71.1148 50.35 71.2904 50.2321C71.466 50.1141 71.6154 49.9612 71.7292 49.7829C71.9812 49.3165 71.8158 48.7418 71.5045 48.3062C71.1933 47.8706 70.7528 47.527 70.3889 47.127C70.0249 46.727 69.7271 46.2277 69.7913 45.7108C69.8426 45.2969 70.1155 44.9393 70.3115 44.5633C70.5074 44.1872 70.6212 43.7174 70.3674 43.3714C70.0099 42.884 69.1514 42.9281 68.7448 42.4739C68.438 42.1311 68.4973 41.6376 68.4668 41.1956C68.3934 40.1324 67.6573 39.1282 66.6094 38.662C66.0765 38.4332 65.4969 38.3345 64.9184 38.3739C64.3399 38.4133 63.779 38.5897 63.2821 38.8886L62.9615 39.0129Z" fill="#2F2E41"/>
<path id="Vector_27" d="M63.4483 50.4391C65.8296 50.4391 67.7601 48.5087 67.7601 46.1273C67.7601 43.746 65.8296 41.8156 63.4483 41.8156C61.067 41.8156 59.1366 43.746 59.1366 46.1273C59.1366 48.5087 61.067 50.4391 63.4483 50.4391Z" fill="#A0616A"/>
<path id="Vector_28" d="M69.1093 56.0074C69.105 55.2517 68.8957 54.5112 68.5037 53.8651C68.1117 53.2189 67.5516 52.6913 66.8833 52.3384C66.829 52.3085 66.7727 52.2822 66.7166 52.2559C66.2314 52.0259 65.7061 51.8923 65.17 51.8626L61.0656 51.6327C60.4859 51.5996 59.9057 51.6887 59.3627 51.8942C59.2305 51.9435 59.101 51.9997 58.9747 52.0628C58.578 52.2582 58.2153 52.516 57.9003 52.8264C57.4855 53.2359 57.161 53.7276 56.9475 54.27C56.7341 54.8124 56.6364 55.3934 56.6609 55.9758L56.7347 57.7155L57.2508 59.055H68.7266C68.8689 58.8825 68.9925 58.6954 69.0953 58.4967C69.2898 58.1111 69.3924 57.6856 69.3948 57.2537C69.3972 56.8218 69.2995 56.3952 69.1093 56.0074Z" fill="#FB7C25"/>
<path id="Vector_29" d="M68.8284 53.7006C68.6411 53.2943 68.3476 52.9462 67.9787 52.693C67.7126 52.5106 67.414 52.3807 67.0992 52.3103C66.9732 52.2826 66.8453 52.2644 66.7165 52.2558C66.4631 52.2386 66.2084 52.2605 65.9616 52.3208C65.5931 52.4125 65.2503 52.5867 64.959 52.8303C64.6677 53.0739 64.4356 53.3805 64.2802 53.727C64.1248 54.0735 64.0502 54.4507 64.062 54.8303C64.0738 55.2098 64.1717 55.5817 64.3483 55.9178L65.9266 58.9057L66.0055 59.055H71.3055L68.8284 53.7006Z" fill="#FB7C25"/>
<path id="Vector_30" d="M60.1544 52.1435C59.9061 52.0172 59.6385 51.9329 59.3627 51.8942C59.1573 51.8649 58.9491 51.862 58.743 51.8854C58.2185 51.9448 57.7263 52.1684 57.3365 52.5244C56.9468 52.8804 56.6796 53.3504 56.5731 53.8674L55.504 59.055H59.6856L60.4669 58.7355L61.4394 55.0032C61.5809 54.4515 61.5308 53.868 61.2973 53.3485C61.0639 52.8289 60.6609 52.4041 60.1544 52.1435Z" fill="#FB7C25"/>
<path id="Vector_31" d="M59.0373 45.5144C60.399 45.405 61.5295 44.0448 61.3879 42.6861C61.372 43.2461 61.5624 43.7924 61.9231 44.2212C62.2837 44.6499 62.7893 44.9312 63.3438 45.0114C63.9684 45.0802 64.6531 44.8912 65.1968 45.2063C65.7989 45.5553 65.9916 46.4029 66.6189 46.7043C67.225 46.9955 67.9949 46.5983 68.2943 45.9962C68.5937 45.3941 68.5203 44.6708 68.3218 44.0283C68.0388 43.112 67.5235 42.2846 66.826 41.6265C66.1284 40.9684 65.2725 40.502 64.3413 40.2727C63.4102 40.0434 62.4355 40.059 61.5122 40.3179C60.5888 40.5769 59.7482 41.0704 59.0721 41.7505C58.4995 42.3264 58.0449 43.0604 57.9712 43.8691C57.8974 44.6778 58.2726 45.5553 58.9989 45.9186L59.0373 45.5144Z" fill="#2F2E41"/>
<path id="Vector_32" d="M104.52 53.2618H81.3467C80.9742 53.2618 80.617 53.1138 80.3536 52.8504C80.0902 52.5871 79.9423 52.2298 79.9423 51.8574C79.9423 51.4849 80.0902 51.1277 80.3536 50.8643C80.617 50.6009 80.9742 50.4529 81.3467 50.4529H104.52C104.892 50.4529 105.249 50.6009 105.513 50.8643C105.776 51.1277 105.924 51.4849 105.924 51.8574C105.924 52.2298 105.776 52.5871 105.513 52.8504C105.249 53.1138 104.892 53.2618 104.52 53.2618Z" fill="#E6E6E6"/>
<path id="Vector_33" d="M93.9864 47.293H81.3467C80.9742 47.293 80.617 47.1451 80.3536 46.8817C80.0902 46.6183 79.9423 46.2611 79.9423 45.8886C79.9423 45.5161 80.0902 45.1589 80.3536 44.8955C80.617 44.6322 80.9742 44.4842 81.3467 44.4842H93.9864C94.3589 44.4842 94.7161 44.6322 94.9795 44.8955C95.2429 45.1589 95.3908 45.5161 95.3908 45.8886C95.3908 46.2611 95.2429 46.6183 94.9795 46.8817C94.7161 47.1451 94.3589 47.293 93.9864 47.293Z" fill="#F64749"/>
<path id="Vector_34" d="M100.769 57.5494C99.5419 57.5517 98.3662 58.0406 97.4997 58.9087C96.6331 59.7769 96.1464 60.9535 96.1464 62.1801C96.1464 63.4068 96.6331 64.5833 97.4996 65.4515C98.3662 66.3197 99.5418 66.8086 100.768 66.8108C101.995 66.8086 103.171 66.3197 104.037 65.4515C104.904 64.5833 105.391 63.4068 105.391 62.1801C105.391 60.9535 104.904 59.7769 104.037 58.9088C103.171 58.0406 101.995 57.5517 100.769 57.5494Z" fill="#F64749"/>
<path id="Path 395" d="M100.329 64.1033C100.207 64.1035 100.089 64.0641 99.9911 63.9909L99.985 63.9864L98.7116 63.0123C98.5927 62.9209 98.515 62.786 98.4954 62.6373C98.4759 62.4887 98.5162 62.3383 98.6074 62.2193C98.6986 62.1003 98.8334 62.0224 98.982 62.0026C99.1307 61.9829 99.2811 62.023 99.4002 62.114L100.225 62.7465L102.174 60.2037C102.219 60.1447 102.276 60.0953 102.34 60.0581C102.404 60.0209 102.475 59.9968 102.549 59.987C102.623 59.9773 102.698 59.9822 102.769 60.0014C102.841 60.0206 102.908 60.0537 102.967 60.0989L102.967 60.0991L102.955 60.1159L102.968 60.0991C103.087 60.1905 103.165 60.3253 103.184 60.474C103.204 60.6228 103.164 60.7732 103.072 60.8923L100.78 63.8819C100.727 63.9508 100.659 64.0066 100.581 64.0448C100.502 64.0831 100.417 64.1029 100.33 64.1026L100.329 64.1033Z" fill="white"/>
</g>
<defs>
<clipPath id="clip0_0_1147">
<rect width="157.663" height="70" fill="white"/>
</clipPath>
</defs>
</svg>
