<svg width="159" height="108" viewBox="0 0 159 108" fill="none" xmlns="http://www.w3.org/2000/svg">
<g id="Strategy 1" clip-path="url(#clip0_0_1015)">
<path id="Vector" d="M35.9929 2.80655C36.7679 2.80655 37.3962 2.17828 37.3962 1.40327C37.3962 0.628267 36.7679 0 35.9929 0C35.2179 0 34.5896 0.628267 34.5896 1.40327C34.5896 2.17828 35.2179 2.80655 35.9929 2.80655Z" fill="#F64749"/>
<path id="Vector_2" d="M43.0962 2.80655C43.8712 2.80655 44.4995 2.17828 44.4995 1.40327C44.4995 0.628267 43.8712 0 43.0962 0C42.3212 0 41.6929 0.628267 41.6929 1.40327C41.6929 2.17828 42.3212 2.80655 43.0962 2.80655Z" fill="#F64749"/>
<path id="Vector_3" d="M50.1996 2.80655C50.9746 2.80655 51.6029 2.17828 51.6029 1.40327C51.6029 0.628267 50.9746 0 50.1996 0C49.4246 0 48.7963 0.628267 48.7963 1.40327C48.7963 2.17828 49.4246 2.80655 50.1996 2.80655Z" fill="#F64749"/>
<path id="Vector_4" d="M57.3029 2.80655C58.0779 2.80655 58.7062 2.17828 58.7062 1.40327C58.7062 0.628267 58.0779 0 57.3029 0C56.5279 0 55.8997 0.628267 55.8997 1.40327C55.8997 2.17828 56.5279 2.80655 57.3029 2.80655Z" fill="#F64749"/>
<path id="Vector_5" d="M64.4063 2.80655C65.1813 2.80655 65.8095 2.17828 65.8095 1.40327C65.8095 0.628267 65.1813 0 64.4063 0C63.6313 0 63.003 0.628267 63.003 1.40327C63.003 2.17828 63.6313 2.80655 64.4063 2.80655Z" fill="#F64749"/>
<path id="Vector_6" d="M35.9929 9.99905C36.7679 9.99905 37.3962 9.37079 37.3962 8.59578C37.3962 7.82077 36.7679 7.1925 35.9929 7.1925C35.2179 7.1925 34.5896 7.82077 34.5896 8.59578C34.5896 9.37079 35.2179 9.99905 35.9929 9.99905Z" fill="#F64749"/>
<path id="Vector_7" d="M43.0962 9.99905C43.8712 9.99905 44.4995 9.37079 44.4995 8.59578C44.4995 7.82077 43.8712 7.1925 43.0962 7.1925C42.3212 7.1925 41.6929 7.82077 41.6929 8.59578C41.6929 9.37079 42.3212 9.99905 43.0962 9.99905Z" fill="#F64749"/>
<path id="Vector_8" d="M50.1996 9.99905C50.9746 9.99905 51.6029 9.37079 51.6029 8.59578C51.6029 7.82077 50.9746 7.1925 50.1996 7.1925C49.4246 7.1925 48.7963 7.82077 48.7963 8.59578C48.7963 9.37079 49.4246 9.99905 50.1996 9.99905Z" fill="#F64749"/>
<path id="Vector_9" d="M57.3029 9.99905C58.0779 9.99905 58.7062 9.37079 58.7062 8.59578C58.7062 7.82077 58.0779 7.1925 57.3029 7.1925C56.5279 7.1925 55.8997 7.82077 55.8997 8.59578C55.8997 9.37079 56.5279 9.99905 57.3029 9.99905Z" fill="#33D4EF"/>
<path id="Vector_10" d="M64.4063 9.99905C65.1813 9.99905 65.8095 9.37079 65.8095 8.59578C65.8095 7.82077 65.1813 7.1925 64.4063 7.1925C63.6313 7.1925 63.003 7.82077 63.003 8.59578C63.003 9.37079 63.6313 9.99905 64.4063 9.99905Z" fill="#F64749"/>
<path id="Vector_11" d="M78.613 9.99905C79.388 9.99905 80.0163 9.37079 80.0163 8.59578C80.0163 7.82077 79.388 7.1925 78.613 7.1925C77.838 7.1925 77.2097 7.82077 77.2097 8.59578C77.2097 9.37079 77.838 9.99905 78.613 9.99905Z" fill="#F64749"/>
<path id="Vector_12" d="M35.9929 17.1916C36.7679 17.1916 37.3962 16.5633 37.3962 15.7883C37.3962 15.0133 36.7679 14.385 35.9929 14.385C35.2179 14.385 34.5896 15.0133 34.5896 15.7883C34.5896 16.5633 35.2179 17.1916 35.9929 17.1916Z" fill="#F64749"/>
<path id="Vector_13" d="M43.0962 17.1916C43.8712 17.1916 44.4995 16.5633 44.4995 15.7883C44.4995 15.0133 43.8712 14.385 43.0962 14.385C42.3212 14.385 41.6929 15.0133 41.6929 15.7883C41.6929 16.5633 42.3212 17.1916 43.0962 17.1916Z" fill="#F64749"/>
<path id="Vector_14" d="M50.1996 17.1916C50.9746 17.1916 51.6029 16.5633 51.6029 15.7883C51.6029 15.0133 50.9746 14.385 50.1996 14.385C49.4246 14.385 48.7963 15.0133 48.7963 15.7883C48.7963 16.5633 49.4246 17.1916 50.1996 17.1916Z" fill="#F64749"/>
<path id="Vector_15" d="M57.3029 17.1916C58.0779 17.1916 58.7062 16.5633 58.7062 15.7883C58.7062 15.0133 58.0779 14.385 57.3029 14.385C56.5279 14.385 55.8997 15.0133 55.8997 15.7883C55.8997 16.5633 56.5279 17.1916 57.3029 17.1916Z" fill="#F64749"/>
<path id="Vector_16" d="M64.4063 17.1916C65.1813 17.1916 65.8095 16.5633 65.8095 15.7883C65.8095 15.0133 65.1813 14.385 64.4063 14.385C63.6313 14.385 63.003 15.0133 63.003 15.7883C63.003 16.5633 63.6313 17.1916 64.4063 17.1916Z" fill="#F64749"/>
<path id="Vector_17" d="M35.9929 24.3841C36.7679 24.3841 37.3962 23.7558 37.3962 22.9808C37.3962 22.2058 36.7679 21.5775 35.9929 21.5775C35.2179 21.5775 34.5896 22.2058 34.5896 22.9808C34.5896 23.7558 35.2179 24.3841 35.9929 24.3841Z" fill="#F64749"/>
<path id="Vector_18" d="M43.0962 24.3841C43.8712 24.3841 44.4995 23.7558 44.4995 22.9808C44.4995 22.2058 43.8712 21.5775 43.0962 21.5775C42.3212 21.5775 41.6929 22.2058 41.6929 22.9808C41.6929 23.7558 42.3212 24.3841 43.0962 24.3841Z" fill="#F64749"/>
<path id="Vector_19" d="M50.1996 24.3841C50.9746 24.3841 51.6029 23.7558 51.6029 22.9808C51.6029 22.2058 50.9746 21.5775 50.1996 21.5775C49.4246 21.5775 48.7963 22.2058 48.7963 22.9808C48.7963 23.7558 49.4246 24.3841 50.1996 24.3841Z" fill="#F64749"/>
<path id="Vector_20" d="M57.3029 24.3841C58.0779 24.3841 58.7062 23.7558 58.7062 22.9808C58.7062 22.2058 58.0779 21.5775 57.3029 21.5775C56.5279 21.5775 55.8997 22.2058 55.8997 22.9808C55.8997 23.7558 56.5279 24.3841 57.3029 24.3841Z" fill="#F64749"/>
<path id="Vector_21" d="M64.4063 24.3841C65.1813 24.3841 65.8095 23.7558 65.8095 22.9808C65.8095 22.2058 65.1813 21.5775 64.4063 21.5775C63.6313 21.5775 63.003 22.2058 63.003 22.9808C63.003 23.7558 63.6313 24.3841 64.4063 24.3841Z" fill="#F64749"/>
<path id="Vector_22" d="M71.5096 24.3841C72.2846 24.3841 72.9129 23.7558 72.9129 22.9808C72.9129 22.2058 72.2846 21.5775 71.5096 21.5775C70.7346 21.5775 70.1063 22.2058 70.1063 22.9808C70.1063 23.7558 70.7346 24.3841 71.5096 24.3841Z" fill="#F64749"/>
<path id="Vector_23" d="M78.613 24.3841C79.388 24.3841 80.0163 23.7558 80.0163 22.9808C80.0163 22.2058 79.388 21.5775 78.613 21.5775C77.838 21.5775 77.2097 22.2058 77.2097 22.9808C77.2097 23.7558 77.838 24.3841 78.613 24.3841Z" fill="#F64749"/>
<path id="Vector_24" d="M85.7163 24.3841C86.4913 24.3841 87.1196 23.7558 87.1196 22.9808C87.1196 22.2058 86.4913 21.5775 85.7163 21.5775C84.9413 21.5775 84.313 22.2058 84.313 22.9808C84.313 23.7558 84.9413 24.3841 85.7163 24.3841Z" fill="#F64749"/>
<path id="Vector_25" d="M92.8197 24.3841C93.5947 24.3841 94.2229 23.7558 94.2229 22.9808C94.2229 22.2058 93.5947 21.5775 92.8197 21.5775C92.0447 21.5775 91.4164 22.2058 91.4164 22.9808C91.4164 23.7558 92.0447 24.3841 92.8197 24.3841Z" fill="#F64749"/>
<path id="Vector_26" d="M99.9231 24.3841C100.698 24.3841 101.326 23.7558 101.326 22.9808C101.326 22.2058 100.698 21.5775 99.9231 21.5775C99.148 21.5775 98.5198 22.2058 98.5198 22.9808C98.5198 23.7558 99.148 24.3841 99.9231 24.3841Z" fill="#F64749"/>
<path id="Vector_27" d="M64.4063 31.5766C65.1813 31.5766 65.8095 30.9483 65.8095 30.1733C65.8095 29.3983 65.1813 28.77 64.4063 28.77C63.6313 28.77 63.003 29.3983 63.003 30.1733C63.003 30.9483 63.6313 31.5766 64.4063 31.5766Z" fill="#F64749"/>
<path id="Vector_28" d="M71.5096 31.5766C72.2846 31.5766 72.9129 30.9483 72.9129 30.1733C72.9129 29.3983 72.2846 28.77 71.5096 28.77C70.7346 28.77 70.1063 29.3983 70.1063 30.1733C70.1063 30.9483 70.7346 31.5766 71.5096 31.5766Z" fill="#33D4EF"/>
<path id="Vector_29" d="M78.613 31.5766C79.388 31.5766 80.0163 30.9483 80.0163 30.1733C80.0163 29.3983 79.388 28.77 78.613 28.77C77.838 28.77 77.2097 29.3983 77.2097 30.1733C77.2097 30.9483 77.838 31.5766 78.613 31.5766Z" fill="#F64749"/>
<path id="Vector_30" d="M85.7163 31.5766C86.4913 31.5766 87.1196 30.9483 87.1196 30.1733C87.1196 29.3983 86.4913 28.77 85.7163 28.77C84.9413 28.77 84.313 29.3983 84.313 30.1733C84.313 30.9483 84.9413 31.5766 85.7163 31.5766Z" fill="#F64749"/>
<path id="Vector_31" d="M92.8197 31.5766C93.5947 31.5766 94.2229 30.9483 94.2229 30.1733C94.2229 29.3983 93.5947 28.77 92.8197 28.77C92.0447 28.77 91.4164 29.3983 91.4164 30.1733C91.4164 30.9483 92.0447 31.5766 92.8197 31.5766Z" fill="#F64749"/>
<path id="Vector_32" d="M99.9231 31.5766C100.698 31.5766 101.326 30.9483 101.326 30.1733C101.326 29.3983 100.698 28.77 99.9231 28.77C99.148 28.77 98.5198 29.3983 98.5198 30.1733C98.5198 30.9483 99.148 31.5766 99.9231 31.5766Z" fill="#F64749"/>
<path id="Vector_33" d="M64.4063 38.7691C65.1813 38.7691 65.8095 38.1408 65.8095 37.3658C65.8095 36.5908 65.1813 35.9625 64.4063 35.9625C63.6313 35.9625 63.003 36.5908 63.003 37.3658C63.003 38.1408 63.6313 38.7691 64.4063 38.7691Z" fill="#F64749"/>
<path id="Vector_34" d="M71.5096 38.7691C72.2846 38.7691 72.9129 38.1408 72.9129 37.3658C72.9129 36.5908 72.2846 35.9625 71.5096 35.9625C70.7346 35.9625 70.1063 36.5908 70.1063 37.3658C70.1063 38.1408 70.7346 38.7691 71.5096 38.7691Z" fill="#F64749"/>
<path id="Vector_35" d="M78.613 38.7691C79.388 38.7691 80.0163 38.1408 80.0163 37.3658C80.0163 36.5908 79.388 35.9625 78.613 35.9625C77.838 35.9625 77.2097 36.5908 77.2097 37.3658C77.2097 38.1408 77.838 38.7691 78.613 38.7691Z" fill="#F64749"/>
<path id="Vector_36" d="M85.7163 38.7691C86.4913 38.7691 87.1196 38.1408 87.1196 37.3658C87.1196 36.5908 86.4913 35.9625 85.7163 35.9625C84.9413 35.9625 84.313 36.5908 84.313 37.3658C84.313 38.1408 84.9413 38.7691 85.7163 38.7691Z" fill="#F64749"/>
<path id="Vector_37" d="M92.8197 38.7691C93.5947 38.7691 94.2229 38.1408 94.2229 37.3658C94.2229 36.5908 93.5947 35.9625 92.8197 35.9625C92.0447 35.9625 91.4164 36.5908 91.4164 37.3658C91.4164 38.1408 92.0447 38.7691 92.8197 38.7691Z" fill="#33D4EF"/>
<path id="Vector_38" d="M99.9231 38.7691C100.698 38.7691 101.326 38.1408 101.326 37.3658C101.326 36.5908 100.698 35.9625 99.9231 35.9625C99.148 35.9625 98.5198 36.5908 98.5198 37.3658C98.5198 38.1408 99.148 38.7691 99.9231 38.7691Z" fill="#F64749"/>
<path id="Vector_39" d="M64.4063 45.9616C65.1813 45.9616 65.8095 45.3333 65.8095 44.5583C65.8095 43.7833 65.1813 43.155 64.4063 43.155C63.6313 43.155 63.003 43.7833 63.003 44.5583C63.003 45.3333 63.6313 45.9616 64.4063 45.9616Z" fill="#F64749"/>
<path id="Vector_40" d="M71.5096 45.9616C72.2846 45.9616 72.9129 45.3333 72.9129 44.5583C72.9129 43.7833 72.2846 43.155 71.5096 43.155C70.7346 43.155 70.1063 43.7833 70.1063 44.5583C70.1063 45.3333 70.7346 45.9616 71.5096 45.9616Z" fill="#F64749"/>
<path id="Vector_41" d="M78.613 45.9616C79.388 45.9616 80.0163 45.3333 80.0163 44.5583C80.0163 43.7833 79.388 43.155 78.613 43.155C77.838 43.155 77.2097 43.7833 77.2097 44.5583C77.2097 45.3333 77.838 45.9616 78.613 45.9616Z" fill="#F64749"/>
<path id="Vector_42" d="M85.7163 45.9616C86.4913 45.9616 87.1196 45.3333 87.1196 44.5583C87.1196 43.7833 86.4913 43.155 85.7163 43.155C84.9413 43.155 84.313 43.7833 84.313 44.5583C84.313 45.3333 84.9413 45.9616 85.7163 45.9616Z" fill="#F64749"/>
<path id="Vector_43" d="M92.8197 45.9616C93.5947 45.9616 94.2229 45.3333 94.2229 44.5583C94.2229 43.7833 93.5947 43.155 92.8197 43.155C92.0447 43.155 91.4164 43.7833 91.4164 44.5583C91.4164 45.3333 92.0447 45.9616 92.8197 45.9616Z" fill="#F64749"/>
<path id="Vector_44" d="M99.9231 45.9616C100.698 45.9616 101.326 45.3333 101.326 44.5583C101.326 43.7833 100.698 43.155 99.9231 43.155C99.148 43.155 98.5198 43.7833 98.5198 44.5583C98.5198 45.3333 99.148 45.9616 99.9231 45.9616Z" fill="#F64749"/>
<path id="Vector_45" d="M35.9929 53.1541C36.7679 53.1541 37.3962 52.5258 37.3962 51.7508C37.3962 50.9758 36.7679 50.3475 35.9929 50.3475C35.2179 50.3475 34.5896 50.9758 34.5896 51.7508C34.5896 52.5258 35.2179 53.1541 35.9929 53.1541Z" fill="#F64749"/>
<path id="Vector_46" d="M43.0962 53.1541C43.8712 53.1541 44.4995 52.5258 44.4995 51.7508C44.4995 50.9758 43.8712 50.3475 43.0962 50.3475C42.3212 50.3475 41.6929 50.9758 41.6929 51.7508C41.6929 52.5258 42.3212 53.1541 43.0962 53.1541Z" fill="#F64749"/>
<path id="Vector_47" d="M50.1996 53.1541C50.9746 53.1541 51.6029 52.5258 51.6029 51.7508C51.6029 50.9758 50.9746 50.3475 50.1996 50.3475C49.4246 50.3475 48.7963 50.9758 48.7963 51.7508C48.7963 52.5258 49.4246 53.1541 50.1996 53.1541Z" fill="#F64749"/>
<path id="Vector_48" d="M57.3029 53.1541C58.0779 53.1541 58.7062 52.5258 58.7062 51.7508C58.7062 50.9758 58.0779 50.3475 57.3029 50.3475C56.5279 50.3475 55.8997 50.9758 55.8997 51.7508C55.8997 52.5258 56.5279 53.1541 57.3029 53.1541Z" fill="#F64749"/>
<path id="Vector_49" d="M64.4063 53.1541C65.1813 53.1541 65.8095 52.5258 65.8095 51.7508C65.8095 50.9758 65.1813 50.3475 64.4063 50.3475C63.6313 50.3475 63.003 50.9758 63.003 51.7508C63.003 52.5258 63.6313 53.1541 64.4063 53.1541Z" fill="#F64749"/>
<path id="Vector_50" d="M71.5096 53.1541C72.2846 53.1541 72.9129 52.5258 72.9129 51.7508C72.9129 50.9758 72.2846 50.3475 71.5096 50.3475C70.7346 50.3475 70.1063 50.9758 70.1063 51.7508C70.1063 52.5258 70.7346 53.1541 71.5096 53.1541Z" fill="#F64749"/>
<path id="Vector_51" d="M78.613 53.1541C79.388 53.1541 80.0163 52.5258 80.0163 51.7508C80.0163 50.9758 79.388 50.3475 78.613 50.3475C77.838 50.3475 77.2097 50.9758 77.2097 51.7508C77.2097 52.5258 77.838 53.1541 78.613 53.1541Z" fill="#F64749"/>
<path id="Vector_52" d="M85.7163 53.1541C86.4913 53.1541 87.1196 52.5258 87.1196 51.7508C87.1196 50.9758 86.4913 50.3475 85.7163 50.3475C84.9413 50.3475 84.313 50.9758 84.313 51.7508C84.313 52.5258 84.9413 53.1541 85.7163 53.1541Z" fill="#F64749"/>
<path id="Vector_53" d="M92.8197 53.1541C93.5947 53.1541 94.2229 52.5258 94.2229 51.7508C94.2229 50.9758 93.5947 50.3475 92.8197 50.3475C92.0447 50.3475 91.4164 50.9758 91.4164 51.7508C91.4164 52.5258 92.0447 53.1541 92.8197 53.1541Z" fill="#F64749"/>
<path id="Vector_54" d="M99.9231 53.1541C100.698 53.1541 101.326 52.5258 101.326 51.7508C101.326 50.9758 100.698 50.3475 99.9231 50.3475C99.148 50.3475 98.5198 50.9758 98.5198 51.7508C98.5198 52.5258 99.148 53.1541 99.9231 53.1541Z" fill="#F64749"/>
<path id="Vector_55" d="M35.9921 60.3464C36.7671 60.3464 37.3954 59.7181 37.3954 58.9431C37.3954 58.1681 36.7671 57.5399 35.9921 57.5399C35.2171 57.5399 34.5888 58.1681 34.5888 58.9431C34.5888 59.7181 35.2171 60.3464 35.9921 60.3464Z" fill="#F64749"/>
<path id="Vector_56" d="M43.0962 60.3467C43.8712 60.3467 44.4995 59.7184 44.4995 58.9434C44.4995 58.1684 43.8712 57.5401 43.0962 57.5401C42.3212 57.5401 41.6929 58.1684 41.6929 58.9434C41.6929 59.7184 42.3212 60.3467 43.0962 60.3467Z" fill="#F64749"/>
<path id="Vector_57" d="M35.9921 67.5388C36.7671 67.5388 37.3954 66.9106 37.3954 66.1356C37.3954 65.3606 36.7671 64.7323 35.9921 64.7323C35.2171 64.7323 34.5888 65.3606 34.5888 66.1356C34.5888 66.9106 35.2171 67.5388 35.9921 67.5388Z" fill="#F64749"/>
<path id="Vector_58" d="M43.0962 67.5392C43.8712 67.5392 44.4995 66.9109 44.4995 66.1359C44.4995 65.3609 43.8712 64.7326 43.0962 64.7326C42.3212 64.7326 41.6929 65.3609 41.6929 66.1359C41.6929 66.9109 42.3212 67.5392 43.0962 67.5392Z" fill="#F64749"/>
<path id="Vector_59" d="M57.3029 67.5392C58.0779 67.5392 58.7062 66.9109 58.7062 66.1359C58.7062 65.3609 58.0779 64.7326 57.3029 64.7326C56.5279 64.7326 55.8997 65.3609 55.8997 66.1359C55.8997 66.9109 56.5279 67.5392 57.3029 67.5392Z" fill="#F64749"/>
<path id="Vector_60" d="M128.107 16.5558H72.4978C72.2247 16.5555 71.963 16.4469 71.7699 16.2538C71.5769 16.0608 71.4683 15.799 71.468 15.526V1.73176C71.4683 1.45874 71.5769 1.197 71.7699 1.00394C71.963 0.810885 72.2247 0.702285 72.4978 0.701965H128.107C128.38 0.702285 128.642 0.810885 128.835 1.00394C129.028 1.197 129.136 1.45874 129.137 1.73176V15.526C129.136 15.799 129.028 16.0608 128.835 16.2538C128.642 16.4469 128.38 16.5555 128.107 16.5558ZM72.4978 1.11388C72.3339 1.11406 72.1769 1.17922 72.061 1.29505C71.9452 1.41089 71.8801 1.56795 71.8799 1.73176V15.526C71.8801 15.6898 71.9452 15.8469 72.061 15.9627C72.1769 16.0786 72.3339 16.1437 72.4978 16.1439H128.107C128.271 16.1437 128.428 16.0786 128.544 15.9627C128.659 15.8469 128.725 15.6898 128.725 15.526V1.73176C128.725 1.56795 128.659 1.41089 128.544 1.29505C128.428 1.17922 128.271 1.11406 128.107 1.11388H72.4978Z" fill="#F64749"/>
<path id="Vector_61" d="M79.7064 12.954C82.0951 12.954 84.0315 11.0176 84.0315 8.62886C84.0315 6.24015 82.0951 4.30371 79.7064 4.30371C77.3177 4.30371 75.3812 6.24015 75.3812 8.62886C75.3812 11.0176 77.3177 12.954 79.7064 12.954Z" fill="#33D4EF"/>
<path id="Vector_62" d="M89.6954 5.74542C89.5042 5.74542 89.3209 5.82137 89.1857 5.95655C89.0505 6.09174 88.9745 6.2751 88.9745 6.46628C88.9745 6.65746 89.0505 6.84082 89.1857 6.976C89.3209 7.11119 89.5042 7.18714 89.6954 7.18714H108.85C109.041 7.18714 109.224 7.11119 109.359 6.976C109.495 6.84082 109.571 6.65746 109.571 6.46628C109.571 6.2751 109.495 6.09174 109.359 5.95655C109.224 5.82137 109.041 5.74542 108.85 5.74542H89.6954Z" fill="#F64749"/>
<path id="Vector_63" d="M89.6954 10.0706C89.5042 10.0706 89.3209 10.1465 89.1857 10.2817C89.0505 10.4169 88.9745 10.6002 88.9745 10.7914C88.9745 10.9826 89.0505 11.166 89.1857 11.3011C89.3209 11.4363 89.5042 11.5123 89.6954 11.5123H123.679C123.87 11.5123 124.053 11.4363 124.188 11.3011C124.324 11.166 124.4 10.9826 124.4 10.7914C124.4 10.6002 124.324 10.4169 124.188 10.2817C124.053 10.1465 123.87 10.0706 123.679 10.0706H89.6954Z" fill="#F64749"/>
<path id="Vector_64" d="M56.639 44.5663H1.0298C0.756777 44.566 0.49503 44.4574 0.301975 44.2643C0.10892 44.0713 0.000319964 43.8095 0 43.5365V29.7423C0.000319964 29.4692 0.10892 29.2075 0.301975 29.0144C0.49503 28.8214 0.756777 28.7128 1.0298 28.7125H56.639C56.912 28.7128 57.1738 28.8214 57.3668 29.0144C57.5599 29.2075 57.6685 29.4692 57.6688 29.7423V43.5365C57.6685 43.8095 57.5599 44.0713 57.3668 44.2643C57.1737 44.4574 56.912 44.566 56.639 44.5663ZM1.0298 29.1244C0.865981 29.1246 0.708925 29.1897 0.593089 29.3056C0.477253 29.4214 0.412098 29.5784 0.411919 29.7423V43.5365C0.412098 43.7003 0.477253 43.8574 0.593089 43.9732C0.708925 44.0891 0.865981 44.1542 1.0298 44.1544H56.639C56.8028 44.1542 56.9599 44.0891 57.0757 43.9732C57.1915 43.8574 57.2567 43.7003 57.2569 43.5365V29.7423C57.2567 29.5784 57.1915 29.4214 57.0757 29.3056C56.9599 29.1897 56.8028 29.1246 56.639 29.1244H1.0298Z" fill="#F64749"/>
<path id="Vector_65" d="M8.23836 40.9645C10.6271 40.9645 12.5635 39.0281 12.5635 36.6394C12.5635 34.2506 10.6271 32.3142 8.23836 32.3142C5.84964 32.3142 3.91321 34.2506 3.91321 36.6394C3.91321 39.0281 5.84964 40.9645 8.23836 40.9645Z" fill="#33D4EF"/>
<path id="Vector_66" d="M18.2275 33.7559C18.0363 33.7559 17.8529 33.8319 17.7177 33.9671C17.5825 34.1022 17.5066 34.2856 17.5066 34.4768C17.5066 34.668 17.5825 34.8513 17.7177 34.9865C17.8529 35.1217 18.0363 35.1976 18.2275 35.1976H38.2055C38.3967 35.1976 38.5801 35.1217 38.7153 34.9865C38.8504 34.8513 38.9264 34.668 38.9264 34.4768C38.9264 34.2856 38.8504 34.1022 38.7153 33.9671C38.5801 33.8319 38.3967 33.7559 38.2055 33.7559H18.2275Z" fill="#F64749"/>
<path id="Vector_67" d="M18.2275 38.0811C18.0363 38.0811 17.8529 38.157 17.7177 38.2922C17.5825 38.4274 17.5066 38.6107 17.5066 38.8019C17.5066 38.9931 17.5825 39.1765 17.7177 39.3116C17.8529 39.4468 18.0363 39.5228 18.2275 39.5228H52.2108C52.402 39.5228 52.5853 39.4468 52.7205 39.3116C52.8557 39.1765 52.9316 38.9931 52.9316 38.8019C52.9316 38.6107 52.8557 38.4274 52.7205 38.2922C52.5853 38.157 52.402 38.0811 52.2108 38.0811H18.2275Z" fill="#F64749"/>
<path id="Vector_68" d="M106.893 74.8424H51.2839C51.0109 74.8421 50.7492 74.7335 50.5561 74.5404C50.3631 74.3473 50.2545 74.0856 50.2542 73.8126V60.0183C50.2545 59.7453 50.3631 59.4836 50.5561 59.2905C50.7492 59.0974 51.0109 58.9888 51.2839 58.9885H106.893C107.166 58.9888 107.428 59.0974 107.621 59.2905C107.814 59.4836 107.923 59.7453 107.923 60.0183V73.8126C107.923 74.0856 107.814 74.3473 107.621 74.5404C107.428 74.7334 107.166 74.8421 106.893 74.8424ZM51.2839 59.4004C51.1201 59.4006 50.9631 59.4658 50.8472 59.5816C50.7314 59.6975 50.6662 59.8545 50.6661 60.0183V73.8126C50.6662 73.9764 50.7314 74.1335 50.8472 74.2493C50.9631 74.3651 51.1201 74.4303 51.2839 74.4305H106.893C107.057 74.4303 107.214 74.3651 107.33 74.2493C107.446 74.1335 107.511 73.9764 107.511 73.8126V60.0183C107.511 59.8545 107.446 59.6975 107.33 59.5816C107.214 59.4658 107.057 59.4006 106.893 59.4004H51.2839Z" fill="#3F3D56"/>
<path id="Vector_69" d="M58.4925 71.2406C60.8812 71.2406 62.8177 69.3041 62.8177 66.9154C62.8177 64.5267 60.8812 62.5903 58.4925 62.5903C56.1038 62.5903 54.1674 64.5267 54.1674 66.9154C54.1674 69.3041 56.1038 71.2406 58.4925 71.2406Z" fill="#33D4EF"/>
<path id="Vector_70" d="M68.4815 64.032C68.2904 64.032 68.107 64.1079 67.9718 64.2431C67.8366 64.3783 67.7607 64.5617 67.7607 64.7528C67.7607 64.944 67.8366 65.1274 67.9718 65.2626C68.107 65.3978 68.2904 65.4737 68.4815 65.4737H86.8119C87.0031 65.4737 87.1865 65.3978 87.3217 65.2626C87.4569 65.1274 87.5328 64.944 87.5328 64.7528C87.5328 64.5617 87.4569 64.3783 87.3217 64.2431C87.1865 64.1079 87.0031 64.032 86.8119 64.032H68.4815Z" fill="#F64749"/>
<path id="Vector_71" d="M68.4815 68.3571C68.2904 68.3571 68.107 68.4331 67.9718 68.5683C67.8366 68.7034 67.7607 68.8868 67.7607 69.078C67.7607 69.2692 67.8366 69.4525 67.9718 69.5877C68.107 69.7229 68.2904 69.7988 68.4815 69.7988H102.465C102.656 69.7988 102.839 69.7229 102.975 69.5877C103.11 69.4525 103.186 69.2692 103.186 69.078C103.186 68.8868 103.11 68.7034 102.975 68.5683C102.839 68.4331 102.656 68.3571 102.465 68.3571H68.4815Z" fill="#F64749"/>
<path id="Vector_72" d="M136.809 71.344C134.393 78.5891 124.514 70.9049 124.514 70.9049L127.148 43.4613C131.1 40.3876 135.272 43.0222 135.272 43.0222L136.809 71.344Z" fill="#F64749"/>
<path id="Vector_73" d="M136.29 95.6595L139.656 95.695L138.815 105.399L136.29 105.399L136.29 95.6595Z" fill="#FFB8B8"/>
<path id="Vector_74" d="M135.646 104.574H140.619C141.459 104.575 142.264 104.91 142.859 105.504C143.453 106.098 143.787 106.903 143.788 107.743V107.846H135.646V104.574Z" fill="#2F2E41"/>
<path id="Vector_75" d="M127.164 95.6596L123.437 95.6594L124.638 105.399L127.163 105.399L127.164 95.6596Z" fill="#FFB8B8"/>
<path id="Vector_76" d="M119.666 107.846V107.743C119.666 106.903 119.999 106.097 120.594 105.503C121.188 104.908 121.994 104.574 122.835 104.574L127.807 104.575L127.807 107.847L119.666 107.846Z" fill="#2F2E41"/>
<path id="Vector_77" d="M136.063 103.718L131.652 78.0094L127.566 103.386L123.426 103.616L122.322 69.6155L122.406 69.5969C123.09 69.4436 139.199 65.9055 141.84 70.967L141.853 70.9926L139.649 103.834L136.063 103.718Z" fill="#33D4EF"/>
<path id="Vector_78" d="M131.389 40.2452C134.182 40.2452 136.447 37.9804 136.447 35.1866C136.447 32.3929 134.182 30.1281 131.389 30.1281C128.595 30.1281 126.33 32.3929 126.33 35.1866C126.33 37.9804 128.595 40.2452 131.389 40.2452Z" fill="#FFB8B8"/>
<path id="Vector_79" d="M135.638 73.512C135.045 73.3478 134.618 72.6669 134.294 71.369C134.238 71.1452 128.986 48.7728 133.427 44.7195L134.451 41.8756L135.852 42.8097C136.348 42.8143 141.417 42.9426 141.85 46.1921C142.275 49.3728 143.429 70.6834 142.269 72.009C142.246 72.0381 142.217 72.0619 142.184 72.0787C142.151 72.0954 142.115 72.1046 142.078 72.1056C140.902 72.1056 140.544 70.8006 140.461 70.3846C140.181 70.5005 139.348 70.9261 137.979 72.295C137.131 73.1429 136.466 73.5493 135.917 73.5493C135.823 73.5496 135.729 73.537 135.638 73.512Z" fill="#2F2E41"/>
<path id="Vector_80" d="M124.661 72.295C123.291 70.9257 122.458 70.5002 122.179 70.3846C122.095 70.8006 121.738 72.1056 120.562 72.1056C120.525 72.1046 120.489 72.0954 120.456 72.0786C120.423 72.0619 120.394 72.0382 120.371 72.009C119.211 70.6835 120.365 49.3729 120.789 46.1921C121.222 42.9426 126.292 42.8143 126.788 42.8097L128.189 41.8756L129.212 44.7195C133.654 48.7725 128.402 71.1452 128.346 71.369C128.022 72.6669 127.594 73.3478 127.001 73.512C126.911 73.5371 126.817 73.5496 126.723 73.5493C126.173 73.5493 125.508 73.1428 124.661 72.295Z" fill="#2F2E41"/>
<path id="Vector_81" d="M135.565 38.0762C136.421 37.4606 137.069 36.5991 137.423 35.6063C137.777 34.6134 137.821 33.5362 137.548 32.518C137.275 31.4998 136.698 30.5888 135.895 29.9062C135.092 29.2237 134.1 28.8018 133.051 28.6968C132.585 28.6502 132.083 28.6571 131.697 28.3927C131.354 28.1577 131.17 27.7502 130.854 27.4791C130.654 27.3242 130.424 27.2123 130.179 27.1505C129.933 27.0886 129.678 27.078 129.428 27.1195C128.929 27.2054 128.446 27.3642 127.994 27.5907C126.872 28.0908 125.68 28.7062 125.169 29.8232C124.727 30.7908 124.922 31.9839 125.548 32.8441C126.206 33.6954 127.166 34.262 128.229 34.427C129.286 34.5849 130.366 34.4877 131.377 34.1436C132.045 33.9335 132.704 33.6472 133.403 33.6238C133.949 33.6056 134.489 33.7501 134.952 34.0391C135.416 34.3281 135.783 34.7484 136.007 35.2467C136.231 35.7449 136.302 36.2985 136.21 36.8371C136.119 37.3756 135.869 37.8748 135.493 38.2711" fill="#2F2E41"/>
<path id="Vector_82" d="M107.993 68.1688C108.285 68.162 108.573 68.0978 108.84 67.9797C109.107 67.8617 109.349 67.6922 109.551 67.4809C109.752 67.2696 109.91 67.0207 110.016 66.7483C110.121 66.4758 110.172 66.1853 110.166 65.8933L113.116 60.916L110.836 58.8264L107.729 63.7304C107.155 63.7855 106.626 64.0608 106.251 64.4985C105.877 64.9362 105.687 65.502 105.721 66.077C105.755 66.652 106.011 67.1913 106.435 67.5814C106.859 67.9716 107.417 68.1821 107.993 68.1688Z" fill="#FFB8B8"/>
<path id="Vector_83" d="M142.218 73.6215C142.463 73.4619 142.674 73.2558 142.839 73.0147C143.004 72.7737 143.12 72.5025 143.18 72.2166C143.24 71.9308 143.243 71.6359 143.19 71.3487C143.136 71.0616 143.026 70.7878 142.867 70.5431L142.754 64.7584L139.716 64.1821L139.656 69.9874C139.198 70.3362 138.892 70.8492 138.805 71.4184C138.717 71.9877 138.853 72.5689 139.185 73.0397C139.517 73.5105 140.018 73.8342 140.584 73.9427C141.15 74.0512 141.735 73.9361 142.218 73.6215Z" fill="#FFB8B8"/>
<path id="Vector_84" d="M108.891 60.1657L108.856 60.111L108.89 60.0563C113.315 52.9509 122.603 44.0752 122.696 43.9863L122.726 43.9584L123.873 43.9466L125.113 47.036C124.727 47.7787 114.321 62.2996 112.947 63.2627C112.838 63.3385 112.714 63.3904 112.583 63.415C112.452 63.4396 112.318 63.4365 112.188 63.4057C111.96 63.3529 111.742 63.2601 111.545 63.1317C110.277 62.3464 108.956 60.2684 108.891 60.1657Z" fill="#2F2E41"/>
<path id="Vector_85" d="M139.138 68.2736C139.014 68.2315 138.901 68.1643 138.805 68.0763C138.709 67.9882 138.633 67.8812 138.58 67.7619C137.918 66.2162 140.757 46.6918 140.878 45.8614L140.901 45.7043L141.861 46.3126L141.87 46.354C141.899 46.4787 144.694 58.9169 143.937 67.1819L143.931 67.241L143.877 67.2659C143.762 67.3194 141.433 68.389 139.881 68.389C139.628 68.3956 139.376 68.3565 139.138 68.2736Z" fill="#2F2E41"/>
<path id="Vector_86" d="M158.262 108H103.476C103.422 108 103.369 107.978 103.331 107.94C103.292 107.901 103.271 107.849 103.271 107.794C103.271 107.739 103.292 107.687 103.331 107.648C103.369 107.61 103.422 107.588 103.476 107.588H158.262C158.316 107.588 158.369 107.61 158.407 107.648C158.446 107.687 158.468 107.739 158.468 107.794C158.468 107.849 158.446 107.901 158.407 107.94C158.369 107.978 158.316 108 158.262 108Z" fill="#3F3D56"/>
</g>
<defs>
<clipPath id="clip0_0_1015">
<rect width="158.468" height="108" fill="white"/>
</clipPath>
</defs>
</svg>
