<svg width="59" height="81" viewBox="0 0 59 81" fill="none" xmlns="http://www.w3.org/2000/svg">
<g id="Group">
<path id="Vector" d="M58.7408 49.7133V65.6302C58.7414 68.7631 56.1964 71.3035 53.0566 71.3041H44.2062V65.9734H50.9902C52.3206 65.9734 53.3989 64.8959 53.3989 63.5681V51.776C53.3989 50.4477 52.3206 49.3709 50.9902 49.3709H44.206V44.0401H53.0565C56.1962 44.0406 58.7413 46.5804 58.7407 49.7133H58.7408ZM6.05567 28.6516H44.3673C44.5572 28.6515 44.7452 28.6887 44.9207 28.7611C45.0962 28.8335 45.2557 28.9397 45.39 29.0736C45.5244 29.2075 45.631 29.3665 45.7038 29.5415C45.7766 29.7165 45.8141 29.9041 45.8142 30.0936V37.6284C45.8141 37.8179 45.7766 38.0055 45.7038 38.1805C45.631 38.3556 45.5244 38.5146 45.39 38.6485C45.2556 38.7824 45.0961 38.8886 44.9206 38.961C44.7451 39.0333 44.557 39.0705 44.3671 39.0704H1.4444C0.646852 39.0704 0 38.4249 0 37.6285L0 30.0934C0 29.2971 0.646852 28.6516 1.4444 28.6516H6.05567Z" fill="#E9CA1C"/>
<path id="Vector_2" d="M44.206 71.3041V73.1944C44.206 77.289 40.8791 80.6089 36.7757 80.6089H8.92702C4.85297 80.5776 1.5758 77.2578 1.6053 73.1924L1.6053 39.0703H44.206V71.3041ZM29.2575 7.65649H39.8046V28.6516H29.2575V7.65649Z" fill="#2EC2F1"/>
<path id="Vector_3" d="M12.4116 0.706543L18.7296 9.60035H6.09424L12.4116 0.706543Z" fill="#CA1416"/>
<path id="Vector_4" d="M14.812 28.5294V28.6515H10.0114V28.5294L10.0571 9.60034H14.7668L14.812 28.5294Z" fill="#2EC2F1"/>
<g id="Group_2">
<path id="Vector_5" d="M36.8528 11.0522C36.4972 11.0522 36.1561 11.1932 35.9046 11.4442C35.6532 11.6951 35.5119 12.0355 35.5119 12.3904C35.5119 12.7453 35.6532 13.0856 35.9046 13.3366C36.1561 13.5875 36.4972 13.7285 36.8528 13.7285H39.7628V11.0522H36.8528ZM33.8973 16.4047C33.8973 16.7596 34.0386 17.1 34.2901 17.3509C34.5416 17.6019 34.8827 17.7428 35.2383 17.7428H39.7628V15.0666H35.2383C34.8827 15.0666 34.5416 15.2076 34.2901 15.4585C34.0386 15.7095 33.8973 16.0498 33.8973 16.4047ZM35.5119 20.4191C35.5119 20.774 35.6532 21.1143 35.9046 21.3653C36.1561 21.6162 36.4972 21.7572 36.8528 21.7572H39.7628V19.081H36.8528C36.4972 19.081 36.1561 19.2219 35.9046 19.4729C35.6532 19.7238 35.5119 20.0642 35.5119 20.4191ZM33.8973 24.6007C33.8973 24.9556 34.0386 25.2959 34.2901 25.5469C34.5416 25.7978 34.8827 25.9388 35.2383 25.9388H39.7628V23.2626H35.2383C34.8827 23.2626 34.5416 23.4036 34.2901 23.6545C34.0386 23.9055 33.8973 24.2458 33.8973 24.6007Z" fill="#E9CA1C"/>
</g>
<path id="Vector_6" d="M24.1739 7.70703H29.2025V28.6151H24.1739V7.70703ZM14.7871 28.6151H18.7681L18.7295 9.54694H14.767L14.7871 28.5295V28.6151ZM6.05566 28.6151H10.0937V28.5295L10.0571 9.54694H6.09422L6.05566 28.6151Z" fill="#F64749"/>
</g>
</svg>
