<svg width="120" height="120" viewBox="0 0 120 120" fill="none" xmlns="http://www.w3.org/2000/svg">
<g id="shape5" clip-path="url(#clip0_0_496)">
<g id="Group">
<path id="Vector" d="M110.893 116.37L116.37 110.893C119.019 108.245 118.832 103.896 115.965 101.485L79.3852 70.7146L70.7143 79.3855L101.485 115.965C103.896 118.832 108.245 119.019 110.893 116.37Z" fill="#766E6E"/>
<path id="Vector_2" d="M110.893 116.37L115.923 111.34C113.275 113.989 108.927 113.803 106.516 110.936L75.7444 74.3562L70.7143 79.3864L101.486 115.966C103.897 118.833 108.244 119.019 110.893 116.37Z" fill="#5B5555"/>
<path id="Vector_3" d="M95.5374 108.891L101.487 115.966C103.897 118.833 108.246 119.018 110.893 116.369L116.369 110.893C119.018 108.246 118.833 103.897 115.966 101.487L84.7677 75.2429M75.2427 84.7678L90.2744 102.636" stroke="#F64749" stroke-width="3" stroke-miterlimit="10" stroke-linecap="round" stroke-linejoin="round"/>
<path id="Vector_4" d="M90.8394 31.4255C84.2402 14.0823 67.4573 1.7583 47.798 1.7583C22.3717 1.7583 1.7582 22.3718 1.7582 47.7981C1.7582 73.2244 22.3717 93.8379 47.798 93.8379C73.2243 93.8379 93.8378 73.2244 93.8378 47.7981C93.8378 44.8583 93.5611 41.9842 93.036 39.1968" stroke="#F64749" stroke-width="3" stroke-miterlimit="10" stroke-linecap="round" stroke-linejoin="round"/>
</g>
</g>
<defs>
<clipPath id="clip0_0_496">
<rect width="120" height="120" fill="white" transform="matrix(-1 0 0 1 120 0)"/>
</clipPath>
</defs>
</svg>
