<svg width="62" height="62" viewBox="0 0 62 62" fill="none" xmlns="http://www.w3.org/2000/svg">
<g id="shape1 1" clip-path="url(#clip0_0_491)">
<g id="Group">
<path id="1 Diamond" d="M53.1967 26.9479C53.5117 26.6115 53.735 26.1998 53.8451 25.7523C53.9552 25.3048 53.9484 24.8365 53.8254 24.3924C53.7024 23.9483 53.4672 23.5432 53.1426 23.2161C52.8179 22.889 52.4147 22.6509 51.9715 22.5246C47.3036 21.2089 42.8112 19.3358 38.5914 16.9455C34.3742 14.5564 30.4601 11.6681 26.9336 8.34297C26.5978 8.02729 26.1865 7.80322 25.7392 7.69227C25.292 7.58132 24.8237 7.58721 24.3793 7.70938C23.9349 7.83155 23.5294 8.06589 23.2017 8.38991C22.874 8.71393 22.6351 9.11675 22.5079 9.55971C21.1768 14.2187 19.2982 18.7035 16.9113 22.9203C14.5232 27.1374 11.6436 31.0565 8.33292 34.5958C8.0186 34.9328 7.7962 35.345 7.68705 35.7927C7.57791 36.2405 7.5857 36.7087 7.70966 37.1526C7.83362 37.5965 8.0696 38.001 8.39495 38.3274C8.72029 38.6538 9.12408 38.8911 9.56754 39.0165C14.2204 40.3252 18.699 42.1884 22.907 44.5662C27.1392 46.9583 31.0667 49.8534 34.6038 53.1884C34.9401 53.5034 35.3518 53.7267 35.7993 53.8368C36.2468 53.9469 36.7151 53.9401 37.1593 53.8171C37.6034 53.6941 38.0084 53.459 38.3355 53.1343C38.6626 52.8097 38.9007 52.4064 39.0271 51.9632C41.6771 42.6096 46.5368 34.0301 53.1967 26.9479Z" fill="#F64749"/>
</g>
</g>
<defs>
<clipPath id="clip0_0_491">
<rect width="50" height="50" fill="white" transform="translate(0 13.3469) rotate(-15.4822)"/>
</clipPath>
</defs>
</svg>
